<?xml version="1.0" encoding="utf-8" standalone="no"?>
<!DOCTYPE svg PUBLIC "-//W3C//DTD SVG 1.1//EN"
  "http://www.w3.org/Graphics/SVG/1.1/DTD/svg11.dtd">
<!-- Created with matplotlib (https://matplotlib.org/) -->
<svg height="720pt" version="1.1" viewBox="0 0 1800 720" width="1800pt" xmlns="http://www.w3.org/2000/svg" xmlns:xlink="http://www.w3.org/1999/xlink">
 <defs>
  <style type="text/css">
*{stroke-linecap:butt;stroke-linejoin:round;}
  </style>
 </defs>
 <g id="figure_1">
  <g id="patch_1">
   <path d="M 0 720 
L 1800 720 
L 1800 0 
L 0 0 
z
" style="fill:#ffffff;"/>
  </g>
  <g id="axes_1">
   <g id="patch_2">
    <path d="M 225 630 
L 1620 630 
L 1620 86.4 
L 225 86.4 
z
" style="fill:#ffffff;"/>
   </g>
   <g id="matplotlib.axis_1">
    <g id="xtick_1">
     <g id="line2d_1">
      <defs>
       <path d="M 0 0 
L 0 3.5 
" id="mcec33c512d" style="stroke:#000000;stroke-width:0.8;"/>
      </defs>
      <g>
       <use style="stroke:#000000;stroke-width:0.8;" x="225" xlink:href="#mcec33c512d" y="630"/>
      </g>
     </g>
     <g id="text_1">
      <!-- 0 -->
      <defs>
       <path d="M 31.78125 66.40625 
Q 24.171875 66.40625 20.328125 58.90625 
Q 16.5 51.421875 16.5 36.375 
Q 16.5 21.390625 20.328125 13.890625 
Q 24.171875 6.390625 31.78125 6.390625 
Q 39.453125 6.390625 43.28125 13.890625 
Q 47.125 21.390625 47.125 36.375 
Q 47.125 51.421875 43.28125 58.90625 
Q 39.453125 66.40625 31.78125 66.40625 
z
M 31.78125 74.21875 
Q 44.046875 74.21875 50.515625 64.515625 
Q 56.984375 54.828125 56.984375 36.375 
Q 56.984375 17.96875 50.515625 8.265625 
Q 44.046875 -1.421875 31.78125 -1.421875 
Q 19.53125 -1.421875 13.0625 8.265625 
Q 6.59375 17.96875 6.59375 36.375 
Q 6.59375 54.828125 13.0625 64.515625 
Q 19.53125 74.21875 31.78125 74.21875 
z
" id="DejaVuSans-48"/>
      </defs>
      <g transform="translate(221.81875 644.598438)scale(0.1 -0.1)">
       <use xlink:href="#DejaVuSans-48"/>
      </g>
     </g>
    </g>
    <g id="xtick_2">
     <g id="line2d_2">
      <g>
       <use style="stroke:#000000;stroke-width:0.8;" x="443.139171" xlink:href="#mcec33c512d" y="630"/>
      </g>
     </g>
     <g id="text_2">
      <!-- 200 -->
      <defs>
       <path d="M 19.1875 8.296875 
L 53.609375 8.296875 
L 53.609375 0 
L 7.328125 0 
L 7.328125 8.296875 
Q 12.9375 14.109375 22.625 23.890625 
Q 32.328125 33.6875 34.8125 36.53125 
Q 39.546875 41.84375 41.421875 45.53125 
Q 43.3125 49.21875 43.3125 52.78125 
Q 43.3125 58.59375 39.234375 62.25 
Q 35.15625 65.921875 28.609375 65.921875 
Q 23.96875 65.921875 18.8125 64.3125 
Q 13.671875 62.703125 7.8125 59.421875 
L 7.8125 69.390625 
Q 13.765625 71.78125 18.9375 73 
Q 24.125 74.21875 28.421875 74.21875 
Q 39.75 74.21875 46.484375 68.546875 
Q 53.21875 62.890625 53.21875 53.421875 
Q 53.21875 48.921875 51.53125 44.890625 
Q 49.859375 40.875 45.40625 35.40625 
Q 44.1875 33.984375 37.640625 27.21875 
Q 31.109375 20.453125 19.1875 8.296875 
z
" id="DejaVuSans-50"/>
      </defs>
      <g transform="translate(433.595421 644.598438)scale(0.1 -0.1)">
       <use xlink:href="#DejaVuSans-50"/>
       <use x="63.623047" xlink:href="#DejaVuSans-48"/>
       <use x="127.246094" xlink:href="#DejaVuSans-48"/>
      </g>
     </g>
    </g>
    <g id="xtick_3">
     <g id="line2d_3">
      <g>
       <use style="stroke:#000000;stroke-width:0.8;" x="661.278342" xlink:href="#mcec33c512d" y="630"/>
      </g>
     </g>
     <g id="text_3">
      <!-- 400 -->
      <defs>
       <path d="M 37.796875 64.3125 
L 12.890625 25.390625 
L 37.796875 25.390625 
z
M 35.203125 72.90625 
L 47.609375 72.90625 
L 47.609375 25.390625 
L 58.015625 25.390625 
L 58.015625 17.1875 
L 47.609375 17.1875 
L 47.609375 0 
L 37.796875 0 
L 37.796875 17.1875 
L 4.890625 17.1875 
L 4.890625 26.703125 
z
" id="DejaVuSans-52"/>
      </defs>
      <g transform="translate(651.734592 644.598438)scale(0.1 -0.1)">
       <use xlink:href="#DejaVuSans-52"/>
       <use x="63.623047" xlink:href="#DejaVuSans-48"/>
       <use x="127.246094" xlink:href="#DejaVuSans-48"/>
      </g>
     </g>
    </g>
    <g id="xtick_4">
     <g id="line2d_4">
      <g>
       <use style="stroke:#000000;stroke-width:0.8;" x="879.417514" xlink:href="#mcec33c512d" y="630"/>
      </g>
     </g>
     <g id="text_4">
      <!-- 600 -->
      <defs>
       <path d="M 33.015625 40.375 
Q 26.375 40.375 22.484375 35.828125 
Q 18.609375 31.296875 18.609375 23.390625 
Q 18.609375 15.53125 22.484375 10.953125 
Q 26.375 6.390625 33.015625 6.390625 
Q 39.65625 6.390625 43.53125 10.953125 
Q 47.40625 15.53125 47.40625 23.390625 
Q 47.40625 31.296875 43.53125 35.828125 
Q 39.65625 40.375 33.015625 40.375 
z
M 52.59375 71.296875 
L 52.59375 62.3125 
Q 48.875 64.0625 45.09375 64.984375 
Q 41.3125 65.921875 37.59375 65.921875 
Q 27.828125 65.921875 22.671875 59.328125 
Q 17.53125 52.734375 16.796875 39.40625 
Q 19.671875 43.65625 24.015625 45.921875 
Q 28.375 48.1875 33.59375 48.1875 
Q 44.578125 48.1875 50.953125 41.515625 
Q 57.328125 34.859375 57.328125 23.390625 
Q 57.328125 12.15625 50.6875 5.359375 
Q 44.046875 -1.421875 33.015625 -1.421875 
Q 20.359375 -1.421875 13.671875 8.265625 
Q 6.984375 17.96875 6.984375 36.375 
Q 6.984375 53.65625 15.1875 63.9375 
Q 23.390625 74.21875 37.203125 74.21875 
Q 40.921875 74.21875 44.703125 73.484375 
Q 48.484375 72.75 52.59375 71.296875 
z
" id="DejaVuSans-54"/>
      </defs>
      <g transform="translate(869.873764 644.598438)scale(0.1 -0.1)">
       <use xlink:href="#DejaVuSans-54"/>
       <use x="63.623047" xlink:href="#DejaVuSans-48"/>
       <use x="127.246094" xlink:href="#DejaVuSans-48"/>
      </g>
     </g>
    </g>
    <g id="xtick_5">
     <g id="line2d_5">
      <g>
       <use style="stroke:#000000;stroke-width:0.8;" x="1097.556685" xlink:href="#mcec33c512d" y="630"/>
      </g>
     </g>
     <g id="text_5">
      <!-- 800 -->
      <defs>
       <path d="M 31.78125 34.625 
Q 24.75 34.625 20.71875 30.859375 
Q 16.703125 27.09375 16.703125 20.515625 
Q 16.703125 13.921875 20.71875 10.15625 
Q 24.75 6.390625 31.78125 6.390625 
Q 38.8125 6.390625 42.859375 10.171875 
Q 46.921875 13.96875 46.921875 20.515625 
Q 46.921875 27.09375 42.890625 30.859375 
Q 38.875 34.625 31.78125 34.625 
z
M 21.921875 38.8125 
Q 15.578125 40.375 12.03125 44.71875 
Q 8.5 49.078125 8.5 55.328125 
Q 8.5 64.0625 14.71875 69.140625 
Q 20.953125 74.21875 31.78125 74.21875 
Q 42.671875 74.21875 48.875 69.140625 
Q 55.078125 64.0625 55.078125 55.328125 
Q 55.078125 49.078125 51.53125 44.71875 
Q 48 40.375 41.703125 38.8125 
Q 48.828125 37.15625 52.796875 32.3125 
Q 56.78125 27.484375 56.78125 20.515625 
Q 56.78125 9.90625 50.3125 4.234375 
Q 43.84375 -1.421875 31.78125 -1.421875 
Q 19.734375 -1.421875 13.25 4.234375 
Q 6.78125 9.90625 6.78125 20.515625 
Q 6.78125 27.484375 10.78125 32.3125 
Q 14.796875 37.15625 21.921875 38.8125 
z
M 18.3125 54.390625 
Q 18.3125 48.734375 21.84375 45.5625 
Q 25.390625 42.390625 31.78125 42.390625 
Q 38.140625 42.390625 41.71875 45.5625 
Q 45.3125 48.734375 45.3125 54.390625 
Q 45.3125 60.0625 41.71875 63.234375 
Q 38.140625 66.40625 31.78125 66.40625 
Q 25.390625 66.40625 21.84375 63.234375 
Q 18.3125 60.0625 18.3125 54.390625 
z
" id="DejaVuSans-56"/>
      </defs>
      <g transform="translate(1088.012935 644.598438)scale(0.1 -0.1)">
       <use xlink:href="#DejaVuSans-56"/>
       <use x="63.623047" xlink:href="#DejaVuSans-48"/>
       <use x="127.246094" xlink:href="#DejaVuSans-48"/>
      </g>
     </g>
    </g>
    <g id="xtick_6">
     <g id="line2d_6">
      <g>
       <use style="stroke:#000000;stroke-width:0.8;" x="1315.695856" xlink:href="#mcec33c512d" y="630"/>
      </g>
     </g>
     <g id="text_6">
      <!-- 1000 -->
      <defs>
       <path d="M 12.40625 8.296875 
L 28.515625 8.296875 
L 28.515625 63.921875 
L 10.984375 60.40625 
L 10.984375 69.390625 
L 28.421875 72.90625 
L 38.28125 72.90625 
L 38.28125 8.296875 
L 54.390625 8.296875 
L 54.390625 0 
L 12.40625 0 
z
" id="DejaVuSans-49"/>
      </defs>
      <g transform="translate(1302.970856 644.598438)scale(0.1 -0.1)">
       <use xlink:href="#DejaVuSans-49"/>
       <use x="63.623047" xlink:href="#DejaVuSans-48"/>
       <use x="127.246094" xlink:href="#DejaVuSans-48"/>
       <use x="190.869141" xlink:href="#DejaVuSans-48"/>
      </g>
     </g>
    </g>
    <g id="xtick_7">
     <g id="line2d_7">
      <g>
       <use style="stroke:#000000;stroke-width:0.8;" x="1533.835027" xlink:href="#mcec33c512d" y="630"/>
      </g>
     </g>
     <g id="text_7">
      <!-- 1200 -->
      <g transform="translate(1521.110027 644.598438)scale(0.1 -0.1)">
       <use xlink:href="#DejaVuSans-49"/>
       <use x="63.623047" xlink:href="#DejaVuSans-50"/>
       <use x="127.246094" xlink:href="#DejaVuSans-48"/>
       <use x="190.869141" xlink:href="#DejaVuSans-48"/>
      </g>
     </g>
    </g>
   </g>
   <g id="matplotlib.axis_2">
    <g id="ytick_1">
     <g id="line2d_8">
      <defs>
       <path d="M 0 0 
L -3.5 0 
" id="m2929d48909" style="stroke:#000000;stroke-width:0.8;"/>
      </defs>
      <g>
       <use style="stroke:#000000;stroke-width:0.8;" x="225" xlink:href="#m2929d48909" y="605.290909"/>
      </g>
     </g>
     <g id="text_8">
      <!-- 200 -->
      <g transform="translate(198.9125 609.090128)scale(0.1 -0.1)">
       <use xlink:href="#DejaVuSans-50"/>
       <use x="63.623047" xlink:href="#DejaVuSans-48"/>
       <use x="127.246094" xlink:href="#DejaVuSans-48"/>
      </g>
     </g>
    </g>
    <g id="ytick_2">
     <g id="line2d_9">
      <g>
       <use style="stroke:#000000;stroke-width:0.8;" x="225" xlink:href="#m2929d48909" y="542.773374"/>
      </g>
     </g>
     <g id="text_9">
      <!-- 300 -->
      <defs>
       <path d="M 40.578125 39.3125 
Q 47.65625 37.796875 51.625 33 
Q 55.609375 28.21875 55.609375 21.1875 
Q 55.609375 10.40625 48.1875 4.484375 
Q 40.765625 -1.421875 27.09375 -1.421875 
Q 22.515625 -1.421875 17.65625 -0.515625 
Q 12.796875 0.390625 7.625 2.203125 
L 7.625 11.71875 
Q 11.71875 9.328125 16.59375 8.109375 
Q 21.484375 6.890625 26.8125 6.890625 
Q 36.078125 6.890625 40.9375 10.546875 
Q 45.796875 14.203125 45.796875 21.1875 
Q 45.796875 27.640625 41.28125 31.265625 
Q 36.765625 34.90625 28.71875 34.90625 
L 20.21875 34.90625 
L 20.21875 43.015625 
L 29.109375 43.015625 
Q 36.375 43.015625 40.234375 45.921875 
Q 44.09375 48.828125 44.09375 54.296875 
Q 44.09375 59.90625 40.109375 62.90625 
Q 36.140625 65.921875 28.71875 65.921875 
Q 24.65625 65.921875 20.015625 65.03125 
Q 15.375 64.15625 9.8125 62.3125 
L 9.8125 71.09375 
Q 15.4375 72.65625 20.34375 73.4375 
Q 25.25 74.21875 29.59375 74.21875 
Q 40.828125 74.21875 47.359375 69.109375 
Q 53.90625 64.015625 53.90625 55.328125 
Q 53.90625 49.265625 50.4375 45.09375 
Q 46.96875 40.921875 40.578125 39.3125 
z
" id="DejaVuSans-51"/>
      </defs>
      <g transform="translate(198.9125 546.572593)scale(0.1 -0.1)">
       <use xlink:href="#DejaVuSans-51"/>
       <use x="63.623047" xlink:href="#DejaVuSans-48"/>
       <use x="127.246094" xlink:href="#DejaVuSans-48"/>
      </g>
     </g>
    </g>
    <g id="ytick_3">
     <g id="line2d_10">
      <g>
       <use style="stroke:#000000;stroke-width:0.8;" x="225" xlink:href="#m2929d48909" y="480.255839"/>
      </g>
     </g>
     <g id="text_10">
      <!-- 400 -->
      <g transform="translate(198.9125 484.055058)scale(0.1 -0.1)">
       <use xlink:href="#DejaVuSans-52"/>
       <use x="63.623047" xlink:href="#DejaVuSans-48"/>
       <use x="127.246094" xlink:href="#DejaVuSans-48"/>
      </g>
     </g>
    </g>
    <g id="ytick_4">
     <g id="line2d_11">
      <g>
       <use style="stroke:#000000;stroke-width:0.8;" x="225" xlink:href="#m2929d48909" y="417.738304"/>
      </g>
     </g>
     <g id="text_11">
      <!-- 500 -->
      <defs>
       <path d="M 10.796875 72.90625 
L 49.515625 72.90625 
L 49.515625 64.59375 
L 19.828125 64.59375 
L 19.828125 46.734375 
Q 21.96875 47.46875 24.109375 47.828125 
Q 26.265625 48.1875 28.421875 48.1875 
Q 40.625 48.1875 47.75 41.5 
Q 54.890625 34.8125 54.890625 23.390625 
Q 54.890625 11.625 47.5625 5.09375 
Q 40.234375 -1.421875 26.90625 -1.421875 
Q 22.3125 -1.421875 17.546875 -0.640625 
Q 12.796875 0.140625 7.71875 1.703125 
L 7.71875 11.625 
Q 12.109375 9.234375 16.796875 8.0625 
Q 21.484375 6.890625 26.703125 6.890625 
Q 35.15625 6.890625 40.078125 11.328125 
Q 45.015625 15.765625 45.015625 23.390625 
Q 45.015625 31 40.078125 35.4375 
Q 35.15625 39.890625 26.703125 39.890625 
Q 22.75 39.890625 18.8125 39.015625 
Q 14.890625 38.140625 10.796875 36.28125 
z
" id="DejaVuSans-53"/>
      </defs>
      <g transform="translate(198.9125 421.537523)scale(0.1 -0.1)">
       <use xlink:href="#DejaVuSans-53"/>
       <use x="63.623047" xlink:href="#DejaVuSans-48"/>
       <use x="127.246094" xlink:href="#DejaVuSans-48"/>
      </g>
     </g>
    </g>
    <g id="ytick_5">
     <g id="line2d_12">
      <g>
       <use style="stroke:#000000;stroke-width:0.8;" x="225" xlink:href="#m2929d48909" y="355.220769"/>
      </g>
     </g>
     <g id="text_12">
      <!-- 600 -->
      <g transform="translate(198.9125 359.019988)scale(0.1 -0.1)">
       <use xlink:href="#DejaVuSans-54"/>
       <use x="63.623047" xlink:href="#DejaVuSans-48"/>
       <use x="127.246094" xlink:href="#DejaVuSans-48"/>
      </g>
     </g>
    </g>
    <g id="ytick_6">
     <g id="line2d_13">
      <g>
       <use style="stroke:#000000;stroke-width:0.8;" x="225" xlink:href="#m2929d48909" y="292.703234"/>
      </g>
     </g>
     <g id="text_13">
      <!-- 700 -->
      <defs>
       <path d="M 8.203125 72.90625 
L 55.078125 72.90625 
L 55.078125 68.703125 
L 28.609375 0 
L 18.3125 0 
L 43.21875 64.59375 
L 8.203125 64.59375 
z
" id="DejaVuSans-55"/>
      </defs>
      <g transform="translate(198.9125 296.502453)scale(0.1 -0.1)">
       <use xlink:href="#DejaVuSans-55"/>
       <use x="63.623047" xlink:href="#DejaVuSans-48"/>
       <use x="127.246094" xlink:href="#DejaVuSans-48"/>
      </g>
     </g>
    </g>
    <g id="ytick_7">
     <g id="line2d_14">
      <g>
       <use style="stroke:#000000;stroke-width:0.8;" x="225" xlink:href="#m2929d48909" y="230.1857"/>
      </g>
     </g>
     <g id="text_14">
      <!-- 800 -->
      <g transform="translate(198.9125 233.984918)scale(0.1 -0.1)">
       <use xlink:href="#DejaVuSans-56"/>
       <use x="63.623047" xlink:href="#DejaVuSans-48"/>
       <use x="127.246094" xlink:href="#DejaVuSans-48"/>
      </g>
     </g>
    </g>
    <g id="ytick_8">
     <g id="line2d_15">
      <g>
       <use style="stroke:#000000;stroke-width:0.8;" x="225" xlink:href="#m2929d48909" y="167.668165"/>
      </g>
     </g>
     <g id="text_15">
      <!-- 900 -->
      <defs>
       <path d="M 10.984375 1.515625 
L 10.984375 10.5 
Q 14.703125 8.734375 18.5 7.8125 
Q 22.3125 6.890625 25.984375 6.890625 
Q 35.75 6.890625 40.890625 13.453125 
Q 46.046875 20.015625 46.78125 33.40625 
Q 43.953125 29.203125 39.59375 26.953125 
Q 35.25 24.703125 29.984375 24.703125 
Q 19.046875 24.703125 12.671875 31.3125 
Q 6.296875 37.9375 6.296875 49.421875 
Q 6.296875 60.640625 12.9375 67.421875 
Q 19.578125 74.21875 30.609375 74.21875 
Q 43.265625 74.21875 49.921875 64.515625 
Q 56.59375 54.828125 56.59375 36.375 
Q 56.59375 19.140625 48.40625 8.859375 
Q 40.234375 -1.421875 26.421875 -1.421875 
Q 22.703125 -1.421875 18.890625 -0.6875 
Q 15.09375 0.046875 10.984375 1.515625 
z
M 30.609375 32.421875 
Q 37.25 32.421875 41.125 36.953125 
Q 45.015625 41.5 45.015625 49.421875 
Q 45.015625 57.28125 41.125 61.84375 
Q 37.25 66.40625 30.609375 66.40625 
Q 23.96875 66.40625 20.09375 61.84375 
Q 16.21875 57.28125 16.21875 49.421875 
Q 16.21875 41.5 20.09375 36.953125 
Q 23.96875 32.421875 30.609375 32.421875 
z
" id="DejaVuSans-57"/>
      </defs>
      <g transform="translate(198.9125 171.467383)scale(0.1 -0.1)">
       <use xlink:href="#DejaVuSans-57"/>
       <use x="63.623047" xlink:href="#DejaVuSans-48"/>
       <use x="127.246094" xlink:href="#DejaVuSans-48"/>
      </g>
     </g>
    </g>
    <g id="ytick_9">
     <g id="line2d_16">
      <g>
       <use style="stroke:#000000;stroke-width:0.8;" x="225" xlink:href="#m2929d48909" y="105.15063"/>
      </g>
     </g>
     <g id="text_16">
      <!-- 1000 -->
      <g transform="translate(192.55 108.949848)scale(0.1 -0.1)">
       <use xlink:href="#DejaVuSans-49"/>
       <use x="63.623047" xlink:href="#DejaVuSans-48"/>
       <use x="127.246094" xlink:href="#DejaVuSans-48"/>
       <use x="190.869141" xlink:href="#DejaVuSans-48"/>
      </g>
     </g>
    </g>
   </g>
   <g id="line2d_17">
    <path clip-path="url(#p338ce08d04)" d="M 225 455.248825 
L 226.090696 218.307368 
L 227.181392 311.458495 
L 228.272088 261.444467 
L 229.362783 261.444467 
L 230.453479 480.255839 
L 231.544175 455.248825 
L 232.634871 386.479537 
L 233.725567 499.0111 
L 234.816263 217.682193 
L 235.906959 261.444467 
L 236.997654 285.20113 
L 238.08835 292.703234 
L 239.179046 480.255839 
L 240.269742 448.997072 
L 241.360438 470.878209 
L 242.451134 459.625053 
L 243.54183 231.43605 
L 244.632525 436.493565 
L 245.723221 280.199727 
L 246.813917 261.444467 
L 247.904613 161.416411 
L 248.995309 292.703234 
L 250.086005 235.812278 
L 251.176701 405.234797 
L 252.267396 467.752332 
L 253.358092 417.738304 
L 254.448788 247.065434 
L 255.539484 280.199727 
L 256.63018 217.682193 
L 257.720876 417.738304 
L 258.811572 386.479537 
L 259.902267 292.078059 
L 260.992963 173.919918 
L 262.083659 142.661151 
L 263.174355 342.717262 
L 264.265051 448.997072 
L 265.355747 123.280715 
L 266.446443 350.219367 
L 267.537138 239.56333 
L 268.627834 367.724276 
L 269.71853 417.738304 
L 270.809226 229.560524 
L 271.899922 380.227783 
L 272.990618 417.738304 
L 274.081314 386.479537 
L 275.172009 272.072448 
L 276.262705 448.997072 
L 277.353401 492.759346 
L 278.444097 301.455689 
L 279.534793 261.444467 
L 280.625489 417.738304 
L 281.716185 168.918515 
L 282.80688 348.969016 
L 283.897576 267.69622 
L 284.988272 236.437453 
L 286.078968 233.311576 
L 287.169664 217.682193 
L 288.26036 167.668165 
L 289.351056 228.310173 
L 290.441751 345.843139 
L 291.532447 386.479537 
L 292.623143 547.149602 
L 293.713839 542.773374 
L 294.804535 130.157644 
L 295.895231 178.296146 
L 296.985927 209.554913 
L 298.076622 430.241811 
L 299.167318 373.97603 
L 300.258014 242.689207 
L 301.34871 136.409397 
L 302.439406 489.633469 
L 303.530102 542.773374 
L 304.620797 323.962002 
L 305.711493 542.773374 
L 307.892885 448.997072 
L 308.983581 511.514607 
L 310.074277 386.479537 
L 311.164973 217.682193 
L 312.255668 280.199727 
L 313.346364 555.276881 
L 314.43706 225.809472 
L 315.527756 405.234797 
L 316.618452 198.926932 
L 317.709148 261.444467 
L 318.799844 136.409397 
L 319.890539 461.500579 
L 320.981235 386.479537 
L 322.071931 198.926932 
L 323.162627 323.962002 
L 324.253323 267.69622 
L 325.344019 323.962002 
L 326.434715 292.703234 
L 328.616106 134.533871 
L 329.706802 352.094893 
L 330.797498 524.018114 
L 331.888194 126.406592 
L 332.97889 136.409397 
L 334.069586 423.990058 
L 335.160281 261.444467 
L 336.250977 230.1857 
L 337.341673 236.437453 
L 338.432369 112.652734 
L 339.523065 356.47112 
L 340.613761 261.444467 
L 341.704457 292.703234 
L 342.795152 230.1857 
L 343.885848 198.926932 
L 344.976544 261.444467 
L 346.06724 261.444467 
L 347.157936 222.05842 
L 348.248632 236.437453 
L 349.339328 267.69622 
L 350.430023 256.443064 
L 351.520719 380.227783 
L 352.611415 235.187102 
L 353.702111 265.820694 
L 354.792807 161.416411 
L 355.883503 283.325604 
L 356.974199 323.336827 
L 358.064894 230.1857 
L 359.15559 230.1857 
L 360.246286 317.710248 
L 361.336982 461.500579 
L 362.427678 505.262853 
L 363.518374 164.542288 
L 364.60907 417.738304 
L 365.699765 230.1857 
L 366.790461 148.912904 
L 367.881157 131.407994 
L 368.971853 215.806666 
L 370.062549 386.479537 
L 371.153245 448.997072 
L 372.243941 195.17588 
L 373.334636 392.106115 
L 374.425332 158.290534 
L 375.516028 475.879612 
L 376.606724 259.568941 
L 377.69742 205.178686 
L 378.788116 317.710248 
L 379.878812 123.90589 
L 380.969507 230.1857 
L 382.060203 292.703234 
L 383.150899 180.171672 
L 384.241595 146.412203 
L 385.332291 155.789833 
L 386.422987 355.220769 
L 387.513683 261.444467 
L 388.604378 495.885223 
L 389.695074 167.668165 
L 390.78577 123.90589 
L 391.876466 380.227783 
L 392.967162 295.829111 
L 394.057858 167.668165 
L 395.148554 123.90589 
L 396.239249 267.071045 
L 397.329945 267.69622 
L 399.511337 267.69622 
L 400.602033 167.668165 
L 401.692729 261.444467 
L 402.783425 223.933946 
L 403.87412 142.035975 
L 406.055512 261.444467 
L 407.146208 280.199727 
L 408.236904 136.409397 
L 409.3276 480.255839 
L 410.418296 267.69622 
L 411.508991 295.829111 
L 412.599687 392.106115 
L 413.690383 311.458495 
L 414.781079 355.220769 
L 415.871775 323.962002 
L 416.962471 176.420619 
L 418.053167 167.668165 
L 419.143862 148.912904 
L 420.234558 167.668165 
L 421.325254 267.071045 
L 422.41595 317.710248 
L 423.506646 398.983044 
L 424.597342 380.227783 
L 425.688038 355.220769 
L 426.778733 373.97603 
L 427.869429 292.703234 
L 428.960125 492.759346 
L 430.050821 323.962002 
L 431.141517 217.682193 
L 432.232213 167.668165 
L 433.322909 165.167463 
L 434.413604 192.675179 
L 435.5043 330.213755 
L 436.594996 198.926932 
L 437.685692 448.997072 
L 438.776388 455.248825 
L 439.867084 511.514607 
L 440.95778 517.76636 
L 442.048475 480.255839 
L 443.139171 561.528635 
L 444.229867 386.479537 
L 445.320563 542.773374 
L 446.411259 313.959196 
L 447.501955 386.479537 
L 448.592651 474.004086 
L 449.683346 417.113129 
L 450.774042 118.904487 
L 451.864738 530.269867 
L 452.955434 272.072448 
L 454.04613 417.738304 
L 455.136826 230.1857 
L 456.227522 511.514607 
L 457.318217 448.997072 
L 458.408913 289.577358 
L 459.499609 417.738304 
L 460.590305 442.745318 
L 461.681001 367.724276 
L 462.771697 405.234797 
L 463.862392 417.738304 
L 464.953088 461.500579 
L 466.043784 417.738304 
L 467.13448 261.444467 
L 468.225176 322.086476 
L 469.315872 167.668165 
L 470.406568 148.912904 
L 471.497263 223.933946 
L 472.587959 345.217964 
L 473.678655 530.269867 
L 474.769351 329.58858 
L 475.860047 198.926932 
L 476.950743 352.094893 
L 478.041439 118.904487 
L 479.132134 472.12856 
L 480.22283 412.111726 
L 481.313526 448.997072 
L 482.404222 261.444467 
L 483.494918 261.444467 
L 484.585614 161.416411 
L 485.67631 248.94096 
L 486.767005 124.531065 
L 487.857701 263.945168 
L 488.948397 124.531065 
L 490.039093 192.675179 
L 491.129789 119.529663 
L 492.220485 509.013905 
L 493.311181 336.465509 
L 494.401876 272.072448 
L 495.492572 151.413606 
L 496.583268 161.416411 
L 497.673964 355.220769 
L 498.76466 172.044392 
L 499.855356 118.904487 
L 500.946052 505.262853 
L 502.036747 317.710248 
L 503.127443 292.703234 
L 504.218139 219.557719 
L 505.308835 334.589983 
L 506.399531 405.234797 
L 507.490227 377.101907 
L 508.580923 261.444467 
L 509.671618 220.182894 
L 510.762314 167.668165 
L 511.85301 167.668165 
L 512.943706 505.262853 
L 514.034402 298.954988 
L 515.125098 177.045795 
L 516.215794 261.444467 
L 517.306489 219.557719 
L 518.397185 425.240408 
L 519.487881 248.94096 
L 520.578577 220.808069 
L 521.669273 323.962002 
L 522.759969 167.668165 
L 523.850665 267.69622 
L 524.94136 448.997072 
L 526.032056 211.430439 
L 527.122752 480.255839 
L 528.213448 474.004086 
L 529.304144 386.479537 
L 530.39484 355.220769 
L 531.485536 286.451481 
L 532.576231 230.1857 
L 533.666927 373.350855 
L 534.757623 289.577358 
L 535.848319 386.479537 
L 536.939015 461.500579 
L 538.029711 261.444467 
L 539.120407 253.317187 
L 540.211102 393.981641 
L 541.301798 305.206741 
L 542.392494 165.792639 
L 543.48319 323.962002 
L 544.573886 205.178686 
L 545.664582 405.234797 
L 546.755278 124.531065 
L 547.845973 124.531065 
L 548.936669 377.101907 
L 550.027365 172.044392 
L 551.118061 448.997072 
L 552.208757 517.76636 
L 553.299453 448.997072 
L 556.57154 448.997072 
L 557.662236 423.990058 
L 558.752932 186.423425 
L 559.843628 444.620844 
L 560.934324 386.479537 
L 562.02502 486.507593 
L 563.115715 517.76636 
L 564.206411 198.926932 
L 565.297107 348.969016 
L 566.387803 524.018114 
L 567.478499 323.962002 
L 568.569195 317.710248 
L 569.659891 345.843139 
L 570.750586 178.296146 
L 571.841282 190.799653 
L 572.931978 280.199727 
L 574.022674 355.220769 
L 575.11337 417.738304 
L 576.204066 355.220769 
L 577.294762 148.912904 
L 578.385457 198.926932 
L 579.476153 355.220769 
L 580.566849 186.423425 
L 581.657545 430.241811 
L 582.748241 474.004086 
L 583.838937 386.479537 
L 584.929633 452.122949 
L 586.020328 480.255839 
L 587.111024 209.554913 
L 588.20172 430.241811 
L 589.292416 167.668165 
L 590.383112 286.451481 
L 591.473808 605.290909 
L 592.564504 386.479537 
L 594.745895 448.997072 
L 595.836591 292.703234 
L 596.927287 268.946571 
L 598.017983 251.441661 
L 599.108679 599.039156 
L 600.199375 390.855764 
L 601.29007 448.997072 
L 602.380766 433.367688 
L 603.471462 433.367688 
L 604.562158 393.981641 
L 605.652854 492.759346 
L 606.74355 511.514607 
L 607.834246 499.0111 
L 608.924941 511.514607 
L 610.015637 355.220769 
L 611.106333 448.997072 
L 612.197029 282.075254 
L 613.287725 280.199727 
L 614.378421 511.514607 
L 615.469116 163.917112 
L 616.559812 461.500579 
L 617.650508 267.69622 
L 618.741204 205.178686 
L 619.8319 355.220769 
L 620.922596 248.94096 
L 622.013292 186.423425 
L 623.103987 517.76636 
L 624.194683 432.117337 
L 625.285379 233.311576 
L 626.376075 448.371896 
L 627.466771 470.878209 
L 628.557467 292.703234 
L 629.648163 423.990058 
L 630.738858 372.100504 
L 631.829554 417.738304 
L 632.92025 155.164658 
L 634.010946 380.227783 
L 635.101642 303.331215 
L 636.192338 297.079462 
L 637.283034 431.492162 
L 638.373729 282.075254 
L 639.464425 412.111726 
L 640.555121 407.110323 
L 641.645817 443.995669 
L 642.736513 402.108921 
L 643.827209 420.864181 
L 644.917905 495.885223 
L 646.0086 255.192713 
L 647.099296 311.458495 
L 648.189992 417.738304 
L 649.280688 448.997072 
L 650.371384 355.220769 
L 651.46208 355.220769 
L 652.552776 480.255839 
L 653.643471 305.206741 
L 654.734167 285.20113 
L 655.824863 248.315785 
L 656.915559 511.514607 
L 658.006255 298.954988 
L 659.096951 355.220769 
L 660.187647 288.952182 
L 661.278342 345.217964 
L 662.369038 586.535649 
L 663.459734 242.689207 
L 664.55043 298.329813 
L 665.641126 495.260048 
L 666.731822 292.703234 
L 667.822518 514.640483 
L 668.913213 345.217964 
L 670.003909 443.995669 
L 671.094605 336.465509 
L 672.185301 355.220769 
L 673.275997 209.554913 
L 674.366693 328.338229 
L 675.457389 198.926932 
L 676.548084 272.697623 
L 677.63878 263.945168 
L 678.729476 320.21095 
L 679.820172 251.441661 
L 680.910868 461.500579 
L 682.001564 511.514607 
L 683.09226 407.110323 
L 684.182955 327.087879 
L 685.273651 567.780388 
L 686.364347 574.032142 
L 687.455043 511.514607 
L 688.545739 117.654137 
L 689.636435 511.514607 
L 690.727131 448.997072 
L 691.817826 542.773374 
L 692.908522 514.640483 
L 693.999218 448.997072 
L 695.089914 442.745318 
L 696.18061 180.171672 
L 697.271306 511.514607 
L 698.362002 373.97603 
L 699.452697 542.773374 
L 700.543393 393.981641 
L 701.634089 478.380313 
L 702.724785 323.962002 
L 703.815481 136.409397 
L 704.906177 430.241811 
L 705.996873 386.479537 
L 707.087568 417.738304 
L 708.178264 386.479537 
L 709.26896 386.479537 
L 710.359656 448.997072 
L 711.450352 445.871195 
L 712.541048 193.300354 
L 713.631744 192.675179 
L 714.722439 426.490759 
L 715.813135 273.947974 
L 716.903831 542.773374 
L 717.994527 214.556316 
L 719.085223 323.962002 
L 720.175919 455.248825 
L 721.266615 392.73129 
L 722.35731 348.969016 
L 723.448006 461.500579 
L 724.538702 286.451481 
L 725.629398 402.108921 
L 726.720094 192.675179 
L 727.81079 370.850153 
L 728.901486 395.857167 
L 729.992181 198.926932 
L 731.082877 317.710248 
L 732.173573 455.248825 
L 733.264269 448.997072 
L 734.354965 386.479537 
L 735.445661 386.479537 
L 736.536357 342.717262 
L 737.627052 292.703234 
L 738.717748 298.954988 
L 739.808444 323.962002 
L 740.89914 574.032142 
L 741.989836 208.304562 
L 743.080532 417.738304 
L 744.171228 292.078059 
L 745.261923 392.73129 
L 746.352619 417.738304 
L 747.443315 420.864181 
L 748.534011 542.773374 
L 749.624707 505.262853 
L 750.715403 505.262853 
L 751.806099 211.430439 
L 752.896794 386.479537 
L 753.98749 386.479537 
L 755.078186 309.582969 
L 756.168882 330.213755 
L 757.259578 386.479537 
L 758.350274 436.493565 
L 759.44097 549.025128 
L 760.531665 448.997072 
L 761.622361 386.479537 
L 762.713057 480.255839 
L 763.803753 412.111726 
L 764.894449 420.864181 
L 765.985145 511.514607 
L 767.075841 212.055614 
L 768.166536 355.220769 
L 769.257232 311.458495 
L 770.347928 392.73129 
L 771.438624 386.479537 
L 773.620016 261.444467 
L 774.710711 355.220769 
L 775.801407 283.325604 
L 777.982799 420.239006 
L 779.073495 386.479537 
L 780.164191 456.499176 
L 781.254887 486.507593 
L 782.345582 363.348049 
L 783.436278 386.479537 
L 784.526974 480.255839 
L 785.61767 398.983044 
L 786.708366 492.759346 
L 787.799062 298.954988 
L 788.889758 442.745318 
L 789.980453 417.738304 
L 791.071149 436.493565 
L 792.161845 334.589983 
L 793.252541 339.591386 
L 794.343237 435.868389 
L 795.433933 355.220769 
L 796.524629 361.472523 
L 797.615324 414.612428 
L 798.70602 422.739707 
L 799.796716 417.738304 
L 800.887412 273.947974 
L 801.978108 349.594191 
L 803.068804 287.076656 
L 804.1595 522.142588 
L 805.250195 417.738304 
L 806.340891 520.892237 
L 807.431587 386.479537 
L 808.522283 536.521621 
L 809.612979 555.276881 
L 810.703675 480.255839 
L 811.794371 530.269867 
L 812.885066 417.738304 
L 813.975762 386.479537 
L 815.066458 480.255839 
L 816.157154 561.528635 
L 817.24785 499.0111 
L 818.338546 417.738304 
L 819.429242 545.899251 
L 820.519937 236.437453 
L 821.610633 511.514607 
L 822.701329 561.528635 
L 825.973417 561.528635 
L 827.064113 567.780388 
L 828.154808 422.114532 
L 829.245504 308.332618 
L 830.3362 334.589983 
L 831.426896 386.479537 
L 832.517592 502.136976 
L 833.608288 343.967613 
L 834.698984 331.464106 
L 835.789679 574.032142 
L 836.880375 358.346646 
L 837.971071 426.490759 
L 839.061767 442.745318 
L 840.152463 430.241811 
L 841.243159 480.255839 
L 842.333855 448.997072 
L 843.42455 369.599802 
L 844.515246 448.997072 
L 845.605942 355.220769 
L 846.696638 381.478134 
L 847.787334 388.980238 
L 848.87803 442.120143 
L 849.968726 511.514607 
L 851.059421 228.310173 
L 852.150117 480.255839 
L 853.240813 348.343841 
L 854.331509 480.255839 
L 855.422205 386.479537 
L 856.512901 318.335424 
L 857.603597 292.703234 
L 858.694292 480.255839 
L 859.784988 448.997072 
L 860.875684 448.997072 
L 861.96638 542.773374 
L 863.057076 398.983044 
L 865.238468 355.220769 
L 866.329163 276.448675 
L 867.419859 502.136976 
L 868.510555 412.736902 
L 869.601251 355.220769 
L 870.691947 499.0111 
L 871.782643 261.444467 
L 872.873339 318.960599 
L 873.964034 355.220769 
L 875.05473 438.994266 
L 876.145426 386.479537 
L 877.236122 323.962002 
L 878.326818 495.885223 
L 879.417514 358.971821 
L 880.50821 495.885223 
L 881.598905 524.018114 
L 882.689601 486.507593 
L 883.780297 373.97603 
L 884.870993 492.759346 
L 885.961689 386.479537 
L 887.052385 480.255839 
L 888.143081 286.451481 
L 889.233776 480.255839 
L 890.324472 511.514607 
L 891.415168 480.255839 
L 892.505864 486.507593 
L 893.59656 417.738304 
L 894.687256 398.983044 
L 895.777952 431.492162 
L 896.868647 417.738304 
L 897.959343 323.962002 
L 899.050039 448.997072 
L 900.140735 363.973224 
L 901.231431 370.850153 
L 902.322127 450.247422 
L 903.412823 461.500579 
L 904.503518 364.5984 
L 905.594214 417.738304 
L 906.68491 430.241811 
L 907.775606 386.479537 
L 908.866302 336.465509 
L 909.956998 390.230589 
L 911.047694 417.738304 
L 912.138389 392.73129 
L 913.229085 395.857167 
L 914.319781 365.84875 
L 915.410477 111.402383 
L 916.501173 298.954988 
L 917.591869 323.962002 
L 918.682565 386.479537 
L 919.77326 246.440259 
L 920.863956 320.21095 
L 921.954652 448.997072 
L 923.045348 348.969016 
L 924.136044 369.599802 
L 925.22674 410.2362 
L 926.317435 254.567538 
L 927.408131 438.994266 
L 928.498827 255.192713 
L 929.589523 511.514607 
L 930.680219 307.707443 
L 931.770915 463.376105 
L 932.861611 426.490759 
L 933.952306 356.47112 
L 935.043002 255.192713 
L 936.133698 246.440259 
L 937.224394 320.21095 
L 938.31509 479.630664 
L 939.405786 515.890834 
L 940.496482 348.969016 
L 941.587177 369.599802 
L 942.677873 261.444467 
L 943.768569 230.1857 
L 944.859265 463.376105 
L 945.949961 448.997072 
L 947.040657 417.738304 
L 949.222048 417.738304 
L 950.312744 411.486551 
L 951.40344 398.983044 
L 952.494136 448.997072 
L 953.584832 386.479537 
L 954.675528 386.479537 
L 955.766224 433.367688 
L 956.856919 417.738304 
L 957.947615 479.630664 
L 959.038311 504.012503 
L 960.129007 407.735499 
L 961.219703 331.464106 
L 962.310399 433.367688 
L 963.401095 386.479537 
L 964.49179 398.983044 
L 965.582486 417.738304 
L 966.673182 480.255839 
L 967.763878 511.514607 
L 968.854574 270.196922 
L 969.94527 499.0111 
L 971.035966 549.025128 
L 972.126661 505.262853 
L 973.217357 136.409397 
L 974.308053 499.0111 
L 975.398749 448.997072 
L 976.489445 261.444467 
L 977.580141 261.444467 
L 978.670837 436.493565 
L 979.761532 380.227783 
L 980.852228 492.759346 
L 981.942924 511.514607 
L 983.03362 136.409397 
L 984.124316 167.668165 
L 985.215012 417.738304 
L 986.305708 436.493565 
L 987.396403 436.493565 
L 988.487099 511.514607 
L 989.577795 446.49637 
L 990.668491 470.878209 
L 991.759187 492.759346 
L 992.849883 393.356466 
L 993.940579 368.349452 
L 995.031274 313.959196 
L 996.12197 167.668165 
L 997.212666 273.947974 
L 998.303362 470.878209 
L 999.394058 511.514607 
L 1000.484754 342.092087 
L 1001.57545 549.025128 
L 1002.666145 555.276881 
L 1003.756841 323.962002 
L 1005.938233 511.514607 
L 1007.028929 530.269867 
L 1008.119625 486.507593 
L 1009.210321 470.878209 
L 1010.301016 558.402758 
L 1011.391712 524.018114 
L 1012.482408 511.514607 
L 1013.573104 411.486551 
L 1014.6638 446.49637 
L 1016.845192 574.032142 
L 1017.935887 530.269867 
L 1019.026583 475.254436 
L 1020.117279 298.954988 
L 1021.207975 574.032142 
L 1022.298671 486.507593 
L 1023.389367 470.878209 
L 1024.480063 539.647497 
L 1025.570758 368.974627 
L 1026.661454 345.217964 
L 1027.75215 342.092087 
L 1028.842846 436.493565 
L 1029.933542 398.983044 
L 1031.024238 443.995669 
L 1032.114934 511.514607 
L 1033.205629 434.618039 
L 1034.296325 448.997072 
L 1035.387021 417.738304 
L 1036.477717 332.714457 
L 1037.568413 336.465509 
L 1038.659109 492.759346 
L 1039.749805 405.234797 
L 1040.8405 562.778985 
L 1041.931196 392.73129 
L 1043.021892 505.262853 
L 1044.112588 367.724276 
L 1045.203284 480.255839 
L 1046.29398 414.612428 
L 1047.384676 242.689207 
L 1048.475371 505.262853 
L 1049.566067 167.668165 
L 1050.656763 411.486551 
L 1051.747459 400.85857 
L 1052.838155 524.018114 
L 1053.928851 495.885223 
L 1055.019547 474.004086 
L 1056.110242 461.500579 
L 1057.200938 511.514607 
L 1058.291634 358.346646 
L 1059.38233 480.255839 
L 1060.473026 448.997072 
L 1061.563722 399.608219 
L 1062.654418 524.018114 
L 1063.745113 398.983044 
L 1064.835809 476.504787 
L 1065.926505 461.500579 
L 1067.017201 520.892237 
L 1068.107897 448.997072 
L 1069.198593 480.255839 
L 1070.289289 415.862778 
L 1071.379984 448.997072 
L 1072.47068 474.004086 
L 1073.561376 411.486551 
L 1074.652072 480.255839 
L 1075.742768 495.885223 
L 1076.833464 482.131365 
L 1077.924159 412.111726 
L 1079.014855 186.423425 
L 1080.105551 486.507593 
L 1081.196247 386.479537 
L 1082.286943 423.990058 
L 1083.377639 361.472523 
L 1084.468335 461.500579 
L 1085.55903 317.710248 
L 1086.649726 448.997072 
L 1087.740422 386.479537 
L 1088.831118 415.237603 
L 1089.921814 395.857167 
L 1091.01251 211.430439 
L 1092.103206 286.451481 
L 1093.193901 423.990058 
L 1094.284597 461.500579 
L 1095.375293 417.738304 
L 1096.465989 455.248825 
L 1097.556685 292.703234 
L 1098.647381 323.962002 
L 1099.738077 361.472523 
L 1100.828772 392.73129 
L 1101.919468 460.875403 
L 1103.010164 363.973224 
L 1104.10086 405.234797 
L 1105.191556 323.962002 
L 1106.282252 386.479537 
L 1107.372948 398.983044 
L 1108.463643 448.997072 
L 1109.554339 480.255839 
L 1110.645035 236.437453 
L 1111.735731 323.962002 
L 1112.826427 389.605414 
L 1113.917123 163.917112 
L 1116.098514 398.357868 
L 1117.18921 386.479537 
L 1119.370602 205.178686 
L 1120.461298 186.423425 
L 1121.551994 186.423425 
L 1122.64269 517.76636 
L 1123.733385 436.493565 
L 1124.824081 142.035975 
L 1125.914777 248.94096 
L 1127.005473 439.619442 
L 1128.096169 377.101907 
L 1129.186865 355.220769 
L 1130.277561 245.815083 
L 1131.368256 230.1857 
L 1132.458952 192.050003 
L 1133.549648 448.997072 
L 1134.640344 214.556316 
L 1135.73104 167.668165 
L 1136.821736 273.947974 
L 1137.912432 392.73129 
L 1139.003127 483.381716 
L 1140.093823 433.367688 
L 1141.184519 311.458495 
L 1142.275215 455.248825 
L 1143.365911 524.018114 
L 1144.456607 205.178686 
L 1145.547303 386.479537 
L 1146.637998 411.486551 
L 1147.728694 448.997072 
L 1148.81939 348.969016 
L 1149.910086 311.458495 
L 1151.000782 380.227783 
L 1152.091478 395.857167 
L 1153.182174 406.485148 
L 1154.272869 277.073851 
L 1155.363565 323.962002 
L 1156.454261 312.708846 
L 1157.544957 230.1857 
L 1158.635653 392.73129 
L 1159.726349 418.36348 
L 1160.817045 330.213755 
L 1161.90774 430.241811 
L 1162.998436 455.248825 
L 1164.089132 423.990058 
L 1165.179828 480.255839 
L 1166.270524 570.906265 
L 1167.36122 517.76636 
L 1168.451916 486.507593 
L 1169.542611 417.738304 
L 1170.633307 152.038781 
L 1171.724003 423.990058 
L 1172.814699 420.864181 
L 1173.905395 461.500579 
L 1174.996091 480.255839 
L 1176.086787 511.514607 
L 1177.177482 477.129962 
L 1178.268178 464.626456 
L 1179.358874 448.997072 
L 1180.44957 483.381716 
L 1181.540266 215.806666 
L 1182.630962 373.97603 
L 1183.721658 458.374702 
L 1184.812353 422.114532 
L 1185.903049 330.213755 
L 1186.993745 330.213755 
L 1188.084441 480.255839 
L 1189.175137 275.8235 
L 1190.265833 405.234797 
L 1191.356529 255.192713 
L 1192.447224 180.171672 
L 1193.53792 455.248825 
L 1194.628616 485.882417 
L 1195.719312 461.500579 
L 1196.810008 386.479537 
L 1197.900704 286.451481 
L 1198.9914 464.626456 
L 1200.082095 225.184297 
L 1201.172791 385.229186 
L 1202.263487 452.122949 
L 1203.354183 464.626456 
L 1204.444879 411.486551 
L 1205.535575 496.510398 
L 1206.626271 152.038781 
L 1208.807662 439.619442 
L 1209.898358 405.234797 
L 1210.989054 433.367688 
L 1212.07975 405.234797 
L 1213.170446 111.402383 
L 1214.261142 393.981641 
L 1215.351837 448.997072 
L 1216.442533 214.556316 
L 1217.533229 167.668165 
L 1218.623925 323.962002 
L 1219.714621 420.864181 
L 1220.805317 354.595594 
L 1221.896013 376.476731 
L 1222.986708 561.528635 
L 1224.077404 489.633469 
L 1225.1681 311.458495 
L 1226.258796 480.255839 
L 1227.349492 455.248825 
L 1228.440188 395.857167 
L 1229.530884 379.602608 
L 1230.621579 417.738304 
L 1231.712275 413.987252 
L 1232.802971 412.736902 
L 1233.893667 377.101907 
L 1234.984363 542.773374 
L 1236.075059 448.997072 
L 1237.165754 448.997072 
L 1238.25645 299.580163 
L 1239.347146 285.20113 
L 1240.437842 455.248825 
L 1241.528538 505.262853 
L 1242.619234 339.591386 
L 1243.70993 542.773374 
L 1244.800625 542.773374 
L 1245.891321 448.997072 
L 1246.982017 542.773374 
L 1248.072713 167.668165 
L 1249.163409 448.997072 
L 1250.254105 404.609622 
L 1251.344801 160.791236 
L 1252.435496 367.724276 
L 1253.526192 405.234797 
L 1254.616888 417.738304 
L 1255.707584 448.997072 
L 1256.79828 247.065434 
L 1257.888976 448.997072 
L 1258.979672 273.322799 
L 1260.070367 336.465509 
L 1261.161063 334.589983 
L 1262.251759 323.962002 
L 1263.342455 492.759346 
L 1264.433151 411.486551 
L 1265.523847 461.500579 
L 1266.614543 386.479537 
L 1267.705238 298.329813 
L 1268.795934 574.032142 
L 1269.88663 155.164658 
L 1270.977326 504.012503 
L 1272.068022 442.745318 
L 1273.158718 402.108921 
L 1274.249414 414.612428 
L 1275.340109 346.468314 
L 1276.430805 448.997072 
L 1277.521501 461.500579 
L 1278.612197 344.592788 
L 1279.702893 303.331215 
L 1280.793589 465.876806 
L 1281.884285 292.703234 
L 1282.97498 292.703234 
L 1284.065676 365.223575 
L 1285.156372 277.073851 
L 1286.247068 386.479537 
L 1287.337764 290.827708 
L 1289.519156 336.465509 
L 1290.609851 147.037378 
L 1291.700547 164.542288 
L 1292.791243 480.255839 
L 1293.881939 448.997072 
L 1294.972635 429.616636 
L 1296.063331 457.749527 
L 1297.154027 357.721471 
L 1298.244722 136.409397 
L 1299.335418 472.12856 
L 1300.426114 292.703234 
L 1301.51681 355.220769 
L 1302.607506 230.1857 
L 1303.698202 480.255839 
L 1304.788898 195.801055 
L 1305.879593 309.582969 
L 1306.970289 574.032142 
L 1308.060985 278.324201 
L 1309.151681 492.759346 
L 1310.242377 403.984447 
L 1311.333073 198.926932 
L 1312.423769 387.104712 
L 1313.514464 430.241811 
L 1314.60516 386.479537 
L 1315.695856 576.532843 
L 1316.786552 323.962002 
L 1317.877248 373.97603 
L 1318.967944 417.738304 
L 1320.05864 376.476731 
L 1321.149335 288.952182 
L 1322.240031 148.287729 
L 1323.330727 227.059823 
L 1324.421423 193.925529 
L 1325.512119 323.962002 
L 1326.602815 292.703234 
L 1327.693511 407.735499 
L 1328.784206 383.35366 
L 1329.874902 405.234797 
L 1330.965598 552.151004 
L 1332.056294 189.549302 
L 1333.14699 455.248825 
L 1334.237686 368.974627 
L 1335.328382 361.472523 
L 1336.419077 117.654137 
L 1337.509773 352.094893 
L 1338.600469 273.947974 
L 1339.691165 167.668165 
L 1340.781861 428.366285 
L 1341.872557 480.255839 
L 1342.963253 508.38873 
L 1344.053948 323.962002 
L 1345.144644 530.269867 
L 1346.23534 373.97603 
L 1347.326036 386.479537 
L 1348.416732 305.206741 
L 1349.507428 292.703234 
L 1350.598124 542.773374 
L 1351.688819 448.997072 
L 1352.779515 417.738304 
L 1353.870211 350.219367 
L 1354.960907 448.997072 
L 1356.051603 223.933946 
L 1357.142299 136.409397 
L 1358.232995 330.213755 
L 1359.32369 398.983044 
L 1360.414386 370.850153 
L 1361.505082 305.206741 
L 1362.595778 605.290909 
L 1364.77717 417.738304 
L 1365.867866 115.778611 
L 1366.958561 423.990058 
L 1368.049257 115.778611 
L 1369.139953 511.514607 
L 1370.230649 386.479537 
L 1371.321345 322.086476 
L 1372.412041 442.745318 
L 1373.502737 511.514607 
L 1374.593432 411.486551 
L 1375.684128 343.342438 
L 1376.774824 355.845945 
L 1377.86552 365.223575 
L 1378.956216 384.604011 
L 1380.046912 386.479537 
L 1381.137608 261.444467 
L 1382.228303 542.773374 
L 1383.318999 430.241811 
L 1384.409695 230.1857 
L 1385.500391 417.738304 
L 1386.591087 402.108921 
L 1387.681783 239.56333 
L 1388.772478 338.96621 
L 1389.863174 167.668165 
L 1390.95387 355.220769 
L 1392.044566 417.738304 
L 1393.135262 450.872598 
L 1394.225958 457.124351 
L 1395.316654 256.443064 
L 1396.407349 348.969016 
L 1397.498045 533.395744 
L 1398.588741 280.199727 
L 1399.679437 267.69622 
L 1400.770133 323.962002 
L 1401.860829 417.738304 
L 1402.951525 448.997072 
L 1404.04222 370.850153 
L 1405.132916 280.199727 
L 1406.223612 220.182894 
L 1407.314308 442.745318 
L 1408.405004 292.703234 
L 1409.4957 409.611025 
L 1410.586396 261.444467 
L 1411.677091 361.472523 
L 1412.767787 301.455689 
L 1413.858483 448.997072 
L 1414.949179 448.997072 
L 1416.039875 396.482342 
L 1417.130571 423.990058 
L 1418.221267 492.759346 
L 1419.311962 448.997072 
L 1420.402658 229.560524 
L 1421.493354 417.738304 
L 1422.58405 348.969016 
L 1423.674746 486.507593 
L 1424.765442 323.336827 
L 1425.856138 428.366285 
L 1426.946833 459.625053 
L 1429.128225 385.854361 
L 1430.218921 323.962002 
L 1431.309617 198.926932 
L 1432.400313 384.604011 
L 1433.491009 492.759346 
L 1434.581704 417.738304 
L 1435.6724 376.476731 
L 1436.763096 272.072448 
L 1437.853792 480.255839 
L 1438.944488 323.962002 
L 1440.035184 398.983044 
L 1441.12588 386.479537 
L 1442.216575 305.206741 
L 1443.307271 423.990058 
L 1444.397967 448.997072 
L 1445.488663 382.728485 
L 1446.579359 229.560524 
L 1447.670055 286.451481 
L 1448.760751 467.752332 
L 1449.851446 204.55351 
L 1452.032838 380.227783 
L 1453.123534 430.241811 
L 1454.21423 178.296146 
L 1455.304926 480.881015 
L 1456.395622 336.465509 
L 1457.486317 230.1857 
L 1458.577013 423.990058 
L 1459.667709 201.427633 
L 1460.758405 230.1857 
L 1461.849101 342.717262 
L 1462.939797 355.220769 
L 1464.030493 379.602608 
L 1465.121188 373.350855 
L 1466.211884 386.479537 
L 1467.30258 467.752332 
L 1468.393276 283.95078 
L 1469.483972 236.437453 
L 1470.574668 417.738304 
L 1471.665364 227.684998 
L 1472.756059 448.997072 
L 1473.846755 402.734096 
L 1474.937451 292.703234 
L 1476.028147 214.556316 
L 1478.209539 480.255839 
L 1479.300235 405.234797 
L 1480.39093 448.997072 
L 1481.481626 261.444467 
L 1482.572322 430.241811 
L 1483.663018 448.997072 
L 1484.753714 448.997072 
L 1485.84441 423.990058 
L 1486.935106 255.192713 
L 1488.025801 417.738304 
L 1489.116497 448.371896 
L 1490.207193 248.94096 
L 1491.297889 486.507593 
L 1492.388585 486.507593 
L 1493.479281 423.990058 
L 1494.569977 142.661151 
L 1495.660672 358.346646 
L 1496.751368 198.926932 
L 1497.842064 379.602608 
L 1498.93276 442.745318 
L 1500.023456 555.276881 
L 1501.114152 377.101907 
L 1502.204848 236.437453 
L 1503.295543 555.276881 
L 1504.386239 227.684998 
L 1505.476935 261.444467 
L 1506.567631 443.995669 
L 1507.658327 443.995669 
L 1508.749023 423.990058 
L 1509.839719 436.493565 
L 1510.930414 255.192713 
L 1512.02111 477.755138 
L 1513.111806 430.241811 
L 1514.202502 480.255839 
L 1515.293198 398.983044 
L 1516.383894 405.234797 
L 1517.47459 261.444467 
L 1518.565285 292.703234 
L 1519.655981 305.206741 
L 1520.746677 261.444467 
L 1521.837373 392.73129 
L 1522.928069 305.206741 
L 1524.018765 261.444467 
L 1525.109461 417.738304 
L 1526.200156 311.458495 
L 1527.290852 305.206741 
L 1528.381548 480.255839 
L 1529.472244 277.073851 
L 1530.56294 345.217964 
L 1531.653636 511.514607 
L 1532.744332 417.738304 
L 1533.835027 361.472523 
L 1534.925723 370.224978 
L 1536.016419 517.76636 
L 1537.107115 517.76636 
L 1538.197811 461.500579 
L 1539.288507 355.220769 
L 1540.379203 343.967613 
L 1541.469898 411.486551 
L 1542.560594 430.241811 
L 1543.65129 461.500579 
L 1544.741986 469.002683 
L 1545.832682 358.346646 
L 1546.923378 292.703234 
L 1548.014073 467.752332 
L 1549.104769 200.177283 
L 1550.195465 436.493565 
L 1551.286161 474.004086 
L 1552.376857 326.462703 
L 1553.467553 527.769166 
L 1554.558249 309.582969 
L 1555.648944 376.476731 
L 1556.73964 423.990058 
L 1557.830336 278.324201 
L 1558.921032 335.840334 
L 1560.011728 230.1857 
L 1561.102424 417.738304 
L 1562.19312 247.065434 
L 1563.283815 355.220769 
L 1564.374511 231.43605 
L 1565.465207 580.283895 
L 1566.555903 386.479537 
L 1567.646599 486.507593 
L 1568.737295 270.822097 
L 1569.827991 256.443064 
L 1570.918686 417.738304 
L 1572.009382 398.983044 
L 1573.100078 407.735499 
L 1574.190774 412.736902 
L 1575.28147 378.977433 
L 1576.372166 352.094893 
L 1577.462862 446.49637 
L 1578.553557 367.724276 
L 1579.644253 167.668165 
L 1580.734949 282.700429 
L 1581.825645 355.220769 
L 1582.916341 383.35366 
L 1584.007037 335.840334 
L 1585.097733 355.220769 
L 1586.188428 355.220769 
L 1587.279124 402.734096 
L 1588.36982 288.952182 
L 1589.460516 423.990058 
L 1590.551212 386.479537 
L 1591.641908 386.479537 
L 1592.732604 505.262853 
L 1593.823299 386.479537 
L 1594.913995 183.297548 
L 1596.004691 436.493565 
L 1597.095387 220.182894 
L 1598.186083 323.962002 
L 1599.276779 480.255839 
L 1600.367475 480.255839 
L 1601.45817 323.962002 
L 1602.548866 343.967613 
L 1603.639562 480.255839 
L 1604.730258 323.962002 
L 1606.91165 286.451481 
L 1608.002346 302.080865 
L 1609.093041 460.875403 
L 1610.183737 288.952182 
L 1611.274433 323.962002 
L 1612.365129 239.56333 
L 1613.455825 386.479537 
L 1614.546521 346.468314 
L 1615.637217 443.995669 
L 1616.727912 323.962002 
L 1617.818608 448.997072 
L 1618.909304 480.255839 
L 1620 495.885223 
L 1620 495.885223 
" style="fill:none;stroke:#1f77b4;stroke-linecap:square;stroke-width:1.5;"/>
   </g>
   <g id="line2d_18">
    <path clip-path="url(#p338ce08d04)" d="M 225 423.697944 
L 227.181392 342.605684 
L 228.272088 283.357854 
L 229.362783 252.554022 
L 230.453479 370.888397 
L 231.544175 468.981382 
L 232.634871 434.842052 
L 233.725567 437.420021 
L 234.816263 215.855203 
L 236.997654 300.873803 
L 238.08835 299.292808 
L 239.179046 410.809575 
L 240.269742 436.58246 
L 241.360438 524.976025 
L 242.451134 420.354965 
L 243.54183 278.000914 
L 244.632525 261.425138 
L 245.723221 251.645923 
L 246.813917 384.467149 
L 247.904613 190.676247 
L 248.995309 269.151036 
L 250.086005 220.333255 
L 251.176701 349.836972 
L 252.267396 422.411522 
L 253.358092 339.012242 
L 254.448788 228.196298 
L 255.539484 237.809276 
L 256.63018 269.318749 
L 257.720876 394.539273 
L 258.811572 337.495216 
L 259.902267 311.111395 
L 260.992963 211.81441 
L 262.083659 186.929236 
L 263.174355 331.06353 
L 264.265051 388.904227 
L 265.355747 154.473136 
L 266.446443 258.743824 
L 267.537138 205.897391 
L 268.627834 334.911564 
L 269.71853 384.434335 
L 270.809226 215.064695 
L 271.899922 372.133435 
L 274.081314 367.428651 
L 275.172009 266.592619 
L 277.353401 501.840655 
L 278.444097 312.42898 
L 279.534793 277.61673 
L 280.625489 426.093412 
L 281.716185 233.096557 
L 282.80688 361.833742 
L 283.897576 326.389014 
L 284.988272 244.984678 
L 286.078968 263.163421 
L 287.169664 233.006359 
L 288.26036 257.04823 
L 290.441751 299.284686 
L 292.623143 493.175454 
L 293.713839 540.639845 
L 294.804535 285.928249 
L 295.895231 223.618079 
L 296.985927 207.836449 
L 298.076622 403.377606 
L 299.167318 413.890914 
L 300.258014 198.617501 
L 301.34871 146.66753 
L 302.439406 480.032032 
L 303.530102 503.72167 
L 304.620797 267.682763 
L 305.711493 503.72167 
L 306.802189 503.496845 
L 307.892885 449.842798 
L 308.983581 516.329905 
L 310.074277 350.944816 
L 311.164973 254.586525 
L 312.255668 312.067316 
L 313.346364 553.133873 
L 314.43706 196.10102 
L 315.527756 347.525844 
L 316.618452 240.089467 
L 317.709148 270.434924 
L 318.799844 198.656573 
L 319.890539 441.066972 
L 320.981235 407.229297 
L 322.071931 304.123212 
L 323.162627 288.031874 
L 324.253323 249.920765 
L 325.344019 324.083357 
L 326.434715 280.838173 
L 328.616106 152.152223 
L 329.706802 356.191031 
L 330.797498 491.940411 
L 331.888194 152.925621 
L 332.97889 199.285643 
L 334.069586 355.46347 
L 335.160281 285.918695 
L 336.250977 255.100614 
L 337.341673 249.983108 
L 338.432369 318.032336 
L 339.523065 362.171819 
L 340.613761 285.780664 
L 341.704457 259.120747 
L 342.795152 223.403337 
L 343.885848 226.221029 
L 344.976544 283.604739 
L 346.06724 283.604739 
L 347.157936 242.694396 
L 348.248632 237.748212 
L 350.430023 284.625433 
L 351.520719 337.319519 
L 352.611415 206.104911 
L 353.702111 251.983112 
L 354.792807 209.765973 
L 355.883503 279.772268 
L 356.974199 326.316392 
L 359.15559 240.263611 
L 360.246286 307.425153 
L 361.336982 467.161705 
L 362.427678 500.929005 
L 363.518374 221.447086 
L 364.60907 414.407027 
L 365.699765 269.013118 
L 366.790461 195.232057 
L 367.881157 158.737679 
L 368.971853 225.231745 
L 370.062549 383.737522 
L 371.153245 311.483364 
L 372.243941 258.963871 
L 373.334636 389.98918 
L 374.425332 195.4592 
L 375.516028 464.890841 
L 376.606724 224.363524 
L 377.69742 203.259401 
L 378.788116 275.895245 
L 379.878812 111.109091 
L 380.969507 260.277941 
L 382.060203 239.113828 
L 383.150899 179.781204 
L 384.241595 189.397165 
L 385.332291 232.846393 
L 386.422987 346.241046 
L 387.513683 290.565303 
L 388.604378 475.46438 
L 389.695074 211.143569 
L 390.78577 160.725413 
L 391.876466 365.595585 
L 392.967162 172.771039 
L 394.057858 192.245961 
L 395.148554 156.527773 
L 396.239249 318.137574 
L 397.329945 253.057028 
L 398.420641 244.680231 
L 399.511337 220.643218 
L 400.602033 192.556097 
L 401.692729 276.931537 
L 402.783425 196.421957 
L 403.87412 192.918318 
L 404.964816 218.936945 
L 406.055512 285.517003 
L 407.146208 289.818487 
L 408.236904 264.243823 
L 409.3276 426.060716 
L 410.418296 277.123928 
L 411.508991 336.513415 
L 412.599687 365.882815 
L 413.690383 323.240879 
L 414.781079 304.748879 
L 415.871775 360.458302 
L 416.962471 200.176484 
L 418.053167 220.466655 
L 419.143862 166.079019 
L 420.234558 217.71019 
L 421.325254 197.883782 
L 422.41595 262.207591 
L 423.506646 395.977353 
L 425.688038 325.329156 
L 426.778733 356.730368 
L 427.869429 340.350287 
L 428.960125 508.396875 
L 430.050821 284.632066 
L 431.141517 225.644931 
L 432.232213 207.819139 
L 433.322909 142.258738 
L 434.413604 238.54295 
L 435.5043 324.787425 
L 436.594996 202.147946 
L 437.685692 451.275944 
L 438.776388 490.231499 
L 439.867084 508.490814 
L 440.95778 522.266437 
L 442.048475 380.323646 
L 443.139171 495.729503 
L 444.229867 242.459857 
L 445.320563 510.322472 
L 446.411259 366.575187 
L 447.501955 384.723432 
L 448.592651 389.969231 
L 449.683346 340.212132 
L 450.774042 273.312091 
L 451.864738 475.958262 
L 452.955434 265.642647 
L 454.04613 416.532178 
L 455.136826 294.935664 
L 456.227522 440.48626 
L 457.318217 424.008715 
L 458.408913 328.382408 
L 459.499609 310.681959 
L 460.590305 405.485923 
L 461.681001 373.163626 
L 462.771697 482.128871 
L 463.862392 431.948965 
L 464.953088 462.204568 
L 466.043784 412.901709 
L 467.13448 232.676906 
L 468.225176 330.418816 
L 469.315872 200.664703 
L 470.406568 154.900451 
L 471.497263 218.759524 
L 472.587959 353.122165 
L 473.678655 519.15664 
L 474.769351 346.631827 
L 475.860047 234.687524 
L 476.950743 363.603675 
L 478.041439 173.851643 
L 479.132134 480.487766 
L 480.22283 394.244512 
L 481.313526 237.444169 
L 482.404222 254.908132 
L 483.494918 210.221149 
L 484.585614 187.286039 
L 485.67631 244.079906 
L 486.767005 156.0965 
L 487.857701 244.079906 
L 488.948397 156.787627 
L 490.039093 180.916974 
L 491.129789 176.423482 
L 492.220485 398.628332 
L 493.311181 277.062898 
L 494.401876 302.602187 
L 495.492572 264.581297 
L 496.583268 180.810311 
L 497.673964 382.200593 
L 498.76466 187.594549 
L 499.855356 170.055891 
L 500.946052 486.717656 
L 502.036747 314.961191 
L 503.127443 264.107476 
L 504.218139 221.736346 
L 505.308835 294.847411 
L 506.399531 407.776976 
L 507.490227 372.682153 
L 508.580923 330.213031 
L 509.671618 242.156846 
L 511.85301 149.612697 
L 512.943706 503.435835 
L 514.034402 301.081513 
L 515.125098 239.643301 
L 516.215794 291.400217 
L 517.306489 246.461856 
L 518.397185 463.189531 
L 519.487881 240.113691 
L 520.578577 238.015817 
L 521.669273 347.492526 
L 522.759969 199.211826 
L 523.850665 240.043962 
L 524.94136 460.044707 
L 526.032056 290.280657 
L 527.122752 449.164818 
L 528.213448 442.235154 
L 529.304144 412.143634 
L 530.39484 328.912066 
L 531.485536 285.201425 
L 532.576231 227.353009 
L 533.666927 359.438071 
L 534.757623 308.255825 
L 535.848319 378.201056 
L 536.939015 475.696472 
L 538.029711 266.674157 
L 539.120407 318.640154 
L 540.211102 360.161347 
L 541.301798 278.958253 
L 542.392494 231.546442 
L 543.48319 284.038521 
L 544.573886 222.643767 
L 545.664582 382.622724 
L 546.755278 168.653482 
L 547.845973 194.546886 
L 548.936669 416.15135 
L 550.027365 219.880909 
L 551.118061 473.269894 
L 552.208757 526.378806 
L 553.299453 438.998061 
L 554.390149 449.32889 
L 555.480844 449.290675 
L 556.57154 500.700929 
L 557.662236 424.06283 
L 558.752932 242.840122 
L 559.843628 433.116048 
L 560.934324 391.259669 
L 562.02502 420.495443 
L 563.115715 484.573689 
L 564.206411 183.279421 
L 565.297107 398.005402 
L 566.387803 526.002736 
L 567.478499 300.708965 
L 568.569195 327.227547 
L 569.659891 336.32755 
L 570.750586 209.620829 
L 571.841282 187.274497 
L 574.022674 340.489203 
L 575.11337 290.349863 
L 576.204066 380.139474 
L 577.294762 173.242659 
L 578.385457 232.199951 
L 579.476153 376.49004 
L 580.566849 169.40222 
L 581.657545 450.696272 
L 582.748241 452.592861 
L 583.838937 400.720971 
L 584.929633 474.185569 
L 586.020328 476.895158 
L 587.111024 358.31742 
L 588.20172 431.634622 
L 589.292416 223.055215 
L 590.383112 274.110367 
L 591.473808 596.434409 
L 592.564504 349.010863 
L 593.655199 413.179295 
L 594.745895 442.299623 
L 595.836591 295.613602 
L 596.927287 263.034466 
L 598.017983 337.07693 
L 599.108679 596.434409 
L 600.199375 425.640316 
L 601.29007 550.340576 
L 602.380766 403.082554 
L 603.471462 411.481182 
L 604.562158 428.296565 
L 605.652854 471.335877 
L 606.74355 492.014343 
L 607.834246 502.815661 
L 608.924941 531.202557 
L 610.015637 399.581151 
L 611.106333 459.263479 
L 612.197029 295.096879 
L 613.287725 325.238154 
L 614.378421 462.189647 
L 615.469116 173.647102 
L 616.559812 405.436911 
L 617.650508 259.717264 
L 618.741204 222.294319 
L 619.8319 367.472966 
L 622.013292 174.734267 
L 623.103987 474.270481 
L 624.194683 416.430876 
L 625.285379 282.014319 
L 626.376075 406.027165 
L 627.466771 471.665401 
L 628.557467 311.957215 
L 629.648163 435.326137 
L 630.738858 392.564711 
L 631.829554 379.985874 
L 632.92025 225.602269 
L 634.010946 405.478195 
L 635.101642 446.730397 
L 636.192338 306.887644 
L 637.283034 381.663271 
L 638.373729 313.498525 
L 639.464425 420.202957 
L 640.555121 404.334764 
L 641.645817 412.298658 
L 642.736513 408.955834 
L 643.827209 397.7517 
L 644.917905 445.787776 
L 646.0086 342.003605 
L 647.099296 370.685404 
L 649.280688 435.672266 
L 650.371384 341.487597 
L 651.46208 363.123412 
L 652.552776 475.355454 
L 653.643471 368.107368 
L 654.734167 289.064399 
L 655.824863 302.731737 
L 656.915559 499.070338 
L 658.006255 324.523359 
L 659.096951 331.656662 
L 660.187647 320.905173 
L 661.278342 333.427635 
L 662.369038 571.678423 
L 663.459734 224.935477 
L 664.55043 319.142088 
L 665.641126 350.326785 
L 666.731822 291.37064 
L 667.822518 475.33853 
L 668.913213 401.825552 
L 670.003909 430.598558 
L 671.094605 358.127796 
L 672.185301 324.308657 
L 673.275997 258.157973 
L 674.366693 381.013304 
L 675.457389 296.660809 
L 676.548084 320.402983 
L 677.63878 283.116762 
L 678.729476 315.609507 
L 679.820172 277.075119 
L 680.910868 465.289831 
L 682.001564 507.139138 
L 683.09226 386.905315 
L 684.182955 369.966494 
L 685.273651 550.136826 
L 686.364347 441.437788 
L 687.455043 496.300503 
L 688.545739 173.654578 
L 689.636435 497.33844 
L 690.727131 475.907565 
L 691.817826 537.109259 
L 693.999218 415.165963 
L 695.089914 432.392885 
L 696.18061 239.573039 
L 697.271306 502.29356 
L 698.362002 443.377741 
L 699.452697 536.913296 
L 700.543393 419.433403 
L 701.634089 409.700355 
L 702.724785 446.372596 
L 703.815481 338.637135 
L 704.906177 423.145226 
L 705.996873 399.367649 
L 707.087568 413.244589 
L 708.178264 376.047684 
L 709.26896 357.333317 
L 710.359656 435.126988 
L 711.450352 432.381978 
L 712.541048 306.625453 
L 713.631744 243.726706 
L 714.722439 420.904661 
L 715.813135 311.357749 
L 716.903831 533.135345 
L 717.994527 349.548266 
L 719.085223 398.268984 
L 720.175919 418.39928 
L 721.266615 389.498953 
L 722.35731 303.615713 
L 723.448006 484.999333 
L 724.538702 298.827823 
L 725.629398 413.750844 
L 726.720094 236.061064 
L 727.81079 418.102653 
L 728.901486 358.181969 
L 729.992181 313.204361 
L 731.082877 375.246868 
L 732.173573 388.927611 
L 733.264269 459.050302 
L 734.354965 353.450399 
L 735.445661 367.259459 
L 736.536357 393.249177 
L 737.627052 340.802677 
L 738.717748 343.023238 
L 739.808444 349.850976 
L 740.89914 532.767516 
L 741.989836 183.575718 
L 743.080532 442.056461 
L 744.171228 342.901395 
L 745.261923 396.197529 
L 746.352619 419.482273 
L 747.443315 396.018719 
L 748.534011 496.224378 
L 749.624707 511.353221 
L 750.715403 517.001339 
L 751.806099 258.894609 
L 752.896794 395.654127 
L 755.078186 321.86384 
L 756.168882 332.452584 
L 757.259578 411.104321 
L 758.350274 393.26542 
L 759.44097 538.753213 
L 760.531665 466.093309 
L 761.622361 418.757965 
L 762.713057 390.824727 
L 763.803753 369.619845 
L 764.894449 405.624954 
L 765.985145 466.178444 
L 767.075841 277.678171 
L 768.166536 365.002904 
L 769.257232 295.668278 
L 770.347928 406.539685 
L 771.438624 407.949888 
L 772.52932 314.179496 
L 773.620016 359.84944 
L 774.710711 344.258807 
L 775.801407 309.706467 
L 776.892103 359.471282 
L 777.982799 401.824295 
L 779.073495 397.968285 
L 780.164191 434.908634 
L 781.254887 441.585804 
L 782.345582 384.175322 
L 783.436278 376.047684 
L 784.526974 491.014698 
L 785.61767 338.588353 
L 786.708366 471.823817 
L 787.799062 305.477818 
L 788.889758 424.04472 
L 789.980453 391.590284 
L 791.071149 412.168502 
L 792.161845 334.96472 
L 793.252541 349.394547 
L 794.343237 440.245837 
L 795.433933 450.729275 
L 796.524629 322.740067 
L 797.615324 408.338263 
L 798.70602 433.015522 
L 799.796716 423.669434 
L 800.887412 302.881253 
L 801.978108 358.845654 
L 803.068804 358.845654 
L 804.1595 523.296374 
L 805.250195 462.276868 
L 806.340891 528.028238 
L 807.431587 321.986818 
L 808.522283 559.13494 
L 809.612979 552.478918 
L 810.703675 450.040202 
L 811.794371 513.478594 
L 812.885066 428.013914 
L 813.975762 361.130447 
L 815.066458 476.783729 
L 816.157154 537.490411 
L 817.24785 488.068502 
L 818.338546 416.817673 
L 819.429242 466.144188 
L 820.519937 298.41007 
L 821.610633 490.296997 
L 822.701329 538.941297 
L 823.792025 528.525268 
L 824.882721 552.621267 
L 825.973417 549.953253 
L 827.064113 532.33237 
L 828.154808 443.176849 
L 829.245504 389.598446 
L 831.426896 304.907189 
L 832.517592 420.995886 
L 833.608288 317.002112 
L 834.698984 355.809265 
L 835.789679 525.253779 
L 836.880375 354.806082 
L 837.971071 387.885671 
L 839.061767 393.490283 
L 840.152463 428.626479 
L 841.243159 467.810634 
L 842.333855 352.96491 
L 843.42455 381.643004 
L 844.515246 425.86212 
L 845.605942 363.39463 
L 846.696638 375.625209 
L 847.787334 421.866199 
L 848.87803 437.145689 
L 849.968726 455.895131 
L 851.059421 261.875577 
L 852.150117 482.632104 
L 853.240813 305.591309 
L 854.331509 495.637102 
L 855.422205 408.341556 
L 856.512901 363.025211 
L 857.603597 309.808695 
L 858.694292 484.450195 
L 859.784988 451.069353 
L 860.875684 451.178767 
L 861.96638 441.36458 
L 863.057076 446.457204 
L 864.147772 377.185459 
L 865.238468 396.362027 
L 866.329163 301.666961 
L 867.419859 506.815222 
L 868.510555 451.471636 
L 869.601251 356.946022 
L 870.691947 417.791476 
L 871.782643 264.190485 
L 872.873339 394.339639 
L 873.964034 391.02139 
L 875.05473 405.747937 
L 876.145426 283.867763 
L 877.236122 319.772916 
L 878.326818 491.427772 
L 879.417514 403.333102 
L 880.50821 482.313026 
L 881.598905 483.600356 
L 882.689601 500.438676 
L 883.780297 355.537534 
L 884.870993 471.401109 
L 885.961689 451.946199 
L 887.052385 453.931652 
L 888.143081 302.823125 
L 889.233776 477.927664 
L 890.324472 372.028241 
L 891.415168 443.953974 
L 892.505864 457.522769 
L 893.59656 317.356744 
L 894.687256 352.477526 
L 895.777952 417.418488 
L 896.868647 411.571076 
L 897.959343 381.704906 
L 899.050039 415.794072 
L 900.140735 379.081722 
L 901.231431 349.190439 
L 902.322127 446.357538 
L 903.412823 425.413794 
L 904.503518 349.005505 
L 905.594214 441.811516 
L 906.68491 435.659269 
L 907.775606 250.541421 
L 908.866302 337.551347 
L 909.956998 400.906 
L 911.047694 372.627195 
L 912.138389 390.434733 
L 913.229085 424.55112 
L 914.319781 369.060878 
L 915.410477 429.677114 
L 916.501173 316.790858 
L 917.591869 311.373985 
L 918.682565 350.650573 
L 919.77326 302.79284 
L 920.863956 317.819798 
L 921.954652 384.361634 
L 923.045348 325.130873 
L 924.136044 325.133548 
L 925.22674 380.748498 
L 926.317435 248.996302 
L 927.408131 428.757632 
L 928.498827 285.777103 
L 929.589523 503.415378 
L 930.680219 456.058353 
L 931.770915 445.804667 
L 932.861611 387.341097 
L 933.952306 357.688556 
L 935.043002 277.679287 
L 936.133698 312.829393 
L 937.224394 325.133548 
L 938.31509 468.591619 
L 939.405786 532.853624 
L 940.496482 334.081064 
L 941.587177 311.444731 
L 942.677873 298.367175 
L 943.768569 224.721964 
L 944.859265 464.528565 
L 945.949961 462.367919 
L 947.040657 413.564953 
L 948.131353 426.770939 
L 949.222048 437.737703 
L 950.312744 390.673776 
L 951.40344 392.314632 
L 952.494136 457.884558 
L 953.584832 396.424297 
L 954.675528 404.991099 
L 955.766224 445.221108 
L 956.856919 391.112705 
L 957.947615 431.491977 
L 959.038311 454.62746 
L 960.129007 402.361859 
L 961.219703 358.614772 
L 962.310399 445.221108 
L 963.401095 343.261691 
L 964.49179 423.925641 
L 965.582486 399.406282 
L 966.673182 456.561311 
L 967.763878 485.291462 
L 968.854574 373.253842 
L 971.035966 552.481907 
L 972.126661 461.194642 
L 973.217357 226.996677 
L 974.308053 457.164077 
L 975.398749 421.749009 
L 976.489445 292.078403 
L 977.580141 292.078403 
L 978.670837 431.813294 
L 979.761532 420.899384 
L 980.852228 431.305798 
L 981.942924 445.198233 
L 983.03362 148.072904 
L 984.124316 211.142261 
L 985.215012 399.257474 
L 986.305708 346.755963 
L 987.396403 427.516141 
L 988.487099 486.024902 
L 989.577795 450.786077 
L 990.668491 439.626545 
L 991.759187 471.966338 
L 992.849883 367.024278 
L 993.940579 391.968196 
L 995.031274 383.312767 
L 996.12197 250.207638 
L 997.212666 319.961337 
L 998.303362 447.273815 
L 999.394058 503.218072 
L 1000.484754 407.696519 
L 1001.57545 521.649221 
L 1002.666145 521.253306 
L 1003.756841 318.263895 
L 1004.847537 368.715248 
L 1005.938233 503.897776 
L 1007.028929 521.999658 
L 1008.119625 474.467725 
L 1009.210321 456.061568 
L 1010.301016 560.13469 
L 1011.391712 472.578908 
L 1012.482408 503.396224 
L 1013.573104 406.885669 
L 1014.6638 429.981216 
L 1015.754496 496.071874 
L 1016.845192 588.465129 
L 1017.935887 482.220684 
L 1019.026583 430.732728 
L 1020.117279 318.806649 
L 1021.207975 553.568518 
L 1022.298671 447.612381 
L 1023.389367 456.565912 
L 1024.480063 545.504097 
L 1025.570758 374.507941 
L 1026.661454 366.049858 
L 1027.75215 421.466333 
L 1028.842846 421.818857 
L 1029.933542 404.668835 
L 1031.024238 373.481231 
L 1032.114934 529.262844 
L 1033.205629 410.024042 
L 1034.296325 463.678182 
L 1035.387021 394.606112 
L 1036.477717 372.886044 
L 1037.568413 345.934513 
L 1038.659109 424.070648 
L 1039.749805 392.89213 
L 1040.8405 484.610286 
L 1041.931196 439.063438 
L 1043.021892 463.054213 
L 1044.112588 404.893828 
L 1045.203284 469.499756 
L 1046.29398 390.627765 
L 1047.384676 297.714677 
L 1048.475371 393.256274 
L 1049.566067 198.634143 
L 1050.656763 414.303069 
L 1051.747459 378.342353 
L 1052.838155 464.83407 
L 1053.928851 468.844313 
L 1055.019547 464.590913 
L 1056.110242 445.154102 
L 1057.200938 487.481917 
L 1058.291634 381.164602 
L 1059.38233 449.069997 
L 1060.473026 445.8843 
L 1061.563722 392.292036 
L 1062.654418 451.605294 
L 1063.745113 401.863726 
L 1064.835809 481.183136 
L 1065.926505 458.189591 
L 1067.017201 481.777934 
L 1068.107897 435.194522 
L 1069.198593 478.831592 
L 1070.289289 403.131765 
L 1071.379984 425.380064 
L 1072.47068 475.762745 
L 1073.561376 430.54286 
L 1074.652072 483.869762 
L 1075.742768 430.738452 
L 1076.833464 494.729309 
L 1077.924159 402.877318 
L 1079.014855 186.483802 
L 1080.105551 488.393368 
L 1081.196247 396.604704 
L 1082.286943 400.014477 
L 1083.377639 378.723492 
L 1084.468335 450.151325 
L 1085.55903 303.97781 
L 1086.649726 428.060128 
L 1087.740422 400.903283 
L 1088.831118 386.775937 
L 1089.921814 398.768054 
L 1091.01251 374.393696 
L 1092.103206 292.717538 
L 1093.193901 391.583416 
L 1094.284597 454.609701 
L 1095.375293 408.125858 
L 1096.465989 402.46945 
L 1097.556685 278.465764 
L 1098.647381 208.981187 
L 1099.738077 389.253972 
L 1100.828772 378.613141 
L 1101.919468 438.63452 
L 1103.010164 357.691484 
L 1104.10086 397.775628 
L 1105.191556 388.468764 
L 1106.282252 415.591295 
L 1107.372948 423.451423 
L 1108.463643 427.923282 
L 1109.554339 439.391028 
L 1110.645035 273.778596 
L 1111.735731 417.797126 
L 1112.826427 389.733083 
L 1113.917123 189.835655 
L 1115.007819 293.368467 
L 1116.098514 431.372716 
L 1117.18921 392.535022 
L 1118.279906 404.332311 
L 1119.370602 220.458877 
L 1120.461298 204.760674 
L 1121.551994 183.41267 
L 1122.64269 475.687726 
L 1123.733385 426.946611 
L 1124.824081 209.364685 
L 1125.914777 240.681729 
L 1127.005473 419.048444 
L 1128.096169 388.281918 
L 1129.186865 345.49293 
L 1130.277561 273.644084 
L 1131.368256 255.136813 
L 1132.458952 222.396578 
L 1133.549648 434.995592 
L 1134.640344 236.667665 
L 1135.73104 172.10689 
L 1136.821736 340.346454 
L 1137.912432 338.548921 
L 1139.003127 415.442084 
L 1140.093823 472.669672 
L 1141.184519 336.597826 
L 1142.275215 456.060199 
L 1143.365911 488.427838 
L 1144.456607 193.44588 
L 1145.547303 410.755713 
L 1146.637998 376.015777 
L 1147.728694 415.874465 
L 1148.81939 360.268855 
L 1149.910086 238.500472 
L 1151.000782 450.26141 
L 1152.091478 457.639696 
L 1153.182174 307.321222 
L 1154.272869 261.070089 
L 1155.363565 343.184069 
L 1156.454261 335.383224 
L 1157.544957 265.606423 
L 1158.635653 411.796961 
L 1159.726349 453.397839 
L 1160.817045 351.063875 
L 1161.90774 392.129913 
L 1162.998436 487.876009 
L 1164.089132 403.886131 
L 1165.179828 459.687724 
L 1166.270524 505.703246 
L 1167.36122 512.50725 
L 1168.451916 446.570883 
L 1169.542611 444.773981 
L 1170.633307 203.970961 
L 1171.724003 398.522298 
L 1172.814699 445.878563 
L 1173.905395 464.727317 
L 1174.996091 433.151747 
L 1176.086787 470.210738 
L 1177.177482 435.052234 
L 1178.268178 438.71307 
L 1179.358874 468.203664 
L 1180.44957 477.570534 
L 1181.540266 280.52562 
L 1182.630962 410.350703 
L 1183.721658 441.779949 
L 1184.812353 405.309018 
L 1185.903049 360.721953 
L 1186.993745 309.889457 
L 1188.084441 467.14013 
L 1189.175137 322.2079 
L 1190.265833 470.937994 
L 1191.356529 260.128235 
L 1192.447224 204.649755 
L 1193.53792 432.126626 
L 1194.628616 437.258162 
L 1195.719312 449.630018 
L 1196.810008 407.396889 
L 1197.900704 259.727371 
L 1198.9914 429.224555 
L 1200.082095 224.232923 
L 1201.172791 425.478024 
L 1202.263487 459.282944 
L 1203.354183 424.626925 
L 1204.444879 442.051391 
L 1205.535575 433.839532 
L 1206.626271 197.337686 
L 1207.716966 359.594831 
L 1208.807662 428.903511 
L 1209.898358 412.80924 
L 1210.989054 449.945399 
L 1212.07975 420.338777 
L 1213.170446 124.081377 
L 1214.261142 422.757742 
L 1215.351837 450.028956 
L 1216.442533 237.990399 
L 1217.533229 169.603639 
L 1218.623925 272.915612 
L 1219.714621 434.878821 
L 1220.805317 301.369334 
L 1221.896013 335.132188 
L 1222.986708 566.570313 
L 1224.077404 409.503893 
L 1225.1681 344.0283 
L 1226.258796 500.210981 
L 1227.349492 473.911898 
L 1228.440188 387.769232 
L 1229.530884 366.625636 
L 1230.621579 417.767038 
L 1231.712275 420.096927 
L 1232.802971 344.081415 
L 1233.893667 390.646986 
L 1234.984363 558.824663 
L 1236.075059 438.290441 
L 1237.165754 417.174287 
L 1238.25645 399.054881 
L 1239.347146 293.402275 
L 1240.437842 449.154159 
L 1241.528538 410.164247 
L 1242.619234 350.300319 
L 1243.70993 533.536043 
L 1244.800625 558.824663 
L 1245.891321 407.097381 
L 1246.982017 565.31859 
L 1248.072713 167.130228 
L 1249.163409 403.422793 
L 1250.254105 390.352875 
L 1251.344801 224.170058 
L 1252.435496 396.276194 
L 1253.526192 375.964475 
L 1254.616888 362.569708 
L 1255.707584 445.778051 
L 1256.79828 297.587124 
L 1257.888976 443.59186 
L 1258.979672 293.196043 
L 1261.161063 422.954348 
L 1262.251759 332.821573 
L 1263.342455 508.673748 
L 1264.433151 421.065578 
L 1265.523847 418.473836 
L 1266.614543 381.950219 
L 1267.705238 313.803626 
L 1268.795934 565.72969 
L 1269.88663 183.928838 
L 1270.977326 491.542322 
L 1272.068022 425.754134 
L 1273.158718 419.126702 
L 1274.249414 393.164068 
L 1275.340109 341.668247 
L 1277.521501 507.552678 
L 1278.612197 349.579657 
L 1279.702893 386.233941 
L 1280.793589 418.541626 
L 1281.884285 315.876817 
L 1282.97498 367.976378 
L 1284.065676 371.838449 
L 1285.156372 327.31248 
L 1286.247068 328.301161 
L 1287.337764 280.326072 
L 1288.42846 301.421348 
L 1289.519156 351.606595 
L 1291.700547 163.817366 
L 1292.791243 462.45259 
L 1293.881939 440.442804 
L 1294.972635 427.259755 
L 1296.063331 427.259755 
L 1297.154027 397.218142 
L 1298.244722 169.716974 
L 1299.335418 455.405955 
L 1300.426114 315.396954 
L 1301.51681 375.682124 
L 1302.607506 336.891888 
L 1303.698202 462.45259 
L 1304.788898 286.819488 
L 1305.879593 354.513955 
L 1306.970289 557.064777 
L 1308.060985 326.375563 
L 1309.151681 470.795492 
L 1310.242377 415.552508 
L 1311.333073 351.354309 
L 1312.423769 363.602513 
L 1313.514464 417.071015 
L 1314.60516 397.738928 
L 1315.695856 539.44116 
L 1316.786552 385.935493 
L 1317.877248 378.49961 
L 1318.967944 418.876984 
L 1320.05864 387.757781 
L 1321.149335 311.239332 
L 1322.240031 148.545749 
L 1323.330727 301.627312 
L 1324.421423 224.958677 
L 1325.512119 361.165887 
L 1326.602815 294.42129 
L 1327.693511 372.418657 
L 1328.784206 372.712406 
L 1329.874902 380.232817 
L 1330.965598 404.035058 
L 1332.056294 217.797478 
L 1333.14699 415.85836 
L 1334.237686 374.704633 
L 1335.328382 275.382666 
L 1336.419077 218.20773 
L 1337.509773 390.967103 
L 1338.600469 271.480145 
L 1339.691165 183.651564 
L 1340.781861 440.793455 
L 1341.872557 414.222598 
L 1342.963253 453.735254 
L 1344.053948 322.167596 
L 1345.144644 465.947595 
L 1346.23534 388.652624 
L 1347.326036 355.232165 
L 1348.416732 377.013155 
L 1349.507428 304.022971 
L 1350.598124 424.796234 
L 1351.688819 487.37563 
L 1352.779515 370.163803 
L 1353.870211 346.048265 
L 1354.960907 419.220664 
L 1357.142299 158.720143 
L 1359.32369 436.731266 
L 1360.414386 382.224664 
L 1361.505082 313.101147 
L 1362.595778 532.01337 
L 1363.686474 497.16029 
L 1364.77717 407.345238 
L 1365.867866 141.301526 
L 1366.958561 444.429295 
L 1368.049257 174.172008 
L 1369.139953 444.566019 
L 1370.230649 383.399877 
L 1371.321345 362.164126 
L 1372.412041 408.914307 
L 1373.502737 492.539263 
L 1374.593432 382.324404 
L 1375.684128 318.509234 
L 1376.774824 330.738766 
L 1378.956216 422.512417 
L 1380.046912 316.431591 
L 1381.137608 295.978108 
L 1382.228303 342.152148 
L 1383.318999 398.272937 
L 1384.409695 263.23927 
L 1385.500391 393.817957 
L 1386.591087 417.946289 
L 1387.681783 260.009416 
L 1388.772478 385.771705 
L 1389.863174 275.958488 
L 1390.95387 360.877598 
L 1392.044566 391.767515 
L 1393.135262 418.170669 
L 1394.225958 428.79548 
L 1395.316654 312.219278 
L 1396.407349 373.033027 
L 1397.498045 496.552987 
L 1398.588741 410.769959 
L 1399.679437 290.554147 
L 1400.770133 349.225237 
L 1401.860829 368.36158 
L 1402.951525 417.64115 
L 1405.132916 353.165472 
L 1406.223612 285.351435 
L 1407.314308 435.188314 
L 1408.405004 337.081448 
L 1409.4957 418.817622 
L 1410.586396 251.436011 
L 1411.677091 339.694888 
L 1412.767787 334.695522 
L 1413.858483 439.739034 
L 1414.949179 479.534854 
L 1416.039875 403.935787 
L 1417.130571 399.001713 
L 1418.221267 484.380846 
L 1419.311962 437.287725 
L 1420.402658 236.553446 
L 1421.493354 333.876203 
L 1422.58405 368.731464 
L 1423.674746 426.647956 
L 1424.765442 346.334556 
L 1425.856138 408.437324 
L 1426.946833 439.661209 
L 1428.037529 447.796498 
L 1429.128225 375.161763 
L 1430.218921 371.809938 
L 1431.309617 251.031203 
L 1432.400313 399.558804 
L 1433.491009 479.017494 
L 1434.581704 396.799237 
L 1435.6724 384.114144 
L 1436.763096 309.606567 
L 1437.853792 472.648876 
L 1438.944488 346.813086 
L 1440.035184 396.739459 
L 1441.12588 322.834195 
L 1442.216575 344.816889 
L 1443.307271 352.559711 
L 1444.397967 455.33846 
L 1445.488663 364.766128 
L 1446.579359 248.145135 
L 1447.670055 385.491411 
L 1448.760751 451.185279 
L 1449.851446 263.649142 
L 1450.942142 315.555125 
L 1452.032838 389.32944 
L 1453.123534 389.054118 
L 1454.21423 180.329596 
L 1455.304926 453.011743 
L 1456.395622 343.844865 
L 1457.486317 283.916654 
L 1458.577013 412.895948 
L 1459.667709 200.165368 
L 1460.758405 227.810272 
L 1461.849101 374.181095 
L 1462.939797 368.907633 
L 1464.030493 386.028782 
L 1465.121188 339.343219 
L 1466.211884 359.628867 
L 1467.30258 432.713296 
L 1468.393276 316.734448 
L 1469.483972 232.306078 
L 1470.574668 391.384398 
L 1471.665364 219.201575 
L 1472.756059 424.106188 
L 1473.846755 410.217092 
L 1474.937451 353.261623 
L 1476.028147 225.747035 
L 1477.118843 398.027374 
L 1478.209539 439.157049 
L 1479.300235 425.773736 
L 1480.39093 459.097941 
L 1481.481626 258.951409 
L 1482.572322 427.860262 
L 1483.663018 429.886186 
L 1484.753714 473.371591 
L 1486.935106 365.06914 
L 1488.025801 349.443144 
L 1489.116497 435.878702 
L 1490.207193 223.971594 
L 1491.297889 437.499779 
L 1492.388585 463.55541 
L 1493.479281 444.811326 
L 1494.569977 162.14433 
L 1495.660672 389.952109 
L 1496.751368 238.434887 
L 1497.842064 403.620479 
L 1498.93276 458.211231 
L 1500.023456 558.668544 
L 1501.114152 360.194577 
L 1502.204848 248.06771 
L 1503.295543 532.612898 
L 1504.386239 223.359081 
L 1505.476935 323.050165 
L 1506.567631 434.070239 
L 1507.658327 434.070239 
L 1508.749023 454.327681 
L 1509.839719 419.528995 
L 1510.930414 306.853281 
L 1512.02111 453.270246 
L 1513.111806 421.690294 
L 1514.202502 437.781232 
L 1515.293198 412.86296 
L 1516.383894 377.478457 
L 1517.47459 274.431017 
L 1518.565285 317.767323 
L 1519.655981 298.247287 
L 1520.746677 233.600968 
L 1521.837373 386.955248 
L 1522.928069 331.139499 
L 1524.018765 324.247266 
L 1525.109461 438.44035 
L 1526.200156 306.212727 
L 1527.290852 286.189977 
L 1528.381548 451.077122 
L 1529.472244 301.800168 
L 1530.56294 342.551936 
L 1531.653636 511.203668 
L 1533.835027 331.504975 
L 1534.925723 379.609295 
L 1536.016419 446.968582 
L 1537.107115 496.057121 
L 1538.197811 472.392799 
L 1539.288507 351.464038 
L 1540.379203 390.295036 
L 1541.469898 460.754093 
L 1542.560594 422.038127 
L 1543.65129 424.727107 
L 1544.741986 438.624191 
L 1545.832682 343.607799 
L 1546.923378 269.82462 
L 1548.014073 470.20459 
L 1549.104769 307.077365 
L 1551.286161 435.571781 
L 1552.376857 394.334794 
L 1553.467553 522.052114 
L 1554.558249 329.459359 
L 1555.648944 362.025773 
L 1556.73964 387.440944 
L 1557.830336 297.026114 
L 1558.921032 328.82866 
L 1560.011728 376.186727 
L 1561.102424 417.652605 
L 1562.19312 240.383619 
L 1563.283815 319.298813 
L 1564.374511 218.643315 
L 1565.465207 553.517603 
L 1566.555903 379.919481 
L 1567.646599 461.573786 
L 1568.737295 232.557413 
L 1569.827991 309.838484 
L 1570.918686 401.529764 
L 1572.009382 405.178642 
L 1573.100078 371.379707 
L 1574.190774 418.468373 
L 1575.28147 347.296037 
L 1576.372166 348.416187 
L 1577.462862 437.353754 
L 1579.644253 303.982931 
L 1580.734949 291.886622 
L 1581.825645 379.224777 
L 1582.916341 373.900614 
L 1584.007037 412.170685 
L 1585.097733 353.619429 
L 1586.188428 310.77525 
L 1587.279124 390.225828 
L 1588.36982 364.518654 
L 1589.460516 462.422065 
L 1590.551212 399.983659 
L 1591.641908 386.283962 
L 1592.732604 479.211014 
L 1593.823299 375.077953 
L 1594.913995 223.899817 
L 1596.004691 448.773525 
L 1597.095387 274.968825 
L 1598.186083 306.839313 
L 1599.276779 463.09116 
L 1600.367475 470.785169 
L 1601.45817 303.465663 
L 1603.639562 445.194089 
L 1604.730258 363.210101 
L 1605.820954 272.250867 
L 1606.91165 329.778776 
L 1608.002346 294.857197 
L 1609.093041 461.94623 
L 1610.183737 304.392004 
L 1611.274433 279.524498 
L 1612.365129 272.442978 
L 1613.455825 404.118063 
L 1614.546521 390.440763 
L 1615.637217 459.471898 
L 1616.727912 302.576426 
L 1617.818608 399.644769 
L 1618.909304 439.066409 
L 1620 507.367784 
L 1620 507.367784 
" style="fill:none;stroke:#ff7f0e;stroke-linecap:square;stroke-width:1.5;"/>
   </g>
   <g id="patch_3">
    <path d="M 225 630 
L 225 86.4 
" style="fill:none;stroke:#000000;stroke-linecap:square;stroke-linejoin:miter;stroke-width:0.8;"/>
   </g>
   <g id="patch_4">
    <path d="M 1620 630 
L 1620 86.4 
" style="fill:none;stroke:#000000;stroke-linecap:square;stroke-linejoin:miter;stroke-width:0.8;"/>
   </g>
   <g id="patch_5">
    <path d="M 225 630 
L 1620 630 
" style="fill:none;stroke:#000000;stroke-linecap:square;stroke-linejoin:miter;stroke-width:0.8;"/>
   </g>
   <g id="patch_6">
    <path d="M 225 86.4 
L 1620 86.4 
" style="fill:none;stroke:#000000;stroke-linecap:square;stroke-linejoin:miter;stroke-width:0.8;"/>
   </g>
   <g id="legend_1">
    <g id="patch_7">
     <path d="M 1525.401562 123.75625 
L 1613 123.75625 
Q 1615 123.75625 1615 121.75625 
L 1615 93.4 
Q 1615 91.4 1613 91.4 
L 1525.401562 91.4 
Q 1523.401562 91.4 1523.401562 93.4 
L 1523.401562 121.75625 
Q 1523.401562 123.75625 1525.401562 123.75625 
z
" style="fill:#ffffff;opacity:0.8;stroke:#cccccc;stroke-linejoin:miter;"/>
    </g>
    <g id="line2d_19">
     <path d="M 1527.401562 99.498437 
L 1547.401562 99.498437 
" style="fill:none;stroke:#1f77b4;stroke-linecap:square;stroke-width:1.5;"/>
    </g>
    <g id="line2d_20"/>
    <g id="text_17">
     <!-- test -->
     <defs>
      <path d="M 18.3125 70.21875 
L 18.3125 54.6875 
L 36.8125 54.6875 
L 36.8125 47.703125 
L 18.3125 47.703125 
L 18.3125 18.015625 
Q 18.3125 11.328125 20.140625 9.421875 
Q 21.96875 7.515625 27.59375 7.515625 
L 36.8125 7.515625 
L 36.8125 0 
L 27.59375 0 
Q 17.1875 0 13.234375 3.875 
Q 9.28125 7.765625 9.28125 18.015625 
L 9.28125 47.703125 
L 2.6875 47.703125 
L 2.6875 54.6875 
L 9.28125 54.6875 
L 9.28125 70.21875 
z
" id="DejaVuSans-116"/>
      <path d="M 56.203125 29.59375 
L 56.203125 25.203125 
L 14.890625 25.203125 
Q 15.484375 15.921875 20.484375 11.0625 
Q 25.484375 6.203125 34.421875 6.203125 
Q 39.59375 6.203125 44.453125 7.46875 
Q 49.3125 8.734375 54.109375 11.28125 
L 54.109375 2.78125 
Q 49.265625 0.734375 44.1875 -0.34375 
Q 39.109375 -1.421875 33.890625 -1.421875 
Q 20.796875 -1.421875 13.15625 6.1875 
Q 5.515625 13.8125 5.515625 26.8125 
Q 5.515625 40.234375 12.765625 48.109375 
Q 20.015625 56 32.328125 56 
Q 43.359375 56 49.78125 48.890625 
Q 56.203125 41.796875 56.203125 29.59375 
z
M 47.21875 32.234375 
Q 47.125 39.59375 43.09375 43.984375 
Q 39.0625 48.390625 32.421875 48.390625 
Q 24.90625 48.390625 20.390625 44.140625 
Q 15.875 39.890625 15.1875 32.171875 
z
" id="DejaVuSans-101"/>
      <path d="M 44.28125 53.078125 
L 44.28125 44.578125 
Q 40.484375 46.53125 36.375 47.5 
Q 32.28125 48.484375 27.875 48.484375 
Q 21.1875 48.484375 17.84375 46.4375 
Q 14.5 44.390625 14.5 40.28125 
Q 14.5 37.15625 16.890625 35.375 
Q 19.28125 33.59375 26.515625 31.984375 
L 29.59375 31.296875 
Q 39.15625 29.25 43.1875 25.515625 
Q 47.21875 21.78125 47.21875 15.09375 
Q 47.21875 7.46875 41.1875 3.015625 
Q 35.15625 -1.421875 24.609375 -1.421875 
Q 20.21875 -1.421875 15.453125 -0.5625 
Q 10.6875 0.296875 5.421875 2 
L 5.421875 11.28125 
Q 10.40625 8.6875 15.234375 7.390625 
Q 20.0625 6.109375 24.8125 6.109375 
Q 31.15625 6.109375 34.5625 8.28125 
Q 37.984375 10.453125 37.984375 14.40625 
Q 37.984375 18.0625 35.515625 20.015625 
Q 33.0625 21.96875 24.703125 23.78125 
L 21.578125 24.515625 
Q 13.234375 26.265625 9.515625 29.90625 
Q 5.8125 33.546875 5.8125 39.890625 
Q 5.8125 47.609375 11.28125 51.796875 
Q 16.75 56 26.8125 56 
Q 31.78125 56 36.171875 55.265625 
Q 40.578125 54.546875 44.28125 53.078125 
z
" id="DejaVuSans-115"/>
     </defs>
     <g transform="translate(1555.401562 102.998437)scale(0.1 -0.1)">
      <use xlink:href="#DejaVuSans-116"/>
      <use x="39.208984" xlink:href="#DejaVuSans-101"/>
      <use x="100.732422" xlink:href="#DejaVuSans-115"/>
      <use x="152.832031" xlink:href="#DejaVuSans-116"/>
     </g>
    </g>
    <g id="line2d_21">
     <path d="M 1527.401562 114.176562 
L 1547.401562 114.176562 
" style="fill:none;stroke:#ff7f0e;stroke-linecap:square;stroke-width:1.5;"/>
    </g>
    <g id="line2d_22"/>
    <g id="text_18">
     <!-- predictions -->
     <defs>
      <path d="M 18.109375 8.203125 
L 18.109375 -20.796875 
L 9.078125 -20.796875 
L 9.078125 54.6875 
L 18.109375 54.6875 
L 18.109375 46.390625 
Q 20.953125 51.265625 25.265625 53.625 
Q 29.59375 56 35.59375 56 
Q 45.5625 56 51.78125 48.09375 
Q 58.015625 40.1875 58.015625 27.296875 
Q 58.015625 14.40625 51.78125 6.484375 
Q 45.5625 -1.421875 35.59375 -1.421875 
Q 29.59375 -1.421875 25.265625 0.953125 
Q 20.953125 3.328125 18.109375 8.203125 
z
M 48.6875 27.296875 
Q 48.6875 37.203125 44.609375 42.84375 
Q 40.53125 48.484375 33.40625 48.484375 
Q 26.265625 48.484375 22.1875 42.84375 
Q 18.109375 37.203125 18.109375 27.296875 
Q 18.109375 17.390625 22.1875 11.75 
Q 26.265625 6.109375 33.40625 6.109375 
Q 40.53125 6.109375 44.609375 11.75 
Q 48.6875 17.390625 48.6875 27.296875 
z
" id="DejaVuSans-112"/>
      <path d="M 41.109375 46.296875 
Q 39.59375 47.171875 37.8125 47.578125 
Q 36.03125 48 33.890625 48 
Q 26.265625 48 22.1875 43.046875 
Q 18.109375 38.09375 18.109375 28.8125 
L 18.109375 0 
L 9.078125 0 
L 9.078125 54.6875 
L 18.109375 54.6875 
L 18.109375 46.1875 
Q 20.953125 51.171875 25.484375 53.578125 
Q 30.03125 56 36.53125 56 
Q 37.453125 56 38.578125 55.875 
Q 39.703125 55.765625 41.0625 55.515625 
z
" id="DejaVuSans-114"/>
      <path d="M 45.40625 46.390625 
L 45.40625 75.984375 
L 54.390625 75.984375 
L 54.390625 0 
L 45.40625 0 
L 45.40625 8.203125 
Q 42.578125 3.328125 38.25 0.953125 
Q 33.9375 -1.421875 27.875 -1.421875 
Q 17.96875 -1.421875 11.734375 6.484375 
Q 5.515625 14.40625 5.515625 27.296875 
Q 5.515625 40.1875 11.734375 48.09375 
Q 17.96875 56 27.875 56 
Q 33.9375 56 38.25 53.625 
Q 42.578125 51.265625 45.40625 46.390625 
z
M 14.796875 27.296875 
Q 14.796875 17.390625 18.875 11.75 
Q 22.953125 6.109375 30.078125 6.109375 
Q 37.203125 6.109375 41.296875 11.75 
Q 45.40625 17.390625 45.40625 27.296875 
Q 45.40625 37.203125 41.296875 42.84375 
Q 37.203125 48.484375 30.078125 48.484375 
Q 22.953125 48.484375 18.875 42.84375 
Q 14.796875 37.203125 14.796875 27.296875 
z
" id="DejaVuSans-100"/>
      <path d="M 9.421875 54.6875 
L 18.40625 54.6875 
L 18.40625 0 
L 9.421875 0 
z
M 9.421875 75.984375 
L 18.40625 75.984375 
L 18.40625 64.59375 
L 9.421875 64.59375 
z
" id="DejaVuSans-105"/>
      <path d="M 48.78125 52.59375 
L 48.78125 44.1875 
Q 44.96875 46.296875 41.140625 47.34375 
Q 37.3125 48.390625 33.40625 48.390625 
Q 24.65625 48.390625 19.8125 42.84375 
Q 14.984375 37.3125 14.984375 27.296875 
Q 14.984375 17.28125 19.8125 11.734375 
Q 24.65625 6.203125 33.40625 6.203125 
Q 37.3125 6.203125 41.140625 7.25 
Q 44.96875 8.296875 48.78125 10.40625 
L 48.78125 2.09375 
Q 45.015625 0.34375 40.984375 -0.53125 
Q 36.96875 -1.421875 32.421875 -1.421875 
Q 20.0625 -1.421875 12.78125 6.34375 
Q 5.515625 14.109375 5.515625 27.296875 
Q 5.515625 40.671875 12.859375 48.328125 
Q 20.21875 56 33.015625 56 
Q 37.15625 56 41.109375 55.140625 
Q 45.0625 54.296875 48.78125 52.59375 
z
" id="DejaVuSans-99"/>
      <path d="M 30.609375 48.390625 
Q 23.390625 48.390625 19.1875 42.75 
Q 14.984375 37.109375 14.984375 27.296875 
Q 14.984375 17.484375 19.15625 11.84375 
Q 23.34375 6.203125 30.609375 6.203125 
Q 37.796875 6.203125 41.984375 11.859375 
Q 46.1875 17.53125 46.1875 27.296875 
Q 46.1875 37.015625 41.984375 42.703125 
Q 37.796875 48.390625 30.609375 48.390625 
z
M 30.609375 56 
Q 42.328125 56 49.015625 48.375 
Q 55.71875 40.765625 55.71875 27.296875 
Q 55.71875 13.875 49.015625 6.21875 
Q 42.328125 -1.421875 30.609375 -1.421875 
Q 18.84375 -1.421875 12.171875 6.21875 
Q 5.515625 13.875 5.515625 27.296875 
Q 5.515625 40.765625 12.171875 48.375 
Q 18.84375 56 30.609375 56 
z
" id="DejaVuSans-111"/>
      <path d="M 54.890625 33.015625 
L 54.890625 0 
L 45.90625 0 
L 45.90625 32.71875 
Q 45.90625 40.484375 42.875 44.328125 
Q 39.84375 48.1875 33.796875 48.1875 
Q 26.515625 48.1875 22.3125 43.546875 
Q 18.109375 38.921875 18.109375 30.90625 
L 18.109375 0 
L 9.078125 0 
L 9.078125 54.6875 
L 18.109375 54.6875 
L 18.109375 46.1875 
Q 21.34375 51.125 25.703125 53.5625 
Q 30.078125 56 35.796875 56 
Q 45.21875 56 50.046875 50.171875 
Q 54.890625 44.34375 54.890625 33.015625 
z
" id="DejaVuSans-110"/>
     </defs>
     <g transform="translate(1555.401562 117.676562)scale(0.1 -0.1)">
      <use xlink:href="#DejaVuSans-112"/>
      <use x="63.476562" xlink:href="#DejaVuSans-114"/>
      <use x="104.558594" xlink:href="#DejaVuSans-101"/>
      <use x="166.082031" xlink:href="#DejaVuSans-100"/>
      <use x="229.558594" xlink:href="#DejaVuSans-105"/>
      <use x="257.341797" xlink:href="#DejaVuSans-99"/>
      <use x="312.322266" xlink:href="#DejaVuSans-116"/>
      <use x="351.53125" xlink:href="#DejaVuSans-105"/>
      <use x="379.314453" xlink:href="#DejaVuSans-111"/>
      <use x="440.496094" xlink:href="#DejaVuSans-110"/>
      <use x="503.875" xlink:href="#DejaVuSans-115"/>
     </g>
    </g>
   </g>
  </g>
 </g>
 <defs>
  <clipPath id="p338ce08d04">
   <rect height="543.6" width="1395" x="225" y="86.4"/>
  </clipPath>
 </defs>
</svg>
