<?xml version="1.0" encoding="utf-8" standalone="no"?>
<!DOCTYPE svg PUBLIC "-//W3C//DTD SVG 1.1//EN"
  "http://www.w3.org/Graphics/SVG/1.1/DTD/svg11.dtd">
<!-- Created with matplotlib (https://matplotlib.org/) -->
<svg height="720pt" version="1.1" viewBox="0 0 1800 720" width="1800pt" xmlns="http://www.w3.org/2000/svg" xmlns:xlink="http://www.w3.org/1999/xlink">
 <defs>
  <style type="text/css">
*{stroke-linecap:butt;stroke-linejoin:round;}
  </style>
 </defs>
 <g id="figure_1">
  <g id="patch_1">
   <path d="M 0 720 
L 1800 720 
L 1800 0 
L 0 0 
z
" style="fill:#ffffff;"/>
  </g>
  <g id="axes_1">
   <g id="patch_2">
    <path d="M 225 630 
L 1620 630 
L 1620 86.4 
L 225 86.4 
z
" style="fill:#ffffff;"/>
   </g>
   <g id="matplotlib.axis_1">
    <g id="xtick_1">
     <g id="line2d_1">
      <defs>
       <path d="M 0 0 
L 0 3.5 
" id="m7ed54379e1" style="stroke:#000000;stroke-width:0.8;"/>
      </defs>
      <g>
       <use style="stroke:#000000;stroke-width:0.8;" x="225" xlink:href="#m7ed54379e1" y="630"/>
      </g>
     </g>
     <g id="text_1">
      <!-- 0 -->
      <defs>
       <path d="M 31.78125 66.40625 
Q 24.171875 66.40625 20.328125 58.90625 
Q 16.5 51.421875 16.5 36.375 
Q 16.5 21.390625 20.328125 13.890625 
Q 24.171875 6.390625 31.78125 6.390625 
Q 39.453125 6.390625 43.28125 13.890625 
Q 47.125 21.390625 47.125 36.375 
Q 47.125 51.421875 43.28125 58.90625 
Q 39.453125 66.40625 31.78125 66.40625 
z
M 31.78125 74.21875 
Q 44.046875 74.21875 50.515625 64.515625 
Q 56.984375 54.828125 56.984375 36.375 
Q 56.984375 17.96875 50.515625 8.265625 
Q 44.046875 -1.421875 31.78125 -1.421875 
Q 19.53125 -1.421875 13.0625 8.265625 
Q 6.59375 17.96875 6.59375 36.375 
Q 6.59375 54.828125 13.0625 64.515625 
Q 19.53125 74.21875 31.78125 74.21875 
z
" id="DejaVuSans-48"/>
      </defs>
      <g transform="translate(221.81875 644.598438)scale(0.1 -0.1)">
       <use xlink:href="#DejaVuSans-48"/>
      </g>
     </g>
    </g>
    <g id="xtick_2">
     <g id="line2d_2">
      <g>
       <use style="stroke:#000000;stroke-width:0.8;" x="386.458333" xlink:href="#m7ed54379e1" y="630"/>
      </g>
     </g>
     <g id="text_2">
      <!-- 25 -->
      <defs>
       <path d="M 19.1875 8.296875 
L 53.609375 8.296875 
L 53.609375 0 
L 7.328125 0 
L 7.328125 8.296875 
Q 12.9375 14.109375 22.625 23.890625 
Q 32.328125 33.6875 34.8125 36.53125 
Q 39.546875 41.84375 41.421875 45.53125 
Q 43.3125 49.21875 43.3125 52.78125 
Q 43.3125 58.59375 39.234375 62.25 
Q 35.15625 65.921875 28.609375 65.921875 
Q 23.96875 65.921875 18.8125 64.3125 
Q 13.671875 62.703125 7.8125 59.421875 
L 7.8125 69.390625 
Q 13.765625 71.78125 18.9375 73 
Q 24.125 74.21875 28.421875 74.21875 
Q 39.75 74.21875 46.484375 68.546875 
Q 53.21875 62.890625 53.21875 53.421875 
Q 53.21875 48.921875 51.53125 44.890625 
Q 49.859375 40.875 45.40625 35.40625 
Q 44.1875 33.984375 37.640625 27.21875 
Q 31.109375 20.453125 19.1875 8.296875 
z
" id="DejaVuSans-50"/>
       <path d="M 10.796875 72.90625 
L 49.515625 72.90625 
L 49.515625 64.59375 
L 19.828125 64.59375 
L 19.828125 46.734375 
Q 21.96875 47.46875 24.109375 47.828125 
Q 26.265625 48.1875 28.421875 48.1875 
Q 40.625 48.1875 47.75 41.5 
Q 54.890625 34.8125 54.890625 23.390625 
Q 54.890625 11.625 47.5625 5.09375 
Q 40.234375 -1.421875 26.90625 -1.421875 
Q 22.3125 -1.421875 17.546875 -0.640625 
Q 12.796875 0.140625 7.71875 1.703125 
L 7.71875 11.625 
Q 12.109375 9.234375 16.796875 8.0625 
Q 21.484375 6.890625 26.703125 6.890625 
Q 35.15625 6.890625 40.078125 11.328125 
Q 45.015625 15.765625 45.015625 23.390625 
Q 45.015625 31 40.078125 35.4375 
Q 35.15625 39.890625 26.703125 39.890625 
Q 22.75 39.890625 18.8125 39.015625 
Q 14.890625 38.140625 10.796875 36.28125 
z
" id="DejaVuSans-53"/>
      </defs>
      <g transform="translate(380.095833 644.598438)scale(0.1 -0.1)">
       <use xlink:href="#DejaVuSans-50"/>
       <use x="63.623047" xlink:href="#DejaVuSans-53"/>
      </g>
     </g>
    </g>
    <g id="xtick_3">
     <g id="line2d_3">
      <g>
       <use style="stroke:#000000;stroke-width:0.8;" x="547.916667" xlink:href="#m7ed54379e1" y="630"/>
      </g>
     </g>
     <g id="text_3">
      <!-- 50 -->
      <g transform="translate(541.554167 644.598438)scale(0.1 -0.1)">
       <use xlink:href="#DejaVuSans-53"/>
       <use x="63.623047" xlink:href="#DejaVuSans-48"/>
      </g>
     </g>
    </g>
    <g id="xtick_4">
     <g id="line2d_4">
      <g>
       <use style="stroke:#000000;stroke-width:0.8;" x="709.375" xlink:href="#m7ed54379e1" y="630"/>
      </g>
     </g>
     <g id="text_4">
      <!-- 75 -->
      <defs>
       <path d="M 8.203125 72.90625 
L 55.078125 72.90625 
L 55.078125 68.703125 
L 28.609375 0 
L 18.3125 0 
L 43.21875 64.59375 
L 8.203125 64.59375 
z
" id="DejaVuSans-55"/>
      </defs>
      <g transform="translate(703.0125 644.598438)scale(0.1 -0.1)">
       <use xlink:href="#DejaVuSans-55"/>
       <use x="63.623047" xlink:href="#DejaVuSans-53"/>
      </g>
     </g>
    </g>
    <g id="xtick_5">
     <g id="line2d_5">
      <g>
       <use style="stroke:#000000;stroke-width:0.8;" x="870.833333" xlink:href="#m7ed54379e1" y="630"/>
      </g>
     </g>
     <g id="text_5">
      <!-- 100 -->
      <defs>
       <path d="M 12.40625 8.296875 
L 28.515625 8.296875 
L 28.515625 63.921875 
L 10.984375 60.40625 
L 10.984375 69.390625 
L 28.421875 72.90625 
L 38.28125 72.90625 
L 38.28125 8.296875 
L 54.390625 8.296875 
L 54.390625 0 
L 12.40625 0 
z
" id="DejaVuSans-49"/>
      </defs>
      <g transform="translate(861.289583 644.598438)scale(0.1 -0.1)">
       <use xlink:href="#DejaVuSans-49"/>
       <use x="63.623047" xlink:href="#DejaVuSans-48"/>
       <use x="127.246094" xlink:href="#DejaVuSans-48"/>
      </g>
     </g>
    </g>
    <g id="xtick_6">
     <g id="line2d_6">
      <g>
       <use style="stroke:#000000;stroke-width:0.8;" x="1032.291667" xlink:href="#m7ed54379e1" y="630"/>
      </g>
     </g>
     <g id="text_6">
      <!-- 125 -->
      <g transform="translate(1022.747917 644.598438)scale(0.1 -0.1)">
       <use xlink:href="#DejaVuSans-49"/>
       <use x="63.623047" xlink:href="#DejaVuSans-50"/>
       <use x="127.246094" xlink:href="#DejaVuSans-53"/>
      </g>
     </g>
    </g>
    <g id="xtick_7">
     <g id="line2d_7">
      <g>
       <use style="stroke:#000000;stroke-width:0.8;" x="1193.75" xlink:href="#m7ed54379e1" y="630"/>
      </g>
     </g>
     <g id="text_7">
      <!-- 150 -->
      <g transform="translate(1184.20625 644.598438)scale(0.1 -0.1)">
       <use xlink:href="#DejaVuSans-49"/>
       <use x="63.623047" xlink:href="#DejaVuSans-53"/>
       <use x="127.246094" xlink:href="#DejaVuSans-48"/>
      </g>
     </g>
    </g>
    <g id="xtick_8">
     <g id="line2d_8">
      <g>
       <use style="stroke:#000000;stroke-width:0.8;" x="1355.208333" xlink:href="#m7ed54379e1" y="630"/>
      </g>
     </g>
     <g id="text_8">
      <!-- 175 -->
      <g transform="translate(1345.664583 644.598438)scale(0.1 -0.1)">
       <use xlink:href="#DejaVuSans-49"/>
       <use x="63.623047" xlink:href="#DejaVuSans-55"/>
       <use x="127.246094" xlink:href="#DejaVuSans-53"/>
      </g>
     </g>
    </g>
    <g id="xtick_9">
     <g id="line2d_9">
      <g>
       <use style="stroke:#000000;stroke-width:0.8;" x="1516.666667" xlink:href="#m7ed54379e1" y="630"/>
      </g>
     </g>
     <g id="text_9">
      <!-- 200 -->
      <g transform="translate(1507.122917 644.598438)scale(0.1 -0.1)">
       <use xlink:href="#DejaVuSans-50"/>
       <use x="63.623047" xlink:href="#DejaVuSans-48"/>
       <use x="127.246094" xlink:href="#DejaVuSans-48"/>
      </g>
     </g>
    </g>
   </g>
   <g id="matplotlib.axis_2">
    <g id="ytick_1">
     <g id="line2d_10">
      <defs>
       <path d="M 0 0 
L -3.5 0 
" id="mddaefc8a21" style="stroke:#000000;stroke-width:0.8;"/>
      </defs>
      <g>
       <use style="stroke:#000000;stroke-width:0.8;" x="225" xlink:href="#mddaefc8a21" y="527.15639"/>
      </g>
     </g>
     <g id="text_10">
      <!-- 400 -->
      <defs>
       <path d="M 37.796875 64.3125 
L 12.890625 25.390625 
L 37.796875 25.390625 
z
M 35.203125 72.90625 
L 47.609375 72.90625 
L 47.609375 25.390625 
L 58.015625 25.390625 
L 58.015625 17.1875 
L 47.609375 17.1875 
L 47.609375 0 
L 37.796875 0 
L 37.796875 17.1875 
L 4.890625 17.1875 
L 4.890625 26.703125 
z
" id="DejaVuSans-52"/>
      </defs>
      <g transform="translate(198.9125 530.955609)scale(0.1 -0.1)">
       <use xlink:href="#DejaVuSans-52"/>
       <use x="63.623047" xlink:href="#DejaVuSans-48"/>
       <use x="127.246094" xlink:href="#DejaVuSans-48"/>
      </g>
     </g>
    </g>
    <g id="ytick_2">
     <g id="line2d_11">
      <g>
       <use style="stroke:#000000;stroke-width:0.8;" x="225" xlink:href="#mddaefc8a21" y="422.977032"/>
      </g>
     </g>
     <g id="text_11">
      <!-- 600 -->
      <defs>
       <path d="M 33.015625 40.375 
Q 26.375 40.375 22.484375 35.828125 
Q 18.609375 31.296875 18.609375 23.390625 
Q 18.609375 15.53125 22.484375 10.953125 
Q 26.375 6.390625 33.015625 6.390625 
Q 39.65625 6.390625 43.53125 10.953125 
Q 47.40625 15.53125 47.40625 23.390625 
Q 47.40625 31.296875 43.53125 35.828125 
Q 39.65625 40.375 33.015625 40.375 
z
M 52.59375 71.296875 
L 52.59375 62.3125 
Q 48.875 64.0625 45.09375 64.984375 
Q 41.3125 65.921875 37.59375 65.921875 
Q 27.828125 65.921875 22.671875 59.328125 
Q 17.53125 52.734375 16.796875 39.40625 
Q 19.671875 43.65625 24.015625 45.921875 
Q 28.375 48.1875 33.59375 48.1875 
Q 44.578125 48.1875 50.953125 41.515625 
Q 57.328125 34.859375 57.328125 23.390625 
Q 57.328125 12.15625 50.6875 5.359375 
Q 44.046875 -1.421875 33.015625 -1.421875 
Q 20.359375 -1.421875 13.671875 8.265625 
Q 6.984375 17.96875 6.984375 36.375 
Q 6.984375 53.65625 15.1875 63.9375 
Q 23.390625 74.21875 37.203125 74.21875 
Q 40.921875 74.21875 44.703125 73.484375 
Q 48.484375 72.75 52.59375 71.296875 
z
" id="DejaVuSans-54"/>
      </defs>
      <g transform="translate(198.9125 426.776251)scale(0.1 -0.1)">
       <use xlink:href="#DejaVuSans-54"/>
       <use x="63.623047" xlink:href="#DejaVuSans-48"/>
       <use x="127.246094" xlink:href="#DejaVuSans-48"/>
      </g>
     </g>
    </g>
    <g id="ytick_3">
     <g id="line2d_12">
      <g>
       <use style="stroke:#000000;stroke-width:0.8;" x="225" xlink:href="#mddaefc8a21" y="318.797673"/>
      </g>
     </g>
     <g id="text_12">
      <!-- 800 -->
      <defs>
       <path d="M 31.78125 34.625 
Q 24.75 34.625 20.71875 30.859375 
Q 16.703125 27.09375 16.703125 20.515625 
Q 16.703125 13.921875 20.71875 10.15625 
Q 24.75 6.390625 31.78125 6.390625 
Q 38.8125 6.390625 42.859375 10.171875 
Q 46.921875 13.96875 46.921875 20.515625 
Q 46.921875 27.09375 42.890625 30.859375 
Q 38.875 34.625 31.78125 34.625 
z
M 21.921875 38.8125 
Q 15.578125 40.375 12.03125 44.71875 
Q 8.5 49.078125 8.5 55.328125 
Q 8.5 64.0625 14.71875 69.140625 
Q 20.953125 74.21875 31.78125 74.21875 
Q 42.671875 74.21875 48.875 69.140625 
Q 55.078125 64.0625 55.078125 55.328125 
Q 55.078125 49.078125 51.53125 44.71875 
Q 48 40.375 41.703125 38.8125 
Q 48.828125 37.15625 52.796875 32.3125 
Q 56.78125 27.484375 56.78125 20.515625 
Q 56.78125 9.90625 50.3125 4.234375 
Q 43.84375 -1.421875 31.78125 -1.421875 
Q 19.734375 -1.421875 13.25 4.234375 
Q 6.78125 9.90625 6.78125 20.515625 
Q 6.78125 27.484375 10.78125 32.3125 
Q 14.796875 37.15625 21.921875 38.8125 
z
M 18.3125 54.390625 
Q 18.3125 48.734375 21.84375 45.5625 
Q 25.390625 42.390625 31.78125 42.390625 
Q 38.140625 42.390625 41.71875 45.5625 
Q 45.3125 48.734375 45.3125 54.390625 
Q 45.3125 60.0625 41.71875 63.234375 
Q 38.140625 66.40625 31.78125 66.40625 
Q 25.390625 66.40625 21.84375 63.234375 
Q 18.3125 60.0625 18.3125 54.390625 
z
" id="DejaVuSans-56"/>
      </defs>
      <g transform="translate(198.9125 322.596892)scale(0.1 -0.1)">
       <use xlink:href="#DejaVuSans-56"/>
       <use x="63.623047" xlink:href="#DejaVuSans-48"/>
       <use x="127.246094" xlink:href="#DejaVuSans-48"/>
      </g>
     </g>
    </g>
    <g id="ytick_4">
     <g id="line2d_13">
      <g>
       <use style="stroke:#000000;stroke-width:0.8;" x="225" xlink:href="#mddaefc8a21" y="214.618315"/>
      </g>
     </g>
     <g id="text_13">
      <!-- 1000 -->
      <g transform="translate(192.55 218.417534)scale(0.1 -0.1)">
       <use xlink:href="#DejaVuSans-49"/>
       <use x="63.623047" xlink:href="#DejaVuSans-48"/>
       <use x="127.246094" xlink:href="#DejaVuSans-48"/>
       <use x="190.869141" xlink:href="#DejaVuSans-48"/>
      </g>
     </g>
    </g>
    <g id="ytick_5">
     <g id="line2d_14">
      <g>
       <use style="stroke:#000000;stroke-width:0.8;" x="225" xlink:href="#mddaefc8a21" y="110.438957"/>
      </g>
     </g>
     <g id="text_14">
      <!-- 1200 -->
      <g transform="translate(192.55 114.238175)scale(0.1 -0.1)">
       <use xlink:href="#DejaVuSans-49"/>
       <use x="63.623047" xlink:href="#DejaVuSans-50"/>
       <use x="127.246094" xlink:href="#DejaVuSans-48"/>
       <use x="190.869141" xlink:href="#DejaVuSans-48"/>
      </g>
     </g>
    </g>
   </g>
   <g id="line2d_15">
    <path clip-path="url(#p6ab9122f1b)" d="M 225 527.15639 
L 231.458333 214.618315 
L 237.916667 214.618315 
L 244.375 412.559096 
L 250.833333 287.543866 
L 257.291667 318.797673 
L 263.75 422.977032 
L 270.208333 396.932192 
L 276.666667 266.707994 
L 283.125 370.887353 
L 289.583333 449.021871 
L 296.041667 475.066711 
L 302.5 422.977032 
L 308.958333 396.932192 
L 315.416667 449.021871 
L 321.875 360.469417 
L 328.333333 318.797673 
L 334.791667 266.707994 
L 341.25 527.15639 
L 347.708333 422.977032 
L 354.166667 475.066711 
L 360.625 422.977032 
L 367.083333 214.618315 
L 373.541667 501.111551 
L 380 162.528636 
L 386.458333 266.707994 
L 392.916667 501.111551 
L 399.375 422.977032 
L 412.291667 318.797673 
L 418.75 344.842513 
L 425.208333 266.707994 
L 431.666667 162.528636 
L 438.125 214.618315 
L 444.583333 423.497929 
L 451.041667 537.574326 
L 457.5 464.648775 
L 463.958333 266.707994 
L 470.416667 292.752834 
L 476.875 370.887353 
L 483.333333 318.797673 
L 489.791667 370.887353 
L 496.25 475.066711 
L 502.708333 449.021871 
L 509.166667 396.932192 
L 515.625 329.215609 
L 522.083333 386.514256 
L 528.541667 396.932192 
L 535 459.439807 
L 541.458333 162.528636 
L 547.916667 292.752834 
L 554.375 381.305289 
L 560.833333 475.066711 
L 567.291667 318.797673 
L 573.75 240.663155 
L 580.208333 344.842513 
L 586.666667 490.693615 
L 593.125 370.887353 
L 599.583333 381.305289 
L 606.041667 396.932192 
L 612.5 475.066711 
L 618.958333 162.528636 
L 625.416667 396.932192 
L 631.875 485.484647 
L 638.333333 162.528636 
L 644.791667 396.932192 
L 651.25 422.977032 
L 657.708333 318.797673 
L 664.166667 396.932192 
L 670.625 240.663155 
L 677.083333 303.17077 
L 683.541667 475.066711 
L 690 370.887353 
L 696.458333 396.932192 
L 709.375 501.111551 
L 715.833333 344.842513 
L 722.291667 501.111551 
L 728.75 381.305289 
L 735.208333 605.290909 
L 741.666667 475.066711 
L 748.125 542.783294 
L 754.583333 376.096321 
L 761.041667 422.977032 
L 767.5 422.977032 
L 773.958333 318.797673 
L 780.416667 422.977032 
L 786.875 370.887353 
L 793.333333 214.618315 
L 799.791667 370.887353 
L 806.25 162.528636 
L 812.708333 292.752834 
L 819.166667 475.066711 
L 825.625 475.066711 
L 832.083333 318.797673 
L 838.541667 292.752834 
L 851.458333 396.932192 
L 857.916667 396.932192 
L 864.375 344.842513 
L 877.291667 344.842513 
L 883.75 324.006641 
L 890.208333 329.215609 
L 896.666667 422.977032 
L 903.125 370.887353 
L 909.583333 396.932192 
L 916.041667 449.021871 
L 922.5 422.977032 
L 928.958333 214.618315 
L 935.416667 422.977032 
L 941.875 422.977032 
L 948.333333 266.707994 
L 954.791667 350.051481 
L 961.25 266.707994 
L 967.708333 292.752834 
L 974.166667 266.707994 
L 980.625 511.529487 
L 987.083333 318.797673 
L 993.541667 537.574326 
L 1000 501.111551 
L 1006.458333 344.842513 
L 1012.916667 490.693615 
L 1019.375 370.887353 
L 1025.833333 516.738454 
L 1032.291667 376.096321 
L 1038.75 162.528636 
L 1045.208333 449.021871 
L 1051.666667 422.977032 
L 1058.125 318.797673 
L 1064.583333 344.842513 
L 1071.041667 344.842513 
L 1077.5 240.663155 
L 1083.958333 344.842513 
L 1090.416667 370.887353 
L 1096.875 344.842513 
L 1103.333333 501.111551 
L 1109.791667 396.932192 
L 1116.25 318.797673 
L 1122.708333 475.066711 
L 1135.625 214.618315 
L 1142.083333 475.066711 
L 1148.541667 396.932192 
L 1155 188.573476 
L 1161.458333 344.842513 
L 1167.916667 527.15639 
L 1174.375 370.887353 
L 1180.833333 527.15639 
L 1187.291667 422.977032 
L 1193.75 370.887353 
L 1200.208333 396.932192 
L 1206.666667 292.752834 
L 1213.125 370.887353 
L 1219.583333 579.246069 
L 1226.041667 318.797673 
L 1232.5 537.574326 
L 1238.958333 318.797673 
L 1245.416667 422.977032 
L 1251.875 214.618315 
L 1258.333333 266.707994 
L 1264.791667 422.977032 
L 1271.25 318.797673 
L 1277.708333 162.528636 
L 1284.166667 240.663155 
L 1290.625 214.618315 
L 1297.083333 370.887353 
L 1303.541667 240.663155 
L 1310 292.752834 
L 1316.458333 370.887353 
L 1322.916667 370.887353 
L 1329.375 240.663155 
L 1335.833333 318.797673 
L 1342.291667 292.752834 
L 1348.75 303.17077 
L 1355.208333 292.752834 
L 1361.666667 162.528636 
L 1368.125 485.484647 
L 1374.583333 240.663155 
L 1381.041667 318.797673 
L 1387.5 370.887353 
L 1393.958333 370.887353 
L 1400.416667 214.618315 
L 1406.875 475.066711 
L 1413.333333 266.707994 
L 1419.791667 240.663155 
L 1426.25 266.707994 
L 1432.708333 360.469417 
L 1439.166667 370.887353 
L 1445.625 422.977032 
L 1452.083333 422.977032 
L 1458.541667 475.066711 
L 1465 292.752834 
L 1471.458333 475.066711 
L 1477.916667 266.707994 
L 1484.375 449.021871 
L 1490.833333 511.529487 
L 1497.291667 214.618315 
L 1503.75 318.797673 
L 1510.208333 318.797673 
L 1516.666667 214.618315 
L 1523.125 162.528636 
L 1529.583333 422.977032 
L 1536.041667 516.738454 
L 1542.5 329.215609 
L 1548.958333 605.290909 
L 1555.416667 292.752834 
L 1561.875 370.887353 
L 1568.333333 381.305289 
L 1574.791667 344.842513 
L 1581.25 214.618315 
L 1587.708333 318.797673 
L 1594.166667 490.693615 
L 1600.625 318.797673 
L 1613.541667 475.066711 
L 1620 292.752834 
L 1620 292.752834 
" style="fill:none;stroke:#1f77b4;stroke-linecap:square;stroke-width:1.5;"/>
   </g>
   <g id="line2d_16">
    <path clip-path="url(#p6ab9122f1b)" d="M 225 511.385986 
L 231.458333 343.961621 
L 237.916667 228.860908 
L 244.375 439.444754 
L 250.833333 374.16409 
L 257.291667 316.5782 
L 263.75 366.905632 
L 270.208333 347.059309 
L 276.666667 310.498591 
L 283.125 309.712628 
L 289.583333 483.625974 
L 296.041667 420.94207 
L 302.5 437.753052 
L 308.958333 374.648079 
L 315.416667 359.707698 
L 321.875 334.309224 
L 328.333333 352.936936 
L 334.791667 383.239116 
L 341.25 435.998534 
L 347.708333 435.998534 
L 354.166667 569.102578 
L 360.625 324.888456 
L 367.083333 326.488038 
L 373.541667 381.515733 
L 380 244.326519 
L 386.458333 271.898021 
L 392.916667 401.232647 
L 399.375 373.356241 
L 405.833333 424.852308 
L 412.291667 356.603419 
L 418.75 375.026968 
L 425.208333 222.935069 
L 431.666667 358.751559 
L 438.125 233.698244 
L 444.583333 393.272774 
L 451.041667 566.715468 
L 457.5 418.705048 
L 463.958333 334.309224 
L 470.416667 333.092599 
L 476.875 384.004242 
L 483.333333 411.66049 
L 489.791667 410.710886 
L 496.25 393.162868 
L 502.708333 458.468533 
L 509.166667 403.163517 
L 515.625 337.439879 
L 522.083333 367.81809 
L 528.541667 356.844968 
L 535 436.972725 
L 541.458333 210.065391 
L 547.916667 372.886939 
L 554.375 334.52957 
L 560.833333 474.047721 
L 567.291667 358.942676 
L 573.75 262.816998 
L 580.208333 268.673978 
L 586.666667 372.886939 
L 593.125 292.854168 
L 599.583333 408.275525 
L 606.041667 297.211627 
L 612.5 433.536014 
L 618.958333 232.318434 
L 625.416667 301.9869 
L 631.875 434.541642 
L 638.333333 320.72434 
L 644.791667 314.636676 
L 651.25 426.42074 
L 657.708333 443.705141 
L 664.166667 446.390381 
L 670.625 231.675042 
L 677.083333 387.867993 
L 683.541667 482.563057 
L 690 405.216696 
L 696.458333 365.441441 
L 702.916667 405.726963 
L 709.375 423.235907 
L 715.833333 430.027039 
L 722.291667 365.187399 
L 728.75 399.705362 
L 735.208333 488.030019 
L 741.666667 491.571339 
L 748.125 461.742497 
L 754.583333 403.846456 
L 761.041667 397.972117 
L 767.5 383.703877 
L 773.958333 322.550176 
L 780.416667 373.206954 
L 786.875 316.5782 
L 793.333333 216.464488 
L 799.791667 399.04276 
L 806.25 111.109091 
L 812.708333 306.955944 
L 819.166667 470.586444 
L 825.625 463.09741 
L 832.083333 375.681303 
L 838.541667 281.608514 
L 845 329.057747 
L 851.458333 408.119723 
L 857.916667 412.707223 
L 864.375 239.460202 
L 870.833333 330.204529 
L 877.291667 303.264935 
L 883.75 368.304334 
L 890.208333 382.918953 
L 896.666667 447.924049 
L 903.125 310.631751 
L 909.583333 364.491679 
L 916.041667 422.125197 
L 922.5 399.316071 
L 928.958333 298.605544 
L 935.416667 442.98596 
L 941.875 425.914794 
L 948.333333 306.8215 
L 954.791667 297.768018 
L 961.25 379.216824 
L 967.708333 267.823707 
L 974.166667 394.336475 
L 980.625 364.630711 
L 987.083333 423.261793 
L 993.541667 442.777394 
L 1000 463.464425 
L 1006.458333 354.501756 
L 1012.916667 372.886939 
L 1019.375 353.500582 
L 1025.833333 436.972725 
L 1032.291667 273.485424 
L 1038.75 298.512721 
L 1045.208333 425.71554 
L 1051.666667 387.602815 
L 1058.125 329.278142 
L 1064.583333 334.575154 
L 1071.041667 353.813773 
L 1077.5 236.351435 
L 1083.958333 369.083943 
L 1090.416667 425.773137 
L 1096.875 387.3775 
L 1103.333333 410.019411 
L 1109.791667 403.723993 
L 1116.25 281.659519 
L 1122.708333 487.252236 
L 1129.166667 301.782289 
L 1135.625 228.042656 
L 1142.083333 267.652917 
L 1148.541667 390.289671 
L 1155 221.358569 
L 1161.458333 322.458824 
L 1167.916667 425.889099 
L 1174.375 377.220663 
L 1180.833333 468.040888 
L 1187.291667 408.254853 
L 1193.75 190.106473 
L 1200.208333 459.296149 
L 1206.666667 305.154407 
L 1213.125 349.837677 
L 1219.583333 362.517942 
L 1226.041667 359.440058 
L 1232.5 501.680528 
L 1238.958333 235.022051 
L 1245.416667 378.432867 
L 1251.875 388.389361 
L 1258.333333 256.986345 
L 1264.791667 443.857029 
L 1271.25 276.526402 
L 1277.708333 280.524349 
L 1284.166667 338.519527 
L 1290.625 270.930608 
L 1297.083333 351.906432 
L 1303.541667 302.461627 
L 1310 385.435976 
L 1316.458333 441.897577 
L 1322.916667 388.628926 
L 1329.375 289.512982 
L 1335.833333 387.867993 
L 1342.291667 325.736545 
L 1348.75 320.997065 
L 1355.208333 312.695627 
L 1361.666667 259.800479 
L 1368.125 507.185226 
L 1374.583333 254.416209 
L 1381.041667 340.150291 
L 1387.5 359.240251 
L 1393.958333 369.465482 
L 1400.416667 364.003571 
L 1406.875 352.197373 
L 1413.333333 318.688048 
L 1419.791667 385.435976 
L 1426.25 186.543216 
L 1432.708333 348.646886 
L 1439.166667 424.502584 
L 1445.625 326.260235 
L 1452.083333 403.885838 
L 1458.541667 423.683353 
L 1465 264.739988 
L 1471.458333 473.856272 
L 1477.916667 243.54937 
L 1484.375 483.374696 
L 1490.833333 423.793344 
L 1497.291667 291.115017 
L 1503.75 323.506548 
L 1510.208333 335.965356 
L 1516.666667 275.504374 
L 1523.125 337.334614 
L 1529.583333 359.298907 
L 1536.041667 464.369158 
L 1542.5 270.113062 
L 1548.958333 281.799631 
L 1555.416667 298.636087 
L 1561.875 395.268259 
L 1568.333333 418.424267 
L 1574.791667 314.241792 
L 1581.25 329.985697 
L 1587.708333 352.059051 
L 1594.166667 381.94978 
L 1600.625 309.063799 
L 1607.083333 398.897279 
L 1613.541667 500.989053 
L 1620 286.444059 
L 1620 286.444059 
" style="fill:none;stroke:#ff7f0e;stroke-linecap:square;stroke-width:1.5;"/>
   </g>
   <g id="patch_3">
    <path d="M 225 630 
L 225 86.4 
" style="fill:none;stroke:#000000;stroke-linecap:square;stroke-linejoin:miter;stroke-width:0.8;"/>
   </g>
   <g id="patch_4">
    <path d="M 1620 630 
L 1620 86.4 
" style="fill:none;stroke:#000000;stroke-linecap:square;stroke-linejoin:miter;stroke-width:0.8;"/>
   </g>
   <g id="patch_5">
    <path d="M 225 630 
L 1620 630 
" style="fill:none;stroke:#000000;stroke-linecap:square;stroke-linejoin:miter;stroke-width:0.8;"/>
   </g>
   <g id="patch_6">
    <path d="M 225 86.4 
L 1620 86.4 
" style="fill:none;stroke:#000000;stroke-linecap:square;stroke-linejoin:miter;stroke-width:0.8;"/>
   </g>
   <g id="legend_1">
    <g id="patch_7">
     <path d="M 1515.775 124.034375 
L 1613 124.034375 
Q 1615 124.034375 1615 122.034375 
L 1615 93.4 
Q 1615 91.4 1613 91.4 
L 1515.775 91.4 
Q 1513.775 91.4 1513.775 93.4 
L 1513.775 122.034375 
Q 1513.775 124.034375 1515.775 124.034375 
z
" style="fill:#ffffff;opacity:0.8;stroke:#cccccc;stroke-linejoin:miter;"/>
    </g>
    <g id="line2d_17">
     <path d="M 1517.775 99.498437 
L 1537.775 99.498437 
" style="fill:none;stroke:#1f77b4;stroke-linecap:square;stroke-width:1.5;"/>
    </g>
    <g id="line2d_18"/>
    <g id="text_15">
     <!-- ground_truth -->
     <defs>
      <path d="M 45.40625 27.984375 
Q 45.40625 37.75 41.375 43.109375 
Q 37.359375 48.484375 30.078125 48.484375 
Q 22.859375 48.484375 18.828125 43.109375 
Q 14.796875 37.75 14.796875 27.984375 
Q 14.796875 18.265625 18.828125 12.890625 
Q 22.859375 7.515625 30.078125 7.515625 
Q 37.359375 7.515625 41.375 12.890625 
Q 45.40625 18.265625 45.40625 27.984375 
z
M 54.390625 6.78125 
Q 54.390625 -7.171875 48.1875 -13.984375 
Q 42 -20.796875 29.203125 -20.796875 
Q 24.46875 -20.796875 20.265625 -20.09375 
Q 16.0625 -19.390625 12.109375 -17.921875 
L 12.109375 -9.1875 
Q 16.0625 -11.328125 19.921875 -12.34375 
Q 23.78125 -13.375 27.78125 -13.375 
Q 36.625 -13.375 41.015625 -8.765625 
Q 45.40625 -4.15625 45.40625 5.171875 
L 45.40625 9.625 
Q 42.625 4.78125 38.28125 2.390625 
Q 33.9375 0 27.875 0 
Q 17.828125 0 11.671875 7.65625 
Q 5.515625 15.328125 5.515625 27.984375 
Q 5.515625 40.671875 11.671875 48.328125 
Q 17.828125 56 27.875 56 
Q 33.9375 56 38.28125 53.609375 
Q 42.625 51.21875 45.40625 46.390625 
L 45.40625 54.6875 
L 54.390625 54.6875 
z
" id="DejaVuSans-103"/>
      <path d="M 41.109375 46.296875 
Q 39.59375 47.171875 37.8125 47.578125 
Q 36.03125 48 33.890625 48 
Q 26.265625 48 22.1875 43.046875 
Q 18.109375 38.09375 18.109375 28.8125 
L 18.109375 0 
L 9.078125 0 
L 9.078125 54.6875 
L 18.109375 54.6875 
L 18.109375 46.1875 
Q 20.953125 51.171875 25.484375 53.578125 
Q 30.03125 56 36.53125 56 
Q 37.453125 56 38.578125 55.875 
Q 39.703125 55.765625 41.0625 55.515625 
z
" id="DejaVuSans-114"/>
      <path d="M 30.609375 48.390625 
Q 23.390625 48.390625 19.1875 42.75 
Q 14.984375 37.109375 14.984375 27.296875 
Q 14.984375 17.484375 19.15625 11.84375 
Q 23.34375 6.203125 30.609375 6.203125 
Q 37.796875 6.203125 41.984375 11.859375 
Q 46.1875 17.53125 46.1875 27.296875 
Q 46.1875 37.015625 41.984375 42.703125 
Q 37.796875 48.390625 30.609375 48.390625 
z
M 30.609375 56 
Q 42.328125 56 49.015625 48.375 
Q 55.71875 40.765625 55.71875 27.296875 
Q 55.71875 13.875 49.015625 6.21875 
Q 42.328125 -1.421875 30.609375 -1.421875 
Q 18.84375 -1.421875 12.171875 6.21875 
Q 5.515625 13.875 5.515625 27.296875 
Q 5.515625 40.765625 12.171875 48.375 
Q 18.84375 56 30.609375 56 
z
" id="DejaVuSans-111"/>
      <path d="M 8.5 21.578125 
L 8.5 54.6875 
L 17.484375 54.6875 
L 17.484375 21.921875 
Q 17.484375 14.15625 20.5 10.265625 
Q 23.53125 6.390625 29.59375 6.390625 
Q 36.859375 6.390625 41.078125 11.03125 
Q 45.3125 15.671875 45.3125 23.6875 
L 45.3125 54.6875 
L 54.296875 54.6875 
L 54.296875 0 
L 45.3125 0 
L 45.3125 8.40625 
Q 42.046875 3.421875 37.71875 1 
Q 33.40625 -1.421875 27.6875 -1.421875 
Q 18.265625 -1.421875 13.375 4.4375 
Q 8.5 10.296875 8.5 21.578125 
z
M 31.109375 56 
z
" id="DejaVuSans-117"/>
      <path d="M 54.890625 33.015625 
L 54.890625 0 
L 45.90625 0 
L 45.90625 32.71875 
Q 45.90625 40.484375 42.875 44.328125 
Q 39.84375 48.1875 33.796875 48.1875 
Q 26.515625 48.1875 22.3125 43.546875 
Q 18.109375 38.921875 18.109375 30.90625 
L 18.109375 0 
L 9.078125 0 
L 9.078125 54.6875 
L 18.109375 54.6875 
L 18.109375 46.1875 
Q 21.34375 51.125 25.703125 53.5625 
Q 30.078125 56 35.796875 56 
Q 45.21875 56 50.046875 50.171875 
Q 54.890625 44.34375 54.890625 33.015625 
z
" id="DejaVuSans-110"/>
      <path d="M 45.40625 46.390625 
L 45.40625 75.984375 
L 54.390625 75.984375 
L 54.390625 0 
L 45.40625 0 
L 45.40625 8.203125 
Q 42.578125 3.328125 38.25 0.953125 
Q 33.9375 -1.421875 27.875 -1.421875 
Q 17.96875 -1.421875 11.734375 6.484375 
Q 5.515625 14.40625 5.515625 27.296875 
Q 5.515625 40.1875 11.734375 48.09375 
Q 17.96875 56 27.875 56 
Q 33.9375 56 38.25 53.625 
Q 42.578125 51.265625 45.40625 46.390625 
z
M 14.796875 27.296875 
Q 14.796875 17.390625 18.875 11.75 
Q 22.953125 6.109375 30.078125 6.109375 
Q 37.203125 6.109375 41.296875 11.75 
Q 45.40625 17.390625 45.40625 27.296875 
Q 45.40625 37.203125 41.296875 42.84375 
Q 37.203125 48.484375 30.078125 48.484375 
Q 22.953125 48.484375 18.875 42.84375 
Q 14.796875 37.203125 14.796875 27.296875 
z
" id="DejaVuSans-100"/>
      <path d="M 50.984375 -16.609375 
L 50.984375 -23.578125 
L -0.984375 -23.578125 
L -0.984375 -16.609375 
z
" id="DejaVuSans-95"/>
      <path d="M 18.3125 70.21875 
L 18.3125 54.6875 
L 36.8125 54.6875 
L 36.8125 47.703125 
L 18.3125 47.703125 
L 18.3125 18.015625 
Q 18.3125 11.328125 20.140625 9.421875 
Q 21.96875 7.515625 27.59375 7.515625 
L 36.8125 7.515625 
L 36.8125 0 
L 27.59375 0 
Q 17.1875 0 13.234375 3.875 
Q 9.28125 7.765625 9.28125 18.015625 
L 9.28125 47.703125 
L 2.6875 47.703125 
L 2.6875 54.6875 
L 9.28125 54.6875 
L 9.28125 70.21875 
z
" id="DejaVuSans-116"/>
      <path d="M 54.890625 33.015625 
L 54.890625 0 
L 45.90625 0 
L 45.90625 32.71875 
Q 45.90625 40.484375 42.875 44.328125 
Q 39.84375 48.1875 33.796875 48.1875 
Q 26.515625 48.1875 22.3125 43.546875 
Q 18.109375 38.921875 18.109375 30.90625 
L 18.109375 0 
L 9.078125 0 
L 9.078125 75.984375 
L 18.109375 75.984375 
L 18.109375 46.1875 
Q 21.34375 51.125 25.703125 53.5625 
Q 30.078125 56 35.796875 56 
Q 45.21875 56 50.046875 50.171875 
Q 54.890625 44.34375 54.890625 33.015625 
z
" id="DejaVuSans-104"/>
     </defs>
     <g transform="translate(1545.775 102.998437)scale(0.1 -0.1)">
      <use xlink:href="#DejaVuSans-103"/>
      <use x="63.476562" xlink:href="#DejaVuSans-114"/>
      <use x="104.558594" xlink:href="#DejaVuSans-111"/>
      <use x="165.740234" xlink:href="#DejaVuSans-117"/>
      <use x="229.119141" xlink:href="#DejaVuSans-110"/>
      <use x="292.498047" xlink:href="#DejaVuSans-100"/>
      <use x="355.974609" xlink:href="#DejaVuSans-95"/>
      <use x="405.974609" xlink:href="#DejaVuSans-116"/>
      <use x="445.183594" xlink:href="#DejaVuSans-114"/>
      <use x="486.296875" xlink:href="#DejaVuSans-117"/>
      <use x="549.675781" xlink:href="#DejaVuSans-116"/>
      <use x="588.884766" xlink:href="#DejaVuSans-104"/>
     </g>
    </g>
    <g id="line2d_19">
     <path d="M 1517.775 114.454687 
L 1537.775 114.454687 
" style="fill:none;stroke:#ff7f0e;stroke-linecap:square;stroke-width:1.5;"/>
    </g>
    <g id="line2d_20"/>
    <g id="text_16">
     <!-- predictions -->
     <defs>
      <path d="M 18.109375 8.203125 
L 18.109375 -20.796875 
L 9.078125 -20.796875 
L 9.078125 54.6875 
L 18.109375 54.6875 
L 18.109375 46.390625 
Q 20.953125 51.265625 25.265625 53.625 
Q 29.59375 56 35.59375 56 
Q 45.5625 56 51.78125 48.09375 
Q 58.015625 40.1875 58.015625 27.296875 
Q 58.015625 14.40625 51.78125 6.484375 
Q 45.5625 -1.421875 35.59375 -1.421875 
Q 29.59375 -1.421875 25.265625 0.953125 
Q 20.953125 3.328125 18.109375 8.203125 
z
M 48.6875 27.296875 
Q 48.6875 37.203125 44.609375 42.84375 
Q 40.53125 48.484375 33.40625 48.484375 
Q 26.265625 48.484375 22.1875 42.84375 
Q 18.109375 37.203125 18.109375 27.296875 
Q 18.109375 17.390625 22.1875 11.75 
Q 26.265625 6.109375 33.40625 6.109375 
Q 40.53125 6.109375 44.609375 11.75 
Q 48.6875 17.390625 48.6875 27.296875 
z
" id="DejaVuSans-112"/>
      <path d="M 56.203125 29.59375 
L 56.203125 25.203125 
L 14.890625 25.203125 
Q 15.484375 15.921875 20.484375 11.0625 
Q 25.484375 6.203125 34.421875 6.203125 
Q 39.59375 6.203125 44.453125 7.46875 
Q 49.3125 8.734375 54.109375 11.28125 
L 54.109375 2.78125 
Q 49.265625 0.734375 44.1875 -0.34375 
Q 39.109375 -1.421875 33.890625 -1.421875 
Q 20.796875 -1.421875 13.15625 6.1875 
Q 5.515625 13.8125 5.515625 26.8125 
Q 5.515625 40.234375 12.765625 48.109375 
Q 20.015625 56 32.328125 56 
Q 43.359375 56 49.78125 48.890625 
Q 56.203125 41.796875 56.203125 29.59375 
z
M 47.21875 32.234375 
Q 47.125 39.59375 43.09375 43.984375 
Q 39.0625 48.390625 32.421875 48.390625 
Q 24.90625 48.390625 20.390625 44.140625 
Q 15.875 39.890625 15.1875 32.171875 
z
" id="DejaVuSans-101"/>
      <path d="M 9.421875 54.6875 
L 18.40625 54.6875 
L 18.40625 0 
L 9.421875 0 
z
M 9.421875 75.984375 
L 18.40625 75.984375 
L 18.40625 64.59375 
L 9.421875 64.59375 
z
" id="DejaVuSans-105"/>
      <path d="M 48.78125 52.59375 
L 48.78125 44.1875 
Q 44.96875 46.296875 41.140625 47.34375 
Q 37.3125 48.390625 33.40625 48.390625 
Q 24.65625 48.390625 19.8125 42.84375 
Q 14.984375 37.3125 14.984375 27.296875 
Q 14.984375 17.28125 19.8125 11.734375 
Q 24.65625 6.203125 33.40625 6.203125 
Q 37.3125 6.203125 41.140625 7.25 
Q 44.96875 8.296875 48.78125 10.40625 
L 48.78125 2.09375 
Q 45.015625 0.34375 40.984375 -0.53125 
Q 36.96875 -1.421875 32.421875 -1.421875 
Q 20.0625 -1.421875 12.78125 6.34375 
Q 5.515625 14.109375 5.515625 27.296875 
Q 5.515625 40.671875 12.859375 48.328125 
Q 20.21875 56 33.015625 56 
Q 37.15625 56 41.109375 55.140625 
Q 45.0625 54.296875 48.78125 52.59375 
z
" id="DejaVuSans-99"/>
      <path d="M 44.28125 53.078125 
L 44.28125 44.578125 
Q 40.484375 46.53125 36.375 47.5 
Q 32.28125 48.484375 27.875 48.484375 
Q 21.1875 48.484375 17.84375 46.4375 
Q 14.5 44.390625 14.5 40.28125 
Q 14.5 37.15625 16.890625 35.375 
Q 19.28125 33.59375 26.515625 31.984375 
L 29.59375 31.296875 
Q 39.15625 29.25 43.1875 25.515625 
Q 47.21875 21.78125 47.21875 15.09375 
Q 47.21875 7.46875 41.1875 3.015625 
Q 35.15625 -1.421875 24.609375 -1.421875 
Q 20.21875 -1.421875 15.453125 -0.5625 
Q 10.6875 0.296875 5.421875 2 
L 5.421875 11.28125 
Q 10.40625 8.6875 15.234375 7.390625 
Q 20.0625 6.109375 24.8125 6.109375 
Q 31.15625 6.109375 34.5625 8.28125 
Q 37.984375 10.453125 37.984375 14.40625 
Q 37.984375 18.0625 35.515625 20.015625 
Q 33.0625 21.96875 24.703125 23.78125 
L 21.578125 24.515625 
Q 13.234375 26.265625 9.515625 29.90625 
Q 5.8125 33.546875 5.8125 39.890625 
Q 5.8125 47.609375 11.28125 51.796875 
Q 16.75 56 26.8125 56 
Q 31.78125 56 36.171875 55.265625 
Q 40.578125 54.546875 44.28125 53.078125 
z
" id="DejaVuSans-115"/>
     </defs>
     <g transform="translate(1545.775 117.954687)scale(0.1 -0.1)">
      <use xlink:href="#DejaVuSans-112"/>
      <use x="63.476562" xlink:href="#DejaVuSans-114"/>
      <use x="104.558594" xlink:href="#DejaVuSans-101"/>
      <use x="166.082031" xlink:href="#DejaVuSans-100"/>
      <use x="229.558594" xlink:href="#DejaVuSans-105"/>
      <use x="257.341797" xlink:href="#DejaVuSans-99"/>
      <use x="312.322266" xlink:href="#DejaVuSans-116"/>
      <use x="351.53125" xlink:href="#DejaVuSans-105"/>
      <use x="379.314453" xlink:href="#DejaVuSans-111"/>
      <use x="440.496094" xlink:href="#DejaVuSans-110"/>
      <use x="503.875" xlink:href="#DejaVuSans-115"/>
     </g>
    </g>
   </g>
  </g>
 </g>
 <defs>
  <clipPath id="p6ab9122f1b">
   <rect height="543.6" width="1395" x="225" y="86.4"/>
  </clipPath>
 </defs>
</svg>
