<?xml version="1.0" encoding="utf-8" standalone="no"?>
<!DOCTYPE svg PUBLIC "-//W3C//DTD SVG 1.1//EN"
  "http://www.w3.org/Graphics/SVG/1.1/DTD/svg11.dtd">
<!-- Created with matplotlib (https://matplotlib.org/) -->
<svg height="720pt" version="1.1" viewBox="0 0 1800 720" width="1800pt" xmlns="http://www.w3.org/2000/svg" xmlns:xlink="http://www.w3.org/1999/xlink">
 <defs>
  <style type="text/css">
*{stroke-linecap:butt;stroke-linejoin:round;}
  </style>
 </defs>
 <g id="figure_1">
  <g id="patch_1">
   <path d="M 0 720 
L 1800 720 
L 1800 0 
L 0 0 
z
" style="fill:#ffffff;"/>
  </g>
  <g id="axes_1">
   <g id="patch_2">
    <path d="M 225 630 
L 1620 630 
L 1620 86.4 
L 225 86.4 
z
" style="fill:#ffffff;"/>
   </g>
   <g id="matplotlib.axis_1">
    <g id="xtick_1">
     <g id="line2d_1">
      <defs>
       <path d="M 0 0 
L 0 3.5 
" id="ma3647cc658" style="stroke:#000000;stroke-width:0.8;"/>
      </defs>
      <g>
       <use style="stroke:#000000;stroke-width:0.8;" x="225" xlink:href="#ma3647cc658" y="630"/>
      </g>
     </g>
     <g id="text_1">
      <!-- 0 -->
      <defs>
       <path d="M 31.78125 66.40625 
Q 24.171875 66.40625 20.328125 58.90625 
Q 16.5 51.421875 16.5 36.375 
Q 16.5 21.390625 20.328125 13.890625 
Q 24.171875 6.390625 31.78125 6.390625 
Q 39.453125 6.390625 43.28125 13.890625 
Q 47.125 21.390625 47.125 36.375 
Q 47.125 51.421875 43.28125 58.90625 
Q 39.453125 66.40625 31.78125 66.40625 
z
M 31.78125 74.21875 
Q 44.046875 74.21875 50.515625 64.515625 
Q 56.984375 54.828125 56.984375 36.375 
Q 56.984375 17.96875 50.515625 8.265625 
Q 44.046875 -1.421875 31.78125 -1.421875 
Q 19.53125 -1.421875 13.0625 8.265625 
Q 6.59375 17.96875 6.59375 36.375 
Q 6.59375 54.828125 13.0625 64.515625 
Q 19.53125 74.21875 31.78125 74.21875 
z
" id="DejaVuSans-48"/>
      </defs>
      <g transform="translate(221.81875 644.598438)scale(0.1 -0.1)">
       <use xlink:href="#DejaVuSans-48"/>
      </g>
     </g>
    </g>
    <g id="xtick_2">
     <g id="line2d_2">
      <g>
       <use style="stroke:#000000;stroke-width:0.8;" x="443.139171" xlink:href="#ma3647cc658" y="630"/>
      </g>
     </g>
     <g id="text_2">
      <!-- 200 -->
      <defs>
       <path d="M 19.1875 8.296875 
L 53.609375 8.296875 
L 53.609375 0 
L 7.328125 0 
L 7.328125 8.296875 
Q 12.9375 14.109375 22.625 23.890625 
Q 32.328125 33.6875 34.8125 36.53125 
Q 39.546875 41.84375 41.421875 45.53125 
Q 43.3125 49.21875 43.3125 52.78125 
Q 43.3125 58.59375 39.234375 62.25 
Q 35.15625 65.921875 28.609375 65.921875 
Q 23.96875 65.921875 18.8125 64.3125 
Q 13.671875 62.703125 7.8125 59.421875 
L 7.8125 69.390625 
Q 13.765625 71.78125 18.9375 73 
Q 24.125 74.21875 28.421875 74.21875 
Q 39.75 74.21875 46.484375 68.546875 
Q 53.21875 62.890625 53.21875 53.421875 
Q 53.21875 48.921875 51.53125 44.890625 
Q 49.859375 40.875 45.40625 35.40625 
Q 44.1875 33.984375 37.640625 27.21875 
Q 31.109375 20.453125 19.1875 8.296875 
z
" id="DejaVuSans-50"/>
      </defs>
      <g transform="translate(433.595421 644.598438)scale(0.1 -0.1)">
       <use xlink:href="#DejaVuSans-50"/>
       <use x="63.623047" xlink:href="#DejaVuSans-48"/>
       <use x="127.246094" xlink:href="#DejaVuSans-48"/>
      </g>
     </g>
    </g>
    <g id="xtick_3">
     <g id="line2d_3">
      <g>
       <use style="stroke:#000000;stroke-width:0.8;" x="661.278342" xlink:href="#ma3647cc658" y="630"/>
      </g>
     </g>
     <g id="text_3">
      <!-- 400 -->
      <defs>
       <path d="M 37.796875 64.3125 
L 12.890625 25.390625 
L 37.796875 25.390625 
z
M 35.203125 72.90625 
L 47.609375 72.90625 
L 47.609375 25.390625 
L 58.015625 25.390625 
L 58.015625 17.1875 
L 47.609375 17.1875 
L 47.609375 0 
L 37.796875 0 
L 37.796875 17.1875 
L 4.890625 17.1875 
L 4.890625 26.703125 
z
" id="DejaVuSans-52"/>
      </defs>
      <g transform="translate(651.734592 644.598438)scale(0.1 -0.1)">
       <use xlink:href="#DejaVuSans-52"/>
       <use x="63.623047" xlink:href="#DejaVuSans-48"/>
       <use x="127.246094" xlink:href="#DejaVuSans-48"/>
      </g>
     </g>
    </g>
    <g id="xtick_4">
     <g id="line2d_4">
      <g>
       <use style="stroke:#000000;stroke-width:0.8;" x="879.417514" xlink:href="#ma3647cc658" y="630"/>
      </g>
     </g>
     <g id="text_4">
      <!-- 600 -->
      <defs>
       <path d="M 33.015625 40.375 
Q 26.375 40.375 22.484375 35.828125 
Q 18.609375 31.296875 18.609375 23.390625 
Q 18.609375 15.53125 22.484375 10.953125 
Q 26.375 6.390625 33.015625 6.390625 
Q 39.65625 6.390625 43.53125 10.953125 
Q 47.40625 15.53125 47.40625 23.390625 
Q 47.40625 31.296875 43.53125 35.828125 
Q 39.65625 40.375 33.015625 40.375 
z
M 52.59375 71.296875 
L 52.59375 62.3125 
Q 48.875 64.0625 45.09375 64.984375 
Q 41.3125 65.921875 37.59375 65.921875 
Q 27.828125 65.921875 22.671875 59.328125 
Q 17.53125 52.734375 16.796875 39.40625 
Q 19.671875 43.65625 24.015625 45.921875 
Q 28.375 48.1875 33.59375 48.1875 
Q 44.578125 48.1875 50.953125 41.515625 
Q 57.328125 34.859375 57.328125 23.390625 
Q 57.328125 12.15625 50.6875 5.359375 
Q 44.046875 -1.421875 33.015625 -1.421875 
Q 20.359375 -1.421875 13.671875 8.265625 
Q 6.984375 17.96875 6.984375 36.375 
Q 6.984375 53.65625 15.1875 63.9375 
Q 23.390625 74.21875 37.203125 74.21875 
Q 40.921875 74.21875 44.703125 73.484375 
Q 48.484375 72.75 52.59375 71.296875 
z
" id="DejaVuSans-54"/>
      </defs>
      <g transform="translate(869.873764 644.598438)scale(0.1 -0.1)">
       <use xlink:href="#DejaVuSans-54"/>
       <use x="63.623047" xlink:href="#DejaVuSans-48"/>
       <use x="127.246094" xlink:href="#DejaVuSans-48"/>
      </g>
     </g>
    </g>
    <g id="xtick_5">
     <g id="line2d_5">
      <g>
       <use style="stroke:#000000;stroke-width:0.8;" x="1097.556685" xlink:href="#ma3647cc658" y="630"/>
      </g>
     </g>
     <g id="text_5">
      <!-- 800 -->
      <defs>
       <path d="M 31.78125 34.625 
Q 24.75 34.625 20.71875 30.859375 
Q 16.703125 27.09375 16.703125 20.515625 
Q 16.703125 13.921875 20.71875 10.15625 
Q 24.75 6.390625 31.78125 6.390625 
Q 38.8125 6.390625 42.859375 10.171875 
Q 46.921875 13.96875 46.921875 20.515625 
Q 46.921875 27.09375 42.890625 30.859375 
Q 38.875 34.625 31.78125 34.625 
z
M 21.921875 38.8125 
Q 15.578125 40.375 12.03125 44.71875 
Q 8.5 49.078125 8.5 55.328125 
Q 8.5 64.0625 14.71875 69.140625 
Q 20.953125 74.21875 31.78125 74.21875 
Q 42.671875 74.21875 48.875 69.140625 
Q 55.078125 64.0625 55.078125 55.328125 
Q 55.078125 49.078125 51.53125 44.71875 
Q 48 40.375 41.703125 38.8125 
Q 48.828125 37.15625 52.796875 32.3125 
Q 56.78125 27.484375 56.78125 20.515625 
Q 56.78125 9.90625 50.3125 4.234375 
Q 43.84375 -1.421875 31.78125 -1.421875 
Q 19.734375 -1.421875 13.25 4.234375 
Q 6.78125 9.90625 6.78125 20.515625 
Q 6.78125 27.484375 10.78125 32.3125 
Q 14.796875 37.15625 21.921875 38.8125 
z
M 18.3125 54.390625 
Q 18.3125 48.734375 21.84375 45.5625 
Q 25.390625 42.390625 31.78125 42.390625 
Q 38.140625 42.390625 41.71875 45.5625 
Q 45.3125 48.734375 45.3125 54.390625 
Q 45.3125 60.0625 41.71875 63.234375 
Q 38.140625 66.40625 31.78125 66.40625 
Q 25.390625 66.40625 21.84375 63.234375 
Q 18.3125 60.0625 18.3125 54.390625 
z
" id="DejaVuSans-56"/>
      </defs>
      <g transform="translate(1088.012935 644.598438)scale(0.1 -0.1)">
       <use xlink:href="#DejaVuSans-56"/>
       <use x="63.623047" xlink:href="#DejaVuSans-48"/>
       <use x="127.246094" xlink:href="#DejaVuSans-48"/>
      </g>
     </g>
    </g>
    <g id="xtick_6">
     <g id="line2d_6">
      <g>
       <use style="stroke:#000000;stroke-width:0.8;" x="1315.695856" xlink:href="#ma3647cc658" y="630"/>
      </g>
     </g>
     <g id="text_6">
      <!-- 1000 -->
      <defs>
       <path d="M 12.40625 8.296875 
L 28.515625 8.296875 
L 28.515625 63.921875 
L 10.984375 60.40625 
L 10.984375 69.390625 
L 28.421875 72.90625 
L 38.28125 72.90625 
L 38.28125 8.296875 
L 54.390625 8.296875 
L 54.390625 0 
L 12.40625 0 
z
" id="DejaVuSans-49"/>
      </defs>
      <g transform="translate(1302.970856 644.598438)scale(0.1 -0.1)">
       <use xlink:href="#DejaVuSans-49"/>
       <use x="63.623047" xlink:href="#DejaVuSans-48"/>
       <use x="127.246094" xlink:href="#DejaVuSans-48"/>
       <use x="190.869141" xlink:href="#DejaVuSans-48"/>
      </g>
     </g>
    </g>
    <g id="xtick_7">
     <g id="line2d_7">
      <g>
       <use style="stroke:#000000;stroke-width:0.8;" x="1533.835027" xlink:href="#ma3647cc658" y="630"/>
      </g>
     </g>
     <g id="text_7">
      <!-- 1200 -->
      <g transform="translate(1521.110027 644.598438)scale(0.1 -0.1)">
       <use xlink:href="#DejaVuSans-49"/>
       <use x="63.623047" xlink:href="#DejaVuSans-50"/>
       <use x="127.246094" xlink:href="#DejaVuSans-48"/>
       <use x="190.869141" xlink:href="#DejaVuSans-48"/>
      </g>
     </g>
    </g>
   </g>
   <g id="matplotlib.axis_2">
    <g id="ytick_1">
     <g id="line2d_8">
      <defs>
       <path d="M 0 0 
L -3.5 0 
" id="m9faf5af862" style="stroke:#000000;stroke-width:0.8;"/>
      </defs>
      <g>
       <use style="stroke:#000000;stroke-width:0.8;" x="225" xlink:href="#m9faf5af862" y="604.75235"/>
      </g>
     </g>
     <g id="text_8">
      <!-- 200 -->
      <g transform="translate(198.9125 608.551569)scale(0.1 -0.1)">
       <use xlink:href="#DejaVuSans-50"/>
       <use x="63.623047" xlink:href="#DejaVuSans-48"/>
       <use x="127.246094" xlink:href="#DejaVuSans-48"/>
      </g>
     </g>
    </g>
    <g id="ytick_2">
     <g id="line2d_9">
      <g>
       <use style="stroke:#000000;stroke-width:0.8;" x="225" xlink:href="#m9faf5af862" y="542.265862"/>
      </g>
     </g>
     <g id="text_9">
      <!-- 300 -->
      <defs>
       <path d="M 40.578125 39.3125 
Q 47.65625 37.796875 51.625 33 
Q 55.609375 28.21875 55.609375 21.1875 
Q 55.609375 10.40625 48.1875 4.484375 
Q 40.765625 -1.421875 27.09375 -1.421875 
Q 22.515625 -1.421875 17.65625 -0.515625 
Q 12.796875 0.390625 7.625 2.203125 
L 7.625 11.71875 
Q 11.71875 9.328125 16.59375 8.109375 
Q 21.484375 6.890625 26.8125 6.890625 
Q 36.078125 6.890625 40.9375 10.546875 
Q 45.796875 14.203125 45.796875 21.1875 
Q 45.796875 27.640625 41.28125 31.265625 
Q 36.765625 34.90625 28.71875 34.90625 
L 20.21875 34.90625 
L 20.21875 43.015625 
L 29.109375 43.015625 
Q 36.375 43.015625 40.234375 45.921875 
Q 44.09375 48.828125 44.09375 54.296875 
Q 44.09375 59.90625 40.109375 62.90625 
Q 36.140625 65.921875 28.71875 65.921875 
Q 24.65625 65.921875 20.015625 65.03125 
Q 15.375 64.15625 9.8125 62.3125 
L 9.8125 71.09375 
Q 15.4375 72.65625 20.34375 73.4375 
Q 25.25 74.21875 29.59375 74.21875 
Q 40.828125 74.21875 47.359375 69.109375 
Q 53.90625 64.015625 53.90625 55.328125 
Q 53.90625 49.265625 50.4375 45.09375 
Q 46.96875 40.921875 40.578125 39.3125 
z
" id="DejaVuSans-51"/>
      </defs>
      <g transform="translate(198.9125 546.065081)scale(0.1 -0.1)">
       <use xlink:href="#DejaVuSans-51"/>
       <use x="63.623047" xlink:href="#DejaVuSans-48"/>
       <use x="127.246094" xlink:href="#DejaVuSans-48"/>
      </g>
     </g>
    </g>
    <g id="ytick_3">
     <g id="line2d_10">
      <g>
       <use style="stroke:#000000;stroke-width:0.8;" x="225" xlink:href="#m9faf5af862" y="479.779373"/>
      </g>
     </g>
     <g id="text_10">
      <!-- 400 -->
      <g transform="translate(198.9125 483.578592)scale(0.1 -0.1)">
       <use xlink:href="#DejaVuSans-52"/>
       <use x="63.623047" xlink:href="#DejaVuSans-48"/>
       <use x="127.246094" xlink:href="#DejaVuSans-48"/>
      </g>
     </g>
    </g>
    <g id="ytick_4">
     <g id="line2d_11">
      <g>
       <use style="stroke:#000000;stroke-width:0.8;" x="225" xlink:href="#m9faf5af862" y="417.292885"/>
      </g>
     </g>
     <g id="text_11">
      <!-- 500 -->
      <defs>
       <path d="M 10.796875 72.90625 
L 49.515625 72.90625 
L 49.515625 64.59375 
L 19.828125 64.59375 
L 19.828125 46.734375 
Q 21.96875 47.46875 24.109375 47.828125 
Q 26.265625 48.1875 28.421875 48.1875 
Q 40.625 48.1875 47.75 41.5 
Q 54.890625 34.8125 54.890625 23.390625 
Q 54.890625 11.625 47.5625 5.09375 
Q 40.234375 -1.421875 26.90625 -1.421875 
Q 22.3125 -1.421875 17.546875 -0.640625 
Q 12.796875 0.140625 7.71875 1.703125 
L 7.71875 11.625 
Q 12.109375 9.234375 16.796875 8.0625 
Q 21.484375 6.890625 26.703125 6.890625 
Q 35.15625 6.890625 40.078125 11.328125 
Q 45.015625 15.765625 45.015625 23.390625 
Q 45.015625 31 40.078125 35.4375 
Q 35.15625 39.890625 26.703125 39.890625 
Q 22.75 39.890625 18.8125 39.015625 
Q 14.890625 38.140625 10.796875 36.28125 
z
" id="DejaVuSans-53"/>
      </defs>
      <g transform="translate(198.9125 421.092104)scale(0.1 -0.1)">
       <use xlink:href="#DejaVuSans-53"/>
       <use x="63.623047" xlink:href="#DejaVuSans-48"/>
       <use x="127.246094" xlink:href="#DejaVuSans-48"/>
      </g>
     </g>
    </g>
    <g id="ytick_5">
     <g id="line2d_12">
      <g>
       <use style="stroke:#000000;stroke-width:0.8;" x="225" xlink:href="#m9faf5af862" y="354.806396"/>
      </g>
     </g>
     <g id="text_12">
      <!-- 600 -->
      <g transform="translate(198.9125 358.605615)scale(0.1 -0.1)">
       <use xlink:href="#DejaVuSans-54"/>
       <use x="63.623047" xlink:href="#DejaVuSans-48"/>
       <use x="127.246094" xlink:href="#DejaVuSans-48"/>
      </g>
     </g>
    </g>
    <g id="ytick_6">
     <g id="line2d_13">
      <g>
       <use style="stroke:#000000;stroke-width:0.8;" x="225" xlink:href="#m9faf5af862" y="292.319908"/>
      </g>
     </g>
     <g id="text_13">
      <!-- 700 -->
      <defs>
       <path d="M 8.203125 72.90625 
L 55.078125 72.90625 
L 55.078125 68.703125 
L 28.609375 0 
L 18.3125 0 
L 43.21875 64.59375 
L 8.203125 64.59375 
z
" id="DejaVuSans-55"/>
      </defs>
      <g transform="translate(198.9125 296.119126)scale(0.1 -0.1)">
       <use xlink:href="#DejaVuSans-55"/>
       <use x="63.623047" xlink:href="#DejaVuSans-48"/>
       <use x="127.246094" xlink:href="#DejaVuSans-48"/>
      </g>
     </g>
    </g>
    <g id="ytick_7">
     <g id="line2d_14">
      <g>
       <use style="stroke:#000000;stroke-width:0.8;" x="225" xlink:href="#m9faf5af862" y="229.833419"/>
      </g>
     </g>
     <g id="text_14">
      <!-- 800 -->
      <g transform="translate(198.9125 233.632638)scale(0.1 -0.1)">
       <use xlink:href="#DejaVuSans-56"/>
       <use x="63.623047" xlink:href="#DejaVuSans-48"/>
       <use x="127.246094" xlink:href="#DejaVuSans-48"/>
      </g>
     </g>
    </g>
    <g id="ytick_8">
     <g id="line2d_15">
      <g>
       <use style="stroke:#000000;stroke-width:0.8;" x="225" xlink:href="#m9faf5af862" y="167.346931"/>
      </g>
     </g>
     <g id="text_15">
      <!-- 900 -->
      <defs>
       <path d="M 10.984375 1.515625 
L 10.984375 10.5 
Q 14.703125 8.734375 18.5 7.8125 
Q 22.3125 6.890625 25.984375 6.890625 
Q 35.75 6.890625 40.890625 13.453125 
Q 46.046875 20.015625 46.78125 33.40625 
Q 43.953125 29.203125 39.59375 26.953125 
Q 35.25 24.703125 29.984375 24.703125 
Q 19.046875 24.703125 12.671875 31.3125 
Q 6.296875 37.9375 6.296875 49.421875 
Q 6.296875 60.640625 12.9375 67.421875 
Q 19.578125 74.21875 30.609375 74.21875 
Q 43.265625 74.21875 49.921875 64.515625 
Q 56.59375 54.828125 56.59375 36.375 
Q 56.59375 19.140625 48.40625 8.859375 
Q 40.234375 -1.421875 26.421875 -1.421875 
Q 22.703125 -1.421875 18.890625 -0.6875 
Q 15.09375 0.046875 10.984375 1.515625 
z
M 30.609375 32.421875 
Q 37.25 32.421875 41.125 36.953125 
Q 45.015625 41.5 45.015625 49.421875 
Q 45.015625 57.28125 41.125 61.84375 
Q 37.25 66.40625 30.609375 66.40625 
Q 23.96875 66.40625 20.09375 61.84375 
Q 16.21875 57.28125 16.21875 49.421875 
Q 16.21875 41.5 20.09375 36.953125 
Q 23.96875 32.421875 30.609375 32.421875 
z
" id="DejaVuSans-57"/>
      </defs>
      <g transform="translate(198.9125 171.146149)scale(0.1 -0.1)">
       <use xlink:href="#DejaVuSans-57"/>
       <use x="63.623047" xlink:href="#DejaVuSans-48"/>
       <use x="127.246094" xlink:href="#DejaVuSans-48"/>
      </g>
     </g>
    </g>
    <g id="ytick_9">
     <g id="line2d_16">
      <g>
       <use style="stroke:#000000;stroke-width:0.8;" x="225" xlink:href="#m9faf5af862" y="104.860442"/>
      </g>
     </g>
     <g id="text_16">
      <!-- 1000 -->
      <g transform="translate(192.55 108.659661)scale(0.1 -0.1)">
       <use xlink:href="#DejaVuSans-49"/>
       <use x="63.623047" xlink:href="#DejaVuSans-48"/>
       <use x="127.246094" xlink:href="#DejaVuSans-48"/>
       <use x="190.869141" xlink:href="#DejaVuSans-48"/>
      </g>
     </g>
    </g>
   </g>
   <g id="line2d_17">
    <path clip-path="url(#p1e804c12bc)" d="M 225 454.784778 
L 226.090696 217.960986 
L 227.181392 311.065854 
L 228.272088 261.076663 
L 229.362783 261.076663 
L 230.453479 479.779373 
L 231.544175 454.784778 
L 232.634871 386.049641 
L 233.725567 498.52532 
L 234.816263 217.336121 
L 235.906959 261.076663 
L 236.997654 284.821529 
L 238.08835 292.319908 
L 239.179046 479.779373 
L 240.269742 448.536129 
L 241.360438 470.4064 
L 242.451134 459.158832 
L 243.54183 231.083149 
L 244.632525 436.038831 
L 245.723221 279.82261 
L 246.813917 261.076663 
L 247.904613 161.098282 
L 248.995309 292.319908 
L 250.086005 235.457203 
L 251.176701 404.795587 
L 252.267396 467.282076 
L 253.358092 417.292885 
L 254.448788 246.704771 
L 255.539484 279.82261 
L 256.63018 217.336121 
L 257.720876 417.292885 
L 258.811572 386.049641 
L 259.902267 291.695043 
L 260.992963 173.595579 
L 262.083659 142.352335 
L 263.174355 342.309099 
L 264.265051 448.536129 
L 265.355747 122.981524 
L 266.446443 349.807477 
L 267.537138 239.206392 
L 268.627834 367.303694 
L 269.71853 417.292885 
L 270.809226 229.208554 
L 271.899922 379.800992 
L 272.990618 417.292885 
L 274.081314 386.049641 
L 275.172009 271.699366 
L 276.262705 448.536129 
L 277.353401 492.276671 
L 278.444097 301.068016 
L 279.534793 261.076663 
L 280.625489 417.292885 
L 281.716185 168.59666 
L 282.80688 348.557747 
L 283.897576 267.325312 
L 284.988272 236.082068 
L 286.078968 232.957744 
L 287.169664 217.336121 
L 288.26036 167.346931 
L 289.351056 227.958825 
L 290.441751 345.433423 
L 291.532447 386.049641 
L 292.623143 546.639916 
L 293.713839 542.265862 
L 294.804535 129.855037 
L 295.895231 177.969634 
L 296.985927 209.212878 
L 298.076622 429.790183 
L 299.167318 373.552343 
L 300.258014 242.330717 
L 301.34871 136.103686 
L 302.439406 489.152347 
L 303.530102 542.265862 
L 304.620797 323.563152 
L 305.711493 542.265862 
L 307.892885 448.536129 
L 308.983581 511.022618 
L 310.074277 386.049641 
L 311.164973 217.336121 
L 312.255668 279.82261 
L 313.346364 554.76316 
L 314.43706 225.459365 
L 315.527756 404.795587 
L 316.618452 198.590175 
L 317.709148 261.076663 
L 318.799844 136.103686 
L 319.890539 461.033427 
L 320.981235 386.049641 
L 322.071931 198.590175 
L 323.162627 323.563152 
L 324.253323 267.325312 
L 325.344019 323.563152 
L 326.434715 292.319908 
L 328.616106 134.229092 
L 329.706802 351.682072 
L 330.797498 523.519915 
L 331.888194 126.105848 
L 332.97889 136.103686 
L 334.069586 423.541534 
L 335.160281 261.076663 
L 336.250977 229.833419 
L 337.341673 236.082068 
L 338.432369 112.358821 
L 339.523065 356.056126 
L 340.613761 261.076663 
L 341.704457 292.319908 
L 342.795152 229.833419 
L 343.885848 198.590175 
L 344.976544 261.076663 
L 346.06724 261.076663 
L 347.157936 221.710176 
L 348.248632 236.082068 
L 349.339328 267.325312 
L 350.430023 256.077744 
L 351.520719 379.800992 
L 352.611415 234.832338 
L 353.702111 265.450718 
L 354.792807 161.098282 
L 355.883503 282.946934 
L 356.974199 322.938287 
L 358.064894 229.833419 
L 359.15559 229.833419 
L 360.246286 317.314503 
L 361.336982 461.033427 
L 362.427678 504.773969 
L 363.518374 164.222606 
L 364.60907 417.292885 
L 365.699765 229.833419 
L 366.790461 148.600984 
L 367.881157 131.104767 
L 368.971853 215.461527 
L 370.062549 386.049641 
L 371.153245 448.536129 
L 372.243941 194.840986 
L 373.334636 391.673425 
L 374.425332 157.973957 
L 375.516028 475.405319 
L 376.606724 259.202069 
L 377.69742 204.838824 
L 378.788116 317.314503 
L 379.878812 123.606389 
L 380.969507 229.833419 
L 382.060203 292.319908 
L 383.150899 179.844228 
L 384.241595 146.101524 
L 385.332291 155.474498 
L 386.422987 354.806396 
L 387.513683 261.076663 
L 388.604378 495.400996 
L 389.695074 167.346931 
L 390.78577 123.606389 
L 391.876466 379.800992 
L 392.967162 295.444232 
L 394.057858 167.346931 
L 395.148554 123.606389 
L 396.239249 266.700447 
L 397.329945 267.325312 
L 399.511337 267.325312 
L 400.602033 167.346931 
L 401.692729 261.076663 
L 402.783425 223.58477 
L 403.87412 141.72747 
L 406.055512 261.076663 
L 407.146208 279.82261 
L 408.236904 136.103686 
L 409.3276 479.779373 
L 410.418296 267.325312 
L 411.508991 295.444232 
L 412.599687 391.673425 
L 413.690383 311.065854 
L 414.781079 354.806396 
L 415.871775 323.563152 
L 416.962471 176.095039 
L 418.053167 167.346931 
L 419.143862 148.600984 
L 420.234558 167.346931 
L 421.325254 266.700447 
L 422.41595 317.314503 
L 423.506646 398.546938 
L 424.597342 379.800992 
L 425.688038 354.806396 
L 426.778733 373.552343 
L 427.869429 292.319908 
L 428.960125 492.276671 
L 430.050821 323.563152 
L 431.141517 217.336121 
L 432.232213 167.346931 
L 433.322909 164.847471 
L 434.413604 192.341526 
L 435.5043 329.811801 
L 436.594996 198.590175 
L 437.685692 448.536129 
L 438.776388 454.784778 
L 439.867084 511.022618 
L 440.95778 517.271266 
L 442.048475 479.779373 
L 443.139171 561.011808 
L 444.229867 386.049641 
L 445.320563 542.265862 
L 446.411259 313.565314 
L 447.501955 386.049641 
L 448.592651 473.530725 
L 449.683346 416.66802 
L 450.774042 118.60747 
L 451.864738 529.768564 
L 452.955434 271.699366 
L 454.04613 417.292885 
L 455.136826 229.833419 
L 456.227522 511.022618 
L 457.318217 448.536129 
L 458.408913 289.195583 
L 459.499609 417.292885 
L 460.590305 442.28748 
L 461.681001 367.303694 
L 462.771697 404.795587 
L 463.862392 417.292885 
L 464.953088 461.033427 
L 466.043784 417.292885 
L 467.13448 261.076663 
L 468.225176 321.688557 
L 469.315872 167.346931 
L 470.406568 148.600984 
L 471.497263 223.58477 
L 472.587959 344.808558 
L 473.678655 529.768564 
L 474.769351 329.186936 
L 475.860047 198.590175 
L 476.950743 351.682072 
L 478.041439 118.60747 
L 479.132134 471.65613 
L 480.22283 411.669101 
L 481.313526 448.536129 
L 482.404222 261.076663 
L 483.494918 261.076663 
L 484.585614 161.098282 
L 485.67631 248.579366 
L 486.767005 124.231254 
L 487.857701 263.576123 
L 488.948397 124.231254 
L 490.039093 192.341526 
L 491.129789 119.232334 
L 492.220485 508.523158 
L 493.311181 336.06045 
L 494.401876 271.699366 
L 495.492572 151.100444 
L 496.583268 161.098282 
L 497.673964 354.806396 
L 498.76466 171.720985 
L 499.855356 118.60747 
L 500.946052 504.773969 
L 502.036747 317.314503 
L 503.127443 292.319908 
L 504.218139 219.210716 
L 505.308835 334.185855 
L 506.399531 404.795587 
L 507.490227 376.676667 
L 508.580923 261.076663 
L 509.671618 219.835581 
L 510.762314 167.346931 
L 511.85301 167.346931 
L 512.943706 504.773969 
L 514.034402 298.568557 
L 515.125098 176.719904 
L 516.215794 261.076663 
L 517.306489 219.210716 
L 518.397185 424.791263 
L 519.487881 248.579366 
L 520.578577 220.460446 
L 521.669273 323.563152 
L 522.759969 167.346931 
L 523.850665 267.325312 
L 524.94136 448.536129 
L 526.032056 211.087473 
L 527.122752 479.779373 
L 528.213448 473.530725 
L 529.304144 386.049641 
L 530.39484 354.806396 
L 531.485536 286.071259 
L 532.576231 229.833419 
L 533.666927 372.927478 
L 534.757623 289.195583 
L 535.848319 386.049641 
L 536.939015 461.033427 
L 538.029711 261.076663 
L 539.120407 252.95342 
L 540.211102 393.548019 
L 541.301798 304.817205 
L 542.392494 165.472336 
L 543.48319 323.563152 
L 544.573886 204.838824 
L 545.664582 404.795587 
L 546.755278 124.231254 
L 547.845973 124.231254 
L 548.936669 376.676667 
L 550.027365 171.720985 
L 551.118061 448.536129 
L 552.208757 517.271266 
L 553.299453 448.536129 
L 556.57154 448.536129 
L 557.662236 423.541534 
L 558.752932 186.092877 
L 559.843628 444.162075 
L 560.934324 386.049641 
L 562.02502 486.028022 
L 563.115715 517.271266 
L 564.206411 198.590175 
L 565.297107 348.557747 
L 566.387803 523.519915 
L 567.478499 323.563152 
L 568.569195 317.314503 
L 569.659891 345.433423 
L 570.750586 177.969634 
L 571.841282 190.466931 
L 572.931978 279.82261 
L 574.022674 354.806396 
L 575.11337 417.292885 
L 576.204066 354.806396 
L 577.294762 148.600984 
L 578.385457 198.590175 
L 579.476153 354.806396 
L 580.566849 186.092877 
L 581.657545 429.790183 
L 582.748241 473.530725 
L 583.838937 386.049641 
L 584.929633 451.660454 
L 586.020328 479.779373 
L 587.111024 209.212878 
L 588.20172 429.790183 
L 589.292416 167.346931 
L 590.383112 286.071259 
L 591.473808 604.75235 
L 592.564504 386.049641 
L 594.745895 448.536129 
L 595.836591 292.319908 
L 596.927287 268.575042 
L 598.017983 251.078825 
L 599.108679 598.503702 
L 600.199375 390.423695 
L 601.29007 448.536129 
L 602.380766 432.914507 
L 603.471462 432.914507 
L 604.562158 393.548019 
L 605.652854 492.276671 
L 606.74355 511.022618 
L 607.834246 498.52532 
L 608.924941 511.022618 
L 610.015637 354.806396 
L 611.106333 448.536129 
L 612.197029 281.697205 
L 613.287725 279.82261 
L 614.378421 511.022618 
L 615.469116 163.597741 
L 616.559812 461.033427 
L 617.650508 267.325312 
L 618.741204 204.838824 
L 619.8319 354.806396 
L 620.922596 248.579366 
L 622.013292 186.092877 
L 623.103987 517.271266 
L 624.194683 431.664777 
L 625.285379 232.957744 
L 626.376075 447.911264 
L 627.466771 470.4064 
L 628.557467 292.319908 
L 629.648163 423.541534 
L 630.738858 371.677748 
L 631.829554 417.292885 
L 632.92025 154.849633 
L 634.010946 379.800992 
L 635.101642 302.942611 
L 636.192338 296.693962 
L 637.283034 431.039912 
L 638.373729 281.697205 
L 639.464425 411.669101 
L 640.555121 406.670182 
L 641.645817 443.53721 
L 642.736513 401.671263 
L 643.827209 420.417209 
L 644.917905 495.400996 
L 646.0086 254.828015 
L 647.099296 311.065854 
L 648.189992 417.292885 
L 649.280688 448.536129 
L 650.371384 354.806396 
L 651.46208 354.806396 
L 652.552776 479.779373 
L 653.643471 304.817205 
L 654.734167 284.821529 
L 655.824863 247.954501 
L 656.915559 511.022618 
L 658.006255 298.568557 
L 659.096951 354.806396 
L 660.187647 288.570718 
L 661.278342 344.808558 
L 662.369038 586.006404 
L 663.459734 242.330717 
L 664.55043 297.943692 
L 665.641126 494.776131 
L 666.731822 292.319908 
L 667.822518 514.146942 
L 668.913213 344.808558 
L 670.003909 443.53721 
L 671.094605 336.06045 
L 672.185301 354.806396 
L 673.275997 209.212878 
L 674.366693 327.937206 
L 675.457389 198.590175 
L 676.548084 272.324231 
L 677.63878 263.576123 
L 678.729476 319.813963 
L 679.820172 251.078825 
L 680.910868 461.033427 
L 682.001564 511.022618 
L 683.09226 406.670182 
L 684.182955 326.687476 
L 685.273651 567.260457 
L 686.364347 573.509106 
L 687.455043 511.022618 
L 688.545739 117.35774 
L 689.636435 511.022618 
L 690.727131 448.536129 
L 691.817826 542.265862 
L 692.908522 514.146942 
L 693.999218 448.536129 
L 695.089914 442.28748 
L 696.18061 179.844228 
L 697.271306 511.022618 
L 698.362002 373.552343 
L 699.452697 542.265862 
L 700.543393 393.548019 
L 701.634089 477.904779 
L 702.724785 323.563152 
L 703.815481 136.103686 
L 704.906177 429.790183 
L 705.996873 386.049641 
L 707.087568 417.292885 
L 708.178264 386.049641 
L 709.26896 386.049641 
L 710.359656 448.536129 
L 711.450352 445.411805 
L 712.541048 192.966391 
L 713.631744 192.341526 
L 714.722439 426.040993 
L 715.813135 273.573961 
L 716.903831 542.265862 
L 717.994527 214.211797 
L 719.085223 323.563152 
L 720.175919 454.784778 
L 721.266615 392.298289 
L 722.35731 348.557747 
L 723.448006 461.033427 
L 724.538702 286.071259 
L 725.629398 401.671263 
L 726.720094 192.341526 
L 727.81079 370.428018 
L 728.901486 395.422614 
L 729.992181 198.590175 
L 731.082877 317.314503 
L 732.173573 454.784778 
L 733.264269 448.536129 
L 734.354965 386.049641 
L 735.445661 386.049641 
L 736.536357 342.309099 
L 737.627052 292.319908 
L 738.717748 298.568557 
L 739.808444 323.563152 
L 740.89914 573.509106 
L 741.989836 207.963148 
L 743.080532 417.292885 
L 744.171228 291.695043 
L 745.261923 392.298289 
L 746.352619 417.292885 
L 747.443315 420.417209 
L 748.534011 542.265862 
L 749.624707 504.773969 
L 750.715403 504.773969 
L 751.806099 211.087473 
L 752.896794 386.049641 
L 753.98749 386.049641 
L 755.078186 309.19126 
L 756.168882 329.811801 
L 757.259578 386.049641 
L 758.350274 436.038831 
L 759.44097 548.514511 
L 760.531665 448.536129 
L 761.622361 386.049641 
L 762.713057 479.779373 
L 763.803753 411.669101 
L 764.894449 420.417209 
L 765.985145 511.022618 
L 767.075841 211.712337 
L 768.166536 354.806396 
L 769.257232 311.065854 
L 770.347928 392.298289 
L 771.438624 386.049641 
L 773.620016 261.076663 
L 774.710711 354.806396 
L 775.801407 282.946934 
L 777.982799 419.792344 
L 779.073495 386.049641 
L 780.164191 456.034508 
L 781.254887 486.028022 
L 782.345582 362.92964 
L 783.436278 386.049641 
L 784.526974 479.779373 
L 785.61767 398.546938 
L 786.708366 492.276671 
L 787.799062 298.568557 
L 788.889758 442.28748 
L 789.980453 417.292885 
L 791.071149 436.038831 
L 792.161845 334.185855 
L 793.252541 339.184774 
L 794.343237 435.413966 
L 795.433933 354.806396 
L 796.524629 361.055045 
L 797.615324 414.16856 
L 798.70602 422.291804 
L 799.796716 417.292885 
L 800.887412 273.573961 
L 801.978108 349.182612 
L 803.068804 286.696124 
L 804.1595 521.645321 
L 805.250195 417.292885 
L 806.340891 520.395591 
L 807.431587 386.049641 
L 808.522283 536.017213 
L 809.612979 554.76316 
L 810.703675 479.779373 
L 811.794371 529.768564 
L 812.885066 417.292885 
L 813.975762 386.049641 
L 815.066458 479.779373 
L 816.157154 561.011808 
L 817.24785 498.52532 
L 818.338546 417.292885 
L 819.429242 545.390186 
L 820.519937 236.082068 
L 821.610633 511.022618 
L 822.701329 561.011808 
L 825.973417 561.011808 
L 827.064113 567.260457 
L 828.154808 421.666939 
L 829.245504 307.94153 
L 830.3362 334.185855 
L 831.426896 386.049641 
L 832.517592 501.649644 
L 833.608288 343.558828 
L 834.698984 331.061531 
L 835.789679 573.509106 
L 836.880375 357.930721 
L 837.971071 426.040993 
L 839.061767 442.28748 
L 840.152463 429.790183 
L 841.243159 479.779373 
L 842.333855 448.536129 
L 843.42455 369.178289 
L 844.515246 448.536129 
L 845.605942 354.806396 
L 846.696638 381.050721 
L 847.787334 388.5491 
L 848.87803 441.662615 
L 849.968726 511.022618 
L 851.059421 227.958825 
L 852.150117 479.779373 
L 853.240813 347.932883 
L 854.331509 479.779373 
L 855.422205 386.049641 
L 856.512901 317.939368 
L 857.603597 292.319908 
L 858.694292 479.779373 
L 859.784988 448.536129 
L 860.875684 448.536129 
L 861.96638 542.265862 
L 863.057076 398.546938 
L 865.238468 354.806396 
L 866.329163 276.073421 
L 867.419859 501.649644 
L 868.510555 412.293966 
L 869.601251 354.806396 
L 870.691947 498.52532 
L 871.782643 261.076663 
L 872.873339 318.564233 
L 873.964034 354.806396 
L 875.05473 438.538291 
L 876.145426 386.049641 
L 877.236122 323.563152 
L 878.326818 495.400996 
L 879.417514 358.555586 
L 880.50821 495.400996 
L 881.598905 523.519915 
L 882.689601 486.028022 
L 883.780297 373.552343 
L 884.870993 492.276671 
L 885.961689 386.049641 
L 887.052385 479.779373 
L 888.143081 286.071259 
L 889.233776 479.779373 
L 890.324472 511.022618 
L 891.415168 479.779373 
L 892.505864 486.028022 
L 893.59656 417.292885 
L 894.687256 398.546938 
L 895.777952 431.039912 
L 896.868647 417.292885 
L 897.959343 323.563152 
L 899.050039 448.536129 
L 900.140735 363.554505 
L 901.231431 370.428018 
L 902.322127 449.785859 
L 903.412823 461.033427 
L 904.503518 364.17937 
L 905.594214 417.292885 
L 906.68491 429.790183 
L 907.775606 386.049641 
L 908.866302 336.06045 
L 909.956998 389.79883 
L 911.047694 417.292885 
L 912.138389 392.298289 
L 913.229085 395.422614 
L 914.319781 365.429099 
L 915.410477 111.109091 
L 916.501173 298.568557 
L 917.591869 323.563152 
L 918.682565 386.049641 
L 919.77326 246.079906 
L 920.863956 319.813963 
L 921.954652 448.536129 
L 923.045348 348.557747 
L 924.136044 369.178289 
L 925.22674 409.794506 
L 926.317435 254.20315 
L 927.408131 438.538291 
L 928.498827 254.828015 
L 929.589523 511.022618 
L 930.680219 307.316665 
L 931.770915 462.908021 
L 932.861611 426.040993 
L 933.952306 356.056126 
L 935.043002 254.828015 
L 936.133698 246.079906 
L 937.224394 319.813963 
L 938.31509 479.154508 
L 939.405786 515.396672 
L 940.496482 348.557747 
L 941.587177 369.178289 
L 942.677873 261.076663 
L 943.768569 229.833419 
L 944.859265 462.908021 
L 945.949961 448.536129 
L 947.040657 417.292885 
L 949.222048 417.292885 
L 950.312744 411.044236 
L 951.40344 398.546938 
L 952.494136 448.536129 
L 953.584832 386.049641 
L 954.675528 386.049641 
L 955.766224 432.914507 
L 956.856919 417.292885 
L 957.947615 479.154508 
L 959.038311 503.524239 
L 960.129007 407.295047 
L 961.219703 331.061531 
L 962.310399 432.914507 
L 963.401095 386.049641 
L 964.49179 398.546938 
L 965.582486 417.292885 
L 966.673182 479.779373 
L 967.763878 511.022618 
L 968.854574 269.824772 
L 969.94527 498.52532 
L 971.035966 548.514511 
L 972.126661 504.773969 
L 973.217357 136.103686 
L 974.308053 498.52532 
L 975.398749 448.536129 
L 976.489445 261.076663 
L 977.580141 261.076663 
L 978.670837 436.038831 
L 979.761532 379.800992 
L 980.852228 492.276671 
L 981.942924 511.022618 
L 983.03362 136.103686 
L 984.124316 167.346931 
L 985.215012 417.292885 
L 986.305708 436.038831 
L 987.396403 436.038831 
L 988.487099 511.022618 
L 989.577795 446.03667 
L 990.668491 470.4064 
L 991.759187 492.276671 
L 992.849883 392.923154 
L 993.940579 367.928559 
L 995.031274 313.565314 
L 996.12197 167.346931 
L 997.212666 273.573961 
L 998.303362 470.4064 
L 999.394058 511.022618 
L 1000.484754 341.684234 
L 1001.57545 548.514511 
L 1002.666145 554.76316 
L 1003.756841 323.563152 
L 1005.938233 511.022618 
L 1007.028929 529.768564 
L 1008.119625 486.028022 
L 1009.210321 470.4064 
L 1010.301016 557.887484 
L 1011.391712 523.519915 
L 1012.482408 511.022618 
L 1013.573104 411.044236 
L 1014.6638 446.03667 
L 1016.845192 573.509106 
L 1017.935887 529.768564 
L 1019.026583 474.780454 
L 1020.117279 298.568557 
L 1021.207975 573.509106 
L 1022.298671 486.028022 
L 1023.389367 470.4064 
L 1024.480063 539.141537 
L 1025.570758 368.553424 
L 1026.661454 344.808558 
L 1027.75215 341.684234 
L 1028.842846 436.038831 
L 1029.933542 398.546938 
L 1031.024238 443.53721 
L 1032.114934 511.022618 
L 1033.205629 434.164237 
L 1034.296325 448.536129 
L 1035.387021 417.292885 
L 1036.477717 332.31126 
L 1037.568413 336.06045 
L 1038.659109 492.276671 
L 1039.749805 404.795587 
L 1040.8405 562.261538 
L 1041.931196 392.298289 
L 1043.021892 504.773969 
L 1044.112588 367.303694 
L 1045.203284 479.779373 
L 1046.29398 414.16856 
L 1047.384676 242.330717 
L 1048.475371 504.773969 
L 1049.566067 167.346931 
L 1050.656763 411.044236 
L 1051.747459 400.421533 
L 1052.838155 523.519915 
L 1053.928851 495.400996 
L 1055.019547 473.530725 
L 1056.110242 461.033427 
L 1057.200938 511.022618 
L 1058.291634 357.930721 
L 1059.38233 479.779373 
L 1060.473026 448.536129 
L 1061.563722 399.171803 
L 1062.654418 523.519915 
L 1063.745113 398.546938 
L 1064.835809 476.030184 
L 1065.926505 461.033427 
L 1067.017201 520.395591 
L 1068.107897 448.536129 
L 1069.198593 479.779373 
L 1070.289289 415.41829 
L 1071.379984 448.536129 
L 1072.47068 473.530725 
L 1073.561376 411.044236 
L 1074.652072 479.779373 
L 1075.742768 495.400996 
L 1076.833464 481.653968 
L 1077.924159 411.669101 
L 1079.014855 186.092877 
L 1080.105551 486.028022 
L 1081.196247 386.049641 
L 1082.286943 423.541534 
L 1083.377639 361.055045 
L 1084.468335 461.033427 
L 1085.55903 317.314503 
L 1086.649726 448.536129 
L 1087.740422 386.049641 
L 1088.831118 414.793425 
L 1089.921814 395.422614 
L 1091.01251 211.087473 
L 1092.103206 286.071259 
L 1093.193901 423.541534 
L 1094.284597 461.033427 
L 1095.375293 417.292885 
L 1096.465989 454.784778 
L 1097.556685 292.319908 
L 1098.647381 323.563152 
L 1099.738077 361.055045 
L 1100.828772 392.298289 
L 1101.919468 460.408562 
L 1103.010164 363.554505 
L 1104.10086 404.795587 
L 1105.191556 323.563152 
L 1106.282252 386.049641 
L 1107.372948 398.546938 
L 1108.463643 448.536129 
L 1109.554339 479.779373 
L 1110.645035 236.082068 
L 1111.735731 323.563152 
L 1112.826427 389.173965 
L 1113.917123 163.597741 
L 1116.098514 397.922073 
L 1117.18921 386.049641 
L 1119.370602 204.838824 
L 1120.461298 186.092877 
L 1121.551994 186.092877 
L 1122.64269 517.271266 
L 1123.733385 436.038831 
L 1124.824081 141.72747 
L 1125.914777 248.579366 
L 1127.005473 439.163156 
L 1128.096169 376.676667 
L 1129.186865 354.806396 
L 1130.277561 245.455041 
L 1131.368256 229.833419 
L 1132.458952 191.716661 
L 1133.549648 448.536129 
L 1134.640344 214.211797 
L 1135.73104 167.346931 
L 1136.821736 273.573961 
L 1137.912432 392.298289 
L 1139.003127 482.903698 
L 1140.093823 432.914507 
L 1141.184519 311.065854 
L 1142.275215 454.784778 
L 1143.365911 523.519915 
L 1144.456607 204.838824 
L 1145.547303 386.049641 
L 1146.637998 411.044236 
L 1147.728694 448.536129 
L 1148.81939 348.557747 
L 1149.910086 311.065854 
L 1151.000782 379.800992 
L 1152.091478 395.422614 
L 1153.182174 406.045317 
L 1154.272869 276.698286 
L 1155.363565 323.563152 
L 1156.454261 312.315584 
L 1157.544957 229.833419 
L 1158.635653 392.298289 
L 1159.726349 417.91775 
L 1160.817045 329.811801 
L 1161.90774 429.790183 
L 1162.998436 454.784778 
L 1164.089132 423.541534 
L 1165.179828 479.779373 
L 1166.270524 570.384782 
L 1167.36122 517.271266 
L 1168.451916 486.028022 
L 1169.542611 417.292885 
L 1170.633307 151.725308 
L 1171.724003 423.541534 
L 1172.814699 420.417209 
L 1173.905395 461.033427 
L 1174.996091 479.779373 
L 1176.086787 511.022618 
L 1177.177482 476.655049 
L 1178.268178 464.157751 
L 1179.358874 448.536129 
L 1180.44957 482.903698 
L 1181.540266 215.461527 
L 1182.630962 373.552343 
L 1183.721658 457.909102 
L 1184.812353 421.666939 
L 1185.903049 329.811801 
L 1186.993745 329.811801 
L 1188.084441 479.779373 
L 1189.175137 275.448556 
L 1190.265833 404.795587 
L 1191.356529 254.828015 
L 1192.447224 179.844228 
L 1193.53792 454.784778 
L 1194.628616 485.403157 
L 1195.719312 461.033427 
L 1196.810008 386.049641 
L 1197.900704 286.071259 
L 1198.9914 464.157751 
L 1200.082095 224.8345 
L 1201.172791 384.799911 
L 1202.263487 451.660454 
L 1203.354183 464.157751 
L 1204.444879 411.044236 
L 1205.535575 496.02586 
L 1206.626271 151.725308 
L 1208.807662 439.163156 
L 1209.898358 404.795587 
L 1210.989054 432.914507 
L 1212.07975 404.795587 
L 1213.170446 111.109091 
L 1214.261142 393.548019 
L 1215.351837 448.536129 
L 1216.442533 214.211797 
L 1217.533229 167.346931 
L 1218.623925 323.563152 
L 1219.714621 420.417209 
L 1220.805317 354.181531 
L 1221.896013 376.051802 
L 1222.986708 561.011808 
L 1224.077404 489.152347 
L 1225.1681 311.065854 
L 1226.258796 479.779373 
L 1227.349492 454.784778 
L 1228.440188 395.422614 
L 1229.530884 379.176127 
L 1230.621579 417.292885 
L 1231.712275 413.543695 
L 1232.802971 412.293966 
L 1233.893667 376.676667 
L 1234.984363 542.265862 
L 1236.075059 448.536129 
L 1237.165754 448.536129 
L 1238.25645 299.193421 
L 1239.347146 284.821529 
L 1240.437842 454.784778 
L 1241.528538 504.773969 
L 1242.619234 339.184774 
L 1243.70993 542.265862 
L 1244.800625 542.265862 
L 1245.891321 448.536129 
L 1246.982017 542.265862 
L 1248.072713 167.346931 
L 1249.163409 448.536129 
L 1250.254105 404.170722 
L 1251.344801 160.473417 
L 1252.435496 367.303694 
L 1253.526192 404.795587 
L 1254.616888 417.292885 
L 1255.707584 448.536129 
L 1256.79828 246.704771 
L 1257.888976 448.536129 
L 1258.979672 272.949096 
L 1260.070367 336.06045 
L 1261.161063 334.185855 
L 1262.251759 323.563152 
L 1263.342455 492.276671 
L 1264.433151 411.044236 
L 1265.523847 461.033427 
L 1266.614543 386.049641 
L 1267.705238 297.943692 
L 1268.795934 573.509106 
L 1269.88663 154.849633 
L 1270.977326 503.524239 
L 1272.068022 442.28748 
L 1273.158718 401.671263 
L 1274.249414 414.16856 
L 1275.340109 346.058288 
L 1276.430805 448.536129 
L 1277.521501 461.033427 
L 1278.612197 344.183693 
L 1279.702893 302.942611 
L 1280.793589 465.407481 
L 1281.884285 292.319908 
L 1282.97498 292.319908 
L 1284.065676 364.804234 
L 1285.156372 276.698286 
L 1286.247068 386.049641 
L 1287.337764 290.445313 
L 1289.519156 336.06045 
L 1290.609851 146.726389 
L 1291.700547 164.222606 
L 1292.791243 479.779373 
L 1293.881939 448.536129 
L 1294.972635 429.165318 
L 1296.063331 457.284237 
L 1297.154027 357.305856 
L 1298.244722 136.103686 
L 1299.335418 471.65613 
L 1300.426114 292.319908 
L 1301.51681 354.806396 
L 1302.607506 229.833419 
L 1303.698202 479.779373 
L 1304.788898 195.46585 
L 1305.879593 309.19126 
L 1306.970289 573.509106 
L 1308.060985 277.948015 
L 1309.151681 492.276671 
L 1310.242377 403.545857 
L 1311.333073 198.590175 
L 1312.423769 386.674505 
L 1313.514464 429.790183 
L 1314.60516 386.049641 
L 1315.695856 576.008566 
L 1316.786552 323.563152 
L 1317.877248 373.552343 
L 1318.967944 417.292885 
L 1320.05864 376.051802 
L 1321.149335 288.570718 
L 1322.240031 147.976119 
L 1323.330727 226.709095 
L 1324.421423 193.591256 
L 1325.512119 323.563152 
L 1326.602815 292.319908 
L 1327.693511 407.295047 
L 1328.784206 382.925316 
L 1329.874902 404.795587 
L 1330.965598 551.638835 
L 1332.056294 189.217202 
L 1333.14699 454.784778 
L 1334.237686 368.553424 
L 1335.328382 361.055045 
L 1336.419077 117.35774 
L 1337.509773 351.682072 
L 1338.600469 273.573961 
L 1339.691165 167.346931 
L 1340.781861 427.915588 
L 1341.872557 479.779373 
L 1342.963253 507.898293 
L 1344.053948 323.563152 
L 1345.144644 529.768564 
L 1346.23534 373.552343 
L 1347.326036 386.049641 
L 1348.416732 304.817205 
L 1349.507428 292.319908 
L 1350.598124 542.265862 
L 1351.688819 448.536129 
L 1352.779515 417.292885 
L 1353.870211 349.807477 
L 1354.960907 448.536129 
L 1356.051603 223.58477 
L 1357.142299 136.103686 
L 1358.232995 329.811801 
L 1359.32369 398.546938 
L 1360.414386 370.428018 
L 1361.505082 304.817205 
L 1362.595778 604.75235 
L 1364.77717 417.292885 
L 1365.867866 115.483145 
L 1366.958561 423.541534 
L 1368.049257 115.483145 
L 1369.139953 511.022618 
L 1370.230649 386.049641 
L 1371.321345 321.688557 
L 1372.412041 442.28748 
L 1373.502737 511.022618 
L 1374.593432 411.044236 
L 1375.684128 342.933963 
L 1376.774824 355.431261 
L 1377.86552 364.804234 
L 1378.956216 384.175046 
L 1380.046912 386.049641 
L 1381.137608 261.076663 
L 1382.228303 542.265862 
L 1383.318999 429.790183 
L 1384.409695 229.833419 
L 1385.500391 417.292885 
L 1386.591087 401.671263 
L 1387.681783 239.206392 
L 1388.772478 338.559909 
L 1389.863174 167.346931 
L 1390.95387 354.806396 
L 1392.044566 417.292885 
L 1393.135262 450.410724 
L 1394.225958 456.659373 
L 1395.316654 256.077744 
L 1396.407349 348.557747 
L 1397.498045 532.892889 
L 1398.588741 279.82261 
L 1399.679437 267.325312 
L 1400.770133 323.563152 
L 1401.860829 417.292885 
L 1402.951525 448.536129 
L 1404.04222 370.428018 
L 1405.132916 279.82261 
L 1406.223612 219.835581 
L 1407.314308 442.28748 
L 1408.405004 292.319908 
L 1409.4957 409.169641 
L 1410.586396 261.076663 
L 1411.677091 361.055045 
L 1412.767787 301.068016 
L 1413.858483 448.536129 
L 1414.949179 448.536129 
L 1416.039875 396.047479 
L 1417.130571 423.541534 
L 1418.221267 492.276671 
L 1419.311962 448.536129 
L 1420.402658 229.208554 
L 1421.493354 417.292885 
L 1422.58405 348.557747 
L 1423.674746 486.028022 
L 1424.765442 322.938287 
L 1425.856138 427.915588 
L 1426.946833 459.158832 
L 1429.128225 385.424776 
L 1430.218921 323.563152 
L 1431.309617 198.590175 
L 1432.400313 384.175046 
L 1433.491009 492.276671 
L 1434.581704 417.292885 
L 1435.6724 376.051802 
L 1436.763096 271.699366 
L 1437.853792 479.779373 
L 1438.944488 323.563152 
L 1440.035184 398.546938 
L 1441.12588 386.049641 
L 1442.216575 304.817205 
L 1443.307271 423.541534 
L 1444.397967 448.536129 
L 1445.488663 382.300451 
L 1446.579359 229.208554 
L 1447.670055 286.071259 
L 1448.760751 467.282076 
L 1449.851446 204.213959 
L 1452.032838 379.800992 
L 1453.123534 429.790183 
L 1454.21423 177.969634 
L 1455.304926 480.404238 
L 1456.395622 336.06045 
L 1457.486317 229.833419 
L 1458.577013 423.541534 
L 1459.667709 201.089634 
L 1460.758405 229.833419 
L 1461.849101 342.309099 
L 1462.939797 354.806396 
L 1464.030493 379.176127 
L 1465.121188 372.927478 
L 1466.211884 386.049641 
L 1467.30258 467.282076 
L 1468.393276 283.571799 
L 1469.483972 236.082068 
L 1470.574668 417.292885 
L 1471.665364 227.33396 
L 1472.756059 448.536129 
L 1473.846755 402.296128 
L 1474.937451 292.319908 
L 1476.028147 214.211797 
L 1478.209539 479.779373 
L 1479.300235 404.795587 
L 1480.39093 448.536129 
L 1481.481626 261.076663 
L 1482.572322 429.790183 
L 1483.663018 448.536129 
L 1484.753714 448.536129 
L 1485.84441 423.541534 
L 1486.935106 254.828015 
L 1488.025801 417.292885 
L 1489.116497 447.911264 
L 1490.207193 248.579366 
L 1491.297889 486.028022 
L 1492.388585 486.028022 
L 1493.479281 423.541534 
L 1494.569977 142.352335 
L 1495.660672 357.930721 
L 1496.751368 198.590175 
L 1497.842064 379.176127 
L 1498.93276 442.28748 
L 1500.023456 554.76316 
L 1501.114152 376.676667 
L 1502.204848 236.082068 
L 1503.295543 554.76316 
L 1504.386239 227.33396 
L 1505.476935 261.076663 
L 1506.567631 443.53721 
L 1507.658327 443.53721 
L 1508.749023 423.541534 
L 1509.839719 436.038831 
L 1510.930414 254.828015 
L 1512.02111 477.279914 
L 1513.111806 429.790183 
L 1514.202502 479.779373 
L 1515.293198 398.546938 
L 1516.383894 404.795587 
L 1517.47459 261.076663 
L 1518.565285 292.319908 
L 1519.655981 304.817205 
L 1520.746677 261.076663 
L 1521.837373 392.298289 
L 1522.928069 304.817205 
L 1524.018765 261.076663 
L 1525.109461 417.292885 
L 1526.200156 311.065854 
L 1527.290852 304.817205 
L 1528.381548 479.779373 
L 1529.472244 276.698286 
L 1530.56294 344.808558 
L 1531.653636 511.022618 
L 1532.744332 417.292885 
L 1533.835027 361.055045 
L 1534.925723 369.803154 
L 1536.016419 517.271266 
L 1537.107115 517.271266 
L 1538.197811 461.033427 
L 1539.288507 354.806396 
L 1540.379203 343.558828 
L 1541.469898 411.044236 
L 1542.560594 429.790183 
L 1543.65129 461.033427 
L 1544.741986 468.531805 
L 1545.832682 357.930721 
L 1546.923378 292.319908 
L 1548.014073 467.282076 
L 1549.104769 199.839905 
L 1550.195465 436.038831 
L 1551.286161 473.530725 
L 1552.376857 326.062612 
L 1553.467553 527.269105 
L 1554.558249 309.19126 
L 1555.648944 376.051802 
L 1556.73964 423.541534 
L 1557.830336 277.948015 
L 1558.921032 335.435585 
L 1560.011728 229.833419 
L 1561.102424 417.292885 
L 1562.19312 246.704771 
L 1563.283815 354.806396 
L 1564.374511 231.083149 
L 1565.465207 579.757755 
L 1566.555903 386.049641 
L 1567.646599 486.028022 
L 1568.737295 270.449637 
L 1569.827991 256.077744 
L 1570.918686 417.292885 
L 1572.009382 398.546938 
L 1573.100078 407.295047 
L 1574.190774 412.293966 
L 1575.28147 378.551262 
L 1576.372166 351.682072 
L 1577.462862 446.03667 
L 1578.553557 367.303694 
L 1579.644253 167.346931 
L 1580.734949 282.32207 
L 1581.825645 354.806396 
L 1582.916341 382.925316 
L 1584.007037 335.435585 
L 1585.097733 354.806396 
L 1586.188428 354.806396 
L 1587.279124 402.296128 
L 1588.36982 288.570718 
L 1589.460516 423.541534 
L 1590.551212 386.049641 
L 1591.641908 386.049641 
L 1592.732604 504.773969 
L 1593.823299 386.049641 
L 1594.913995 182.968553 
L 1596.004691 436.038831 
L 1597.095387 219.835581 
L 1598.186083 323.563152 
L 1599.276779 479.779373 
L 1600.367475 479.779373 
L 1601.45817 323.563152 
L 1602.548866 343.558828 
L 1603.639562 479.779373 
L 1604.730258 323.563152 
L 1606.91165 286.071259 
L 1608.002346 301.692881 
L 1609.093041 460.408562 
L 1610.183737 288.570718 
L 1611.274433 323.563152 
L 1612.365129 239.206392 
L 1613.455825 386.049641 
L 1614.546521 346.058288 
L 1615.637217 443.53721 
L 1616.727912 323.563152 
L 1617.818608 448.536129 
L 1618.909304 479.779373 
L 1620 495.400996 
L 1620 495.400996 
" style="fill:none;stroke:#1f77b4;stroke-linecap:square;stroke-width:1.5;"/>
   </g>
   <g id="line2d_18">
    <path clip-path="url(#p1e804c12bc)" d="M 225 402.629577 
L 226.090696 277.272739 
L 227.181392 364.764621 
L 228.272088 275.877251 
L 229.362783 268.211304 
L 230.453479 374.704626 
L 231.544175 429.605576 
L 233.725567 364.450907 
L 234.816263 260.146624 
L 235.906959 221.998056 
L 236.997654 289.42593 
L 238.08835 314.245613 
L 239.179046 475.41096 
L 240.269742 432.557382 
L 241.360438 524.933269 
L 242.451134 399.620305 
L 243.54183 257.901131 
L 244.632525 319.507033 
L 245.723221 240.964943 
L 246.813917 307.756238 
L 247.904613 218.384833 
L 248.995309 320.346541 
L 250.086005 250.465572 
L 251.176701 289.779669 
L 252.267396 402.629577 
L 253.358092 321.984875 
L 254.448788 269.791876 
L 255.539484 236.729636 
L 256.63018 258.454008 
L 257.720876 371.850859 
L 258.811572 329.88671 
L 260.992963 270.566823 
L 262.083659 216.367081 
L 263.174355 317.229128 
L 264.265051 402.629577 
L 265.355747 184.496669 
L 266.446443 268.864904 
L 267.537138 173.962662 
L 268.627834 313.484098 
L 269.71853 376.189447 
L 270.809226 216.491138 
L 271.899922 328.444081 
L 272.990618 355.002994 
L 274.081314 340.135161 
L 275.172009 264.25587 
L 276.262705 468.999011 
L 277.353401 468.26766 
L 278.444097 327.974572 
L 279.534793 311.760667 
L 280.625489 402.811142 
L 281.716185 206.11092 
L 282.80688 347.731651 
L 283.897576 335.523971 
L 284.988272 255.121977 
L 286.078968 301.677807 
L 287.169664 229.308174 
L 288.26036 237.849686 
L 289.351056 247.965261 
L 290.441751 291.048189 
L 291.532447 375.57993 
L 292.623143 498.269916 
L 293.713839 572.298286 
L 294.804535 163.061563 
L 295.895231 278.983032 
L 296.985927 238.73893 
L 298.076622 391.188134 
L 299.167318 381.824893 
L 300.258014 225.657676 
L 301.34871 193.67186 
L 302.439406 488.444915 
L 303.530102 492.914635 
L 304.620797 282.168286 
L 305.711493 492.914635 
L 307.892885 411.629453 
L 308.983581 495.667848 
L 310.074277 362.7567 
L 311.164973 272.541157 
L 312.255668 377.641357 
L 313.346364 550.695448 
L 314.43706 234.619774 
L 315.527756 363.556864 
L 316.618452 284.530329 
L 317.709148 306.579952 
L 318.799844 207.34754 
L 319.890539 424.718016 
L 320.981235 430.433427 
L 322.071931 349.960611 
L 323.162627 294.994121 
L 324.253323 246.17149 
L 325.344019 344.539728 
L 328.616106 159.420026 
L 329.706802 370.817739 
L 330.797498 476.044714 
L 331.888194 169.302018 
L 332.97889 294.994121 
L 334.069586 337.281394 
L 335.160281 335.961278 
L 336.250977 260.600084 
L 337.341673 310.356629 
L 338.432369 279.98103 
L 339.523065 331.664767 
L 340.613761 261.340846 
L 341.704457 273.988531 
L 342.795152 275.730586 
L 343.885848 288.674135 
L 344.976544 329.325398 
L 346.06724 329.325398 
L 347.157936 234.622163 
L 348.248632 247.220674 
L 349.339328 262.268012 
L 350.430023 249.712758 
L 351.520719 383.072436 
L 352.611415 206.64772 
L 353.702111 251.532781 
L 354.792807 222.828227 
L 355.883503 304.7695 
L 356.974199 328.817305 
L 358.064894 260.713235 
L 359.15559 264.649388 
L 360.246286 323.999411 
L 361.336982 458.616321 
L 362.427678 477.862093 
L 363.518374 258.764578 
L 364.60907 358.819028 
L 365.699765 207.182263 
L 366.790461 185.735359 
L 367.881157 212.647622 
L 368.971853 253.793923 
L 370.062549 356.767296 
L 371.153245 389.775663 
L 372.243941 327.539101 
L 373.334636 350.058719 
L 374.425332 220.218571 
L 375.516028 430.980874 
L 376.606724 276.762292 
L 377.69742 209.420292 
L 378.788116 256.97547 
L 379.878812 201.792686 
L 380.969507 269.600868 
L 382.060203 268.556807 
L 383.150899 256.008508 
L 384.241595 226.399229 
L 385.332291 283.534225 
L 386.422987 305.950536 
L 387.513683 284.814116 
L 388.604378 448.285866 
L 389.695074 241.362982 
L 390.78577 145.569781 
L 391.876466 321.166642 
L 392.967162 285.752513 
L 394.057858 260.930276 
L 395.148554 230.636037 
L 396.239249 309.470575 
L 397.329945 211.325369 
L 398.420641 247.153542 
L 399.511337 253.39929 
L 400.602033 196.544638 
L 401.692729 250.16109 
L 402.783425 213.507285 
L 403.87412 280.627263 
L 404.964816 168.63093 
L 406.055512 304.175097 
L 407.146208 413.599926 
L 408.236904 160.906326 
L 409.3276 429.397546 
L 410.418296 257.67076 
L 411.508991 336.358117 
L 412.599687 366.942405 
L 413.690383 352.539163 
L 414.781079 237.054117 
L 415.871775 370.817739 
L 416.962471 241.21392 
L 418.053167 262.919063 
L 419.143862 176.189966 
L 420.234558 297.737784 
L 421.325254 242.967476 
L 422.41595 247.492265 
L 423.506646 362.900263 
L 424.597342 334.696856 
L 425.688038 287.196798 
L 426.778733 346.290429 
L 427.869429 377.641357 
L 428.960125 488.649469 
L 430.050821 285.529035 
L 431.141517 240.066285 
L 432.232213 274.646113 
L 433.322909 238.825407 
L 434.413604 324.521166 
L 435.5043 366.630211 
L 436.594996 234.786201 
L 437.685692 431.60811 
L 438.776388 499.946391 
L 439.867084 504.381172 
L 440.95778 524.933269 
L 442.048475 417.242286 
L 443.139171 445.00341 
L 444.229867 257.697542 
L 445.320563 548.270983 
L 446.411259 322.033322 
L 447.501955 399.679734 
L 448.592651 442.131987 
L 449.683346 303.998921 
L 450.774042 212.057843 
L 451.864738 503.722924 
L 452.955434 278.192318 
L 454.04613 398.430167 
L 455.136826 242.80173 
L 456.227522 462.748357 
L 457.318217 447.526505 
L 458.408913 342.401383 
L 459.499609 315.394183 
L 460.590305 403.431129 
L 461.681001 381.984982 
L 462.771697 473.196868 
L 463.862392 453.909327 
L 464.953088 465.370726 
L 466.043784 403.097044 
L 467.13448 277.66419 
L 468.225176 339.901065 
L 469.315872 242.479701 
L 470.406568 183.09907 
L 471.497263 232.31648 
L 472.587959 366.391411 
L 473.678655 461.971374 
L 474.769351 349.105533 
L 475.860047 223.43163 
L 476.950743 405.651216 
L 478.041439 225.099711 
L 479.132134 394.337642 
L 480.22283 374.092358 
L 481.313526 244.397787 
L 482.404222 272.957262 
L 483.494918 237.041428 
L 484.585614 246.923538 
L 485.67631 223.827762 
L 486.767005 212.372182 
L 487.857701 223.827762 
L 488.948397 213.826297 
L 490.039093 158.030294 
L 491.129789 197.513656 
L 492.220485 330.193915 
L 493.311181 274.269641 
L 494.401876 365.915975 
L 495.492572 214.44403 
L 496.583268 183.995822 
L 497.673964 345.943586 
L 498.76466 219.231929 
L 499.855356 216.622877 
L 500.946052 490.038232 
L 502.036747 294.410834 
L 503.127443 258.394779 
L 504.218139 244.282259 
L 505.308835 343.971619 
L 506.399531 391.932333 
L 507.490227 377.707438 
L 508.580923 283.853962 
L 509.671618 350.293996 
L 510.762314 221.530546 
L 511.85301 194.761133 
L 512.943706 501.539648 
L 514.034402 285.196926 
L 515.125098 237.406126 
L 516.215794 356.597375 
L 517.306489 341.872111 
L 518.397185 438.865486 
L 519.487881 331.874653 
L 520.578577 285.907755 
L 521.669273 354.79277 
L 522.759969 252.951369 
L 523.850665 273.184111 
L 524.94136 486.389404 
L 526.032056 360.789315 
L 527.122752 482.841905 
L 528.213448 421.480622 
L 529.304144 425.716604 
L 530.39484 321.988003 
L 531.485536 291.251079 
L 532.576231 225.413843 
L 533.666927 346.19623 
L 534.757623 339.960913 
L 535.848319 381.654098 
L 536.939015 465.386419 
L 538.029711 263.67181 
L 539.120407 367.545625 
L 540.211102 387.991339 
L 541.301798 268.281052 
L 542.392494 201.81499 
L 543.48319 272.905939 
L 544.573886 242.954643 
L 545.664582 380.786682 
L 546.755278 212.561678 
L 547.845973 226.497787 
L 548.936669 409.607857 
L 550.027365 276.988471 
L 551.118061 457.244238 
L 552.208757 525.787796 
L 553.299453 450.526703 
L 554.390149 444.822544 
L 555.480844 442.732886 
L 556.57154 454.481816 
L 557.662236 428.989929 
L 558.752932 301.858947 
L 559.843628 388.806575 
L 560.934324 410.071679 
L 562.02502 392.030365 
L 563.115715 406.766217 
L 564.206411 212.830649 
L 565.297107 400.703324 
L 566.387803 525.9691 
L 567.478499 246.668982 
L 568.569195 315.315294 
L 569.659891 362.992798 
L 570.750586 239.831381 
L 571.841282 256.252849 
L 572.931978 262.472323 
L 574.022674 365.970169 
L 575.11337 311.562821 
L 576.204066 385.261709 
L 577.294762 224.861724 
L 578.385457 312.059082 
L 579.476153 382.608853 
L 580.566849 220.05348 
L 581.657545 445.438163 
L 582.748241 467.576526 
L 583.838937 401.036682 
L 584.929633 469.244288 
L 586.020328 469.244288 
L 587.111024 360.990172 
L 588.20172 427.349242 
L 589.292416 205.722343 
L 590.383112 273.989736 
L 591.473808 549.715293 
L 592.564504 364.366978 
L 593.655199 421.062691 
L 595.836591 302.329573 
L 596.927287 292.621016 
L 598.017983 331.641827 
L 599.108679 549.715293 
L 600.199375 441.103883 
L 601.29007 531.114779 
L 602.380766 417.207344 
L 603.471462 358.251116 
L 604.562158 413.234392 
L 606.74355 482.360994 
L 607.834246 506.402454 
L 608.924941 520.732915 
L 610.015637 381.919266 
L 611.106333 407.440688 
L 612.197029 273.471299 
L 613.287725 353.553817 
L 614.378421 401.18311 
L 615.469116 175.142474 
L 616.559812 326.757793 
L 617.650508 254.595802 
L 618.741204 263.945069 
L 619.8319 476.339935 
L 620.922596 237.399403 
L 622.013292 186.577418 
L 623.103987 408.792638 
L 624.194683 385.703353 
L 625.285379 281.627652 
L 626.376075 384.981273 
L 627.466771 469.244288 
L 628.557467 260.794968 
L 629.648163 419.695389 
L 630.738858 414.22644 
L 632.92025 295.270076 
L 634.010946 403.059139 
L 635.101642 451.671065 
L 636.192338 331.212071 
L 637.283034 382.564281 
L 638.373729 329.306206 
L 639.464425 404.042397 
L 640.555121 391.159636 
L 642.736513 391.159636 
L 643.827209 383.180721 
L 644.917905 384.101195 
L 646.0086 364.51871 
L 647.099296 359.517783 
L 649.280688 411.184076 
L 650.371384 372.422799 
L 651.46208 397.399727 
L 652.552776 459.553906 
L 653.643471 367.80069 
L 654.734167 290.162957 
L 655.824863 292.772233 
L 656.915559 520.000541 
L 658.006255 304.36384 
L 659.096951 316.703608 
L 660.187647 339.562104 
L 661.278342 355.19794 
L 662.369038 552.09242 
L 663.459734 219.685265 
L 664.55043 352.289247 
L 665.641126 388.36089 
L 666.731822 275.88344 
L 667.822518 457.244238 
L 668.913213 366.399127 
L 670.003909 413.537256 
L 671.094605 314.830074 
L 672.185301 295.394486 
L 673.275997 261.856114 
L 674.366693 371.71812 
L 675.457389 285.666154 
L 676.548084 344.510628 
L 677.63878 258.808112 
L 678.729476 329.075018 
L 679.820172 263.606597 
L 680.910868 467.194634 
L 682.001564 520.883869 
L 683.09226 374.976129 
L 684.182955 333.547528 
L 685.273651 493.646602 
L 686.364347 301.869956 
L 687.455043 519.194925 
L 688.545739 173.352931 
L 689.636435 412.751879 
L 690.727131 464.337481 
L 691.817826 533.768402 
L 692.908522 452.80315 
L 693.999218 396.877634 
L 695.089914 427.597353 
L 696.18061 234.352518 
L 697.271306 487.541587 
L 698.362002 384.536403 
L 699.452697 537.193775 
L 700.543393 354.876438 
L 701.634089 448.495653 
L 702.724785 390.670373 
L 703.815481 315.047975 
L 704.906177 436.353445 
L 705.996873 377.875152 
L 707.087568 376.575651 
L 708.178264 355.398882 
L 709.26896 372.844019 
L 710.359656 439.719772 
L 711.450352 413.486186 
L 712.541048 268.144525 
L 713.631744 214.229019 
L 714.722439 384.374955 
L 715.813135 306.449271 
L 716.903831 541.112139 
L 717.994527 301.795957 
L 719.085223 376.601236 
L 720.175919 424.346542 
L 721.266615 394.909414 
L 722.35731 301.410514 
L 723.448006 486.680522 
L 724.538702 234.701615 
L 725.629398 402.853046 
L 726.720094 263.695843 
L 727.81079 439.466043 
L 728.901486 324.471296 
L 729.992181 321.945801 
L 731.082877 438.679048 
L 732.173573 344.367769 
L 733.264269 452.933822 
L 734.354965 370.941537 
L 735.445661 375.97267 
L 736.536357 424.67034 
L 737.627052 373.94675 
L 738.717748 353.54424 
L 739.808444 365.965531 
L 740.89914 533.521528 
L 741.989836 139.83898 
L 743.080532 443.032231 
L 744.171228 378.93701 
L 745.261923 445.166974 
L 746.352619 440.249759 
L 747.443315 386.369031 
L 748.534011 485.858539 
L 749.624707 533.256858 
L 750.715403 536.01007 
L 751.806099 310.338081 
L 752.896794 430.101995 
L 753.98749 377.780506 
L 755.078186 354.897483 
L 756.168882 363.693356 
L 757.259578 387.082441 
L 758.350274 362.243068 
L 759.44097 507.805925 
L 760.531665 459.639042 
L 762.713057 413.308485 
L 763.803753 352.389521 
L 765.985145 415.352992 
L 767.075841 298.028953 
L 768.166536 386.81264 
L 769.257232 311.441408 
L 770.347928 386.734004 
L 771.438624 366.988824 
L 772.52932 324.033452 
L 773.620016 343.554261 
L 774.710711 397.954157 
L 775.801407 330.433096 
L 776.892103 351.122583 
L 777.982799 407.015213 
L 779.073495 380.342882 
L 780.164191 426.245337 
L 781.254887 447.843691 
L 782.345582 385.210893 
L 783.436278 365.83153 
L 784.526974 506.584418 
L 785.61767 311.289186 
L 786.708366 464.045545 
L 787.799062 326.863209 
L 788.889758 383.862302 
L 789.980453 349.235247 
L 791.071149 434.201025 
L 792.161845 328.660747 
L 793.252541 325.8258 
L 794.343237 426.137322 
L 795.433933 466.061867 
L 796.524629 309.376348 
L 797.615324 402.22229 
L 798.70602 431.103803 
L 799.796716 412.113288 
L 800.887412 359.53483 
L 801.978108 374.193566 
L 803.068804 374.193566 
L 804.1595 487.651077 
L 805.250195 491.601986 
L 806.340891 542.020579 
L 807.431587 345.316701 
L 808.522283 538.281077 
L 809.612979 563.857575 
L 810.703675 434.629961 
L 811.794371 489.792553 
L 812.885066 422.180998 
L 813.975762 365.650113 
L 815.066458 474.314517 
L 816.157154 511.444641 
L 817.24785 476.395332 
L 818.338546 417.323705 
L 819.429242 498.725946 
L 820.519937 290.221 
L 821.610633 479.220031 
L 822.701329 518.399282 
L 823.792025 525.955993 
L 824.882721 541.843083 
L 825.973417 513.530914 
L 827.064113 500.882526 
L 828.154808 449.389898 
L 829.245504 384.459161 
L 830.3362 343.187157 
L 831.426896 332.036442 
L 832.517592 427.773428 
L 833.608288 312.89001 
L 834.698984 347.372824 
L 835.789679 557.066526 
L 836.880375 382.661498 
L 837.971071 354.954852 
L 839.061767 342.774069 
L 840.152463 482.359272 
L 841.243159 473.91075 
L 842.333855 398.862436 
L 843.42455 365.155988 
L 844.515246 404.338469 
L 845.605942 346.579632 
L 846.696638 393.271255 
L 847.787334 434.45608 
L 848.87803 427.873073 
L 849.968726 440.374739 
L 851.059421 334.455798 
L 852.150117 453.316026 
L 853.240813 365.614549 
L 854.331509 505.872644 
L 855.422205 371.097254 
L 856.512901 419.958245 
L 857.603597 310.386184 
L 858.694292 459.238379 
L 859.784988 432.555123 
L 860.875684 439.889023 
L 861.96638 338.227176 
L 863.057076 458.169458 
L 864.147772 313.101203 
L 865.238468 436.724479 
L 866.329163 280.735154 
L 867.419859 562.43733 
L 868.510555 450.287024 
L 869.601251 324.14204 
L 870.691947 445.37979 
L 871.782643 254.333633 
L 872.873339 382.56428 
L 873.964034 411.336683 
L 875.05473 436.724479 
L 876.145426 342.159016 
L 877.236122 370.203924 
L 878.326818 460.557108 
L 879.417514 415.052619 
L 880.50821 464.932511 
L 881.598905 447.291225 
L 882.689601 567.530748 
L 883.780297 332.635554 
L 884.870993 502.235371 
L 885.961689 530.354518 
L 887.052385 452.049564 
L 888.143081 351.732373 
L 889.233776 495.651429 
L 890.324472 428.180423 
L 891.415168 458.565679 
L 892.505864 458.684117 
L 893.59656 380.716373 
L 894.687256 384.096029 
L 895.777952 445.863183 
L 896.868647 460.905777 
L 897.959343 420.211281 
L 899.050039 437.522204 
L 900.140735 376.172757 
L 901.231431 384.569773 
L 902.322127 463.510385 
L 903.412823 424.357855 
L 904.503518 341.379268 
L 905.594214 424.939661 
L 906.68491 404.74901 
L 908.866302 301.687922 
L 909.956998 382.878968 
L 912.138389 361.939751 
L 913.229085 394.920648 
L 914.319781 346.744613 
L 915.410477 205.513932 
L 916.501173 299.51442 
L 917.591869 306.758178 
L 918.682565 311.935423 
L 919.77326 305.225969 
L 920.863956 306.893732 
L 921.954652 303.660602 
L 923.045348 314.888882 
L 924.136044 306.893732 
L 925.22674 368.343209 
L 926.317435 233.84682 
L 927.408131 424.874707 
L 928.498827 292.295567 
L 929.589523 520.172294 
L 930.680219 373.200343 
L 931.770915 419.987453 
L 932.861611 329.107974 
L 933.952306 337.473953 
L 935.043002 292.295567 
L 936.133698 305.225969 
L 937.224394 306.893732 
L 938.31509 471.970235 
L 939.405786 516.043403 
L 940.496482 314.888882 
L 941.587177 306.893732 
L 942.677873 327.971887 
L 943.768569 217.089704 
L 944.859265 454.285606 
L 945.949961 483.185235 
L 947.040657 457.490742 
L 948.131353 414.570333 
L 949.222048 415.078015 
L 950.312744 383.798074 
L 951.40344 428.622815 
L 952.494136 465.096314 
L 953.584832 396.93498 
L 954.675528 414.570333 
L 955.766224 447.334719 
L 956.856919 395.399831 
L 957.947615 468.69514 
L 959.038311 471.073131 
L 960.129007 439.250415 
L 961.219703 335.891147 
L 962.310399 447.334719 
L 963.401095 334.083574 
L 964.49179 379.139024 
L 965.582486 412.047846 
L 966.673182 458.321186 
L 967.763878 482.676615 
L 968.854574 378.940163 
L 969.94527 463.636816 
L 971.035966 574.680761 
L 972.126661 410.797394 
L 973.217357 339.105837 
L 974.308053 423.98273 
L 975.398749 413.356664 
L 976.489445 327.449815 
L 977.580141 327.449815 
L 978.670837 403.816194 
L 979.761532 364.976602 
L 980.852228 390.96367 
L 981.942924 434.329898 
L 983.03362 172.445554 
L 984.124316 245.704032 
L 985.215012 407.582028 
L 986.305708 386.27504 
L 987.396403 383.421535 
L 988.487099 419.096625 
L 989.577795 395.64617 
L 990.668491 402.406855 
L 991.759187 425.226836 
L 992.849883 338.994577 
L 993.940579 367.753499 
L 995.031274 350.787103 
L 996.12197 257.868024 
L 997.212666 385.830066 
L 998.303362 437.489189 
L 999.394058 467.983798 
L 1000.484754 384.25993 
L 1001.57545 541.826054 
L 1002.666145 569.318245 
L 1003.756841 311.843033 
L 1004.847537 414.779942 
L 1005.938233 486.107133 
L 1007.028929 486.45529 
L 1008.119625 490.205894 
L 1009.210321 444.174326 
L 1010.301016 534.637511 
L 1011.391712 479.470616 
L 1012.482408 469.946727 
L 1013.573104 405.643918 
L 1014.6638 422.86628 
L 1015.754496 485.957365 
L 1016.845192 605.290909 
L 1017.935887 463.539425 
L 1019.026583 422.950163 
L 1020.117279 328.288976 
L 1021.207975 564.837275 
L 1022.298671 440.05814 
L 1023.389367 443.322493 
L 1024.480063 532.983766 
L 1025.570758 390.276374 
L 1026.661454 381.656824 
L 1027.75215 453.794229 
L 1028.842846 446.260141 
L 1029.933542 466.007281 
L 1031.024238 395.562717 
L 1032.114934 506.726303 
L 1033.205629 407.733414 
L 1034.296325 461.889359 
L 1035.387021 379.366192 
L 1036.477717 389.336751 
L 1037.568413 336.304872 
L 1038.659109 422.583079 
L 1039.749805 411.363939 
L 1040.8405 463.875486 
L 1041.931196 465.493456 
L 1043.021892 532.218225 
L 1044.112588 449.493173 
L 1045.203284 456.482756 
L 1046.29398 371.885808 
L 1047.384676 337.297582 
L 1048.475371 415.567133 
L 1049.566067 204.720647 
L 1050.656763 425.654972 
L 1051.747459 384.295636 
L 1052.838155 496.989253 
L 1053.928851 472.755979 
L 1055.019547 452.35767 
L 1056.110242 447.424337 
L 1057.200938 487.999534 
L 1058.291634 366.414326 
L 1059.38233 431.497405 
L 1060.473026 465.464063 
L 1061.563722 383.011411 
L 1062.654418 498.302421 
L 1063.745113 409.957791 
L 1064.835809 465.532769 
L 1065.926505 462.695691 
L 1067.017201 506.296884 
L 1068.107897 444.528129 
L 1069.198593 535.428259 
L 1070.289289 404.573628 
L 1071.379984 456.900622 
L 1072.47068 487.352578 
L 1073.561376 456.494928 
L 1074.652072 475.548206 
L 1075.742768 474.679085 
L 1076.833464 493.947118 
L 1077.924159 396.458354 
L 1079.014855 232.45982 
L 1080.105551 451.728603 
L 1082.286943 358.191311 
L 1083.377639 426.536806 
L 1084.468335 424.676425 
L 1085.55903 331.15483 
L 1086.649726 392.193214 
L 1087.740422 387.5483 
L 1088.831118 395.111424 
L 1089.921814 389.677836 
L 1091.01251 316.836596 
L 1092.103206 286.396077 
L 1093.193901 384.603678 
L 1094.284597 456.101786 
L 1095.375293 423.141432 
L 1096.465989 405.744236 
L 1098.647381 230.604044 
L 1099.738077 384.327801 
L 1100.828772 340.213129 
L 1101.919468 394.118601 
L 1103.010164 357.559549 
L 1104.10086 356.041194 
L 1105.191556 366.523554 
L 1106.282252 403.407812 
L 1107.372948 396.45151 
L 1108.463643 432.791754 
L 1109.554339 439.284123 
L 1110.645035 284.277278 
L 1111.735731 449.578757 
L 1112.826427 386.886494 
L 1113.917123 187.219534 
L 1115.007819 276.257737 
L 1116.098514 402.084396 
L 1117.18921 385.292825 
L 1118.279906 379.156111 
L 1119.370602 276.35141 
L 1120.461298 249.721116 
L 1121.551994 198.983758 
L 1122.64269 413.088528 
L 1123.733385 385.309288 
L 1124.824081 225.79315 
L 1125.914777 272.876225 
L 1127.005473 411.953872 
L 1128.096169 387.963298 
L 1129.186865 345.397689 
L 1130.277561 288.149854 
L 1131.368256 301.79999 
L 1132.458952 275.906653 
L 1133.549648 433.058753 
L 1134.640344 253.417835 
L 1135.73104 185.990876 
L 1136.821736 326.739278 
L 1137.912432 336.819889 
L 1140.093823 493.922207 
L 1141.184519 328.78646 
L 1142.275215 428.308867 
L 1143.365911 440.055792 
L 1144.456607 179.961605 
L 1145.547303 398.294525 
L 1146.637998 367.747176 
L 1147.728694 377.381511 
L 1148.81939 367.59027 
L 1149.910086 276.612567 
L 1151.000782 435.294502 
L 1152.091478 450.194391 
L 1153.182174 327.626031 
L 1154.272869 255.960183 
L 1155.363565 330.343177 
L 1156.454261 323.668666 
L 1157.544957 259.057873 
L 1158.635653 404.552364 
L 1159.726349 397.729521 
L 1160.817045 382.104607 
L 1161.90774 338.601508 
L 1162.998436 522.208099 
L 1164.089132 358.191311 
L 1165.179828 460.922361 
L 1166.270524 395.833681 
L 1167.36122 468.191255 
L 1168.451916 403.321255 
L 1169.542611 434.553131 
L 1170.633307 264.558775 
L 1171.724003 384.603678 
L 1172.814699 436.064805 
L 1173.905395 456.101786 
L 1174.996091 386.143815 
L 1176.086787 399.527114 
L 1177.177482 417.582645 
L 1178.268178 400.415335 
L 1179.358874 428.66832 
L 1180.44957 467.067294 
L 1181.540266 286.811047 
L 1182.630962 409.967085 
L 1183.721658 405.16296 
L 1184.812353 423.018572 
L 1185.903049 375.262899 
L 1186.993745 194.265166 
L 1188.084441 437.453018 
L 1189.175137 314.875501 
L 1190.265833 461.528328 
L 1191.356529 250.838055 
L 1192.447224 210.740849 
L 1193.53792 425.557493 
L 1194.628616 427.728365 
L 1195.719312 455.02549 
L 1196.810008 385.292825 
L 1197.900704 282.712063 
L 1198.9914 420.026477 
L 1200.082095 251.418257 
L 1201.172791 427.514368 
L 1202.263487 515.316396 
L 1203.354183 423.888679 
L 1204.444879 396.773901 
L 1205.535575 448.516818 
L 1206.626271 264.558775 
L 1207.716966 395.215699 
L 1208.807662 411.953872 
L 1209.898358 404.138252 
L 1210.989054 398.947539 
L 1212.07975 413.989603 
L 1213.170446 152.177616 
L 1214.261142 401.163548 
L 1215.351837 433.058753 
L 1216.442533 253.417835 
L 1217.533229 185.990876 
L 1218.623925 280.809514 
L 1219.714621 394.863796 
L 1220.805317 272.031224 
L 1221.896013 314.955523 
L 1222.986708 541.527436 
L 1224.077404 363.540129 
L 1225.1681 328.78646 
L 1226.258796 483.852258 
L 1227.349492 428.308867 
L 1228.440188 337.576755 
L 1229.530884 297.090096 
L 1230.621579 399.048332 
L 1231.712275 402.335279 
L 1232.802971 284.841577 
L 1233.893667 351.843143 
L 1234.984363 568.101692 
L 1236.075059 432.245889 
L 1237.165754 390.689767 
L 1238.25645 377.875849 
L 1239.347146 300.524551 
L 1240.437842 419.85424 
L 1241.528538 397.712965 
L 1242.619234 346.257086 
L 1243.70993 505.431667 
L 1244.800625 568.101692 
L 1245.891321 419.119157 
L 1246.982017 577.01655 
L 1248.072713 187.588202 
L 1249.163409 391.202325 
L 1250.254105 374.188182 
L 1251.344801 210.758737 
L 1252.435496 419.571689 
L 1254.616888 342.263762 
L 1255.707584 428.66832 
L 1256.79828 288.735774 
L 1257.888976 408.257202 
L 1258.979672 312.57569 
L 1260.070367 363.351987 
L 1261.161063 397.322181 
L 1262.251759 364.207676 
L 1263.342455 513.780831 
L 1264.433151 396.45151 
L 1265.523847 433.634391 
L 1266.614543 354.165628 
L 1267.705238 352.289247 
L 1268.795934 532.934771 
L 1269.88663 183.277379 
L 1270.977326 474.201794 
L 1272.068022 397.609248 
L 1273.158718 421.124043 
L 1274.249414 350.157317 
L 1275.340109 334.349911 
L 1276.430805 391.264834 
L 1277.521501 520.276827 
L 1278.612197 375.466686 
L 1279.702893 393.079967 
L 1280.793589 431.128085 
L 1281.884285 379.317149 
L 1282.97498 407.934723 
L 1284.065676 391.325031 
L 1285.156372 336.378653 
L 1286.247068 291.900622 
L 1287.337764 270.142946 
L 1288.42846 319.829792 
L 1289.519156 379.826767 
L 1290.609851 225.943071 
L 1291.700547 165.562271 
L 1292.791243 433.691065 
L 1293.881939 431.688531 
L 1294.972635 401.4726 
L 1296.063331 401.4726 
L 1297.154027 388.386094 
L 1298.244722 209.251253 
L 1299.335418 415.999754 
L 1300.426114 326.354762 
L 1301.51681 353.641881 
L 1302.607506 309.084762 
L 1303.698202 437.814499 
L 1304.788898 238.489927 
L 1305.879593 390.164023 
L 1306.970289 562.982157 
L 1308.060985 326.354762 
L 1309.151681 483.440405 
L 1311.333073 309.569266 
L 1312.423769 381.076536 
L 1313.514464 410.071679 
L 1314.60516 369.883756 
L 1315.695856 502.509764 
L 1316.786552 408.058095 
L 1317.877248 394.763076 
L 1318.967944 392.328076 
L 1320.05864 388.273108 
L 1321.149335 302.714019 
L 1322.240031 168.538592 
L 1323.330727 274.416782 
L 1324.421423 206.705742 
L 1325.512119 326.177776 
L 1326.602815 305.534538 
L 1327.693511 352.574801 
L 1328.784206 339.782742 
L 1329.874902 356.841908 
L 1330.965598 307.026968 
L 1332.056294 193.912208 
L 1333.14699 401.4726 
L 1334.237686 375.151552 
L 1335.328382 283.802766 
L 1336.419077 161.117402 
L 1337.509773 363.457854 
L 1338.600469 285.442751 
L 1339.691165 232.882567 
L 1340.781861 414.813118 
L 1341.872557 373.156535 
L 1342.963253 339.902586 
L 1344.053948 302.413497 
L 1345.144644 418.032136 
L 1346.23534 413.547567 
L 1347.326036 306.02184 
L 1348.416732 396.603721 
L 1349.507428 317.130297 
L 1350.598124 374.926093 
L 1351.688819 460.479827 
L 1352.779515 356.437845 
L 1353.870211 356.909024 
L 1354.960907 377.39322 
L 1356.051603 360.769882 
L 1357.142299 228.157191 
L 1358.232995 295.209176 
L 1359.32369 416.294244 
L 1360.414386 376.993901 
L 1361.505082 294.604065 
L 1362.595778 567.143388 
L 1364.77717 349.641106 
L 1365.867866 181.009542 
L 1366.958561 463.609945 
L 1368.049257 192.47171 
L 1369.139953 440.202651 
L 1370.230649 356.188777 
L 1371.321345 499.211417 
L 1372.412041 421.390799 
L 1373.502737 490.279941 
L 1374.593432 375.487713 
L 1375.684128 325.071515 
L 1376.774824 297.295304 
L 1377.86552 380.963438 
L 1378.956216 412.045784 
L 1380.046912 314.213576 
L 1381.137608 327.449815 
L 1382.228303 395.238343 
L 1383.318999 410.071679 
L 1384.409695 299.724553 
L 1385.500391 386.924623 
L 1386.591087 407.576648 
L 1387.681783 263.609541 
L 1388.772478 372.084653 
L 1389.863174 379.626688 
L 1390.95387 309.855116 
L 1392.044566 383.522098 
L 1393.135262 429.045689 
L 1394.225958 424.465002 
L 1395.316654 365.092362 
L 1396.407349 389.545074 
L 1397.498045 498.384358 
L 1398.588741 384.694533 
L 1399.679437 321.092945 
L 1400.770133 392.217507 
L 1401.860829 356.437845 
L 1402.951525 377.39322 
L 1404.04222 376.993901 
L 1405.132916 393.144672 
L 1406.223612 303.474447 
L 1407.314308 403.668511 
L 1408.405004 373.156356 
L 1409.4957 392.989326 
L 1410.586396 221.929983 
L 1411.677091 351.256093 
L 1412.767787 354.98133 
L 1413.858483 410.882971 
L 1414.949179 454.634524 
L 1416.039875 401.047737 
L 1417.130571 382.870338 
L 1418.221267 455.111143 
L 1419.311962 412.728668 
L 1420.402658 274.929426 
L 1421.493354 282.170193 
L 1422.58405 382.380071 
L 1423.674746 391.261805 
L 1424.765442 392.257996 
L 1425.856138 417.915057 
L 1428.037529 432.791754 
L 1429.128225 398.374847 
L 1430.218921 371.924124 
L 1431.309617 319.759529 
L 1432.400313 400.143164 
L 1433.491009 460.492465 
L 1434.581704 377.073017 
L 1435.6724 406.291462 
L 1436.763096 344.946302 
L 1437.853792 470.477101 
L 1438.944488 336.363011 
L 1440.035184 391.584797 
L 1441.12588 312.531141 
L 1442.216575 342.263762 
L 1443.307271 306.753008 
L 1444.397967 449.542282 
L 1445.488663 314.934075 
L 1446.579359 274.929426 
L 1447.670055 387.526005 
L 1448.760751 469.185383 
L 1449.851446 261.748077 
L 1450.942142 330.127495 
L 1452.032838 379.924399 
L 1453.123534 411.690953 
L 1454.21423 171.45256 
L 1455.304926 440.428518 
L 1456.395622 390.533518 
L 1457.486317 310.267661 
L 1458.577013 416.341246 
L 1459.667709 186.526428 
L 1460.758405 255.599996 
L 1461.849101 395.083097 
L 1462.939797 370.114188 
L 1464.030493 414.023959 
L 1465.121188 309.446456 
L 1466.211884 307.18551 
L 1467.30258 453.762292 
L 1468.393276 296.034 
L 1469.483972 219.030084 
L 1470.574668 377.073017 
L 1471.665364 248.73456 
L 1472.756059 400.129205 
L 1473.846755 445.898685 
L 1474.937451 316.286578 
L 1476.028147 271.117039 
L 1477.118843 436.176032 
L 1478.209539 454.377876 
L 1479.300235 423.595761 
L 1480.39093 478.31886 
L 1481.481626 249.821602 
L 1482.572322 397.637182 
L 1483.663018 412.498495 
L 1484.753714 456.250047 
L 1485.84441 384.485861 
L 1486.935106 392.515085 
L 1488.025801 297.414531 
L 1489.116497 428.33796 
L 1490.207193 198.371753 
L 1491.297889 418.11669 
L 1492.388585 439.240092 
L 1493.479281 434.407277 
L 1494.569977 169.029703 
L 1495.660672 404.245861 
L 1496.751368 251.261624 
L 1497.842064 415.639483 
L 1498.93276 442.08911 
L 1500.023456 564.597681 
L 1501.114152 353.330951 
L 1502.204848 220.645608 
L 1503.295543 521.361757 
L 1504.386239 250.350083 
L 1505.476935 399.246536 
L 1506.567631 424.485093 
L 1507.658327 424.485093 
L 1508.749023 410.500162 
L 1509.839719 461.015171 
L 1510.930414 334.40581 
L 1512.02111 445.261313 
L 1513.111806 422.958725 
L 1514.202502 462.024277 
L 1515.293198 469.141508 
L 1516.383894 354.600436 
L 1517.47459 372.930764 
L 1518.565285 342.146207 
L 1519.655981 279.797051 
L 1520.746677 242.959285 
L 1521.837373 415.214431 
L 1522.928069 340.439844 
L 1524.018765 334.371822 
L 1525.109461 454.413621 
L 1526.200156 291.486251 
L 1527.290852 267.65405 
L 1528.381548 417.131855 
L 1529.472244 310.166748 
L 1530.56294 352.282495 
L 1531.653636 486.199832 
L 1532.744332 375.184323 
L 1533.835027 328.990217 
L 1534.925723 402.811309 
L 1536.016419 417.931639 
L 1537.107115 480.300123 
L 1538.197811 454.590818 
L 1539.288507 353.70636 
L 1540.379203 417.743042 
L 1541.469898 433.888094 
L 1542.560594 435.236132 
L 1543.65129 405.629629 
L 1544.741986 464.496468 
L 1545.832682 346.970509 
L 1546.923378 263.870309 
L 1548.014073 452.588285 
L 1549.104769 282.799228 
L 1550.195465 384.036656 
L 1551.286161 427.07645 
L 1552.376857 456.504233 
L 1553.467553 532.254801 
L 1554.558249 338.38006 
L 1555.648944 373.680625 
L 1556.73964 382.124768 
L 1557.830336 316.158213 
L 1558.921032 318.247175 
L 1560.011728 400.434715 
L 1561.102424 402.616234 
L 1562.19312 271.219591 
L 1563.283815 301.007421 
L 1564.374511 224.724152 
L 1565.465207 519.725943 
L 1566.555903 373.739772 
L 1567.646599 453.590857 
L 1568.737295 261.21916 
L 1569.827991 285.013672 
L 1570.918686 410.844588 
L 1572.009382 405.214585 
L 1573.100078 359.893128 
L 1574.190774 394.850216 
L 1575.28147 358.667796 
L 1576.372166 330.958692 
L 1577.462862 423.373443 
L 1578.553557 327.525739 
L 1579.644253 328.742469 
L 1580.734949 267.703416 
L 1581.825645 332.238645 
L 1582.916341 354.515885 
L 1584.007037 368.969154 
L 1585.097733 334.627978 
L 1586.188428 327.872615 
L 1587.279124 396.812345 
L 1588.36982 353.050856 
L 1589.460516 464.983424 
L 1590.551212 401.091151 
L 1591.641908 371.651605 
L 1592.732604 481.921385 
L 1594.913995 218.150226 
L 1596.004691 458.804464 
L 1597.095387 273.506593 
L 1598.186083 306.887006 
L 1599.276779 470.662115 
L 1600.367475 457.344792 
L 1601.45817 296.854587 
L 1602.548866 382.89694 
L 1603.639562 449.678845 
L 1604.730258 399.776571 
L 1605.820954 260.607151 
L 1606.91165 324.72331 
L 1608.002346 294.500789 
L 1609.093041 436.090548 
L 1610.183737 343.197575 
L 1611.274433 274.212703 
L 1612.365129 281.92081 
L 1613.455825 420.674905 
L 1614.546521 402.966612 
L 1615.637217 468.70008 
L 1616.727912 298.207716 
L 1617.818608 394.83672 
L 1618.909304 445.33804 
L 1620 483.889556 
L 1620 483.889556 
" style="fill:none;stroke:#ff7f0e;stroke-linecap:square;stroke-width:1.5;"/>
   </g>
   <g id="patch_3">
    <path d="M 225 630 
L 225 86.4 
" style="fill:none;stroke:#000000;stroke-linecap:square;stroke-linejoin:miter;stroke-width:0.8;"/>
   </g>
   <g id="patch_4">
    <path d="M 1620 630 
L 1620 86.4 
" style="fill:none;stroke:#000000;stroke-linecap:square;stroke-linejoin:miter;stroke-width:0.8;"/>
   </g>
   <g id="patch_5">
    <path d="M 225 630 
L 1620 630 
" style="fill:none;stroke:#000000;stroke-linecap:square;stroke-linejoin:miter;stroke-width:0.8;"/>
   </g>
   <g id="patch_6">
    <path d="M 225 86.4 
L 1620 86.4 
" style="fill:none;stroke:#000000;stroke-linecap:square;stroke-linejoin:miter;stroke-width:0.8;"/>
   </g>
   <g id="legend_1">
    <g id="patch_7">
     <path d="M 1525.401562 123.75625 
L 1613 123.75625 
Q 1615 123.75625 1615 121.75625 
L 1615 93.4 
Q 1615 91.4 1613 91.4 
L 1525.401562 91.4 
Q 1523.401562 91.4 1523.401562 93.4 
L 1523.401562 121.75625 
Q 1523.401562 123.75625 1525.401562 123.75625 
z
" style="fill:#ffffff;opacity:0.8;stroke:#cccccc;stroke-linejoin:miter;"/>
    </g>
    <g id="line2d_19">
     <path d="M 1527.401562 99.498437 
L 1547.401562 99.498437 
" style="fill:none;stroke:#1f77b4;stroke-linecap:square;stroke-width:1.5;"/>
    </g>
    <g id="line2d_20"/>
    <g id="text_17">
     <!-- Reale -->
     <defs>
      <path d="M 44.390625 34.1875 
Q 47.5625 33.109375 50.5625 29.59375 
Q 53.5625 26.078125 56.59375 19.921875 
L 66.609375 0 
L 56 0 
L 46.6875 18.703125 
Q 43.0625 26.03125 39.671875 28.421875 
Q 36.28125 30.8125 30.421875 30.8125 
L 19.671875 30.8125 
L 19.671875 0 
L 9.8125 0 
L 9.8125 72.90625 
L 32.078125 72.90625 
Q 44.578125 72.90625 50.734375 67.671875 
Q 56.890625 62.453125 56.890625 51.90625 
Q 56.890625 45.015625 53.6875 40.46875 
Q 50.484375 35.9375 44.390625 34.1875 
z
M 19.671875 64.796875 
L 19.671875 38.921875 
L 32.078125 38.921875 
Q 39.203125 38.921875 42.84375 42.21875 
Q 46.484375 45.515625 46.484375 51.90625 
Q 46.484375 58.296875 42.84375 61.546875 
Q 39.203125 64.796875 32.078125 64.796875 
z
" id="DejaVuSans-82"/>
      <path d="M 56.203125 29.59375 
L 56.203125 25.203125 
L 14.890625 25.203125 
Q 15.484375 15.921875 20.484375 11.0625 
Q 25.484375 6.203125 34.421875 6.203125 
Q 39.59375 6.203125 44.453125 7.46875 
Q 49.3125 8.734375 54.109375 11.28125 
L 54.109375 2.78125 
Q 49.265625 0.734375 44.1875 -0.34375 
Q 39.109375 -1.421875 33.890625 -1.421875 
Q 20.796875 -1.421875 13.15625 6.1875 
Q 5.515625 13.8125 5.515625 26.8125 
Q 5.515625 40.234375 12.765625 48.109375 
Q 20.015625 56 32.328125 56 
Q 43.359375 56 49.78125 48.890625 
Q 56.203125 41.796875 56.203125 29.59375 
z
M 47.21875 32.234375 
Q 47.125 39.59375 43.09375 43.984375 
Q 39.0625 48.390625 32.421875 48.390625 
Q 24.90625 48.390625 20.390625 44.140625 
Q 15.875 39.890625 15.1875 32.171875 
z
" id="DejaVuSans-101"/>
      <path d="M 34.28125 27.484375 
Q 23.390625 27.484375 19.1875 25 
Q 14.984375 22.515625 14.984375 16.5 
Q 14.984375 11.71875 18.140625 8.90625 
Q 21.296875 6.109375 26.703125 6.109375 
Q 34.1875 6.109375 38.703125 11.40625 
Q 43.21875 16.703125 43.21875 25.484375 
L 43.21875 27.484375 
z
M 52.203125 31.203125 
L 52.203125 0 
L 43.21875 0 
L 43.21875 8.296875 
Q 40.140625 3.328125 35.546875 0.953125 
Q 30.953125 -1.421875 24.3125 -1.421875 
Q 15.921875 -1.421875 10.953125 3.296875 
Q 6 8.015625 6 15.921875 
Q 6 25.140625 12.171875 29.828125 
Q 18.359375 34.515625 30.609375 34.515625 
L 43.21875 34.515625 
L 43.21875 35.40625 
Q 43.21875 41.609375 39.140625 45 
Q 35.0625 48.390625 27.6875 48.390625 
Q 23 48.390625 18.546875 47.265625 
Q 14.109375 46.140625 10.015625 43.890625 
L 10.015625 52.203125 
Q 14.9375 54.109375 19.578125 55.046875 
Q 24.21875 56 28.609375 56 
Q 40.484375 56 46.34375 49.84375 
Q 52.203125 43.703125 52.203125 31.203125 
z
" id="DejaVuSans-97"/>
      <path d="M 9.421875 75.984375 
L 18.40625 75.984375 
L 18.40625 0 
L 9.421875 0 
z
" id="DejaVuSans-108"/>
     </defs>
     <g transform="translate(1555.401562 102.998437)scale(0.1 -0.1)">
      <use xlink:href="#DejaVuSans-82"/>
      <use x="69.419922" xlink:href="#DejaVuSans-101"/>
      <use x="130.943359" xlink:href="#DejaVuSans-97"/>
      <use x="192.222656" xlink:href="#DejaVuSans-108"/>
      <use x="220.005859" xlink:href="#DejaVuSans-101"/>
     </g>
    </g>
    <g id="line2d_21">
     <path d="M 1527.401562 114.176562 
L 1547.401562 114.176562 
" style="fill:none;stroke:#ff7f0e;stroke-linecap:square;stroke-width:1.5;"/>
    </g>
    <g id="line2d_22"/>
    <g id="text_18">
     <!-- predictions -->
     <defs>
      <path d="M 18.109375 8.203125 
L 18.109375 -20.796875 
L 9.078125 -20.796875 
L 9.078125 54.6875 
L 18.109375 54.6875 
L 18.109375 46.390625 
Q 20.953125 51.265625 25.265625 53.625 
Q 29.59375 56 35.59375 56 
Q 45.5625 56 51.78125 48.09375 
Q 58.015625 40.1875 58.015625 27.296875 
Q 58.015625 14.40625 51.78125 6.484375 
Q 45.5625 -1.421875 35.59375 -1.421875 
Q 29.59375 -1.421875 25.265625 0.953125 
Q 20.953125 3.328125 18.109375 8.203125 
z
M 48.6875 27.296875 
Q 48.6875 37.203125 44.609375 42.84375 
Q 40.53125 48.484375 33.40625 48.484375 
Q 26.265625 48.484375 22.1875 42.84375 
Q 18.109375 37.203125 18.109375 27.296875 
Q 18.109375 17.390625 22.1875 11.75 
Q 26.265625 6.109375 33.40625 6.109375 
Q 40.53125 6.109375 44.609375 11.75 
Q 48.6875 17.390625 48.6875 27.296875 
z
" id="DejaVuSans-112"/>
      <path d="M 41.109375 46.296875 
Q 39.59375 47.171875 37.8125 47.578125 
Q 36.03125 48 33.890625 48 
Q 26.265625 48 22.1875 43.046875 
Q 18.109375 38.09375 18.109375 28.8125 
L 18.109375 0 
L 9.078125 0 
L 9.078125 54.6875 
L 18.109375 54.6875 
L 18.109375 46.1875 
Q 20.953125 51.171875 25.484375 53.578125 
Q 30.03125 56 36.53125 56 
Q 37.453125 56 38.578125 55.875 
Q 39.703125 55.765625 41.0625 55.515625 
z
" id="DejaVuSans-114"/>
      <path d="M 45.40625 46.390625 
L 45.40625 75.984375 
L 54.390625 75.984375 
L 54.390625 0 
L 45.40625 0 
L 45.40625 8.203125 
Q 42.578125 3.328125 38.25 0.953125 
Q 33.9375 -1.421875 27.875 -1.421875 
Q 17.96875 -1.421875 11.734375 6.484375 
Q 5.515625 14.40625 5.515625 27.296875 
Q 5.515625 40.1875 11.734375 48.09375 
Q 17.96875 56 27.875 56 
Q 33.9375 56 38.25 53.625 
Q 42.578125 51.265625 45.40625 46.390625 
z
M 14.796875 27.296875 
Q 14.796875 17.390625 18.875 11.75 
Q 22.953125 6.109375 30.078125 6.109375 
Q 37.203125 6.109375 41.296875 11.75 
Q 45.40625 17.390625 45.40625 27.296875 
Q 45.40625 37.203125 41.296875 42.84375 
Q 37.203125 48.484375 30.078125 48.484375 
Q 22.953125 48.484375 18.875 42.84375 
Q 14.796875 37.203125 14.796875 27.296875 
z
" id="DejaVuSans-100"/>
      <path d="M 9.421875 54.6875 
L 18.40625 54.6875 
L 18.40625 0 
L 9.421875 0 
z
M 9.421875 75.984375 
L 18.40625 75.984375 
L 18.40625 64.59375 
L 9.421875 64.59375 
z
" id="DejaVuSans-105"/>
      <path d="M 48.78125 52.59375 
L 48.78125 44.1875 
Q 44.96875 46.296875 41.140625 47.34375 
Q 37.3125 48.390625 33.40625 48.390625 
Q 24.65625 48.390625 19.8125 42.84375 
Q 14.984375 37.3125 14.984375 27.296875 
Q 14.984375 17.28125 19.8125 11.734375 
Q 24.65625 6.203125 33.40625 6.203125 
Q 37.3125 6.203125 41.140625 7.25 
Q 44.96875 8.296875 48.78125 10.40625 
L 48.78125 2.09375 
Q 45.015625 0.34375 40.984375 -0.53125 
Q 36.96875 -1.421875 32.421875 -1.421875 
Q 20.0625 -1.421875 12.78125 6.34375 
Q 5.515625 14.109375 5.515625 27.296875 
Q 5.515625 40.671875 12.859375 48.328125 
Q 20.21875 56 33.015625 56 
Q 37.15625 56 41.109375 55.140625 
Q 45.0625 54.296875 48.78125 52.59375 
z
" id="DejaVuSans-99"/>
      <path d="M 18.3125 70.21875 
L 18.3125 54.6875 
L 36.8125 54.6875 
L 36.8125 47.703125 
L 18.3125 47.703125 
L 18.3125 18.015625 
Q 18.3125 11.328125 20.140625 9.421875 
Q 21.96875 7.515625 27.59375 7.515625 
L 36.8125 7.515625 
L 36.8125 0 
L 27.59375 0 
Q 17.1875 0 13.234375 3.875 
Q 9.28125 7.765625 9.28125 18.015625 
L 9.28125 47.703125 
L 2.6875 47.703125 
L 2.6875 54.6875 
L 9.28125 54.6875 
L 9.28125 70.21875 
z
" id="DejaVuSans-116"/>
      <path d="M 30.609375 48.390625 
Q 23.390625 48.390625 19.1875 42.75 
Q 14.984375 37.109375 14.984375 27.296875 
Q 14.984375 17.484375 19.15625 11.84375 
Q 23.34375 6.203125 30.609375 6.203125 
Q 37.796875 6.203125 41.984375 11.859375 
Q 46.1875 17.53125 46.1875 27.296875 
Q 46.1875 37.015625 41.984375 42.703125 
Q 37.796875 48.390625 30.609375 48.390625 
z
M 30.609375 56 
Q 42.328125 56 49.015625 48.375 
Q 55.71875 40.765625 55.71875 27.296875 
Q 55.71875 13.875 49.015625 6.21875 
Q 42.328125 -1.421875 30.609375 -1.421875 
Q 18.84375 -1.421875 12.171875 6.21875 
Q 5.515625 13.875 5.515625 27.296875 
Q 5.515625 40.765625 12.171875 48.375 
Q 18.84375 56 30.609375 56 
z
" id="DejaVuSans-111"/>
      <path d="M 54.890625 33.015625 
L 54.890625 0 
L 45.90625 0 
L 45.90625 32.71875 
Q 45.90625 40.484375 42.875 44.328125 
Q 39.84375 48.1875 33.796875 48.1875 
Q 26.515625 48.1875 22.3125 43.546875 
Q 18.109375 38.921875 18.109375 30.90625 
L 18.109375 0 
L 9.078125 0 
L 9.078125 54.6875 
L 18.109375 54.6875 
L 18.109375 46.1875 
Q 21.34375 51.125 25.703125 53.5625 
Q 30.078125 56 35.796875 56 
Q 45.21875 56 50.046875 50.171875 
Q 54.890625 44.34375 54.890625 33.015625 
z
" id="DejaVuSans-110"/>
      <path d="M 44.28125 53.078125 
L 44.28125 44.578125 
Q 40.484375 46.53125 36.375 47.5 
Q 32.28125 48.484375 27.875 48.484375 
Q 21.1875 48.484375 17.84375 46.4375 
Q 14.5 44.390625 14.5 40.28125 
Q 14.5 37.15625 16.890625 35.375 
Q 19.28125 33.59375 26.515625 31.984375 
L 29.59375 31.296875 
Q 39.15625 29.25 43.1875 25.515625 
Q 47.21875 21.78125 47.21875 15.09375 
Q 47.21875 7.46875 41.1875 3.015625 
Q 35.15625 -1.421875 24.609375 -1.421875 
Q 20.21875 -1.421875 15.453125 -0.5625 
Q 10.6875 0.296875 5.421875 2 
L 5.421875 11.28125 
Q 10.40625 8.6875 15.234375 7.390625 
Q 20.0625 6.109375 24.8125 6.109375 
Q 31.15625 6.109375 34.5625 8.28125 
Q 37.984375 10.453125 37.984375 14.40625 
Q 37.984375 18.0625 35.515625 20.015625 
Q 33.0625 21.96875 24.703125 23.78125 
L 21.578125 24.515625 
Q 13.234375 26.265625 9.515625 29.90625 
Q 5.8125 33.546875 5.8125 39.890625 
Q 5.8125 47.609375 11.28125 51.796875 
Q 16.75 56 26.8125 56 
Q 31.78125 56 36.171875 55.265625 
Q 40.578125 54.546875 44.28125 53.078125 
z
" id="DejaVuSans-115"/>
     </defs>
     <g transform="translate(1555.401562 117.676562)scale(0.1 -0.1)">
      <use xlink:href="#DejaVuSans-112"/>
      <use x="63.476562" xlink:href="#DejaVuSans-114"/>
      <use x="104.558594" xlink:href="#DejaVuSans-101"/>
      <use x="166.082031" xlink:href="#DejaVuSans-100"/>
      <use x="229.558594" xlink:href="#DejaVuSans-105"/>
      <use x="257.341797" xlink:href="#DejaVuSans-99"/>
      <use x="312.322266" xlink:href="#DejaVuSans-116"/>
      <use x="351.53125" xlink:href="#DejaVuSans-105"/>
      <use x="379.314453" xlink:href="#DejaVuSans-111"/>
      <use x="440.496094" xlink:href="#DejaVuSans-110"/>
      <use x="503.875" xlink:href="#DejaVuSans-115"/>
     </g>
    </g>
   </g>
  </g>
 </g>
 <defs>
  <clipPath id="p1e804c12bc">
   <rect height="543.6" width="1395" x="225" y="86.4"/>
  </clipPath>
 </defs>
</svg>
