<?xml version="1.0" encoding="utf-8" standalone="no"?>
<!DOCTYPE svg PUBLIC "-//W3C//DTD SVG 1.1//EN"
  "http://www.w3.org/Graphics/SVG/1.1/DTD/svg11.dtd">
<!-- Created with matplotlib (https://matplotlib.org/) -->
<svg height="720pt" version="1.1" viewBox="0 0 1800 720" width="1800pt" xmlns="http://www.w3.org/2000/svg" xmlns:xlink="http://www.w3.org/1999/xlink">
 <defs>
  <style type="text/css">
*{stroke-linecap:butt;stroke-linejoin:round;}
  </style>
 </defs>
 <g id="figure_1">
  <g id="patch_1">
   <path d="M 0 720 
L 1800 720 
L 1800 0 
L 0 0 
z
" style="fill:#ffffff;"/>
  </g>
  <g id="axes_1">
   <g id="patch_2">
    <path d="M 225 630 
L 1620 630 
L 1620 86.4 
L 225 86.4 
z
" style="fill:#ffffff;"/>
   </g>
   <g id="matplotlib.axis_1">
    <g id="xtick_1">
     <g id="line2d_1">
      <defs>
       <path d="M 0 0 
L 0 3.5 
" id="m94f5a96316" style="stroke:#000000;stroke-width:0.8;"/>
      </defs>
      <g>
       <use style="stroke:#000000;stroke-width:0.8;" x="225" xlink:href="#m94f5a96316" y="630"/>
      </g>
     </g>
     <g id="text_1">
      <!-- 0 -->
      <defs>
       <path d="M 31.78125 66.40625 
Q 24.171875 66.40625 20.328125 58.90625 
Q 16.5 51.421875 16.5 36.375 
Q 16.5 21.390625 20.328125 13.890625 
Q 24.171875 6.390625 31.78125 6.390625 
Q 39.453125 6.390625 43.28125 13.890625 
Q 47.125 21.390625 47.125 36.375 
Q 47.125 51.421875 43.28125 58.90625 
Q 39.453125 66.40625 31.78125 66.40625 
z
M 31.78125 74.21875 
Q 44.046875 74.21875 50.515625 64.515625 
Q 56.984375 54.828125 56.984375 36.375 
Q 56.984375 17.96875 50.515625 8.265625 
Q 44.046875 -1.421875 31.78125 -1.421875 
Q 19.53125 -1.421875 13.0625 8.265625 
Q 6.59375 17.96875 6.59375 36.375 
Q 6.59375 54.828125 13.0625 64.515625 
Q 19.53125 74.21875 31.78125 74.21875 
z
" id="DejaVuSans-48"/>
      </defs>
      <g transform="translate(221.81875 644.598438)scale(0.1 -0.1)">
       <use xlink:href="#DejaVuSans-48"/>
      </g>
     </g>
    </g>
    <g id="xtick_2">
     <g id="line2d_2">
      <g>
       <use style="stroke:#000000;stroke-width:0.8;" x="448.557692" xlink:href="#m94f5a96316" y="630"/>
      </g>
     </g>
     <g id="text_2">
      <!-- 100 -->
      <defs>
       <path d="M 12.40625 8.296875 
L 28.515625 8.296875 
L 28.515625 63.921875 
L 10.984375 60.40625 
L 10.984375 69.390625 
L 28.421875 72.90625 
L 38.28125 72.90625 
L 38.28125 8.296875 
L 54.390625 8.296875 
L 54.390625 0 
L 12.40625 0 
z
" id="DejaVuSans-49"/>
      </defs>
      <g transform="translate(439.013942 644.598438)scale(0.1 -0.1)">
       <use xlink:href="#DejaVuSans-49"/>
       <use x="63.623047" xlink:href="#DejaVuSans-48"/>
       <use x="127.246094" xlink:href="#DejaVuSans-48"/>
      </g>
     </g>
    </g>
    <g id="xtick_3">
     <g id="line2d_3">
      <g>
       <use style="stroke:#000000;stroke-width:0.8;" x="672.115385" xlink:href="#m94f5a96316" y="630"/>
      </g>
     </g>
     <g id="text_3">
      <!-- 200 -->
      <defs>
       <path d="M 19.1875 8.296875 
L 53.609375 8.296875 
L 53.609375 0 
L 7.328125 0 
L 7.328125 8.296875 
Q 12.9375 14.109375 22.625 23.890625 
Q 32.328125 33.6875 34.8125 36.53125 
Q 39.546875 41.84375 41.421875 45.53125 
Q 43.3125 49.21875 43.3125 52.78125 
Q 43.3125 58.59375 39.234375 62.25 
Q 35.15625 65.921875 28.609375 65.921875 
Q 23.96875 65.921875 18.8125 64.3125 
Q 13.671875 62.703125 7.8125 59.421875 
L 7.8125 69.390625 
Q 13.765625 71.78125 18.9375 73 
Q 24.125 74.21875 28.421875 74.21875 
Q 39.75 74.21875 46.484375 68.546875 
Q 53.21875 62.890625 53.21875 53.421875 
Q 53.21875 48.921875 51.53125 44.890625 
Q 49.859375 40.875 45.40625 35.40625 
Q 44.1875 33.984375 37.640625 27.21875 
Q 31.109375 20.453125 19.1875 8.296875 
z
" id="DejaVuSans-50"/>
      </defs>
      <g transform="translate(662.571635 644.598438)scale(0.1 -0.1)">
       <use xlink:href="#DejaVuSans-50"/>
       <use x="63.623047" xlink:href="#DejaVuSans-48"/>
       <use x="127.246094" xlink:href="#DejaVuSans-48"/>
      </g>
     </g>
    </g>
    <g id="xtick_4">
     <g id="line2d_4">
      <g>
       <use style="stroke:#000000;stroke-width:0.8;" x="895.673077" xlink:href="#m94f5a96316" y="630"/>
      </g>
     </g>
     <g id="text_4">
      <!-- 300 -->
      <defs>
       <path d="M 40.578125 39.3125 
Q 47.65625 37.796875 51.625 33 
Q 55.609375 28.21875 55.609375 21.1875 
Q 55.609375 10.40625 48.1875 4.484375 
Q 40.765625 -1.421875 27.09375 -1.421875 
Q 22.515625 -1.421875 17.65625 -0.515625 
Q 12.796875 0.390625 7.625 2.203125 
L 7.625 11.71875 
Q 11.71875 9.328125 16.59375 8.109375 
Q 21.484375 6.890625 26.8125 6.890625 
Q 36.078125 6.890625 40.9375 10.546875 
Q 45.796875 14.203125 45.796875 21.1875 
Q 45.796875 27.640625 41.28125 31.265625 
Q 36.765625 34.90625 28.71875 34.90625 
L 20.21875 34.90625 
L 20.21875 43.015625 
L 29.109375 43.015625 
Q 36.375 43.015625 40.234375 45.921875 
Q 44.09375 48.828125 44.09375 54.296875 
Q 44.09375 59.90625 40.109375 62.90625 
Q 36.140625 65.921875 28.71875 65.921875 
Q 24.65625 65.921875 20.015625 65.03125 
Q 15.375 64.15625 9.8125 62.3125 
L 9.8125 71.09375 
Q 15.4375 72.65625 20.34375 73.4375 
Q 25.25 74.21875 29.59375 74.21875 
Q 40.828125 74.21875 47.359375 69.109375 
Q 53.90625 64.015625 53.90625 55.328125 
Q 53.90625 49.265625 50.4375 45.09375 
Q 46.96875 40.921875 40.578125 39.3125 
z
" id="DejaVuSans-51"/>
      </defs>
      <g transform="translate(886.129327 644.598438)scale(0.1 -0.1)">
       <use xlink:href="#DejaVuSans-51"/>
       <use x="63.623047" xlink:href="#DejaVuSans-48"/>
       <use x="127.246094" xlink:href="#DejaVuSans-48"/>
      </g>
     </g>
    </g>
    <g id="xtick_5">
     <g id="line2d_5">
      <g>
       <use style="stroke:#000000;stroke-width:0.8;" x="1119.230769" xlink:href="#m94f5a96316" y="630"/>
      </g>
     </g>
     <g id="text_5">
      <!-- 400 -->
      <defs>
       <path d="M 37.796875 64.3125 
L 12.890625 25.390625 
L 37.796875 25.390625 
z
M 35.203125 72.90625 
L 47.609375 72.90625 
L 47.609375 25.390625 
L 58.015625 25.390625 
L 58.015625 17.1875 
L 47.609375 17.1875 
L 47.609375 0 
L 37.796875 0 
L 37.796875 17.1875 
L 4.890625 17.1875 
L 4.890625 26.703125 
z
" id="DejaVuSans-52"/>
      </defs>
      <g transform="translate(1109.687019 644.598438)scale(0.1 -0.1)">
       <use xlink:href="#DejaVuSans-52"/>
       <use x="63.623047" xlink:href="#DejaVuSans-48"/>
       <use x="127.246094" xlink:href="#DejaVuSans-48"/>
      </g>
     </g>
    </g>
    <g id="xtick_6">
     <g id="line2d_6">
      <g>
       <use style="stroke:#000000;stroke-width:0.8;" x="1342.788462" xlink:href="#m94f5a96316" y="630"/>
      </g>
     </g>
     <g id="text_6">
      <!-- 500 -->
      <defs>
       <path d="M 10.796875 72.90625 
L 49.515625 72.90625 
L 49.515625 64.59375 
L 19.828125 64.59375 
L 19.828125 46.734375 
Q 21.96875 47.46875 24.109375 47.828125 
Q 26.265625 48.1875 28.421875 48.1875 
Q 40.625 48.1875 47.75 41.5 
Q 54.890625 34.8125 54.890625 23.390625 
Q 54.890625 11.625 47.5625 5.09375 
Q 40.234375 -1.421875 26.90625 -1.421875 
Q 22.3125 -1.421875 17.546875 -0.640625 
Q 12.796875 0.140625 7.71875 1.703125 
L 7.71875 11.625 
Q 12.109375 9.234375 16.796875 8.0625 
Q 21.484375 6.890625 26.703125 6.890625 
Q 35.15625 6.890625 40.078125 11.328125 
Q 45.015625 15.765625 45.015625 23.390625 
Q 45.015625 31 40.078125 35.4375 
Q 35.15625 39.890625 26.703125 39.890625 
Q 22.75 39.890625 18.8125 39.015625 
Q 14.890625 38.140625 10.796875 36.28125 
z
" id="DejaVuSans-53"/>
      </defs>
      <g transform="translate(1333.244712 644.598438)scale(0.1 -0.1)">
       <use xlink:href="#DejaVuSans-53"/>
       <use x="63.623047" xlink:href="#DejaVuSans-48"/>
       <use x="127.246094" xlink:href="#DejaVuSans-48"/>
      </g>
     </g>
    </g>
    <g id="xtick_7">
     <g id="line2d_7">
      <g>
       <use style="stroke:#000000;stroke-width:0.8;" x="1566.346154" xlink:href="#m94f5a96316" y="630"/>
      </g>
     </g>
     <g id="text_7">
      <!-- 600 -->
      <defs>
       <path d="M 33.015625 40.375 
Q 26.375 40.375 22.484375 35.828125 
Q 18.609375 31.296875 18.609375 23.390625 
Q 18.609375 15.53125 22.484375 10.953125 
Q 26.375 6.390625 33.015625 6.390625 
Q 39.65625 6.390625 43.53125 10.953125 
Q 47.40625 15.53125 47.40625 23.390625 
Q 47.40625 31.296875 43.53125 35.828125 
Q 39.65625 40.375 33.015625 40.375 
z
M 52.59375 71.296875 
L 52.59375 62.3125 
Q 48.875 64.0625 45.09375 64.984375 
Q 41.3125 65.921875 37.59375 65.921875 
Q 27.828125 65.921875 22.671875 59.328125 
Q 17.53125 52.734375 16.796875 39.40625 
Q 19.671875 43.65625 24.015625 45.921875 
Q 28.375 48.1875 33.59375 48.1875 
Q 44.578125 48.1875 50.953125 41.515625 
Q 57.328125 34.859375 57.328125 23.390625 
Q 57.328125 12.15625 50.6875 5.359375 
Q 44.046875 -1.421875 33.015625 -1.421875 
Q 20.359375 -1.421875 13.671875 8.265625 
Q 6.984375 17.96875 6.984375 36.375 
Q 6.984375 53.65625 15.1875 63.9375 
Q 23.390625 74.21875 37.203125 74.21875 
Q 40.921875 74.21875 44.703125 73.484375 
Q 48.484375 72.75 52.59375 71.296875 
z
" id="DejaVuSans-54"/>
      </defs>
      <g transform="translate(1556.802404 644.598438)scale(0.1 -0.1)">
       <use xlink:href="#DejaVuSans-54"/>
       <use x="63.623047" xlink:href="#DejaVuSans-48"/>
       <use x="127.246094" xlink:href="#DejaVuSans-48"/>
      </g>
     </g>
    </g>
   </g>
   <g id="matplotlib.axis_2">
    <g id="ytick_1">
     <g id="line2d_8">
      <defs>
       <path d="M 0 0 
L -3.5 0 
" id="m9766f16977" style="stroke:#000000;stroke-width:0.8;"/>
      </defs>
      <g>
       <use style="stroke:#000000;stroke-width:0.8;" x="225" xlink:href="#m9766f16977" y="599.86034"/>
      </g>
     </g>
     <g id="text_8">
      <!-- 200 -->
      <g transform="translate(198.9125 603.659558)scale(0.1 -0.1)">
       <use xlink:href="#DejaVuSans-50"/>
       <use x="63.623047" xlink:href="#DejaVuSans-48"/>
       <use x="127.246094" xlink:href="#DejaVuSans-48"/>
      </g>
     </g>
    </g>
    <g id="ytick_2">
     <g id="line2d_9">
      <g>
       <use style="stroke:#000000;stroke-width:0.8;" x="225" xlink:href="#m9766f16977" y="491.248951"/>
      </g>
     </g>
     <g id="text_9">
      <!-- 400 -->
      <g transform="translate(198.9125 495.04817)scale(0.1 -0.1)">
       <use xlink:href="#DejaVuSans-52"/>
       <use x="63.623047" xlink:href="#DejaVuSans-48"/>
       <use x="127.246094" xlink:href="#DejaVuSans-48"/>
      </g>
     </g>
    </g>
    <g id="ytick_3">
     <g id="line2d_10">
      <g>
       <use style="stroke:#000000;stroke-width:0.8;" x="225" xlink:href="#m9766f16977" y="382.637562"/>
      </g>
     </g>
     <g id="text_10">
      <!-- 600 -->
      <g transform="translate(198.9125 386.436781)scale(0.1 -0.1)">
       <use xlink:href="#DejaVuSans-54"/>
       <use x="63.623047" xlink:href="#DejaVuSans-48"/>
       <use x="127.246094" xlink:href="#DejaVuSans-48"/>
      </g>
     </g>
    </g>
    <g id="ytick_4">
     <g id="line2d_11">
      <g>
       <use style="stroke:#000000;stroke-width:0.8;" x="225" xlink:href="#m9766f16977" y="274.026174"/>
      </g>
     </g>
     <g id="text_11">
      <!-- 800 -->
      <defs>
       <path d="M 31.78125 34.625 
Q 24.75 34.625 20.71875 30.859375 
Q 16.703125 27.09375 16.703125 20.515625 
Q 16.703125 13.921875 20.71875 10.15625 
Q 24.75 6.390625 31.78125 6.390625 
Q 38.8125 6.390625 42.859375 10.171875 
Q 46.921875 13.96875 46.921875 20.515625 
Q 46.921875 27.09375 42.890625 30.859375 
Q 38.875 34.625 31.78125 34.625 
z
M 21.921875 38.8125 
Q 15.578125 40.375 12.03125 44.71875 
Q 8.5 49.078125 8.5 55.328125 
Q 8.5 64.0625 14.71875 69.140625 
Q 20.953125 74.21875 31.78125 74.21875 
Q 42.671875 74.21875 48.875 69.140625 
Q 55.078125 64.0625 55.078125 55.328125 
Q 55.078125 49.078125 51.53125 44.71875 
Q 48 40.375 41.703125 38.8125 
Q 48.828125 37.15625 52.796875 32.3125 
Q 56.78125 27.484375 56.78125 20.515625 
Q 56.78125 9.90625 50.3125 4.234375 
Q 43.84375 -1.421875 31.78125 -1.421875 
Q 19.734375 -1.421875 13.25 4.234375 
Q 6.78125 9.90625 6.78125 20.515625 
Q 6.78125 27.484375 10.78125 32.3125 
Q 14.796875 37.15625 21.921875 38.8125 
z
M 18.3125 54.390625 
Q 18.3125 48.734375 21.84375 45.5625 
Q 25.390625 42.390625 31.78125 42.390625 
Q 38.140625 42.390625 41.71875 45.5625 
Q 45.3125 48.734375 45.3125 54.390625 
Q 45.3125 60.0625 41.71875 63.234375 
Q 38.140625 66.40625 31.78125 66.40625 
Q 25.390625 66.40625 21.84375 63.234375 
Q 18.3125 60.0625 18.3125 54.390625 
z
" id="DejaVuSans-56"/>
      </defs>
      <g transform="translate(198.9125 277.825393)scale(0.1 -0.1)">
       <use xlink:href="#DejaVuSans-56"/>
       <use x="63.623047" xlink:href="#DejaVuSans-48"/>
       <use x="127.246094" xlink:href="#DejaVuSans-48"/>
      </g>
     </g>
    </g>
    <g id="ytick_5">
     <g id="line2d_12">
      <g>
       <use style="stroke:#000000;stroke-width:0.8;" x="225" xlink:href="#m9766f16977" y="165.414785"/>
      </g>
     </g>
     <g id="text_12">
      <!-- 1000 -->
      <g transform="translate(192.55 169.214004)scale(0.1 -0.1)">
       <use xlink:href="#DejaVuSans-49"/>
       <use x="63.623047" xlink:href="#DejaVuSans-48"/>
       <use x="127.246094" xlink:href="#DejaVuSans-48"/>
       <use x="190.869141" xlink:href="#DejaVuSans-48"/>
      </g>
     </g>
    </g>
   </g>
   <g id="line2d_13">
    <path clip-path="url(#pb003a776ae)" d="M 225 263.165035 
L 227.235577 328.331868 
L 229.471154 409.79041 
L 231.706731 328.331868 
L 233.942308 382.637562 
L 236.177885 382.637562 
L 238.413462 165.414785 
L 240.649038 491.248951 
L 242.884615 545.554645 
L 245.120192 423.366833 
L 247.355769 344.623576 
L 249.591346 496.67952 
L 251.826923 464.096104 
L 254.0625 355.484715 
L 256.298077 464.096104 
L 258.533654 491.248951 
L 260.769231 572.707493 
L 263.004808 426.082118 
L 265.240385 502.11009 
L 267.475962 197.998202 
L 269.711538 301.179021 
L 271.947115 488.533666 
L 274.182692 545.554645 
L 276.418269 409.79041 
L 278.653846 219.72048 
L 280.889423 436.943257 
L 283.125 374.491708 
L 285.360577 301.179021 
L 287.596154 436.943257 
L 289.831731 382.637562 
L 292.067308 192.567632 
L 294.302885 512.971229 
L 296.538462 344.623576 
L 298.774038 398.929271 
L 301.009615 545.554645 
L 303.245192 502.11009 
L 305.480769 382.094505 
L 307.716346 491.248951 
L 309.951923 409.79041 
L 312.1875 561.846354 
L 314.423077 523.832368 
L 316.658654 464.096104 
L 318.894231 436.943257 
L 321.129808 274.026174 
L 323.365385 491.248951 
L 327.836538 328.331868 
L 330.072115 529.262937 
L 332.307692 398.929271 
L 334.543269 550.985215 
L 336.778846 393.498701 
L 339.014423 393.498701 
L 341.25 445.089111 
L 343.485577 382.637562 
L 345.721154 464.096104 
L 347.956731 550.985215 
L 350.192308 453.234965 
L 352.427885 192.567632 
L 354.663462 385.352847 
L 356.899038 328.331868 
L 359.134615 572.707493 
L 361.370192 518.401798 
L 363.605769 409.79041 
L 365.841346 458.665534 
L 368.076923 491.248951 
L 370.3125 426.082118 
L 372.548077 409.79041 
L 374.783654 246.873327 
L 377.019231 502.11009 
L 379.254808 545.554645 
L 381.490385 491.248951 
L 383.725962 366.345854 
L 385.961538 165.414785 
L 388.197115 442.373826 
L 390.432692 474.957243 
L 392.668269 480.387812 
L 394.903846 496.67952 
L 397.139423 480.387812 
L 399.375 393.498701 
L 401.610577 393.498701 
L 403.846154 274.026174 
L 406.081731 518.401798 
L 408.317308 328.331868 
L 410.552885 491.248951 
L 412.788462 464.096104 
L 415.024038 111.109091 
L 417.259615 274.026174 
L 419.495192 507.540659 
L 421.730769 518.401798 
L 423.966346 382.637562 
L 426.201923 382.637562 
L 428.4375 284.887313 
L 430.673077 301.179021 
L 432.908654 556.415784 
L 435.144231 447.804396 
L 437.379808 409.79041 
L 439.615385 328.331868 
L 444.086538 436.943257 
L 446.322115 453.234965 
L 448.557692 355.484715 
L 450.793269 274.026174 
L 453.028846 371.776424 
L 455.264423 493.964236 
L 457.5 512.971229 
L 459.735577 436.943257 
L 461.971154 246.873327 
L 464.206731 436.943257 
L 466.442308 436.943257 
L 468.677885 464.096104 
L 470.913462 497.765634 
L 473.149038 328.331868 
L 475.384615 464.096104 
L 477.620192 545.554645 
L 479.855769 382.637562 
L 482.091346 415.220979 
L 484.326923 442.373826 
L 486.5625 523.832368 
L 488.798077 219.72048 
L 491.033654 453.234965 
L 493.269231 355.484715 
L 495.504808 274.026174 
L 497.740385 328.331868 
L 499.975962 561.846354 
L 502.211538 274.026174 
L 504.447115 453.234965 
L 506.682692 502.11009 
L 508.918269 409.79041 
L 511.153846 496.67952 
L 513.389423 436.943257 
L 515.625 447.804396 
L 517.860577 274.026174 
L 520.096154 404.35984 
L 522.331731 409.79041 
L 524.567308 469.526673 
L 526.802885 436.943257 
L 529.038462 504.825375 
L 531.274038 502.11009 
L 533.509615 111.109091 
L 535.745192 491.248951 
L 537.980769 339.193007 
L 540.216346 398.929271 
L 542.451923 246.873327 
L 544.6875 464.096104 
L 546.923077 436.943257 
L 549.158654 355.484715 
L 553.629808 382.637562 
L 555.865385 477.672527 
L 558.100962 464.096104 
L 560.336538 219.72048 
L 562.572115 523.832368 
L 564.807692 545.554645 
L 569.278846 415.220979 
L 571.514423 436.943257 
L 573.75 382.637562 
L 575.985577 274.026174 
L 578.221154 301.179021 
L 580.456731 485.818382 
L 582.692308 398.929271 
L 584.927885 388.068132 
L 587.163462 491.248951 
L 589.399038 409.79041 
L 591.634615 504.825375 
L 593.870192 512.971229 
L 596.105769 382.637562 
L 598.341346 518.401798 
L 600.576923 572.707493 
L 602.8125 464.096104 
L 605.048077 534.693506 
L 607.283654 436.943257 
L 609.519231 192.567632 
L 611.754808 518.401798 
L 613.990385 464.096104 
L 616.225962 545.554645 
L 618.461538 426.082118 
L 620.697115 360.915285 
L 622.932692 545.554645 
L 625.168269 274.026174 
L 627.403846 219.72048 
L 629.639423 447.804396 
L 631.875 165.414785 
L 634.110577 464.096104 
L 636.346154 388.068132 
L 638.581731 545.554645 
L 640.817308 436.943257 
L 643.052885 382.637562 
L 645.288462 545.554645 
L 647.524038 436.943257 
L 649.759615 559.131069 
L 651.995192 208.859341 
L 654.230769 219.72048 
L 656.466346 491.248951 
L 658.701923 464.096104 
L 660.9375 382.637562 
L 663.173077 317.470729 
L 665.408654 529.262937 
L 667.644231 301.179021 
L 669.879808 572.707493 
L 672.115385 393.498701 
L 674.350962 366.345854 
L 676.586538 355.484715 
L 678.822115 483.103097 
L 681.057692 518.401798 
L 685.528846 301.179021 
L 687.764423 328.331868 
L 690 442.373826 
L 692.235577 165.414785 
L 694.471154 344.623576 
L 696.706731 165.414785 
L 698.942308 355.484715 
L 701.177885 502.11009 
L 703.413462 382.637562 
L 705.649038 464.096104 
L 707.884615 453.234965 
L 710.120192 572.707493 
L 712.355769 328.331868 
L 714.591346 534.693506 
L 716.826923 382.637562 
L 719.0625 491.248951 
L 721.298077 165.414785 
L 723.533654 464.096104 
L 725.769231 176.275924 
L 728.004808 355.484715 
L 730.240385 382.637562 
L 732.475962 504.825375 
L 734.711538 409.79041 
L 736.947115 542.839361 
L 739.182692 436.943257 
L 741.418269 447.804396 
L 743.653846 328.331868 
L 745.889423 416.85015 
L 748.125 491.792008 
L 750.360577 274.026174 
L 752.596154 529.262937 
L 754.831731 474.957243 
L 757.067308 409.79041 
L 759.302885 491.248951 
L 761.538462 355.484715 
L 763.774038 496.67952 
L 766.009615 263.165035 
L 768.245192 436.943257 
L 770.480769 219.72048 
L 772.716346 382.637562 
L 774.951923 284.887313 
L 777.1875 480.387812 
L 779.423077 385.352847 
L 781.658654 355.484715 
L 783.894231 561.846354 
L 786.129808 415.220979 
L 788.365385 518.401798 
L 790.600962 382.637562 
L 792.836538 421.737662 
L 795.072115 436.943257 
L 797.307692 523.832368 
L 799.543269 564.561638 
L 801.778846 328.331868 
L 804.014423 355.484715 
L 806.25 246.873327 
L 808.485577 301.179021 
L 810.721154 496.67952 
L 812.956731 328.331868 
L 815.192308 458.665534 
L 817.427885 447.804396 
L 819.663462 409.79041 
L 821.899038 464.096104 
L 824.134615 464.096104 
L 826.370192 491.248951 
L 828.605769 246.873327 
L 830.841346 138.261938 
L 833.076923 246.873327 
L 835.3125 491.248951 
L 837.548077 355.484715 
L 839.783654 529.262937 
L 842.019231 333.762438 
L 844.254808 382.637562 
L 846.490385 301.179021 
L 848.725962 241.442757 
L 850.961538 176.275924 
L 853.197115 469.526673 
L 855.432692 322.901299 
L 857.668269 415.220979 
L 859.903846 464.096104 
L 862.139423 398.929271 
L 864.375 409.79041 
L 866.610577 518.401798 
L 868.846154 246.873327 
L 871.081731 246.873327 
L 873.317308 436.943257 
L 875.552885 464.096104 
L 877.788462 274.026174 
L 880.024038 328.331868 
L 882.259615 111.109091 
L 884.495192 588.999201 
L 886.730769 491.248951 
L 888.966346 165.414785 
L 891.201923 605.290909 
L 893.4375 409.79041 
L 895.673077 436.943257 
L 897.908654 388.068132 
L 900.144231 246.873327 
L 902.379808 393.498701 
L 904.615385 409.79041 
L 906.850962 447.804396 
L 909.086538 274.026174 
L 911.322115 274.026174 
L 913.557692 594.42977 
L 915.793269 168.13007 
L 918.028846 464.096104 
L 922.5 518.401798 
L 924.735577 491.248951 
L 926.971154 436.943257 
L 929.206731 496.67952 
L 931.442308 545.554645 
L 933.677885 230.581618 
L 935.913462 111.109091 
L 938.149038 436.943257 
L 940.384615 409.79041 
L 942.620192 518.401798 
L 944.855769 436.943257 
L 947.091346 476.043357 
L 949.326923 464.096104 
L 951.5625 301.179021 
L 953.798077 246.873327 
L 956.033654 344.623576 
L 958.269231 485.818382 
L 962.740385 529.262937 
L 964.975962 274.026174 
L 967.211538 328.331868 
L 969.447115 496.67952 
L 971.682692 496.67952 
L 973.918269 464.096104 
L 976.153846 453.234965 
L 978.389423 436.943257 
L 982.860577 328.331868 
L 985.096154 572.707493 
L 987.331731 507.540659 
L 989.567308 426.082118 
L 991.802885 409.79041 
L 994.038462 580.853347 
L 996.274038 523.832368 
L 998.509615 409.79041 
L 1000.745192 165.414785 
L 1002.980769 409.79041 
L 1005.216346 355.484715 
L 1007.451923 111.109091 
L 1009.6875 409.79041 
L 1011.923077 409.79041 
L 1014.158654 219.72048 
L 1016.394231 111.109091 
L 1018.629808 445.089111 
L 1020.865385 507.540659 
L 1023.100962 385.352847 
L 1025.336538 219.72048 
L 1027.572115 436.943257 
L 1029.807692 559.131069 
L 1032.043269 545.554645 
L 1034.278846 192.567632 
L 1036.514423 491.248951 
L 1038.75 344.623576 
L 1040.985577 474.957243 
L 1043.221154 491.248951 
L 1045.456731 219.72048 
L 1047.692308 491.248951 
L 1049.927885 512.971229 
L 1052.163462 491.792008 
L 1054.399038 469.526673 
L 1056.634615 518.401798 
L 1058.870192 496.67952 
L 1063.341346 518.401798 
L 1065.576923 436.943257 
L 1067.8125 317.470729 
L 1070.048077 301.179021 
L 1072.283654 409.79041 
L 1074.519231 491.248951 
L 1076.754808 355.484715 
L 1078.990385 512.971229 
L 1081.225962 436.943257 
L 1083.461538 328.331868 
L 1085.697115 274.026174 
L 1087.932692 464.096104 
L 1090.168269 274.026174 
L 1092.403846 502.11009 
L 1094.639423 502.11009 
L 1096.875 545.554645 
L 1099.110577 436.943257 
L 1101.346154 393.498701 
L 1103.581731 355.484715 
L 1105.817308 382.637562 
L 1108.052885 328.331868 
L 1110.288462 491.248951 
L 1112.524038 274.026174 
L 1114.759615 274.026174 
L 1116.995192 493.964236 
L 1119.230769 545.554645 
L 1121.466346 578.138062 
L 1123.701923 525.461538 
L 1125.9375 464.096104 
L 1128.173077 497.765634 
L 1130.408654 491.248951 
L 1132.644231 491.248951 
L 1134.879808 436.943257 
L 1137.115385 301.179021 
L 1139.350962 507.540659 
L 1141.586538 249.588611 
L 1143.822115 246.873327 
L 1146.057692 518.401798 
L 1148.293269 529.262937 
L 1150.528846 274.026174 
L 1152.764423 274.026174 
L 1155 545.554645 
L 1157.235577 542.839361 
L 1159.471154 469.526673 
L 1161.706731 502.11009 
L 1163.942308 388.068132 
L 1166.177885 111.109091 
L 1168.413462 518.401798 
L 1170.649038 219.72048 
L 1172.884615 491.248951 
L 1175.120192 436.943257 
L 1177.355769 496.67952 
L 1179.591346 274.026174 
L 1181.826923 534.693506 
L 1184.0625 165.414785 
L 1186.298077 165.414785 
L 1188.533654 382.637562 
L 1190.769231 279.456743 
L 1193.004808 518.401798 
L 1195.240385 301.179021 
L 1197.475962 485.818382 
L 1199.711538 542.839361 
L 1201.947115 393.498701 
L 1204.182692 301.179021 
L 1206.418269 447.804396 
L 1208.653846 534.693506 
L 1210.889423 518.401798 
L 1213.125 301.179021 
L 1215.360577 556.415784 
L 1217.596154 502.11009 
L 1219.831731 284.887313 
L 1222.067308 502.11009 
L 1224.302885 360.915285 
L 1226.538462 426.082118 
L 1228.774038 572.707493 
L 1231.009615 355.484715 
L 1233.245192 550.985215 
L 1235.480769 507.540659 
L 1237.716346 382.637562 
L 1239.951923 442.373826 
L 1242.1875 480.387812 
L 1244.423077 502.11009 
L 1246.658654 409.79041 
L 1248.894231 436.943257 
L 1251.129808 301.179021 
L 1253.365385 496.67952 
L 1255.600962 328.331868 
L 1257.836538 301.179021 
L 1260.072115 572.707493 
L 1262.307692 301.179021 
L 1264.543269 388.068132 
L 1266.778846 436.943257 
L 1269.014423 491.248951 
L 1271.25 274.026174 
L 1273.485577 518.401798 
L 1275.721154 355.484715 
L 1277.956731 301.179021 
L 1280.192308 355.484715 
L 1282.427885 483.103097 
L 1284.663462 550.985215 
L 1286.899038 409.79041 
L 1289.134615 447.804396 
L 1291.370192 288.145654 
L 1293.605769 436.943257 
L 1295.841346 545.554645 
L 1298.076923 328.331868 
L 1300.3125 328.331868 
L 1302.548077 409.79041 
L 1304.783654 328.331868 
L 1307.019231 382.637562 
L 1309.254808 181.706494 
L 1311.490385 436.943257 
L 1313.725962 111.109091 
L 1315.961538 274.026174 
L 1320.432692 491.248951 
L 1322.668269 219.72048 
L 1324.903846 192.567632 
L 1327.139423 409.79041 
L 1329.375 219.72048 
L 1331.610577 355.484715 
L 1333.846154 518.401798 
L 1336.081731 559.131069 
L 1338.317308 453.234965 
L 1340.552885 219.72048 
L 1342.788462 382.637562 
L 1345.024038 274.026174 
L 1347.259615 453.234965 
L 1349.495192 328.331868 
L 1351.730769 436.943257 
L 1353.966346 512.971229 
L 1356.201923 464.096104 
L 1358.4375 382.637562 
L 1360.673077 257.734466 
L 1362.908654 409.79041 
L 1365.144231 415.220979 
L 1367.379808 382.637562 
L 1369.615385 371.776424 
L 1371.850962 219.72048 
L 1374.086538 518.401798 
L 1376.322115 382.637562 
L 1378.557692 507.540659 
L 1380.793269 464.096104 
L 1383.028846 464.096104 
L 1385.264423 219.72048 
L 1387.5 512.971229 
L 1389.735577 274.026174 
L 1391.971154 507.540659 
L 1394.206731 502.11009 
L 1396.442308 464.096104 
L 1398.677885 436.943257 
L 1400.913462 491.248951 
L 1403.149038 474.957243 
L 1405.384615 491.248951 
L 1407.620192 409.79041 
L 1409.855769 545.554645 
L 1412.091346 328.331868 
L 1414.326923 274.026174 
L 1416.5625 409.79041 
L 1421.033654 301.179021 
L 1423.269231 464.096104 
L 1425.504808 453.234965 
L 1427.740385 556.415784 
L 1429.975962 165.414785 
L 1432.211538 502.11009 
L 1434.447115 420.651548 
L 1436.682692 219.72048 
L 1438.918269 290.317882 
L 1441.153846 529.262937 
L 1443.389423 491.248951 
L 1445.625 366.345854 
L 1447.860577 512.971229 
L 1450.096154 447.804396 
L 1452.331731 274.026174 
L 1454.567308 453.234965 
L 1456.802885 426.082118 
L 1459.038462 474.957243 
L 1461.274038 491.248951 
L 1463.509615 553.7005 
L 1465.745192 382.637562 
L 1467.980769 301.179021 
L 1470.216346 355.484715 
L 1472.451923 572.707493 
L 1474.6875 274.026174 
L 1476.923077 121.97023 
L 1479.158654 436.943257 
L 1481.394231 415.220979 
L 1483.629808 436.943257 
L 1485.865385 561.846354 
L 1488.100962 464.096104 
L 1490.336538 491.248951 
L 1492.572115 393.498701 
L 1494.807692 328.331868 
L 1497.043269 219.72048 
L 1499.278846 328.331868 
L 1501.514423 165.414785 
L 1503.75 274.026174 
L 1505.985577 436.943257 
L 1508.221154 545.554645 
L 1510.456731 502.11009 
L 1512.692308 382.637562 
L 1514.927885 187.137063 
L 1517.163462 219.72048 
L 1519.399038 594.42977 
L 1521.634615 534.693506 
L 1523.870192 436.943257 
L 1526.105769 493.964236 
L 1528.341346 464.096104 
L 1530.576923 274.026174 
L 1535.048077 491.248951 
L 1537.283654 328.331868 
L 1539.519231 534.693506 
L 1541.754808 382.637562 
L 1543.990385 382.637562 
L 1546.225962 447.804396 
L 1548.461538 192.567632 
L 1550.697115 409.79041 
L 1552.932692 409.79041 
L 1555.168269 431.512687 
L 1557.403846 556.415784 
L 1559.639423 219.72048 
L 1561.875 447.804396 
L 1564.110577 518.401798 
L 1566.346154 485.818382 
L 1568.581731 464.096104 
L 1570.817308 518.401798 
L 1573.052885 529.262937 
L 1575.288462 480.387812 
L 1577.524038 436.943257 
L 1579.759615 502.11009 
L 1581.995192 219.72048 
L 1584.230769 404.35984 
L 1586.466346 493.964236 
L 1588.701923 464.096104 
L 1590.9375 439.658541 
L 1593.173077 572.707493 
L 1595.408654 246.873327 
L 1597.644231 518.401798 
L 1599.879808 284.887313 
L 1602.115385 436.943257 
L 1604.350962 464.096104 
L 1606.586538 382.637562 
L 1608.822115 442.373826 
L 1611.057692 480.387812 
L 1613.293269 339.193007 
L 1615.528846 426.082118 
L 1617.764423 426.082118 
L 1620 274.026174 
L 1620 274.026174 
" style="fill:none;stroke:#1f77b4;stroke-linecap:square;stroke-width:1.5;"/>
   </g>
   <g id="line2d_14">
    <path clip-path="url(#pb003a776ae)" d="M 225 271.478545 
L 227.235577 337.920302 
L 229.471154 341.652546 
L 231.706731 311.918035 
L 233.942308 450.279728 
L 236.177885 470.30877 
L 238.413462 330.437738 
L 240.649038 433.283473 
L 242.884615 511.396194 
L 245.120192 305.998936 
L 247.355769 231.346547 
L 249.591346 458.572759 
L 251.826923 390.663943 
L 254.0625 305.333728 
L 256.298077 373.101133 
L 258.533654 461.444758 
L 260.769231 535.496245 
L 263.004808 396.831525 
L 265.240385 497.937832 
L 267.475962 263.787232 
L 269.711538 250.335613 
L 271.947115 469.944185 
L 274.182692 517.241161 
L 276.418269 342.26991 
L 278.653846 238.071372 
L 280.889423 458.379656 
L 283.125 363.216313 
L 285.360577 347.404682 
L 287.596154 469.967424 
L 289.831731 267.452774 
L 292.067308 279.532304 
L 294.302885 469.204057 
L 296.538462 336.686879 
L 298.774038 474.683583 
L 301.009615 542.190866 
L 303.245192 514.398037 
L 305.480769 363.178793 
L 307.716346 442.119802 
L 309.951923 321.358283 
L 312.1875 533.522323 
L 314.423077 511.396194 
L 316.658654 491.673858 
L 318.894231 403.702799 
L 321.129808 425.659254 
L 323.365385 474.701349 
L 325.600962 356.247274 
L 327.836538 354.176749 
L 330.072115 475.557784 
L 332.307692 374.682606 
L 334.543269 463.764667 
L 336.778846 443.523248 
L 339.014423 437.353187 
L 341.25 390.663943 
L 343.485577 378.986708 
L 345.721154 431.150429 
L 347.956731 522.826853 
L 350.192308 338.367781 
L 352.427885 344.39268 
L 354.663462 425.990415 
L 356.899038 344.39268 
L 359.134615 488.96012 
L 361.370192 477.729817 
L 363.605769 423.572226 
L 365.841346 431.150429 
L 368.076923 505.066489 
L 370.3125 345.359616 
L 372.548077 373.078881 
L 374.783654 426.995272 
L 377.019231 484.799712 
L 379.254808 547.6158 
L 381.490385 480.538231 
L 383.725962 300.367803 
L 385.961538 299.624136 
L 388.197115 463.260521 
L 390.432692 460.484779 
L 392.668269 361.011875 
L 394.903846 349.555289 
L 397.139423 476.267964 
L 399.375 492.962803 
L 401.610577 331.039389 
L 403.846154 369.219801 
L 406.081731 337.920302 
L 408.317308 317.43753 
L 410.552885 472.957818 
L 412.788462 516.443451 
L 415.024038 289.171469 
L 417.259615 367.07231 
L 419.495192 430.829341 
L 421.730769 485.311904 
L 423.966346 420.674608 
L 426.201923 321.104388 
L 428.4375 283.290136 
L 430.673077 281.960331 
L 432.908654 508.343523 
L 435.144231 459.288302 
L 437.379808 399.891563 
L 439.615385 269.158635 
L 441.850962 399.151435 
L 444.086538 469.967424 
L 446.322115 423.670505 
L 448.557692 413.734466 
L 450.793269 322.304472 
L 453.028846 396.450272 
L 455.264423 399.151435 
L 457.5 437.353187 
L 459.735577 414.165315 
L 461.971154 270.98125 
L 464.206731 353.436621 
L 466.442308 482.991995 
L 468.677885 409.217506 
L 470.913462 446.675177 
L 473.149038 280.398909 
L 475.384615 484.367892 
L 477.620192 509.660634 
L 479.855769 431.150429 
L 482.091346 472.438303 
L 484.326923 496.281277 
L 486.5625 508.360438 
L 488.798077 247.171998 
L 491.033654 324.624382 
L 493.269231 334.968603 
L 495.504808 324.624382 
L 497.740385 463.764667 
L 499.975962 508.343523 
L 502.211538 404.590824 
L 504.447115 473.598244 
L 506.682692 517.387463 
L 508.918269 345.965576 
L 511.153846 383.912929 
L 513.389423 477.021258 
L 515.625 482.210407 
L 517.860577 349.555289 
L 520.096154 324.624382 
L 522.331731 418.383209 
L 524.567308 399.151435 
L 526.802885 399.151435 
L 529.038462 431.651003 
L 531.274038 473.710358 
L 533.509615 216.92844 
L 535.745192 350.787602 
L 537.980769 328.603888 
L 540.216346 420.240746 
L 544.6875 284.280241 
L 546.923077 396.831525 
L 549.158654 407.756012 
L 551.394231 320.618155 
L 553.629808 431.255797 
L 555.865385 427.41954 
L 558.100962 436.680413 
L 560.336538 216.188312 
L 562.572115 536.545774 
L 564.807692 474.701349 
L 567.043269 469.701383 
L 571.514423 402.270915 
L 573.75 396.700943 
L 575.985577 353.436621 
L 578.221154 239.713331 
L 580.456731 378.239398 
L 582.692308 302.117604 
L 584.927885 353.436621 
L 587.163462 385.459343 
L 589.399038 442.395213 
L 591.634615 460.40454 
L 593.870192 476.267964 
L 596.105769 448.973373 
L 598.341346 391.193378 
L 600.576923 527.285577 
L 602.8125 399.151435 
L 605.048077 521.800693 
L 607.283654 302.117604 
L 609.519231 206.600219 
L 611.754808 399.151435 
L 613.990385 324.624382 
L 616.225962 469.967424 
L 618.461538 404.681418 
L 620.697115 315.580442 
L 622.932692 334.169982 
L 625.168269 399.151435 
L 627.403846 284.280241 
L 629.639423 431.651003 
L 631.875 280.398909 
L 634.110577 446.653464 
L 636.346154 366.39806 
L 638.581731 478.745323 
L 640.817308 426.730543 
L 643.052885 472.438303 
L 645.288462 514.975632 
L 651.995192 269.517896 
L 654.230769 275.580264 
L 656.466346 484.275306 
L 658.701923 471.494291 
L 660.9375 415.144625 
L 663.173077 369.383895 
L 665.408654 539.89217 
L 667.644231 312.619356 
L 669.879808 547.86574 
L 672.115385 415.144625 
L 674.350962 271.478545 
L 676.586538 369.458098 
L 678.822115 415.144625 
L 681.057692 428.566039 
L 683.293269 390.558212 
L 685.528846 431.150429 
L 687.764423 288.936792 
L 690 400.264296 
L 692.235577 228.133185 
L 694.471154 336.686879 
L 696.706731 225.811745 
L 698.942308 354.176749 
L 701.177885 454.475616 
L 703.413462 387.498175 
L 705.649038 448.271704 
L 707.884615 428.592092 
L 710.120192 529.605487 
L 712.355769 329.951505 
L 714.591346 544.661629 
L 716.826923 404.681418 
L 719.0625 429.315181 
L 721.298077 271.478545 
L 723.533654 402.847101 
L 725.769231 289.171469 
L 728.004808 460.923484 
L 730.240385 454.720727 
L 732.475962 495.413776 
L 734.711538 421.164314 
L 736.947115 449.227529 
L 739.182692 439.250357 
L 741.418269 367.816794 
L 743.653846 309.227686 
L 745.889423 331.039389 
L 748.125 462.25892 
L 750.360577 271.478545 
L 752.596154 399.151435 
L 754.831731 429.315181 
L 757.067308 475.755772 
L 759.302885 354.502475 
L 761.538462 266.530545 
L 763.774038 354.681563 
L 766.009615 374.832053 
L 768.245192 320.618155 
L 770.480769 277.00046 
L 772.716346 354.681563 
L 774.951923 273.822713 
L 777.1875 405.354192 
L 779.423077 321.093733 
L 781.658654 386.232838 
L 783.894231 564.245063 
L 786.129808 437.180986 
L 788.365385 344.513757 
L 790.600962 396.831525 
L 792.836538 386.875333 
L 795.072115 491.673858 
L 797.307692 473.703572 
L 799.543269 387.861069 
L 801.778846 272.339247 
L 804.014423 305.495442 
L 806.25 399.151435 
L 808.485577 299.271359 
L 810.721154 456.482485 
L 812.956731 443.315429 
L 815.192308 440.299737 
L 817.427885 469.967424 
L 819.663462 396.831525 
L 821.899038 485.311904 
L 824.134615 506.298109 
L 826.370192 463.394363 
L 828.605769 271.478545 
L 830.841346 384.897795 
L 833.076923 234.407537 
L 835.3125 494.794179 
L 837.548077 399.151435 
L 839.783654 502.763212 
L 842.019231 332.319196 
L 844.254808 347.346139 
L 846.490385 241.3644 
L 848.725962 331.779517 
L 850.961538 385.26149 
L 853.197115 475.497408 
L 855.432692 260.769528 
L 857.668269 446.533999 
L 859.903846 450.279728 
L 862.139423 412.174315 
L 864.375 419.027473 
L 866.610577 472.438303 
L 868.846154 325.329798 
L 871.081731 306.753923 
L 873.317308 434.661617 
L 875.552885 489.264196 
L 877.788462 405.354192 
L 880.024038 403.702799 
L 882.259615 266.666626 
L 886.730769 437.353187 
L 888.966346 404.681418 
L 891.201923 488.958758 
L 893.4375 302.117604 
L 895.673077 399.897169 
L 897.908654 447.004689 
L 900.144231 390.663943 
L 902.379808 358.966604 
L 904.615385 461.991513 
L 906.850962 387.696995 
L 909.086538 399.151435 
L 911.322115 370.869528 
L 913.557692 524.128098 
L 915.793269 225.960833 
L 918.028846 354.502475 
L 920.264423 476.321151 
L 922.5 462.820655 
L 924.735577 433.890054 
L 926.971154 508.330888 
L 929.206731 498.45331 
L 931.442308 508.197221 
L 933.677885 319.453517 
L 935.913462 200.689133 
L 938.149038 420.240746 
L 940.384615 328.733949 
L 942.620192 499.099072 
L 944.855769 429.315181 
L 947.091346 424.309269 
L 949.326923 446.675177 
L 951.5625 347.47656 
L 953.798077 279.532304 
L 956.033654 374.832053 
L 958.269231 464.504795 
L 960.504808 496.732739 
L 962.740385 466.884147 
L 964.975962 414.322963 
L 967.211538 371.703804 
L 969.447115 482.991995 
L 971.682692 447.374993 
L 973.918269 420.584015 
L 976.153846 420.240746 
L 978.389423 453.186791 
L 980.625 438.644003 
L 982.860577 431.150429 
L 985.096154 472.438303 
L 987.331731 454.720727 
L 989.567308 447.374993 
L 991.802885 414.322963 
L 994.038462 514.981236 
L 996.274038 478.214963 
L 998.509615 455.803549 
L 1000.745192 324.624382 
L 1002.980769 473.963608 
L 1005.216346 399.891563 
L 1007.451923 251.411504 
L 1009.6875 440.299737 
L 1011.923077 401.38289 
L 1014.158654 232.35884 
L 1016.394231 385.26149 
L 1018.629808 455.275768 
L 1020.865385 536.607519 
L 1023.100962 231.877502 
L 1025.336538 255.063475 
L 1027.572115 463.764667 
L 1029.807692 521.800693 
L 1032.043269 525.487391 
L 1034.278846 390.663943 
L 1036.514423 498.45331 
L 1038.75 451.019592 
L 1040.985577 502.763212 
L 1043.221154 472.438303 
L 1045.456731 267.452774 
L 1047.692308 262.991053 
L 1049.927885 496.568817 
L 1052.163462 493.018778 
L 1054.399038 493.411832 
L 1056.634615 337.920302 
L 1058.870192 468.142554 
L 1061.105769 475.301812 
L 1063.341346 552.110194 
L 1065.576923 485.311904 
L 1067.8125 370.938092 
L 1070.048077 311.918035 
L 1072.283654 402.976621 
L 1074.519231 447.959819 
L 1076.754808 439.929433 
L 1078.990385 468.833753 
L 1081.225962 363.216313 
L 1083.461538 324.836632 
L 1085.697115 317.236566 
L 1087.932692 439.929433 
L 1090.168269 245.273316 
L 1092.403846 430.945415 
L 1094.639423 512.102084 
L 1096.875 521.800693 
L 1099.110577 461.444758 
L 1101.346154 404.681418 
L 1103.581731 370.05686 
L 1105.817308 383.672108 
L 1108.052885 415.144625 
L 1110.288462 404.590824 
L 1112.524038 350.148853 
L 1114.759615 275.80006 
L 1116.995192 450.279464 
L 1119.230769 502.151168 
L 1121.466346 498.941815 
L 1123.701923 491.038833 
L 1125.9375 426.995272 
L 1128.173077 447.912469 
L 1130.408654 454.720727 
L 1132.644231 473.459348 
L 1134.879808 410.43276 
L 1137.115385 424.498553 
L 1139.350962 318.774264 
L 1143.822115 506.176192 
L 1146.057692 478.617821 
L 1148.293269 463.764667 
L 1150.528846 374.832053 
L 1152.764423 248.077688 
L 1155 529.942885 
L 1157.235577 243.085466 
L 1159.471154 476.267964 
L 1161.706731 372.777916 
L 1163.942308 363.216313 
L 1166.177885 245.478317 
L 1168.413462 520.040024 
L 1170.649038 210.217772 
L 1172.884615 451.019856 
L 1175.120192 454.162576 
L 1177.355769 475.497408 
L 1179.591346 323.255776 
L 1181.826923 521.800693 
L 1184.0625 235.227879 
L 1186.298077 231.85862 
L 1188.533654 386.232838 
L 1190.769231 404.590824 
L 1193.004808 517.387463 
L 1195.240385 271.478545 
L 1197.475962 470.707552 
L 1199.711538 291.854599 
L 1201.947115 372.152284 
L 1204.182692 279.634533 
L 1206.418269 405.354192 
L 1208.653846 470.118394 
L 1210.889423 510.899048 
L 1213.125 278.894405 
L 1215.360577 553.524066 
L 1217.596154 502.96933 
L 1219.831731 351.456642 
L 1222.067308 493.925389 
L 1224.302885 394.606551 
L 1226.538462 364.05843 
L 1228.774038 523.88602 
L 1231.009615 285.020369 
L 1233.245192 469.204057 
L 1235.480769 386.91505 
L 1237.716346 388.878758 
L 1239.951923 450.279464 
L 1242.1875 461.444758 
L 1244.423077 414.12344 
L 1246.658654 378.986708 
L 1251.129808 447.959819 
L 1253.365385 448.789951 
L 1255.600962 292.432355 
L 1257.836538 323.413642 
L 1260.072115 529.942885 
L 1262.307692 265.943743 
L 1264.543269 432.481597 
L 1266.778846 443.315429 
L 1269.014423 410.884175 
L 1271.25 429.315181 
L 1273.485577 489.264196 
L 1275.721154 403.196875 
L 1277.956731 262.991053 
L 1280.192308 320.74305 
L 1282.427885 489.86544 
L 1284.663462 533.172038 
L 1286.899038 416.944465 
L 1289.134615 416.57037 
L 1291.370192 396.831525 
L 1293.605769 474.641086 
L 1295.841346 463.764667 
L 1298.076923 271.478545 
L 1300.3125 311.918035 
L 1302.548077 432.79676 
L 1304.783654 237.331244 
L 1307.019231 321.162988 
L 1309.254808 272.218673 
L 1311.490385 414.592021 
L 1313.725962 275.46984 
L 1315.961538 330.154365 
L 1318.197115 380.271442 
L 1320.432692 466.884147 
L 1322.668269 372.81294 
L 1324.903846 208.022579 
L 1327.139423 353.436621 
L 1329.375 218.5704 
L 1331.610577 439.867321 
L 1333.846154 496.732739 
L 1336.081731 337.948189 
L 1338.317308 399.151435 
L 1342.788462 324.624382 
L 1345.024038 231.268876 
L 1347.259615 463.394363 
L 1349.495192 284.280241 
L 1351.730769 456.083703 
L 1353.966346 437.353187 
L 1356.201923 469.294651 
L 1358.4375 420.240746 
L 1360.673077 353.408507 
L 1362.908654 468.173588 
L 1365.144231 463.949404 
L 1367.379808 411.870512 
L 1369.615385 340.121483 
L 1371.850962 374.832053 
L 1374.086538 533.142488 
L 1376.322115 417.433544 
L 1378.557692 484.429975 
L 1380.793269 495.134032 
L 1383.028846 431.150429 
L 1385.264423 311.528919 
L 1387.5 462.25892 
L 1389.735577 413.510333 
L 1391.971154 483.918863 
L 1394.206731 418.264105 
L 1396.442308 443.84491 
L 1398.677885 369.383895 
L 1400.913462 527.240082 
L 1403.149038 437.860363 
L 1405.384615 493.702931 
L 1407.620192 493.719272 
L 1409.855769 529.412115 
L 1412.091346 399.891563 
L 1414.326923 216.28014 
L 1416.5625 415.884753 
L 1418.798077 432.79676 
L 1421.033654 407.251363 
L 1425.504808 489.264196 
L 1427.740385 497.061943 
L 1429.975962 214.084947 
L 1432.211538 448.487401 
L 1434.447115 469.967424 
L 1436.682692 231.268876 
L 1441.153846 500.443303 
L 1443.389423 368.71797 
L 1445.625 287.014868 
L 1447.860577 469.294651 
L 1450.096154 461.444758 
L 1452.331731 399.151435 
L 1454.567308 390.663943 
L 1456.802885 371.703804 
L 1459.038462 404.590824 
L 1461.274038 506.298109 
L 1463.509615 336.47061 
L 1465.745192 412.824716 
L 1467.980769 318.774264 
L 1470.216346 399.151435 
L 1472.451923 529.698181 
L 1474.6875 318.828283 
L 1476.923077 286.751487 
L 1479.158654 337.156178 
L 1481.394231 399.151435 
L 1483.629808 480.080476 
L 1485.865385 517.211611 
L 1488.100962 373.101133 
L 1490.336538 488.893892 
L 1492.572115 440.299737 
L 1494.807692 364.907249 
L 1497.043269 242.935318 
L 1499.278846 448.973373 
L 1501.514423 279.967056 
L 1503.75 319.127041 
L 1505.985577 371.703804 
L 1508.221154 480.445681 
L 1510.456731 439.094037 
L 1512.692308 420.674608 
L 1514.927885 276.152787 
L 1517.163462 300.621616 
L 1519.399038 405.354192 
L 1521.634615 502.805265 
L 1523.870192 420.240746 
L 1526.105769 489.604049 
L 1528.341346 447.959819 
L 1530.576923 248.077688 
L 1532.8125 354.176749 
L 1535.048077 447.959819 
L 1537.283654 366.39806 
L 1539.519231 532.585901 
L 1541.754808 472.438303 
L 1543.990385 305.998936 
L 1546.225962 476.321151 
L 1548.461538 225.811745 
L 1550.697115 460.298976 
L 1552.932692 363.216313 
L 1555.168269 382.93198 
L 1557.403846 517.241161 
L 1559.639423 223.630709 
L 1561.875 437.979828 
L 1564.110577 494.155257 
L 1566.346154 428.625505 
L 1568.581731 447.374993 
L 1570.817308 440.299737 
L 1573.052885 533.142488 
L 1575.288462 399.151435 
L 1577.524038 305.998936 
L 1579.759615 498.319482 
L 1581.995192 363.216313 
L 1584.230769 402.270915 
L 1588.701923 511.366644 
L 1590.9375 463.764667 
L 1593.173077 468.142554 
L 1595.408654 214.825075 
L 1597.644231 529.01935 
L 1599.879808 272.218673 
L 1602.115385 470.118394 
L 1604.350962 447.959819 
L 1606.586538 342.26991 
L 1608.822115 537.585268 
L 1611.057692 496.281277 
L 1613.293269 314.532782 
L 1615.528846 434.26991 
L 1617.764423 371.703804 
L 1620 283.290136 
L 1620 283.290136 
" style="fill:none;stroke:#ff7f0e;stroke-linecap:square;stroke-width:1.5;"/>
   </g>
   <g id="patch_3">
    <path d="M 225 630 
L 225 86.4 
" style="fill:none;stroke:#000000;stroke-linecap:square;stroke-linejoin:miter;stroke-width:0.8;"/>
   </g>
   <g id="patch_4">
    <path d="M 1620 630 
L 1620 86.4 
" style="fill:none;stroke:#000000;stroke-linecap:square;stroke-linejoin:miter;stroke-width:0.8;"/>
   </g>
   <g id="patch_5">
    <path d="M 225 630 
L 1620 630 
" style="fill:none;stroke:#000000;stroke-linecap:square;stroke-linejoin:miter;stroke-width:0.8;"/>
   </g>
   <g id="patch_6">
    <path d="M 225 86.4 
L 1620 86.4 
" style="fill:none;stroke:#000000;stroke-linecap:square;stroke-linejoin:miter;stroke-width:0.8;"/>
   </g>
   <g id="legend_1">
    <g id="patch_7">
     <path d="M 1515.775 124.034375 
L 1613 124.034375 
Q 1615 124.034375 1615 122.034375 
L 1615 93.4 
Q 1615 91.4 1613 91.4 
L 1515.775 91.4 
Q 1513.775 91.4 1513.775 93.4 
L 1513.775 122.034375 
Q 1513.775 124.034375 1515.775 124.034375 
z
" style="fill:#ffffff;opacity:0.8;stroke:#cccccc;stroke-linejoin:miter;"/>
    </g>
    <g id="line2d_15">
     <path d="M 1517.775 99.498437 
L 1537.775 99.498437 
" style="fill:none;stroke:#1f77b4;stroke-linecap:square;stroke-width:1.5;"/>
    </g>
    <g id="line2d_16"/>
    <g id="text_13">
     <!-- ground_truth -->
     <defs>
      <path d="M 45.40625 27.984375 
Q 45.40625 37.75 41.375 43.109375 
Q 37.359375 48.484375 30.078125 48.484375 
Q 22.859375 48.484375 18.828125 43.109375 
Q 14.796875 37.75 14.796875 27.984375 
Q 14.796875 18.265625 18.828125 12.890625 
Q 22.859375 7.515625 30.078125 7.515625 
Q 37.359375 7.515625 41.375 12.890625 
Q 45.40625 18.265625 45.40625 27.984375 
z
M 54.390625 6.78125 
Q 54.390625 -7.171875 48.1875 -13.984375 
Q 42 -20.796875 29.203125 -20.796875 
Q 24.46875 -20.796875 20.265625 -20.09375 
Q 16.0625 -19.390625 12.109375 -17.921875 
L 12.109375 -9.1875 
Q 16.0625 -11.328125 19.921875 -12.34375 
Q 23.78125 -13.375 27.78125 -13.375 
Q 36.625 -13.375 41.015625 -8.765625 
Q 45.40625 -4.15625 45.40625 5.171875 
L 45.40625 9.625 
Q 42.625 4.78125 38.28125 2.390625 
Q 33.9375 0 27.875 0 
Q 17.828125 0 11.671875 7.65625 
Q 5.515625 15.328125 5.515625 27.984375 
Q 5.515625 40.671875 11.671875 48.328125 
Q 17.828125 56 27.875 56 
Q 33.9375 56 38.28125 53.609375 
Q 42.625 51.21875 45.40625 46.390625 
L 45.40625 54.6875 
L 54.390625 54.6875 
z
" id="DejaVuSans-103"/>
      <path d="M 41.109375 46.296875 
Q 39.59375 47.171875 37.8125 47.578125 
Q 36.03125 48 33.890625 48 
Q 26.265625 48 22.1875 43.046875 
Q 18.109375 38.09375 18.109375 28.8125 
L 18.109375 0 
L 9.078125 0 
L 9.078125 54.6875 
L 18.109375 54.6875 
L 18.109375 46.1875 
Q 20.953125 51.171875 25.484375 53.578125 
Q 30.03125 56 36.53125 56 
Q 37.453125 56 38.578125 55.875 
Q 39.703125 55.765625 41.0625 55.515625 
z
" id="DejaVuSans-114"/>
      <path d="M 30.609375 48.390625 
Q 23.390625 48.390625 19.1875 42.75 
Q 14.984375 37.109375 14.984375 27.296875 
Q 14.984375 17.484375 19.15625 11.84375 
Q 23.34375 6.203125 30.609375 6.203125 
Q 37.796875 6.203125 41.984375 11.859375 
Q 46.1875 17.53125 46.1875 27.296875 
Q 46.1875 37.015625 41.984375 42.703125 
Q 37.796875 48.390625 30.609375 48.390625 
z
M 30.609375 56 
Q 42.328125 56 49.015625 48.375 
Q 55.71875 40.765625 55.71875 27.296875 
Q 55.71875 13.875 49.015625 6.21875 
Q 42.328125 -1.421875 30.609375 -1.421875 
Q 18.84375 -1.421875 12.171875 6.21875 
Q 5.515625 13.875 5.515625 27.296875 
Q 5.515625 40.765625 12.171875 48.375 
Q 18.84375 56 30.609375 56 
z
" id="DejaVuSans-111"/>
      <path d="M 8.5 21.578125 
L 8.5 54.6875 
L 17.484375 54.6875 
L 17.484375 21.921875 
Q 17.484375 14.15625 20.5 10.265625 
Q 23.53125 6.390625 29.59375 6.390625 
Q 36.859375 6.390625 41.078125 11.03125 
Q 45.3125 15.671875 45.3125 23.6875 
L 45.3125 54.6875 
L 54.296875 54.6875 
L 54.296875 0 
L 45.3125 0 
L 45.3125 8.40625 
Q 42.046875 3.421875 37.71875 1 
Q 33.40625 -1.421875 27.6875 -1.421875 
Q 18.265625 -1.421875 13.375 4.4375 
Q 8.5 10.296875 8.5 21.578125 
z
M 31.109375 56 
z
" id="DejaVuSans-117"/>
      <path d="M 54.890625 33.015625 
L 54.890625 0 
L 45.90625 0 
L 45.90625 32.71875 
Q 45.90625 40.484375 42.875 44.328125 
Q 39.84375 48.1875 33.796875 48.1875 
Q 26.515625 48.1875 22.3125 43.546875 
Q 18.109375 38.921875 18.109375 30.90625 
L 18.109375 0 
L 9.078125 0 
L 9.078125 54.6875 
L 18.109375 54.6875 
L 18.109375 46.1875 
Q 21.34375 51.125 25.703125 53.5625 
Q 30.078125 56 35.796875 56 
Q 45.21875 56 50.046875 50.171875 
Q 54.890625 44.34375 54.890625 33.015625 
z
" id="DejaVuSans-110"/>
      <path d="M 45.40625 46.390625 
L 45.40625 75.984375 
L 54.390625 75.984375 
L 54.390625 0 
L 45.40625 0 
L 45.40625 8.203125 
Q 42.578125 3.328125 38.25 0.953125 
Q 33.9375 -1.421875 27.875 -1.421875 
Q 17.96875 -1.421875 11.734375 6.484375 
Q 5.515625 14.40625 5.515625 27.296875 
Q 5.515625 40.1875 11.734375 48.09375 
Q 17.96875 56 27.875 56 
Q 33.9375 56 38.25 53.625 
Q 42.578125 51.265625 45.40625 46.390625 
z
M 14.796875 27.296875 
Q 14.796875 17.390625 18.875 11.75 
Q 22.953125 6.109375 30.078125 6.109375 
Q 37.203125 6.109375 41.296875 11.75 
Q 45.40625 17.390625 45.40625 27.296875 
Q 45.40625 37.203125 41.296875 42.84375 
Q 37.203125 48.484375 30.078125 48.484375 
Q 22.953125 48.484375 18.875 42.84375 
Q 14.796875 37.203125 14.796875 27.296875 
z
" id="DejaVuSans-100"/>
      <path d="M 50.984375 -16.609375 
L 50.984375 -23.578125 
L -0.984375 -23.578125 
L -0.984375 -16.609375 
z
" id="DejaVuSans-95"/>
      <path d="M 18.3125 70.21875 
L 18.3125 54.6875 
L 36.8125 54.6875 
L 36.8125 47.703125 
L 18.3125 47.703125 
L 18.3125 18.015625 
Q 18.3125 11.328125 20.140625 9.421875 
Q 21.96875 7.515625 27.59375 7.515625 
L 36.8125 7.515625 
L 36.8125 0 
L 27.59375 0 
Q 17.1875 0 13.234375 3.875 
Q 9.28125 7.765625 9.28125 18.015625 
L 9.28125 47.703125 
L 2.6875 47.703125 
L 2.6875 54.6875 
L 9.28125 54.6875 
L 9.28125 70.21875 
z
" id="DejaVuSans-116"/>
      <path d="M 54.890625 33.015625 
L 54.890625 0 
L 45.90625 0 
L 45.90625 32.71875 
Q 45.90625 40.484375 42.875 44.328125 
Q 39.84375 48.1875 33.796875 48.1875 
Q 26.515625 48.1875 22.3125 43.546875 
Q 18.109375 38.921875 18.109375 30.90625 
L 18.109375 0 
L 9.078125 0 
L 9.078125 75.984375 
L 18.109375 75.984375 
L 18.109375 46.1875 
Q 21.34375 51.125 25.703125 53.5625 
Q 30.078125 56 35.796875 56 
Q 45.21875 56 50.046875 50.171875 
Q 54.890625 44.34375 54.890625 33.015625 
z
" id="DejaVuSans-104"/>
     </defs>
     <g transform="translate(1545.775 102.998437)scale(0.1 -0.1)">
      <use xlink:href="#DejaVuSans-103"/>
      <use x="63.476562" xlink:href="#DejaVuSans-114"/>
      <use x="104.558594" xlink:href="#DejaVuSans-111"/>
      <use x="165.740234" xlink:href="#DejaVuSans-117"/>
      <use x="229.119141" xlink:href="#DejaVuSans-110"/>
      <use x="292.498047" xlink:href="#DejaVuSans-100"/>
      <use x="355.974609" xlink:href="#DejaVuSans-95"/>
      <use x="405.974609" xlink:href="#DejaVuSans-116"/>
      <use x="445.183594" xlink:href="#DejaVuSans-114"/>
      <use x="486.296875" xlink:href="#DejaVuSans-117"/>
      <use x="549.675781" xlink:href="#DejaVuSans-116"/>
      <use x="588.884766" xlink:href="#DejaVuSans-104"/>
     </g>
    </g>
    <g id="line2d_17">
     <path d="M 1517.775 114.454687 
L 1537.775 114.454687 
" style="fill:none;stroke:#ff7f0e;stroke-linecap:square;stroke-width:1.5;"/>
    </g>
    <g id="line2d_18"/>
    <g id="text_14">
     <!-- predictions -->
     <defs>
      <path d="M 18.109375 8.203125 
L 18.109375 -20.796875 
L 9.078125 -20.796875 
L 9.078125 54.6875 
L 18.109375 54.6875 
L 18.109375 46.390625 
Q 20.953125 51.265625 25.265625 53.625 
Q 29.59375 56 35.59375 56 
Q 45.5625 56 51.78125 48.09375 
Q 58.015625 40.1875 58.015625 27.296875 
Q 58.015625 14.40625 51.78125 6.484375 
Q 45.5625 -1.421875 35.59375 -1.421875 
Q 29.59375 -1.421875 25.265625 0.953125 
Q 20.953125 3.328125 18.109375 8.203125 
z
M 48.6875 27.296875 
Q 48.6875 37.203125 44.609375 42.84375 
Q 40.53125 48.484375 33.40625 48.484375 
Q 26.265625 48.484375 22.1875 42.84375 
Q 18.109375 37.203125 18.109375 27.296875 
Q 18.109375 17.390625 22.1875 11.75 
Q 26.265625 6.109375 33.40625 6.109375 
Q 40.53125 6.109375 44.609375 11.75 
Q 48.6875 17.390625 48.6875 27.296875 
z
" id="DejaVuSans-112"/>
      <path d="M 56.203125 29.59375 
L 56.203125 25.203125 
L 14.890625 25.203125 
Q 15.484375 15.921875 20.484375 11.0625 
Q 25.484375 6.203125 34.421875 6.203125 
Q 39.59375 6.203125 44.453125 7.46875 
Q 49.3125 8.734375 54.109375 11.28125 
L 54.109375 2.78125 
Q 49.265625 0.734375 44.1875 -0.34375 
Q 39.109375 -1.421875 33.890625 -1.421875 
Q 20.796875 -1.421875 13.15625 6.1875 
Q 5.515625 13.8125 5.515625 26.8125 
Q 5.515625 40.234375 12.765625 48.109375 
Q 20.015625 56 32.328125 56 
Q 43.359375 56 49.78125 48.890625 
Q 56.203125 41.796875 56.203125 29.59375 
z
M 47.21875 32.234375 
Q 47.125 39.59375 43.09375 43.984375 
Q 39.0625 48.390625 32.421875 48.390625 
Q 24.90625 48.390625 20.390625 44.140625 
Q 15.875 39.890625 15.1875 32.171875 
z
" id="DejaVuSans-101"/>
      <path d="M 9.421875 54.6875 
L 18.40625 54.6875 
L 18.40625 0 
L 9.421875 0 
z
M 9.421875 75.984375 
L 18.40625 75.984375 
L 18.40625 64.59375 
L 9.421875 64.59375 
z
" id="DejaVuSans-105"/>
      <path d="M 48.78125 52.59375 
L 48.78125 44.1875 
Q 44.96875 46.296875 41.140625 47.34375 
Q 37.3125 48.390625 33.40625 48.390625 
Q 24.65625 48.390625 19.8125 42.84375 
Q 14.984375 37.3125 14.984375 27.296875 
Q 14.984375 17.28125 19.8125 11.734375 
Q 24.65625 6.203125 33.40625 6.203125 
Q 37.3125 6.203125 41.140625 7.25 
Q 44.96875 8.296875 48.78125 10.40625 
L 48.78125 2.09375 
Q 45.015625 0.34375 40.984375 -0.53125 
Q 36.96875 -1.421875 32.421875 -1.421875 
Q 20.0625 -1.421875 12.78125 6.34375 
Q 5.515625 14.109375 5.515625 27.296875 
Q 5.515625 40.671875 12.859375 48.328125 
Q 20.21875 56 33.015625 56 
Q 37.15625 56 41.109375 55.140625 
Q 45.0625 54.296875 48.78125 52.59375 
z
" id="DejaVuSans-99"/>
      <path d="M 44.28125 53.078125 
L 44.28125 44.578125 
Q 40.484375 46.53125 36.375 47.5 
Q 32.28125 48.484375 27.875 48.484375 
Q 21.1875 48.484375 17.84375 46.4375 
Q 14.5 44.390625 14.5 40.28125 
Q 14.5 37.15625 16.890625 35.375 
Q 19.28125 33.59375 26.515625 31.984375 
L 29.59375 31.296875 
Q 39.15625 29.25 43.1875 25.515625 
Q 47.21875 21.78125 47.21875 15.09375 
Q 47.21875 7.46875 41.1875 3.015625 
Q 35.15625 -1.421875 24.609375 -1.421875 
Q 20.21875 -1.421875 15.453125 -0.5625 
Q 10.6875 0.296875 5.421875 2 
L 5.421875 11.28125 
Q 10.40625 8.6875 15.234375 7.390625 
Q 20.0625 6.109375 24.8125 6.109375 
Q 31.15625 6.109375 34.5625 8.28125 
Q 37.984375 10.453125 37.984375 14.40625 
Q 37.984375 18.0625 35.515625 20.015625 
Q 33.0625 21.96875 24.703125 23.78125 
L 21.578125 24.515625 
Q 13.234375 26.265625 9.515625 29.90625 
Q 5.8125 33.546875 5.8125 39.890625 
Q 5.8125 47.609375 11.28125 51.796875 
Q 16.75 56 26.8125 56 
Q 31.78125 56 36.171875 55.265625 
Q 40.578125 54.546875 44.28125 53.078125 
z
" id="DejaVuSans-115"/>
     </defs>
     <g transform="translate(1545.775 117.954687)scale(0.1 -0.1)">
      <use xlink:href="#DejaVuSans-112"/>
      <use x="63.476562" xlink:href="#DejaVuSans-114"/>
      <use x="104.558594" xlink:href="#DejaVuSans-101"/>
      <use x="166.082031" xlink:href="#DejaVuSans-100"/>
      <use x="229.558594" xlink:href="#DejaVuSans-105"/>
      <use x="257.341797" xlink:href="#DejaVuSans-99"/>
      <use x="312.322266" xlink:href="#DejaVuSans-116"/>
      <use x="351.53125" xlink:href="#DejaVuSans-105"/>
      <use x="379.314453" xlink:href="#DejaVuSans-111"/>
      <use x="440.496094" xlink:href="#DejaVuSans-110"/>
      <use x="503.875" xlink:href="#DejaVuSans-115"/>
     </g>
    </g>
   </g>
  </g>
 </g>
 <defs>
  <clipPath id="pb003a776ae">
   <rect height="543.6" width="1395" x="225" y="86.4"/>
  </clipPath>
 </defs>
</svg>
