<?xml version="1.0" encoding="utf-8" standalone="no"?>
<!DOCTYPE svg PUBLIC "-//W3C//DTD SVG 1.1//EN"
  "http://www.w3.org/Graphics/SVG/1.1/DTD/svg11.dtd">
<!-- Created with matplotlib (https://matplotlib.org/) -->
<svg height="720pt" version="1.1" viewBox="0 0 1800 720" width="1800pt" xmlns="http://www.w3.org/2000/svg" xmlns:xlink="http://www.w3.org/1999/xlink">
 <defs>
  <style type="text/css">
*{stroke-linecap:butt;stroke-linejoin:round;}
  </style>
 </defs>
 <g id="figure_1">
  <g id="patch_1">
   <path d="M 0 720 
L 1800 720 
L 1800 0 
L 0 0 
z
" style="fill:#ffffff;"/>
  </g>
  <g id="axes_1">
   <g id="patch_2">
    <path d="M 225 630 
L 1620 630 
L 1620 86.4 
L 225 86.4 
z
" style="fill:#ffffff;"/>
   </g>
   <g id="matplotlib.axis_1">
    <g id="xtick_1">
     <g id="line2d_1">
      <defs>
       <path d="M 0 0 
L 0 3.5 
" id="mb1d2715af2" style="stroke:#000000;stroke-width:0.8;"/>
      </defs>
      <g>
       <use style="stroke:#000000;stroke-width:0.8;" x="225" xlink:href="#mb1d2715af2" y="630"/>
      </g>
     </g>
     <g id="text_1">
      <!-- 0 -->
      <defs>
       <path d="M 31.78125 66.40625 
Q 24.171875 66.40625 20.328125 58.90625 
Q 16.5 51.421875 16.5 36.375 
Q 16.5 21.390625 20.328125 13.890625 
Q 24.171875 6.390625 31.78125 6.390625 
Q 39.453125 6.390625 43.28125 13.890625 
Q 47.125 21.390625 47.125 36.375 
Q 47.125 51.421875 43.28125 58.90625 
Q 39.453125 66.40625 31.78125 66.40625 
z
M 31.78125 74.21875 
Q 44.046875 74.21875 50.515625 64.515625 
Q 56.984375 54.828125 56.984375 36.375 
Q 56.984375 17.96875 50.515625 8.265625 
Q 44.046875 -1.421875 31.78125 -1.421875 
Q 19.53125 -1.421875 13.0625 8.265625 
Q 6.59375 17.96875 6.59375 36.375 
Q 6.59375 54.828125 13.0625 64.515625 
Q 19.53125 74.21875 31.78125 74.21875 
z
" id="DejaVuSans-48"/>
      </defs>
      <g transform="translate(221.81875 644.598438)scale(0.1 -0.1)">
       <use xlink:href="#DejaVuSans-48"/>
      </g>
     </g>
    </g>
    <g id="xtick_2">
     <g id="line2d_2">
      <g>
       <use style="stroke:#000000;stroke-width:0.8;" x="386.458333" xlink:href="#mb1d2715af2" y="630"/>
      </g>
     </g>
     <g id="text_2">
      <!-- 25 -->
      <defs>
       <path d="M 19.1875 8.296875 
L 53.609375 8.296875 
L 53.609375 0 
L 7.328125 0 
L 7.328125 8.296875 
Q 12.9375 14.109375 22.625 23.890625 
Q 32.328125 33.6875 34.8125 36.53125 
Q 39.546875 41.84375 41.421875 45.53125 
Q 43.3125 49.21875 43.3125 52.78125 
Q 43.3125 58.59375 39.234375 62.25 
Q 35.15625 65.921875 28.609375 65.921875 
Q 23.96875 65.921875 18.8125 64.3125 
Q 13.671875 62.703125 7.8125 59.421875 
L 7.8125 69.390625 
Q 13.765625 71.78125 18.9375 73 
Q 24.125 74.21875 28.421875 74.21875 
Q 39.75 74.21875 46.484375 68.546875 
Q 53.21875 62.890625 53.21875 53.421875 
Q 53.21875 48.921875 51.53125 44.890625 
Q 49.859375 40.875 45.40625 35.40625 
Q 44.1875 33.984375 37.640625 27.21875 
Q 31.109375 20.453125 19.1875 8.296875 
z
" id="DejaVuSans-50"/>
       <path d="M 10.796875 72.90625 
L 49.515625 72.90625 
L 49.515625 64.59375 
L 19.828125 64.59375 
L 19.828125 46.734375 
Q 21.96875 47.46875 24.109375 47.828125 
Q 26.265625 48.1875 28.421875 48.1875 
Q 40.625 48.1875 47.75 41.5 
Q 54.890625 34.8125 54.890625 23.390625 
Q 54.890625 11.625 47.5625 5.09375 
Q 40.234375 -1.421875 26.90625 -1.421875 
Q 22.3125 -1.421875 17.546875 -0.640625 
Q 12.796875 0.140625 7.71875 1.703125 
L 7.71875 11.625 
Q 12.109375 9.234375 16.796875 8.0625 
Q 21.484375 6.890625 26.703125 6.890625 
Q 35.15625 6.890625 40.078125 11.328125 
Q 45.015625 15.765625 45.015625 23.390625 
Q 45.015625 31 40.078125 35.4375 
Q 35.15625 39.890625 26.703125 39.890625 
Q 22.75 39.890625 18.8125 39.015625 
Q 14.890625 38.140625 10.796875 36.28125 
z
" id="DejaVuSans-53"/>
      </defs>
      <g transform="translate(380.095833 644.598438)scale(0.1 -0.1)">
       <use xlink:href="#DejaVuSans-50"/>
       <use x="63.623047" xlink:href="#DejaVuSans-53"/>
      </g>
     </g>
    </g>
    <g id="xtick_3">
     <g id="line2d_3">
      <g>
       <use style="stroke:#000000;stroke-width:0.8;" x="547.916667" xlink:href="#mb1d2715af2" y="630"/>
      </g>
     </g>
     <g id="text_3">
      <!-- 50 -->
      <g transform="translate(541.554167 644.598438)scale(0.1 -0.1)">
       <use xlink:href="#DejaVuSans-53"/>
       <use x="63.623047" xlink:href="#DejaVuSans-48"/>
      </g>
     </g>
    </g>
    <g id="xtick_4">
     <g id="line2d_4">
      <g>
       <use style="stroke:#000000;stroke-width:0.8;" x="709.375" xlink:href="#mb1d2715af2" y="630"/>
      </g>
     </g>
     <g id="text_4">
      <!-- 75 -->
      <defs>
       <path d="M 8.203125 72.90625 
L 55.078125 72.90625 
L 55.078125 68.703125 
L 28.609375 0 
L 18.3125 0 
L 43.21875 64.59375 
L 8.203125 64.59375 
z
" id="DejaVuSans-55"/>
      </defs>
      <g transform="translate(703.0125 644.598438)scale(0.1 -0.1)">
       <use xlink:href="#DejaVuSans-55"/>
       <use x="63.623047" xlink:href="#DejaVuSans-53"/>
      </g>
     </g>
    </g>
    <g id="xtick_5">
     <g id="line2d_5">
      <g>
       <use style="stroke:#000000;stroke-width:0.8;" x="870.833333" xlink:href="#mb1d2715af2" y="630"/>
      </g>
     </g>
     <g id="text_5">
      <!-- 100 -->
      <defs>
       <path d="M 12.40625 8.296875 
L 28.515625 8.296875 
L 28.515625 63.921875 
L 10.984375 60.40625 
L 10.984375 69.390625 
L 28.421875 72.90625 
L 38.28125 72.90625 
L 38.28125 8.296875 
L 54.390625 8.296875 
L 54.390625 0 
L 12.40625 0 
z
" id="DejaVuSans-49"/>
      </defs>
      <g transform="translate(861.289583 644.598438)scale(0.1 -0.1)">
       <use xlink:href="#DejaVuSans-49"/>
       <use x="63.623047" xlink:href="#DejaVuSans-48"/>
       <use x="127.246094" xlink:href="#DejaVuSans-48"/>
      </g>
     </g>
    </g>
    <g id="xtick_6">
     <g id="line2d_6">
      <g>
       <use style="stroke:#000000;stroke-width:0.8;" x="1032.291667" xlink:href="#mb1d2715af2" y="630"/>
      </g>
     </g>
     <g id="text_6">
      <!-- 125 -->
      <g transform="translate(1022.747917 644.598438)scale(0.1 -0.1)">
       <use xlink:href="#DejaVuSans-49"/>
       <use x="63.623047" xlink:href="#DejaVuSans-50"/>
       <use x="127.246094" xlink:href="#DejaVuSans-53"/>
      </g>
     </g>
    </g>
    <g id="xtick_7">
     <g id="line2d_7">
      <g>
       <use style="stroke:#000000;stroke-width:0.8;" x="1193.75" xlink:href="#mb1d2715af2" y="630"/>
      </g>
     </g>
     <g id="text_7">
      <!-- 150 -->
      <g transform="translate(1184.20625 644.598438)scale(0.1 -0.1)">
       <use xlink:href="#DejaVuSans-49"/>
       <use x="63.623047" xlink:href="#DejaVuSans-53"/>
       <use x="127.246094" xlink:href="#DejaVuSans-48"/>
      </g>
     </g>
    </g>
    <g id="xtick_8">
     <g id="line2d_8">
      <g>
       <use style="stroke:#000000;stroke-width:0.8;" x="1355.208333" xlink:href="#mb1d2715af2" y="630"/>
      </g>
     </g>
     <g id="text_8">
      <!-- 175 -->
      <g transform="translate(1345.664583 644.598438)scale(0.1 -0.1)">
       <use xlink:href="#DejaVuSans-49"/>
       <use x="63.623047" xlink:href="#DejaVuSans-55"/>
       <use x="127.246094" xlink:href="#DejaVuSans-53"/>
      </g>
     </g>
    </g>
    <g id="xtick_9">
     <g id="line2d_9">
      <g>
       <use style="stroke:#000000;stroke-width:0.8;" x="1516.666667" xlink:href="#mb1d2715af2" y="630"/>
      </g>
     </g>
     <g id="text_9">
      <!-- 200 -->
      <g transform="translate(1507.122917 644.598438)scale(0.1 -0.1)">
       <use xlink:href="#DejaVuSans-50"/>
       <use x="63.623047" xlink:href="#DejaVuSans-48"/>
       <use x="127.246094" xlink:href="#DejaVuSans-48"/>
      </g>
     </g>
    </g>
   </g>
   <g id="matplotlib.axis_2">
    <g id="ytick_1">
     <g id="line2d_10">
      <defs>
       <path d="M 0 0 
L -3.5 0 
" id="m0866b4fc99" style="stroke:#000000;stroke-width:0.8;"/>
      </defs>
      <g>
       <use style="stroke:#000000;stroke-width:0.8;" x="225" xlink:href="#m0866b4fc99" y="518.082353"/>
      </g>
     </g>
     <g id="text_10">
      <!-- 400 -->
      <defs>
       <path d="M 37.796875 64.3125 
L 12.890625 25.390625 
L 37.796875 25.390625 
z
M 35.203125 72.90625 
L 47.609375 72.90625 
L 47.609375 25.390625 
L 58.015625 25.390625 
L 58.015625 17.1875 
L 47.609375 17.1875 
L 47.609375 0 
L 37.796875 0 
L 37.796875 17.1875 
L 4.890625 17.1875 
L 4.890625 26.703125 
z
" id="DejaVuSans-52"/>
      </defs>
      <g transform="translate(198.9125 521.881572)scale(0.1 -0.1)">
       <use xlink:href="#DejaVuSans-52"/>
       <use x="63.623047" xlink:href="#DejaVuSans-48"/>
       <use x="127.246094" xlink:href="#DejaVuSans-48"/>
      </g>
     </g>
    </g>
    <g id="ytick_2">
     <g id="line2d_11">
      <g>
       <use style="stroke:#000000;stroke-width:0.8;" x="225" xlink:href="#m0866b4fc99" y="401.804278"/>
      </g>
     </g>
     <g id="text_11">
      <!-- 600 -->
      <defs>
       <path d="M 33.015625 40.375 
Q 26.375 40.375 22.484375 35.828125 
Q 18.609375 31.296875 18.609375 23.390625 
Q 18.609375 15.53125 22.484375 10.953125 
Q 26.375 6.390625 33.015625 6.390625 
Q 39.65625 6.390625 43.53125 10.953125 
Q 47.40625 15.53125 47.40625 23.390625 
Q 47.40625 31.296875 43.53125 35.828125 
Q 39.65625 40.375 33.015625 40.375 
z
M 52.59375 71.296875 
L 52.59375 62.3125 
Q 48.875 64.0625 45.09375 64.984375 
Q 41.3125 65.921875 37.59375 65.921875 
Q 27.828125 65.921875 22.671875 59.328125 
Q 17.53125 52.734375 16.796875 39.40625 
Q 19.671875 43.65625 24.015625 45.921875 
Q 28.375 48.1875 33.59375 48.1875 
Q 44.578125 48.1875 50.953125 41.515625 
Q 57.328125 34.859375 57.328125 23.390625 
Q 57.328125 12.15625 50.6875 5.359375 
Q 44.046875 -1.421875 33.015625 -1.421875 
Q 20.359375 -1.421875 13.671875 8.265625 
Q 6.984375 17.96875 6.984375 36.375 
Q 6.984375 53.65625 15.1875 63.9375 
Q 23.390625 74.21875 37.203125 74.21875 
Q 40.921875 74.21875 44.703125 73.484375 
Q 48.484375 72.75 52.59375 71.296875 
z
" id="DejaVuSans-54"/>
      </defs>
      <g transform="translate(198.9125 405.603497)scale(0.1 -0.1)">
       <use xlink:href="#DejaVuSans-54"/>
       <use x="63.623047" xlink:href="#DejaVuSans-48"/>
       <use x="127.246094" xlink:href="#DejaVuSans-48"/>
      </g>
     </g>
    </g>
    <g id="ytick_3">
     <g id="line2d_12">
      <g>
       <use style="stroke:#000000;stroke-width:0.8;" x="225" xlink:href="#m0866b4fc99" y="285.526203"/>
      </g>
     </g>
     <g id="text_12">
      <!-- 800 -->
      <defs>
       <path d="M 31.78125 34.625 
Q 24.75 34.625 20.71875 30.859375 
Q 16.703125 27.09375 16.703125 20.515625 
Q 16.703125 13.921875 20.71875 10.15625 
Q 24.75 6.390625 31.78125 6.390625 
Q 38.8125 6.390625 42.859375 10.171875 
Q 46.921875 13.96875 46.921875 20.515625 
Q 46.921875 27.09375 42.890625 30.859375 
Q 38.875 34.625 31.78125 34.625 
z
M 21.921875 38.8125 
Q 15.578125 40.375 12.03125 44.71875 
Q 8.5 49.078125 8.5 55.328125 
Q 8.5 64.0625 14.71875 69.140625 
Q 20.953125 74.21875 31.78125 74.21875 
Q 42.671875 74.21875 48.875 69.140625 
Q 55.078125 64.0625 55.078125 55.328125 
Q 55.078125 49.078125 51.53125 44.71875 
Q 48 40.375 41.703125 38.8125 
Q 48.828125 37.15625 52.796875 32.3125 
Q 56.78125 27.484375 56.78125 20.515625 
Q 56.78125 9.90625 50.3125 4.234375 
Q 43.84375 -1.421875 31.78125 -1.421875 
Q 19.734375 -1.421875 13.25 4.234375 
Q 6.78125 9.90625 6.78125 20.515625 
Q 6.78125 27.484375 10.78125 32.3125 
Q 14.796875 37.15625 21.921875 38.8125 
z
M 18.3125 54.390625 
Q 18.3125 48.734375 21.84375 45.5625 
Q 25.390625 42.390625 31.78125 42.390625 
Q 38.140625 42.390625 41.71875 45.5625 
Q 45.3125 48.734375 45.3125 54.390625 
Q 45.3125 60.0625 41.71875 63.234375 
Q 38.140625 66.40625 31.78125 66.40625 
Q 25.390625 66.40625 21.84375 63.234375 
Q 18.3125 60.0625 18.3125 54.390625 
z
" id="DejaVuSans-56"/>
      </defs>
      <g transform="translate(198.9125 289.325422)scale(0.1 -0.1)">
       <use xlink:href="#DejaVuSans-56"/>
       <use x="63.623047" xlink:href="#DejaVuSans-48"/>
       <use x="127.246094" xlink:href="#DejaVuSans-48"/>
      </g>
     </g>
    </g>
    <g id="ytick_4">
     <g id="line2d_13">
      <g>
       <use style="stroke:#000000;stroke-width:0.8;" x="225" xlink:href="#m0866b4fc99" y="169.248128"/>
      </g>
     </g>
     <g id="text_13">
      <!-- 1000 -->
      <g transform="translate(192.55 173.047347)scale(0.1 -0.1)">
       <use xlink:href="#DejaVuSans-49"/>
       <use x="63.623047" xlink:href="#DejaVuSans-48"/>
       <use x="127.246094" xlink:href="#DejaVuSans-48"/>
       <use x="190.869141" xlink:href="#DejaVuSans-48"/>
      </g>
     </g>
    </g>
   </g>
   <g id="line2d_14">
    <path clip-path="url(#pb61fe26d5d)" d="M 225 401.804278 
L 237.916667 343.665241 
L 244.375 227.387166 
L 250.833333 314.595722 
L 257.291667 361.106952 
L 263.75 111.109091 
L 270.208333 111.109091 
L 276.666667 401.804278 
L 283.125 256.456684 
L 289.583333 459.943316 
L 296.041667 459.943316 
L 302.5 320.409626 
L 308.958333 372.734759 
L 315.416667 256.456684 
L 321.875 430.873797 
L 328.333333 459.943316 
L 334.791667 372.734759 
L 341.25 256.456684 
L 347.708333 285.526203 
L 354.166667 430.873797 
L 360.625 111.109091 
L 367.083333 477.385027 
L 373.541667 401.804278 
L 380 314.595722 
L 386.458333 285.526203 
L 392.916667 401.804278 
L 399.375 500.640642 
L 405.833333 198.317647 
L 412.291667 401.804278 
L 418.75 401.804278 
L 425.208333 500.640642 
L 431.666667 198.317647 
L 438.125 256.456684 
L 444.583333 343.665241 
L 457.5 343.665241 
L 463.958333 372.734759 
L 470.416667 343.665241 
L 476.875 349.479144 
L 483.333333 372.734759 
L 489.791667 169.248128 
L 496.25 459.943316 
L 502.708333 285.526203 
L 509.166667 459.943316 
L 515.625 459.943316 
L 522.083333 314.595722 
L 528.541667 343.665241 
L 535 500.640642 
L 541.458333 372.734759 
L 547.916667 401.804278 
L 554.375 343.665241 
L 560.833333 314.595722 
L 567.291667 227.387166 
L 573.75 169.248128 
L 580.208333 227.387166 
L 586.666667 459.943316 
L 593.125 401.804278 
L 599.583333 169.248128 
L 606.041667 291.340107 
L 612.5 256.456684 
L 618.958333 227.387166 
L 625.416667 285.526203 
L 631.875 169.248128 
L 638.333333 256.456684 
L 644.791667 547.151872 
L 651.25 343.665241 
L 657.708333 459.943316 
L 664.166667 465.757219 
L 670.625 401.804278 
L 677.083333 459.943316 
L 690 343.665241 
L 696.458333 198.317647 
L 702.916667 518.082353 
L 709.375 349.479144 
L 715.833333 489.012834 
L 722.291667 547.151872 
L 728.75 459.943316 
L 735.208333 169.248128 
L 741.666667 343.665241 
L 748.125 320.409626 
L 754.583333 256.456684 
L 761.041667 401.804278 
L 767.5 285.526203 
L 773.958333 111.109091 
L 780.416667 314.595722 
L 786.875 285.526203 
L 793.333333 198.317647 
L 799.791667 297.154011 
L 806.25 489.012834 
L 812.708333 489.012834 
L 819.166667 285.526203 
L 825.625 372.734759 
L 832.083333 442.501604 
L 838.541667 198.317647 
L 845 401.804278 
L 851.458333 343.665241 
L 857.916667 227.387166 
L 864.375 285.526203 
L 870.833333 169.248128 
L 877.291667 198.317647 
L 883.75 111.109091 
L 890.208333 169.248128 
L 896.666667 198.317647 
L 903.125 314.595722 
L 909.583333 169.248128 
L 916.041667 401.804278 
L 922.5 372.734759 
L 928.958333 459.943316 
L 935.416667 459.943316 
L 941.875 343.665241 
L 948.333333 343.665241 
L 954.791667 169.248128 
L 961.25 518.082353 
L 967.708333 198.317647 
L 974.166667 372.734759 
L 980.625 430.873797 
L 987.083333 198.317647 
L 1000 372.734759 
L 1006.458333 111.109091 
L 1012.916667 233.20107 
L 1019.375 459.943316 
L 1025.833333 169.248128 
L 1032.291667 111.109091 
L 1038.75 314.595722 
L 1045.208333 372.734759 
L 1051.666667 442.501604 
L 1058.125 576.22139 
L 1064.583333 256.456684 
L 1071.041667 111.109091 
L 1077.5 372.734759 
L 1083.958333 227.387166 
L 1090.416667 343.665241 
L 1096.875 169.248128 
L 1103.333333 111.109091 
L 1109.791667 459.943316 
L 1122.708333 227.387166 
L 1129.166667 529.71016 
L 1135.625 227.387166 
L 1142.083333 169.248128 
L 1148.541667 401.804278 
L 1155 343.665241 
L 1161.458333 314.595722 
L 1167.916667 459.943316 
L 1174.375 227.387166 
L 1180.833333 605.290909 
L 1187.291667 314.595722 
L 1193.75 489.012834 
L 1200.208333 314.595722 
L 1206.666667 256.456684 
L 1213.125 314.595722 
L 1226.041667 198.317647 
L 1232.5 169.248128 
L 1238.958333 111.109091 
L 1245.416667 401.804278 
L 1251.875 442.501604 
L 1258.333333 169.248128 
L 1264.791667 285.526203 
L 1271.25 372.734759 
L 1277.708333 285.526203 
L 1284.166667 343.665241 
L 1290.625 169.248128 
L 1297.083333 459.943316 
L 1303.541667 314.595722 
L 1310 314.595722 
L 1316.458333 355.293048 
L 1322.916667 401.804278 
L 1329.375 372.734759 
L 1335.833333 169.248128 
L 1342.291667 343.665241 
L 1348.75 314.595722 
L 1355.208333 198.317647 
L 1368.125 314.595722 
L 1374.583333 401.804278 
L 1381.041667 169.248128 
L 1387.5 111.109091 
L 1393.958333 401.804278 
L 1400.416667 314.595722 
L 1406.875 256.456684 
L 1413.333333 285.526203 
L 1419.791667 401.804278 
L 1426.25 547.151872 
L 1432.708333 518.082353 
L 1439.166667 227.387166 
L 1445.625 430.873797 
L 1452.083333 227.387166 
L 1458.541667 198.317647 
L 1465 343.665241 
L 1471.458333 244.828877 
L 1477.916667 343.665241 
L 1484.375 314.595722 
L 1490.833333 401.804278 
L 1497.291667 285.526203 
L 1503.75 372.734759 
L 1510.208333 285.526203 
L 1516.666667 343.665241 
L 1523.125 227.387166 
L 1529.583333 169.248128 
L 1536.041667 169.248128 
L 1542.5 291.340107 
L 1548.958333 489.012834 
L 1555.416667 314.595722 
L 1561.875 489.012834 
L 1568.333333 111.109091 
L 1574.791667 209.945455 
L 1581.25 512.268449 
L 1587.708333 169.248128 
L 1594.166667 169.248128 
L 1600.625 233.20107 
L 1607.083333 587.849198 
L 1613.541667 459.943316 
L 1620 372.734759 
L 1620 372.734759 
" style="fill:none;stroke:#1f77b4;stroke-linecap:square;stroke-width:1.5;"/>
   </g>
   <g id="line2d_15">
    <path clip-path="url(#pb61fe26d5d)" d="M 225 494.110902 
L 231.458333 308.209815 
L 237.916667 348.962939 
L 244.375 290.624579 
L 250.833333 344.810319 
L 257.291667 381.212825 
L 263.75 169.306097 
L 270.208333 249.349903 
L 276.666667 466.41415 
L 283.125 239.41963 
L 289.583333 434.565474 
L 296.041667 440.343685 
L 302.5 283.933109 
L 308.958333 277.727721 
L 315.416667 423.54834 
L 321.875 424.068992 
L 328.333333 401.313415 
L 334.791667 475.882245 
L 341.25 229.070984 
L 347.708333 227.95735 
L 354.166667 478.217226 
L 360.625 249.349903 
L 367.083333 419.213083 
L 373.541667 493.513662 
L 380 280.324292 
L 386.458333 324.885563 
L 392.916667 399.137505 
L 399.375 489.206103 
L 405.833333 189.816081 
L 412.291667 425.242132 
L 418.75 387.584703 
L 425.208333 473.397487 
L 431.666667 229.085534 
L 438.125 229.820642 
L 444.583333 260.063741 
L 451.041667 390.986331 
L 457.5 328.63844 
L 463.958333 268.849322 
L 470.416667 323.560919 
L 476.875 345.296887 
L 483.333333 419.11193 
L 489.791667 310.248875 
L 496.25 450.748783 
L 502.708333 293.255124 
L 509.166667 340.637469 
L 515.625 472.687386 
L 522.083333 278.423833 
L 528.541667 283.563343 
L 535 433.520561 
L 541.458333 385.278548 
L 547.916667 452.842672 
L 554.375 265.873134 
L 560.833333 329.743962 
L 567.291667 231.736883 
L 573.75 236.621616 
L 580.208333 286.658289 
L 586.666667 423.860805 
L 593.125 414.488903 
L 599.583333 219.884924 
L 606.041667 279.124688 
L 612.5 256.36585 
L 618.958333 308.10975 
L 625.416667 258.021562 
L 631.875 210.192462 
L 638.333333 317.591558 
L 644.791667 461.365396 
L 651.25 515.28809 
L 657.708333 409.005104 
L 664.166667 435.054649 
L 670.625 362.266794 
L 677.083333 421.97653 
L 683.541667 399.687035 
L 690 275.927444 
L 696.458333 156.199428 
L 702.916667 506.406152 
L 709.375 308.988063 
L 715.833333 291.221125 
L 722.291667 502.039349 
L 728.75 459.634498 
L 735.208333 186.066226 
L 741.666667 361.450382 
L 748.125 326.914484 
L 754.583333 267.272142 
L 761.041667 399.583909 
L 767.5 349.805727 
L 773.958333 225.023476 
L 780.416667 276.602885 
L 786.875 144.428337 
L 793.333333 189.816081 
L 806.25 473.380618 
L 812.708333 511.927649 
L 819.166667 315.409829 
L 825.625 311.97621 
L 832.083333 468.405199 
L 838.541667 203.86237 
L 845 464.963668 
L 851.458333 507.968809 
L 857.916667 184.382961 
L 864.375 334.34405 
L 870.833333 160.7339 
L 877.291667 355.595226 
L 883.75 161.976061 
L 890.208333 186.377369 
L 896.666667 204.903886 
L 903.125 328.942501 
L 909.583333 141.242798 
L 916.041667 362.391612 
L 922.5 262.85608 
L 928.958333 392.300914 
L 935.416667 459.034664 
L 941.875 391.880246 
L 948.333333 263.729169 
L 954.791667 249.417717 
L 961.25 448.272723 
L 967.708333 289.365354 
L 974.166667 337.198728 
L 980.625 503.843295 
L 987.083333 293.255124 
L 993.541667 263.988437 
L 1000 179.962589 
L 1006.458333 215.882362 
L 1012.916667 293.477401 
L 1019.375 452.727394 
L 1025.833333 216.020277 
L 1032.291667 236.331443 
L 1038.75 284.626802 
L 1045.208333 283.012148 
L 1051.666667 398.671284 
L 1058.125 490.396942 
L 1064.583333 317.844933 
L 1071.041667 207.048913 
L 1077.5 375.342353 
L 1083.958333 300.648633 
L 1090.416667 398.989347 
L 1096.875 428.79703 
L 1103.333333 248.226298 
L 1109.791667 244.910022 
L 1116.25 418.741328 
L 1122.708333 271.682537 
L 1129.166667 491.982357 
L 1135.625 282.285475 
L 1142.083333 224.931985 
L 1148.541667 486.258364 
L 1155 326.935857 
L 1161.458333 223.014953 
L 1167.916667 446.110247 
L 1174.375 302.567841 
L 1180.833333 488.597015 
L 1187.291667 307.541702 
L 1193.75 392.849906 
L 1200.208333 338.125416 
L 1206.666667 264.656828 
L 1213.125 275.589504 
L 1219.583333 282.573217 
L 1226.041667 182.773215 
L 1232.5 296.113436 
L 1238.958333 249.820488 
L 1245.416667 441.521446 
L 1251.875 428.525471 
L 1258.333333 168.779272 
L 1264.791667 361.639523 
L 1271.25 313.081499 
L 1277.708333 271.898439 
L 1284.166667 448.542564 
L 1290.625 264.381389 
L 1297.083333 477.078128 
L 1303.541667 296.424769 
L 1310 299.030856 
L 1316.458333 273.97282 
L 1322.916667 420.586571 
L 1329.375 477.436864 
L 1335.833333 355.745847 
L 1342.291667 330.253138 
L 1348.75 426.259482 
L 1355.208333 140.529135 
L 1361.666667 242.275256 
L 1368.125 309.609808 
L 1374.583333 429.338268 
L 1381.041667 329.165046 
L 1387.5 255.36774 
L 1393.958333 314.632751 
L 1400.416667 318.11824 
L 1406.875 355.595226 
L 1413.333333 314.653684 
L 1419.791667 462.720002 
L 1426.25 468.405199 
L 1432.708333 466.904299 
L 1439.166667 287.032229 
L 1445.625 414.551849 
L 1452.083333 255.077226 
L 1458.541667 242.488088 
L 1465 354.392223 
L 1471.458333 181.595239 
L 1477.916667 210.425813 
L 1484.375 283.027496 
L 1490.833333 444.646694 
L 1497.291667 302.711773 
L 1503.75 326.724895 
L 1510.208333 217.479061 
L 1516.666667 298.67396 
L 1523.125 331.486516 
L 1529.583333 203.456107 
L 1536.041667 272.965788 
L 1542.5 355.243435 
L 1548.958333 441.214991 
L 1555.416667 300.111138 
L 1561.875 473.222053 
L 1568.333333 121.611192 
L 1574.791667 238.277072 
L 1581.25 471.641796 
L 1587.708333 241.380266 
L 1594.166667 222.051813 
L 1600.625 298.883956 
L 1607.083333 558.485099 
L 1613.541667 503.843295 
L 1620 321.683968 
L 1620 321.683968 
" style="fill:none;stroke:#ff7f0e;stroke-linecap:square;stroke-width:1.5;"/>
   </g>
   <g id="patch_3">
    <path d="M 225 630 
L 225 86.4 
" style="fill:none;stroke:#000000;stroke-linecap:square;stroke-linejoin:miter;stroke-width:0.8;"/>
   </g>
   <g id="patch_4">
    <path d="M 1620 630 
L 1620 86.4 
" style="fill:none;stroke:#000000;stroke-linecap:square;stroke-linejoin:miter;stroke-width:0.8;"/>
   </g>
   <g id="patch_5">
    <path d="M 225 630 
L 1620 630 
" style="fill:none;stroke:#000000;stroke-linecap:square;stroke-linejoin:miter;stroke-width:0.8;"/>
   </g>
   <g id="patch_6">
    <path d="M 225 86.4 
L 1620 86.4 
" style="fill:none;stroke:#000000;stroke-linecap:square;stroke-linejoin:miter;stroke-width:0.8;"/>
   </g>
   <g id="legend_1">
    <g id="patch_7">
     <path d="M 232 625 
L 329.225 625 
Q 331.225 625 331.225 623 
L 331.225 594.365625 
Q 331.225 592.365625 329.225 592.365625 
L 232 592.365625 
Q 230 592.365625 230 594.365625 
L 230 623 
Q 230 625 232 625 
z
" style="fill:#ffffff;opacity:0.8;stroke:#cccccc;stroke-linejoin:miter;"/>
    </g>
    <g id="line2d_16">
     <path d="M 234 600.464062 
L 254 600.464062 
" style="fill:none;stroke:#1f77b4;stroke-linecap:square;stroke-width:1.5;"/>
    </g>
    <g id="line2d_17"/>
    <g id="text_14">
     <!-- ground_truth -->
     <defs>
      <path d="M 45.40625 27.984375 
Q 45.40625 37.75 41.375 43.109375 
Q 37.359375 48.484375 30.078125 48.484375 
Q 22.859375 48.484375 18.828125 43.109375 
Q 14.796875 37.75 14.796875 27.984375 
Q 14.796875 18.265625 18.828125 12.890625 
Q 22.859375 7.515625 30.078125 7.515625 
Q 37.359375 7.515625 41.375 12.890625 
Q 45.40625 18.265625 45.40625 27.984375 
z
M 54.390625 6.78125 
Q 54.390625 -7.171875 48.1875 -13.984375 
Q 42 -20.796875 29.203125 -20.796875 
Q 24.46875 -20.796875 20.265625 -20.09375 
Q 16.0625 -19.390625 12.109375 -17.921875 
L 12.109375 -9.1875 
Q 16.0625 -11.328125 19.921875 -12.34375 
Q 23.78125 -13.375 27.78125 -13.375 
Q 36.625 -13.375 41.015625 -8.765625 
Q 45.40625 -4.15625 45.40625 5.171875 
L 45.40625 9.625 
Q 42.625 4.78125 38.28125 2.390625 
Q 33.9375 0 27.875 0 
Q 17.828125 0 11.671875 7.65625 
Q 5.515625 15.328125 5.515625 27.984375 
Q 5.515625 40.671875 11.671875 48.328125 
Q 17.828125 56 27.875 56 
Q 33.9375 56 38.28125 53.609375 
Q 42.625 51.21875 45.40625 46.390625 
L 45.40625 54.6875 
L 54.390625 54.6875 
z
" id="DejaVuSans-103"/>
      <path d="M 41.109375 46.296875 
Q 39.59375 47.171875 37.8125 47.578125 
Q 36.03125 48 33.890625 48 
Q 26.265625 48 22.1875 43.046875 
Q 18.109375 38.09375 18.109375 28.8125 
L 18.109375 0 
L 9.078125 0 
L 9.078125 54.6875 
L 18.109375 54.6875 
L 18.109375 46.1875 
Q 20.953125 51.171875 25.484375 53.578125 
Q 30.03125 56 36.53125 56 
Q 37.453125 56 38.578125 55.875 
Q 39.703125 55.765625 41.0625 55.515625 
z
" id="DejaVuSans-114"/>
      <path d="M 30.609375 48.390625 
Q 23.390625 48.390625 19.1875 42.75 
Q 14.984375 37.109375 14.984375 27.296875 
Q 14.984375 17.484375 19.15625 11.84375 
Q 23.34375 6.203125 30.609375 6.203125 
Q 37.796875 6.203125 41.984375 11.859375 
Q 46.1875 17.53125 46.1875 27.296875 
Q 46.1875 37.015625 41.984375 42.703125 
Q 37.796875 48.390625 30.609375 48.390625 
z
M 30.609375 56 
Q 42.328125 56 49.015625 48.375 
Q 55.71875 40.765625 55.71875 27.296875 
Q 55.71875 13.875 49.015625 6.21875 
Q 42.328125 -1.421875 30.609375 -1.421875 
Q 18.84375 -1.421875 12.171875 6.21875 
Q 5.515625 13.875 5.515625 27.296875 
Q 5.515625 40.765625 12.171875 48.375 
Q 18.84375 56 30.609375 56 
z
" id="DejaVuSans-111"/>
      <path d="M 8.5 21.578125 
L 8.5 54.6875 
L 17.484375 54.6875 
L 17.484375 21.921875 
Q 17.484375 14.15625 20.5 10.265625 
Q 23.53125 6.390625 29.59375 6.390625 
Q 36.859375 6.390625 41.078125 11.03125 
Q 45.3125 15.671875 45.3125 23.6875 
L 45.3125 54.6875 
L 54.296875 54.6875 
L 54.296875 0 
L 45.3125 0 
L 45.3125 8.40625 
Q 42.046875 3.421875 37.71875 1 
Q 33.40625 -1.421875 27.6875 -1.421875 
Q 18.265625 -1.421875 13.375 4.4375 
Q 8.5 10.296875 8.5 21.578125 
z
M 31.109375 56 
z
" id="DejaVuSans-117"/>
      <path d="M 54.890625 33.015625 
L 54.890625 0 
L 45.90625 0 
L 45.90625 32.71875 
Q 45.90625 40.484375 42.875 44.328125 
Q 39.84375 48.1875 33.796875 48.1875 
Q 26.515625 48.1875 22.3125 43.546875 
Q 18.109375 38.921875 18.109375 30.90625 
L 18.109375 0 
L 9.078125 0 
L 9.078125 54.6875 
L 18.109375 54.6875 
L 18.109375 46.1875 
Q 21.34375 51.125 25.703125 53.5625 
Q 30.078125 56 35.796875 56 
Q 45.21875 56 50.046875 50.171875 
Q 54.890625 44.34375 54.890625 33.015625 
z
" id="DejaVuSans-110"/>
      <path d="M 45.40625 46.390625 
L 45.40625 75.984375 
L 54.390625 75.984375 
L 54.390625 0 
L 45.40625 0 
L 45.40625 8.203125 
Q 42.578125 3.328125 38.25 0.953125 
Q 33.9375 -1.421875 27.875 -1.421875 
Q 17.96875 -1.421875 11.734375 6.484375 
Q 5.515625 14.40625 5.515625 27.296875 
Q 5.515625 40.1875 11.734375 48.09375 
Q 17.96875 56 27.875 56 
Q 33.9375 56 38.25 53.625 
Q 42.578125 51.265625 45.40625 46.390625 
z
M 14.796875 27.296875 
Q 14.796875 17.390625 18.875 11.75 
Q 22.953125 6.109375 30.078125 6.109375 
Q 37.203125 6.109375 41.296875 11.75 
Q 45.40625 17.390625 45.40625 27.296875 
Q 45.40625 37.203125 41.296875 42.84375 
Q 37.203125 48.484375 30.078125 48.484375 
Q 22.953125 48.484375 18.875 42.84375 
Q 14.796875 37.203125 14.796875 27.296875 
z
" id="DejaVuSans-100"/>
      <path d="M 50.984375 -16.609375 
L 50.984375 -23.578125 
L -0.984375 -23.578125 
L -0.984375 -16.609375 
z
" id="DejaVuSans-95"/>
      <path d="M 18.3125 70.21875 
L 18.3125 54.6875 
L 36.8125 54.6875 
L 36.8125 47.703125 
L 18.3125 47.703125 
L 18.3125 18.015625 
Q 18.3125 11.328125 20.140625 9.421875 
Q 21.96875 7.515625 27.59375 7.515625 
L 36.8125 7.515625 
L 36.8125 0 
L 27.59375 0 
Q 17.1875 0 13.234375 3.875 
Q 9.28125 7.765625 9.28125 18.015625 
L 9.28125 47.703125 
L 2.6875 47.703125 
L 2.6875 54.6875 
L 9.28125 54.6875 
L 9.28125 70.21875 
z
" id="DejaVuSans-116"/>
      <path d="M 54.890625 33.015625 
L 54.890625 0 
L 45.90625 0 
L 45.90625 32.71875 
Q 45.90625 40.484375 42.875 44.328125 
Q 39.84375 48.1875 33.796875 48.1875 
Q 26.515625 48.1875 22.3125 43.546875 
Q 18.109375 38.921875 18.109375 30.90625 
L 18.109375 0 
L 9.078125 0 
L 9.078125 75.984375 
L 18.109375 75.984375 
L 18.109375 46.1875 
Q 21.34375 51.125 25.703125 53.5625 
Q 30.078125 56 35.796875 56 
Q 45.21875 56 50.046875 50.171875 
Q 54.890625 44.34375 54.890625 33.015625 
z
" id="DejaVuSans-104"/>
     </defs>
     <g transform="translate(262 603.964062)scale(0.1 -0.1)">
      <use xlink:href="#DejaVuSans-103"/>
      <use x="63.476562" xlink:href="#DejaVuSans-114"/>
      <use x="104.558594" xlink:href="#DejaVuSans-111"/>
      <use x="165.740234" xlink:href="#DejaVuSans-117"/>
      <use x="229.119141" xlink:href="#DejaVuSans-110"/>
      <use x="292.498047" xlink:href="#DejaVuSans-100"/>
      <use x="355.974609" xlink:href="#DejaVuSans-95"/>
      <use x="405.974609" xlink:href="#DejaVuSans-116"/>
      <use x="445.183594" xlink:href="#DejaVuSans-114"/>
      <use x="486.296875" xlink:href="#DejaVuSans-117"/>
      <use x="549.675781" xlink:href="#DejaVuSans-116"/>
      <use x="588.884766" xlink:href="#DejaVuSans-104"/>
     </g>
    </g>
    <g id="line2d_18">
     <path d="M 234 615.420313 
L 254 615.420313 
" style="fill:none;stroke:#ff7f0e;stroke-linecap:square;stroke-width:1.5;"/>
    </g>
    <g id="line2d_19"/>
    <g id="text_15">
     <!-- predictions -->
     <defs>
      <path d="M 18.109375 8.203125 
L 18.109375 -20.796875 
L 9.078125 -20.796875 
L 9.078125 54.6875 
L 18.109375 54.6875 
L 18.109375 46.390625 
Q 20.953125 51.265625 25.265625 53.625 
Q 29.59375 56 35.59375 56 
Q 45.5625 56 51.78125 48.09375 
Q 58.015625 40.1875 58.015625 27.296875 
Q 58.015625 14.40625 51.78125 6.484375 
Q 45.5625 -1.421875 35.59375 -1.421875 
Q 29.59375 -1.421875 25.265625 0.953125 
Q 20.953125 3.328125 18.109375 8.203125 
z
M 48.6875 27.296875 
Q 48.6875 37.203125 44.609375 42.84375 
Q 40.53125 48.484375 33.40625 48.484375 
Q 26.265625 48.484375 22.1875 42.84375 
Q 18.109375 37.203125 18.109375 27.296875 
Q 18.109375 17.390625 22.1875 11.75 
Q 26.265625 6.109375 33.40625 6.109375 
Q 40.53125 6.109375 44.609375 11.75 
Q 48.6875 17.390625 48.6875 27.296875 
z
" id="DejaVuSans-112"/>
      <path d="M 56.203125 29.59375 
L 56.203125 25.203125 
L 14.890625 25.203125 
Q 15.484375 15.921875 20.484375 11.0625 
Q 25.484375 6.203125 34.421875 6.203125 
Q 39.59375 6.203125 44.453125 7.46875 
Q 49.3125 8.734375 54.109375 11.28125 
L 54.109375 2.78125 
Q 49.265625 0.734375 44.1875 -0.34375 
Q 39.109375 -1.421875 33.890625 -1.421875 
Q 20.796875 -1.421875 13.15625 6.1875 
Q 5.515625 13.8125 5.515625 26.8125 
Q 5.515625 40.234375 12.765625 48.109375 
Q 20.015625 56 32.328125 56 
Q 43.359375 56 49.78125 48.890625 
Q 56.203125 41.796875 56.203125 29.59375 
z
M 47.21875 32.234375 
Q 47.125 39.59375 43.09375 43.984375 
Q 39.0625 48.390625 32.421875 48.390625 
Q 24.90625 48.390625 20.390625 44.140625 
Q 15.875 39.890625 15.1875 32.171875 
z
" id="DejaVuSans-101"/>
      <path d="M 9.421875 54.6875 
L 18.40625 54.6875 
L 18.40625 0 
L 9.421875 0 
z
M 9.421875 75.984375 
L 18.40625 75.984375 
L 18.40625 64.59375 
L 9.421875 64.59375 
z
" id="DejaVuSans-105"/>
      <path d="M 48.78125 52.59375 
L 48.78125 44.1875 
Q 44.96875 46.296875 41.140625 47.34375 
Q 37.3125 48.390625 33.40625 48.390625 
Q 24.65625 48.390625 19.8125 42.84375 
Q 14.984375 37.3125 14.984375 27.296875 
Q 14.984375 17.28125 19.8125 11.734375 
Q 24.65625 6.203125 33.40625 6.203125 
Q 37.3125 6.203125 41.140625 7.25 
Q 44.96875 8.296875 48.78125 10.40625 
L 48.78125 2.09375 
Q 45.015625 0.34375 40.984375 -0.53125 
Q 36.96875 -1.421875 32.421875 -1.421875 
Q 20.0625 -1.421875 12.78125 6.34375 
Q 5.515625 14.109375 5.515625 27.296875 
Q 5.515625 40.671875 12.859375 48.328125 
Q 20.21875 56 33.015625 56 
Q 37.15625 56 41.109375 55.140625 
Q 45.0625 54.296875 48.78125 52.59375 
z
" id="DejaVuSans-99"/>
      <path d="M 44.28125 53.078125 
L 44.28125 44.578125 
Q 40.484375 46.53125 36.375 47.5 
Q 32.28125 48.484375 27.875 48.484375 
Q 21.1875 48.484375 17.84375 46.4375 
Q 14.5 44.390625 14.5 40.28125 
Q 14.5 37.15625 16.890625 35.375 
Q 19.28125 33.59375 26.515625 31.984375 
L 29.59375 31.296875 
Q 39.15625 29.25 43.1875 25.515625 
Q 47.21875 21.78125 47.21875 15.09375 
Q 47.21875 7.46875 41.1875 3.015625 
Q 35.15625 -1.421875 24.609375 -1.421875 
Q 20.21875 -1.421875 15.453125 -0.5625 
Q 10.6875 0.296875 5.421875 2 
L 5.421875 11.28125 
Q 10.40625 8.6875 15.234375 7.390625 
Q 20.0625 6.109375 24.8125 6.109375 
Q 31.15625 6.109375 34.5625 8.28125 
Q 37.984375 10.453125 37.984375 14.40625 
Q 37.984375 18.0625 35.515625 20.015625 
Q 33.0625 21.96875 24.703125 23.78125 
L 21.578125 24.515625 
Q 13.234375 26.265625 9.515625 29.90625 
Q 5.8125 33.546875 5.8125 39.890625 
Q 5.8125 47.609375 11.28125 51.796875 
Q 16.75 56 26.8125 56 
Q 31.78125 56 36.171875 55.265625 
Q 40.578125 54.546875 44.28125 53.078125 
z
" id="DejaVuSans-115"/>
     </defs>
     <g transform="translate(262 618.920313)scale(0.1 -0.1)">
      <use xlink:href="#DejaVuSans-112"/>
      <use x="63.476562" xlink:href="#DejaVuSans-114"/>
      <use x="104.558594" xlink:href="#DejaVuSans-101"/>
      <use x="166.082031" xlink:href="#DejaVuSans-100"/>
      <use x="229.558594" xlink:href="#DejaVuSans-105"/>
      <use x="257.341797" xlink:href="#DejaVuSans-99"/>
      <use x="312.322266" xlink:href="#DejaVuSans-116"/>
      <use x="351.53125" xlink:href="#DejaVuSans-105"/>
      <use x="379.314453" xlink:href="#DejaVuSans-111"/>
      <use x="440.496094" xlink:href="#DejaVuSans-110"/>
      <use x="503.875" xlink:href="#DejaVuSans-115"/>
     </g>
    </g>
   </g>
  </g>
 </g>
 <defs>
  <clipPath id="pb61fe26d5d">
   <rect height="543.6" width="1395" x="225" y="86.4"/>
  </clipPath>
 </defs>
</svg>
