<?xml version="1.0" encoding="utf-8" standalone="no"?>
<!DOCTYPE svg PUBLIC "-//W3C//DTD SVG 1.1//EN"
  "http://www.w3.org/Graphics/SVG/1.1/DTD/svg11.dtd">
<!-- Created with matplotlib (https://matplotlib.org/) -->
<svg height="720pt" version="1.1" viewBox="0 0 1800 720" width="1800pt" xmlns="http://www.w3.org/2000/svg" xmlns:xlink="http://www.w3.org/1999/xlink">
 <defs>
  <style type="text/css">
*{stroke-linecap:butt;stroke-linejoin:round;}
  </style>
 </defs>
 <g id="figure_1">
  <g id="patch_1">
   <path d="M 0 720 
L 1800 720 
L 1800 0 
L 0 0 
z
" style="fill:#ffffff;"/>
  </g>
  <g id="axes_1">
   <g id="patch_2">
    <path d="M 225 630 
L 1620 630 
L 1620 86.4 
L 225 86.4 
z
" style="fill:#ffffff;"/>
   </g>
   <g id="matplotlib.axis_1">
    <g id="xtick_1">
     <g id="line2d_1">
      <defs>
       <path d="M 0 0 
L 0 3.5 
" id="mfbefabfe3e" style="stroke:#000000;stroke-width:0.8;"/>
      </defs>
      <g>
       <use style="stroke:#000000;stroke-width:0.8;" x="225" xlink:href="#mfbefabfe3e" y="630"/>
      </g>
     </g>
     <g id="text_1">
      <!-- 0 -->
      <defs>
       <path d="M 31.78125 66.40625 
Q 24.171875 66.40625 20.328125 58.90625 
Q 16.5 51.421875 16.5 36.375 
Q 16.5 21.390625 20.328125 13.890625 
Q 24.171875 6.390625 31.78125 6.390625 
Q 39.453125 6.390625 43.28125 13.890625 
Q 47.125 21.390625 47.125 36.375 
Q 47.125 51.421875 43.28125 58.90625 
Q 39.453125 66.40625 31.78125 66.40625 
z
M 31.78125 74.21875 
Q 44.046875 74.21875 50.515625 64.515625 
Q 56.984375 54.828125 56.984375 36.375 
Q 56.984375 17.96875 50.515625 8.265625 
Q 44.046875 -1.421875 31.78125 -1.421875 
Q 19.53125 -1.421875 13.0625 8.265625 
Q 6.59375 17.96875 6.59375 36.375 
Q 6.59375 54.828125 13.0625 64.515625 
Q 19.53125 74.21875 31.78125 74.21875 
z
" id="DejaVuSans-48"/>
      </defs>
      <g transform="translate(221.81875 644.598438)scale(0.1 -0.1)">
       <use xlink:href="#DejaVuSans-48"/>
      </g>
     </g>
    </g>
    <g id="xtick_2">
     <g id="line2d_2">
      <g>
       <use style="stroke:#000000;stroke-width:0.8;" x="448.557692" xlink:href="#mfbefabfe3e" y="630"/>
      </g>
     </g>
     <g id="text_2">
      <!-- 100 -->
      <defs>
       <path d="M 12.40625 8.296875 
L 28.515625 8.296875 
L 28.515625 63.921875 
L 10.984375 60.40625 
L 10.984375 69.390625 
L 28.421875 72.90625 
L 38.28125 72.90625 
L 38.28125 8.296875 
L 54.390625 8.296875 
L 54.390625 0 
L 12.40625 0 
z
" id="DejaVuSans-49"/>
      </defs>
      <g transform="translate(439.013942 644.598438)scale(0.1 -0.1)">
       <use xlink:href="#DejaVuSans-49"/>
       <use x="63.623047" xlink:href="#DejaVuSans-48"/>
       <use x="127.246094" xlink:href="#DejaVuSans-48"/>
      </g>
     </g>
    </g>
    <g id="xtick_3">
     <g id="line2d_3">
      <g>
       <use style="stroke:#000000;stroke-width:0.8;" x="672.115385" xlink:href="#mfbefabfe3e" y="630"/>
      </g>
     </g>
     <g id="text_3">
      <!-- 200 -->
      <defs>
       <path d="M 19.1875 8.296875 
L 53.609375 8.296875 
L 53.609375 0 
L 7.328125 0 
L 7.328125 8.296875 
Q 12.9375 14.109375 22.625 23.890625 
Q 32.328125 33.6875 34.8125 36.53125 
Q 39.546875 41.84375 41.421875 45.53125 
Q 43.3125 49.21875 43.3125 52.78125 
Q 43.3125 58.59375 39.234375 62.25 
Q 35.15625 65.921875 28.609375 65.921875 
Q 23.96875 65.921875 18.8125 64.3125 
Q 13.671875 62.703125 7.8125 59.421875 
L 7.8125 69.390625 
Q 13.765625 71.78125 18.9375 73 
Q 24.125 74.21875 28.421875 74.21875 
Q 39.75 74.21875 46.484375 68.546875 
Q 53.21875 62.890625 53.21875 53.421875 
Q 53.21875 48.921875 51.53125 44.890625 
Q 49.859375 40.875 45.40625 35.40625 
Q 44.1875 33.984375 37.640625 27.21875 
Q 31.109375 20.453125 19.1875 8.296875 
z
" id="DejaVuSans-50"/>
      </defs>
      <g transform="translate(662.571635 644.598438)scale(0.1 -0.1)">
       <use xlink:href="#DejaVuSans-50"/>
       <use x="63.623047" xlink:href="#DejaVuSans-48"/>
       <use x="127.246094" xlink:href="#DejaVuSans-48"/>
      </g>
     </g>
    </g>
    <g id="xtick_4">
     <g id="line2d_4">
      <g>
       <use style="stroke:#000000;stroke-width:0.8;" x="895.673077" xlink:href="#mfbefabfe3e" y="630"/>
      </g>
     </g>
     <g id="text_4">
      <!-- 300 -->
      <defs>
       <path d="M 40.578125 39.3125 
Q 47.65625 37.796875 51.625 33 
Q 55.609375 28.21875 55.609375 21.1875 
Q 55.609375 10.40625 48.1875 4.484375 
Q 40.765625 -1.421875 27.09375 -1.421875 
Q 22.515625 -1.421875 17.65625 -0.515625 
Q 12.796875 0.390625 7.625 2.203125 
L 7.625 11.71875 
Q 11.71875 9.328125 16.59375 8.109375 
Q 21.484375 6.890625 26.8125 6.890625 
Q 36.078125 6.890625 40.9375 10.546875 
Q 45.796875 14.203125 45.796875 21.1875 
Q 45.796875 27.640625 41.28125 31.265625 
Q 36.765625 34.90625 28.71875 34.90625 
L 20.21875 34.90625 
L 20.21875 43.015625 
L 29.109375 43.015625 
Q 36.375 43.015625 40.234375 45.921875 
Q 44.09375 48.828125 44.09375 54.296875 
Q 44.09375 59.90625 40.109375 62.90625 
Q 36.140625 65.921875 28.71875 65.921875 
Q 24.65625 65.921875 20.015625 65.03125 
Q 15.375 64.15625 9.8125 62.3125 
L 9.8125 71.09375 
Q 15.4375 72.65625 20.34375 73.4375 
Q 25.25 74.21875 29.59375 74.21875 
Q 40.828125 74.21875 47.359375 69.109375 
Q 53.90625 64.015625 53.90625 55.328125 
Q 53.90625 49.265625 50.4375 45.09375 
Q 46.96875 40.921875 40.578125 39.3125 
z
" id="DejaVuSans-51"/>
      </defs>
      <g transform="translate(886.129327 644.598438)scale(0.1 -0.1)">
       <use xlink:href="#DejaVuSans-51"/>
       <use x="63.623047" xlink:href="#DejaVuSans-48"/>
       <use x="127.246094" xlink:href="#DejaVuSans-48"/>
      </g>
     </g>
    </g>
    <g id="xtick_5">
     <g id="line2d_5">
      <g>
       <use style="stroke:#000000;stroke-width:0.8;" x="1119.230769" xlink:href="#mfbefabfe3e" y="630"/>
      </g>
     </g>
     <g id="text_5">
      <!-- 400 -->
      <defs>
       <path d="M 37.796875 64.3125 
L 12.890625 25.390625 
L 37.796875 25.390625 
z
M 35.203125 72.90625 
L 47.609375 72.90625 
L 47.609375 25.390625 
L 58.015625 25.390625 
L 58.015625 17.1875 
L 47.609375 17.1875 
L 47.609375 0 
L 37.796875 0 
L 37.796875 17.1875 
L 4.890625 17.1875 
L 4.890625 26.703125 
z
" id="DejaVuSans-52"/>
      </defs>
      <g transform="translate(1109.687019 644.598438)scale(0.1 -0.1)">
       <use xlink:href="#DejaVuSans-52"/>
       <use x="63.623047" xlink:href="#DejaVuSans-48"/>
       <use x="127.246094" xlink:href="#DejaVuSans-48"/>
      </g>
     </g>
    </g>
    <g id="xtick_6">
     <g id="line2d_6">
      <g>
       <use style="stroke:#000000;stroke-width:0.8;" x="1342.788462" xlink:href="#mfbefabfe3e" y="630"/>
      </g>
     </g>
     <g id="text_6">
      <!-- 500 -->
      <defs>
       <path d="M 10.796875 72.90625 
L 49.515625 72.90625 
L 49.515625 64.59375 
L 19.828125 64.59375 
L 19.828125 46.734375 
Q 21.96875 47.46875 24.109375 47.828125 
Q 26.265625 48.1875 28.421875 48.1875 
Q 40.625 48.1875 47.75 41.5 
Q 54.890625 34.8125 54.890625 23.390625 
Q 54.890625 11.625 47.5625 5.09375 
Q 40.234375 -1.421875 26.90625 -1.421875 
Q 22.3125 -1.421875 17.546875 -0.640625 
Q 12.796875 0.140625 7.71875 1.703125 
L 7.71875 11.625 
Q 12.109375 9.234375 16.796875 8.0625 
Q 21.484375 6.890625 26.703125 6.890625 
Q 35.15625 6.890625 40.078125 11.328125 
Q 45.015625 15.765625 45.015625 23.390625 
Q 45.015625 31 40.078125 35.4375 
Q 35.15625 39.890625 26.703125 39.890625 
Q 22.75 39.890625 18.8125 39.015625 
Q 14.890625 38.140625 10.796875 36.28125 
z
" id="DejaVuSans-53"/>
      </defs>
      <g transform="translate(1333.244712 644.598438)scale(0.1 -0.1)">
       <use xlink:href="#DejaVuSans-53"/>
       <use x="63.623047" xlink:href="#DejaVuSans-48"/>
       <use x="127.246094" xlink:href="#DejaVuSans-48"/>
      </g>
     </g>
    </g>
    <g id="xtick_7">
     <g id="line2d_7">
      <g>
       <use style="stroke:#000000;stroke-width:0.8;" x="1566.346154" xlink:href="#mfbefabfe3e" y="630"/>
      </g>
     </g>
     <g id="text_7">
      <!-- 600 -->
      <defs>
       <path d="M 33.015625 40.375 
Q 26.375 40.375 22.484375 35.828125 
Q 18.609375 31.296875 18.609375 23.390625 
Q 18.609375 15.53125 22.484375 10.953125 
Q 26.375 6.390625 33.015625 6.390625 
Q 39.65625 6.390625 43.53125 10.953125 
Q 47.40625 15.53125 47.40625 23.390625 
Q 47.40625 31.296875 43.53125 35.828125 
Q 39.65625 40.375 33.015625 40.375 
z
M 52.59375 71.296875 
L 52.59375 62.3125 
Q 48.875 64.0625 45.09375 64.984375 
Q 41.3125 65.921875 37.59375 65.921875 
Q 27.828125 65.921875 22.671875 59.328125 
Q 17.53125 52.734375 16.796875 39.40625 
Q 19.671875 43.65625 24.015625 45.921875 
Q 28.375 48.1875 33.59375 48.1875 
Q 44.578125 48.1875 50.953125 41.515625 
Q 57.328125 34.859375 57.328125 23.390625 
Q 57.328125 12.15625 50.6875 5.359375 
Q 44.046875 -1.421875 33.015625 -1.421875 
Q 20.359375 -1.421875 13.671875 8.265625 
Q 6.984375 17.96875 6.984375 36.375 
Q 6.984375 53.65625 15.1875 63.9375 
Q 23.390625 74.21875 37.203125 74.21875 
Q 40.921875 74.21875 44.703125 73.484375 
Q 48.484375 72.75 52.59375 71.296875 
z
" id="DejaVuSans-54"/>
      </defs>
      <g transform="translate(1556.802404 644.598438)scale(0.1 -0.1)">
       <use xlink:href="#DejaVuSans-54"/>
       <use x="63.623047" xlink:href="#DejaVuSans-48"/>
       <use x="127.246094" xlink:href="#DejaVuSans-48"/>
      </g>
     </g>
    </g>
   </g>
   <g id="matplotlib.axis_2">
    <g id="ytick_1">
     <g id="line2d_8">
      <defs>
       <path d="M 0 0 
L -3.5 0 
" id="m3acb587fde" style="stroke:#000000;stroke-width:0.8;"/>
      </defs>
      <g>
       <use style="stroke:#000000;stroke-width:0.8;" x="225" xlink:href="#m3acb587fde" y="599.86034"/>
      </g>
     </g>
     <g id="text_8">
      <!-- 200 -->
      <g transform="translate(198.9125 603.659558)scale(0.1 -0.1)">
       <use xlink:href="#DejaVuSans-50"/>
       <use x="63.623047" xlink:href="#DejaVuSans-48"/>
       <use x="127.246094" xlink:href="#DejaVuSans-48"/>
      </g>
     </g>
    </g>
    <g id="ytick_2">
     <g id="line2d_9">
      <g>
       <use style="stroke:#000000;stroke-width:0.8;" x="225" xlink:href="#m3acb587fde" y="491.248951"/>
      </g>
     </g>
     <g id="text_9">
      <!-- 400 -->
      <g transform="translate(198.9125 495.04817)scale(0.1 -0.1)">
       <use xlink:href="#DejaVuSans-52"/>
       <use x="63.623047" xlink:href="#DejaVuSans-48"/>
       <use x="127.246094" xlink:href="#DejaVuSans-48"/>
      </g>
     </g>
    </g>
    <g id="ytick_3">
     <g id="line2d_10">
      <g>
       <use style="stroke:#000000;stroke-width:0.8;" x="225" xlink:href="#m3acb587fde" y="382.637562"/>
      </g>
     </g>
     <g id="text_10">
      <!-- 600 -->
      <g transform="translate(198.9125 386.436781)scale(0.1 -0.1)">
       <use xlink:href="#DejaVuSans-54"/>
       <use x="63.623047" xlink:href="#DejaVuSans-48"/>
       <use x="127.246094" xlink:href="#DejaVuSans-48"/>
      </g>
     </g>
    </g>
    <g id="ytick_4">
     <g id="line2d_11">
      <g>
       <use style="stroke:#000000;stroke-width:0.8;" x="225" xlink:href="#m3acb587fde" y="274.026174"/>
      </g>
     </g>
     <g id="text_11">
      <!-- 800 -->
      <defs>
       <path d="M 31.78125 34.625 
Q 24.75 34.625 20.71875 30.859375 
Q 16.703125 27.09375 16.703125 20.515625 
Q 16.703125 13.921875 20.71875 10.15625 
Q 24.75 6.390625 31.78125 6.390625 
Q 38.8125 6.390625 42.859375 10.171875 
Q 46.921875 13.96875 46.921875 20.515625 
Q 46.921875 27.09375 42.890625 30.859375 
Q 38.875 34.625 31.78125 34.625 
z
M 21.921875 38.8125 
Q 15.578125 40.375 12.03125 44.71875 
Q 8.5 49.078125 8.5 55.328125 
Q 8.5 64.0625 14.71875 69.140625 
Q 20.953125 74.21875 31.78125 74.21875 
Q 42.671875 74.21875 48.875 69.140625 
Q 55.078125 64.0625 55.078125 55.328125 
Q 55.078125 49.078125 51.53125 44.71875 
Q 48 40.375 41.703125 38.8125 
Q 48.828125 37.15625 52.796875 32.3125 
Q 56.78125 27.484375 56.78125 20.515625 
Q 56.78125 9.90625 50.3125 4.234375 
Q 43.84375 -1.421875 31.78125 -1.421875 
Q 19.734375 -1.421875 13.25 4.234375 
Q 6.78125 9.90625 6.78125 20.515625 
Q 6.78125 27.484375 10.78125 32.3125 
Q 14.796875 37.15625 21.921875 38.8125 
z
M 18.3125 54.390625 
Q 18.3125 48.734375 21.84375 45.5625 
Q 25.390625 42.390625 31.78125 42.390625 
Q 38.140625 42.390625 41.71875 45.5625 
Q 45.3125 48.734375 45.3125 54.390625 
Q 45.3125 60.0625 41.71875 63.234375 
Q 38.140625 66.40625 31.78125 66.40625 
Q 25.390625 66.40625 21.84375 63.234375 
Q 18.3125 60.0625 18.3125 54.390625 
z
" id="DejaVuSans-56"/>
      </defs>
      <g transform="translate(198.9125 277.825393)scale(0.1 -0.1)">
       <use xlink:href="#DejaVuSans-56"/>
       <use x="63.623047" xlink:href="#DejaVuSans-48"/>
       <use x="127.246094" xlink:href="#DejaVuSans-48"/>
      </g>
     </g>
    </g>
    <g id="ytick_5">
     <g id="line2d_12">
      <g>
       <use style="stroke:#000000;stroke-width:0.8;" x="225" xlink:href="#m3acb587fde" y="165.414785"/>
      </g>
     </g>
     <g id="text_12">
      <!-- 1000 -->
      <g transform="translate(192.55 169.214004)scale(0.1 -0.1)">
       <use xlink:href="#DejaVuSans-49"/>
       <use x="63.623047" xlink:href="#DejaVuSans-48"/>
       <use x="127.246094" xlink:href="#DejaVuSans-48"/>
       <use x="190.869141" xlink:href="#DejaVuSans-48"/>
      </g>
     </g>
    </g>
   </g>
   <g id="line2d_13">
    <path clip-path="url(#p5520d8f403)" d="M 225 382.637562 
L 227.235577 436.943257 
L 229.471154 464.096104 
L 231.706731 534.693506 
L 233.942308 529.262937 
L 236.177885 464.096104 
L 238.413462 328.331868 
L 240.649038 393.498701 
L 242.884615 474.957243 
L 245.120192 491.248951 
L 247.355769 355.484715 
L 249.591346 301.179021 
L 251.826923 382.637562 
L 254.0625 491.248951 
L 256.298077 382.637562 
L 258.533654 246.873327 
L 260.769231 461.923876 
L 263.004808 464.096104 
L 265.240385 246.873327 
L 267.475962 246.873327 
L 269.711538 534.693506 
L 271.947115 496.67952 
L 274.182692 464.096104 
L 276.418269 491.248951 
L 278.653846 529.262937 
L 280.889423 409.79041 
L 283.125 464.096104 
L 285.360577 274.026174 
L 287.596154 469.526673 
L 289.831731 111.109091 
L 292.067308 464.096104 
L 294.302885 328.331868 
L 296.538462 436.943257 
L 298.774038 339.193007 
L 301.009615 165.414785 
L 303.245192 426.082118 
L 305.480769 355.484715 
L 307.716346 423.366833 
L 309.951923 301.179021 
L 312.1875 382.637562 
L 314.423077 502.11009 
L 316.658654 545.554645 
L 318.894231 409.79041 
L 321.129808 556.415784 
L 323.365385 246.873327 
L 325.600962 512.971229 
L 327.836538 165.414785 
L 330.072115 415.220979 
L 332.307692 534.693506 
L 334.543269 512.971229 
L 336.778846 464.096104 
L 339.014423 436.943257 
L 341.25 393.498701 
L 343.485577 382.637562 
L 345.721154 382.637562 
L 347.956731 328.331868 
L 350.192308 366.345854 
L 352.427885 382.637562 
L 354.663462 328.331868 
L 356.899038 355.484715 
L 359.134615 464.096104 
L 361.370192 474.957243 
L 363.605769 328.331868 
L 365.841346 246.873327 
L 368.076923 382.637562 
L 370.3125 531.978222 
L 372.548077 355.484715 
L 374.783654 382.637562 
L 377.019231 382.637562 
L 379.254808 317.470729 
L 381.490385 176.275924 
L 383.725962 355.484715 
L 385.961538 409.79041 
L 388.197115 436.943257 
L 390.432692 409.79041 
L 392.668269 409.79041 
L 394.903846 464.096104 
L 397.139423 436.943257 
L 399.375 534.693506 
L 401.610577 436.943257 
L 403.846154 409.79041 
L 406.081731 453.234965 
L 408.317308 518.401798 
L 410.552885 572.707493 
L 412.788462 409.79041 
L 415.024038 301.179021 
L 417.259615 518.401798 
L 419.495192 382.637562 
L 421.730769 453.234965 
L 423.966346 382.637562 
L 426.201923 491.792008 
L 428.4375 485.818382 
L 430.673077 328.331868 
L 432.908654 447.804396 
L 435.144231 409.79041 
L 437.379808 339.193007 
L 439.615385 274.026174 
L 441.850962 502.11009 
L 444.086538 529.262937 
L 446.322115 187.137063 
L 448.557692 409.79041 
L 453.028846 409.79041 
L 455.264423 545.554645 
L 457.5 458.665534 
L 459.735577 464.096104 
L 461.971154 111.109091 
L 464.206731 436.943257 
L 466.442308 382.637562 
L 468.677885 427.168232 
L 470.913462 382.637562 
L 473.149038 534.693506 
L 475.384615 436.943257 
L 477.620192 534.693506 
L 479.855769 474.957243 
L 482.091346 502.11009 
L 484.326923 485.818382 
L 486.5625 497.765634 
L 488.798077 301.179021 
L 491.033654 491.248951 
L 493.269231 534.693506 
L 495.504808 572.707493 
L 497.740385 507.540659 
L 499.975962 464.096104 
L 502.211538 111.109091 
L 504.447115 447.804396 
L 506.682692 556.415784 
L 508.918269 274.026174 
L 511.153846 165.414785 
L 513.389423 491.248951 
L 515.625 409.79041 
L 517.860577 518.401798 
L 520.096154 409.79041 
L 522.331731 165.414785 
L 524.567308 436.943257 
L 526.802885 290.317882 
L 529.038462 165.414785 
L 531.274038 415.220979 
L 533.509615 436.943257 
L 535.745192 491.248951 
L 537.980769 436.943257 
L 540.216346 301.179021 
L 542.451923 564.561638 
L 544.6875 409.79041 
L 546.923077 165.414785 
L 549.158654 464.096104 
L 551.394231 599.86034 
L 553.629808 476.043357 
L 555.865385 398.929271 
L 558.100962 165.414785 
L 560.336538 453.234965 
L 562.572115 529.262937 
L 564.807692 274.026174 
L 567.043269 436.943257 
L 569.278846 508.083716 
L 571.514423 556.415784 
L 573.75 274.026174 
L 575.985577 464.096104 
L 578.221154 529.262937 
L 580.456731 469.526673 
L 582.692308 464.096104 
L 584.927885 385.352847 
L 587.163462 461.923876 
L 589.399038 219.72048 
L 591.634615 170.845355 
L 593.870192 442.373826 
L 596.105769 491.248951 
L 598.341346 219.72048 
L 600.576923 545.554645 
L 602.8125 491.248951 
L 605.048077 165.414785 
L 607.283654 482.56004 
L 609.519231 328.331868 
L 611.754808 366.345854 
L 613.990385 578.138062 
L 616.225962 520.030969 
L 618.461538 393.498701 
L 620.697115 491.248951 
L 622.932692 382.637562 
L 625.168269 507.540659 
L 627.403846 274.026174 
L 629.639423 545.554645 
L 631.875 411.962637 
L 634.110577 436.943257 
L 636.346154 436.943257 
L 638.581731 409.79041 
L 640.817308 436.943257 
L 643.052885 274.026174 
L 645.288462 464.096104 
L 647.524038 474.957243 
L 649.759615 426.082118 
L 651.995192 382.637562 
L 654.230769 502.11009 
L 656.466346 301.179021 
L 658.701923 274.026174 
L 660.9375 274.026174 
L 663.173077 111.109091 
L 665.408654 426.082118 
L 667.644231 507.540659 
L 669.879808 409.79041 
L 672.115385 491.248951 
L 676.586538 436.943257 
L 678.822115 111.109091 
L 681.057692 165.414785 
L 683.293269 436.943257 
L 685.528846 382.637562 
L 687.764423 366.345854 
L 690 480.387812 
L 692.235577 219.72048 
L 694.471154 355.484715 
L 696.706731 111.109091 
L 698.942308 409.79041 
L 701.177885 491.248951 
L 703.413462 301.179021 
L 705.649038 409.79041 
L 707.884615 382.637562 
L 712.355769 382.637562 
L 714.591346 464.096104 
L 716.826923 445.089111 
L 719.0625 301.179021 
L 721.298077 111.109091 
L 723.533654 382.637562 
L 725.769231 301.179021 
L 728.004808 409.79041 
L 730.240385 382.637562 
L 732.475962 529.262937 
L 734.711538 409.79041 
L 736.947115 355.484715 
L 739.182692 355.484715 
L 741.418269 559.131069 
L 743.653846 464.096104 
L 745.889423 594.42977 
L 748.125 219.72048 
L 750.360577 382.637562 
L 752.596154 409.79041 
L 754.831731 333.762438 
L 757.067308 491.248951 
L 759.302885 436.943257 
L 761.538462 496.67952 
L 763.774038 529.262937 
L 766.009615 491.248951 
L 768.245192 382.637562 
L 770.480769 328.331868 
L 772.716346 572.707493 
L 774.951923 455.95025 
L 777.1875 447.804396 
L 779.423077 493.421179 
L 781.658654 219.72048 
L 783.894231 518.401798 
L 786.129808 246.873327 
L 788.365385 518.401798 
L 790.600962 518.401798 
L 792.836538 328.331868 
L 795.072115 502.11009 
L 797.307692 502.11009 
L 799.543269 415.220979 
L 801.778846 409.79041 
L 804.014423 491.248951 
L 806.25 436.943257 
L 808.485577 192.567632 
L 810.721154 458.665534 
L 812.956731 545.554645 
L 815.192308 355.484715 
L 817.427885 219.72048 
L 819.663462 301.179021 
L 821.899038 355.484715 
L 824.134615 502.11009 
L 826.370192 502.11009 
L 828.605769 518.401798 
L 830.841346 257.734466 
L 833.076923 382.637562 
L 835.3125 491.248951 
L 837.548077 588.999201 
L 839.783654 436.943257 
L 842.019231 246.873327 
L 844.254808 496.67952 
L 846.490385 301.179021 
L 848.725962 491.248951 
L 850.961538 464.096104 
L 853.197115 344.623576 
L 855.432692 436.943257 
L 857.668269 355.484715 
L 859.903846 474.957243 
L 862.139423 518.401798 
L 864.375 246.873327 
L 866.610577 572.707493 
L 868.846154 355.484715 
L 871.081731 420.651548 
L 873.317308 518.401798 
L 875.552885 477.672527 
L 877.788462 545.554645 
L 880.024038 355.484715 
L 882.259615 420.651548 
L 884.495192 588.999201 
L 886.730769 382.637562 
L 888.966346 436.943257 
L 891.201923 436.943257 
L 893.4375 447.804396 
L 895.673077 404.35984 
L 897.908654 502.11009 
L 900.144231 518.401798 
L 902.379808 360.915285 
L 904.615385 464.096104 
L 906.850962 464.096104 
L 909.086538 436.943257 
L 911.322115 518.401798 
L 913.557692 474.957243 
L 915.793269 111.109091 
L 918.028846 377.206993 
L 920.264423 225.151049 
L 922.5 385.352847 
L 924.735577 399.472328 
L 926.971154 355.484715 
L 929.206731 168.13007 
L 931.442308 540.124076 
L 933.677885 436.943257 
L 935.913462 366.345854 
L 938.149038 165.414785 
L 940.384615 464.096104 
L 942.620192 355.484715 
L 944.855769 518.401798 
L 947.091346 540.124076 
L 949.326923 534.693506 
L 951.5625 393.498701 
L 953.798077 301.179021 
L 956.033654 504.825375 
L 958.269231 464.096104 
L 960.504808 447.804396 
L 962.740385 572.707493 
L 964.975962 550.985215 
L 967.211538 436.943257 
L 969.447115 382.637562 
L 971.682692 355.484715 
L 973.918269 518.401798 
L 976.153846 426.082118 
L 978.389423 436.943257 
L 980.625 496.67952 
L 982.860577 274.026174 
L 985.096154 480.387812 
L 987.331731 436.943257 
L 989.567308 301.179021 
L 991.802885 485.818382 
L 994.038462 352.226374 
L 996.274038 111.109091 
L 998.509615 518.401798 
L 1000.745192 328.331868 
L 1002.980769 480.387812 
L 1005.216346 328.331868 
L 1007.451923 561.846354 
L 1009.6875 605.290909 
L 1011.923077 512.971229 
L 1014.158654 518.401798 
L 1016.394231 382.637562 
L 1018.629808 165.414785 
L 1020.865385 518.401798 
L 1023.100962 393.498701 
L 1025.336538 507.540659 
L 1027.572115 274.026174 
L 1029.807692 181.706494 
L 1032.043269 518.401798 
L 1034.278846 409.79041 
L 1036.514423 219.72048 
L 1038.75 165.414785 
L 1040.985577 502.11009 
L 1043.221154 491.248951 
L 1045.456731 409.79041 
L 1047.692308 436.943257 
L 1049.927885 509.16983 
L 1052.163462 453.234965 
L 1054.399038 491.248951 
L 1056.634615 328.331868 
L 1058.870192 388.068132 
L 1061.105769 219.72048 
L 1063.341346 436.943257 
L 1065.576923 398.929271 
L 1067.8125 464.096104 
L 1070.048077 480.387812 
L 1072.283654 219.72048 
L 1074.519231 502.11009 
L 1076.754808 192.567632 
L 1078.990385 535.236563 
L 1081.225962 464.096104 
L 1083.461538 382.637562 
L 1085.697115 502.11009 
L 1087.932692 580.853347 
L 1090.168269 464.096104 
L 1092.403846 246.873327 
L 1094.639423 436.943257 
L 1096.875 274.026174 
L 1099.110577 436.943257 
L 1101.346154 448.347453 
L 1103.581731 382.637562 
L 1105.817308 464.096104 
L 1108.052885 523.832368 
L 1110.288462 491.248951 
L 1112.524038 382.637562 
L 1114.759615 355.484715 
L 1116.995192 453.234965 
L 1119.230769 165.414785 
L 1121.466346 279.456743 
L 1123.701923 409.79041 
L 1125.9375 480.387812 
L 1128.173077 371.776424 
L 1130.408654 518.401798 
L 1132.644231 274.026174 
L 1134.879808 398.929271 
L 1137.115385 502.11009 
L 1139.350962 355.484715 
L 1141.586538 491.248951 
L 1143.822115 355.484715 
L 1146.057692 382.637562 
L 1148.293269 469.526673 
L 1150.528846 480.387812 
L 1152.764423 328.331868 
L 1155 436.943257 
L 1159.471154 447.804396 
L 1161.706731 464.096104 
L 1163.942308 464.096104 
L 1166.177885 165.414785 
L 1168.413462 453.234965 
L 1170.649038 436.943257 
L 1172.884615 518.401798 
L 1175.120192 409.79041 
L 1177.355769 436.943257 
L 1179.591346 241.442757 
L 1181.826923 187.137063 
L 1184.0625 279.456743 
L 1186.298077 474.957243 
L 1188.533654 328.331868 
L 1190.769231 382.637562 
L 1193.004808 301.179021 
L 1195.240385 545.554645 
L 1197.475962 301.179021 
L 1199.711538 219.72048 
L 1201.947115 355.484715 
L 1204.182692 426.082118 
L 1206.418269 328.331868 
L 1208.653846 355.484715 
L 1210.889423 230.581618 
L 1213.125 333.762438 
L 1215.360577 556.415784 
L 1217.596154 507.540659 
L 1219.831731 382.637562 
L 1222.067308 409.79041 
L 1224.302885 360.915285 
L 1226.538462 187.137063 
L 1228.774038 550.985215 
L 1231.009615 219.72048 
L 1233.245192 464.096104 
L 1235.480769 453.234965 
L 1237.716346 436.943257 
L 1239.951923 597.145055 
L 1242.1875 477.672527 
L 1244.423077 382.637562 
L 1246.658654 328.331868 
L 1248.894231 518.401798 
L 1251.129808 165.414785 
L 1253.365385 493.964236 
L 1257.836538 274.026174 
L 1260.072115 550.985215 
L 1262.307692 464.096104 
L 1264.543269 545.554645 
L 1266.778846 502.11009 
L 1269.014423 534.693506 
L 1271.25 480.387812 
L 1273.485577 561.846354 
L 1275.721154 502.11009 
L 1277.956731 409.79041 
L 1280.192308 442.373826 
L 1282.427885 301.179021 
L 1284.663462 464.096104 
L 1286.899038 219.72048 
L 1289.134615 502.11009 
L 1291.370192 385.352847 
L 1293.605769 409.79041 
L 1295.841346 518.401798 
L 1298.076923 464.096104 
L 1300.3125 219.72048 
L 1304.783654 491.248951 
L 1307.019231 502.11009 
L 1309.254808 382.637562 
L 1311.490385 436.943257 
L 1313.725962 464.096104 
L 1315.961538 464.096104 
L 1318.197115 274.026174 
L 1320.432692 409.79041 
L 1322.668269 491.248951 
L 1324.903846 393.498701 
L 1327.139423 496.67952 
L 1329.375 491.248951 
L 1331.610577 436.943257 
L 1333.846154 534.693506 
L 1336.081731 436.943257 
L 1340.552885 274.026174 
L 1342.788462 464.096104 
L 1345.024038 507.540659 
L 1347.259615 502.11009 
L 1349.495192 355.484715 
L 1351.730769 189.852348 
L 1353.966346 453.234965 
L 1356.201923 274.026174 
L 1358.4375 464.096104 
L 1360.673077 301.179021 
L 1362.908654 572.707493 
L 1365.144231 328.331868 
L 1367.379808 518.401798 
L 1369.615385 409.79041 
L 1371.850962 219.72048 
L 1374.086538 274.026174 
L 1376.322115 464.096104 
L 1378.557692 545.554645 
L 1380.793269 466.811389 
L 1383.028846 480.387812 
L 1385.264423 328.331868 
L 1387.5 436.943257 
L 1389.735577 514.6004 
L 1391.971154 480.387812 
L 1394.206731 436.943257 
L 1396.442308 344.623576 
L 1398.677885 328.331868 
L 1400.913462 355.484715 
L 1403.149038 301.179021 
L 1405.384615 219.72048 
L 1407.620192 111.109091 
L 1409.855769 480.387812 
L 1412.091346 518.401798 
L 1414.326923 436.943257 
L 1416.5625 464.096104 
L 1418.798077 382.637562 
L 1421.033654 534.693506 
L 1423.269231 301.179021 
L 1425.504808 111.109091 
L 1427.740385 447.804396 
L 1429.975962 236.012188 
L 1432.211538 301.179021 
L 1434.447115 409.79041 
L 1436.682692 165.414785 
L 1438.918269 507.540659 
L 1441.153846 339.193007 
L 1443.389423 219.72048 
L 1445.625 464.096104 
L 1447.860577 382.637562 
L 1450.096154 464.096104 
L 1452.331731 427.711289 
L 1454.567308 480.387812 
L 1456.802885 572.707493 
L 1459.038462 409.79041 
L 1461.274038 382.637562 
L 1463.509615 328.331868 
L 1465.745192 328.331868 
L 1467.980769 436.943257 
L 1470.216346 496.67952 
L 1472.451923 480.387812 
L 1474.6875 545.554645 
L 1476.923077 409.79041 
L 1479.158654 111.109091 
L 1481.394231 426.082118 
L 1483.629808 518.401798 
L 1485.865385 496.67952 
L 1488.100962 382.637562 
L 1490.336538 371.776424 
L 1492.572115 415.220979 
L 1494.807692 464.096104 
L 1497.043269 301.179021 
L 1499.278846 556.415784 
L 1501.514423 436.943257 
L 1503.75 464.096104 
L 1505.985577 377.206993 
L 1508.221154 409.79041 
L 1510.456731 350.054146 
L 1512.692308 464.096104 
L 1517.163462 518.401798 
L 1519.399038 480.387812 
L 1521.634615 491.248951 
L 1523.870192 366.345854 
L 1526.105769 561.846354 
L 1528.341346 219.72048 
L 1530.576923 442.373826 
L 1532.8125 404.35984 
L 1535.048077 476.043357 
L 1537.283654 464.096104 
L 1539.519231 491.248951 
L 1541.754808 426.082118 
L 1543.990385 165.414785 
L 1548.461538 382.637562 
L 1550.697115 518.401798 
L 1552.932692 328.331868 
L 1555.168269 553.7005 
L 1557.403846 436.943257 
L 1559.639423 502.11009 
L 1561.875 301.179021 
L 1564.110577 464.096104 
L 1566.346154 355.484715 
L 1568.581731 393.498701 
L 1570.817308 556.415784 
L 1573.052885 192.567632 
L 1575.288462 464.096104 
L 1577.524038 301.179021 
L 1579.759615 252.303896 
L 1581.995192 421.737662 
L 1584.230769 502.11009 
L 1586.466346 333.762438 
L 1588.701923 328.331868 
L 1590.9375 355.484715 
L 1593.173077 464.096104 
L 1595.408654 301.179021 
L 1597.644231 263.165035 
L 1599.879808 545.554645 
L 1602.115385 480.387812 
L 1604.350962 453.234965 
L 1606.586538 545.554645 
L 1608.822115 523.832368 
L 1611.057692 507.540659 
L 1613.293269 301.179021 
L 1615.528846 246.873327 
L 1617.764423 480.387812 
L 1620 556.415784 
L 1620 556.415784 
" style="fill:none;stroke:#1f77b4;stroke-linecap:square;stroke-width:1.5;"/>
   </g>
   <g id="line2d_14">
    <path clip-path="url(#p5520d8f403)" d="M 225 419.39219 
L 227.235577 471.80723 
L 229.471154 457.830466 
L 231.706731 529.348447 
L 233.942308 515.610015 
L 236.177885 416.263617 
L 238.413462 429.689276 
L 240.649038 376.045612 
L 242.884615 404.684569 
L 245.120192 407.78191 
L 247.355769 276.948322 
L 249.591346 355.405239 
L 251.826923 352.682354 
L 254.0625 484.944595 
L 256.298077 349.526764 
L 258.533654 343.34536 
L 260.769231 422.694315 
L 263.004808 478.199375 
L 265.240385 273.627609 
L 267.475962 263.500156 
L 269.711538 529.288336 
L 271.947115 483.504421 
L 274.182692 367.75723 
L 276.418269 467.302294 
L 278.653846 488.884034 
L 280.889423 455.501741 
L 283.125 359.787571 
L 285.360577 308.432304 
L 287.596154 484.621142 
L 289.831731 247.656033 
L 292.067308 439.942315 
L 294.302885 333.068725 
L 296.538462 457.746154 
L 298.774038 298.469799 
L 301.009615 199.628778 
L 303.245192 350.912352 
L 305.480769 404.533201 
L 307.716346 320.691775 
L 309.951923 411.537823 
L 312.1875 399.559853 
L 314.423077 511.514835 
L 316.658654 490.576829 
L 318.894231 416.263617 
L 321.129808 524.160106 
L 323.365385 244.631761 
L 325.600962 454.998845 
L 327.836538 339.305324 
L 330.072115 398.10558 
L 332.307692 527.651325 
L 334.543269 464.304832 
L 336.778846 417.368493 
L 339.014423 422.92018 
L 341.25 419.050968 
L 343.485577 400.859377 
L 345.721154 438.736053 
L 347.956731 281.893476 
L 350.192308 271.920743 
L 352.427885 387.80767 
L 354.663462 353.289542 
L 356.899038 344.551221 
L 359.134615 485.415853 
L 361.370192 406.34283 
L 363.605769 268.929533 
L 365.841346 276.443333 
L 368.076923 437.287275 
L 370.3125 501.001778 
L 372.548077 359.473299 
L 374.783654 463.97183 
L 377.019231 457.830466 
L 379.254808 174.345766 
L 381.490385 210.484331 
L 383.725962 418.574963 
L 385.961538 329.842149 
L 388.197115 440.940508 
L 390.432692 387.81609 
L 392.668269 492.973736 
L 394.903846 488.598574 
L 397.139423 404.387855 
L 399.375 515.841326 
L 401.610577 407.336411 
L 403.846154 427.947624 
L 406.081731 407.038764 
L 408.317308 469.249072 
L 410.552885 481.81433 
L 412.788462 368.527374 
L 415.024038 318.399699 
L 417.259615 467.52683 
L 419.495192 400.855074 
L 421.730769 520.960238 
L 423.966346 404.387855 
L 426.201923 496.216319 
L 428.4375 469.360932 
L 430.673077 455.28487 
L 432.908654 386.045701 
L 435.144231 362.028322 
L 437.379808 287.403699 
L 439.615385 271.546593 
L 441.850962 518.324546 
L 444.086538 498.375802 
L 446.322115 276.939092 
L 448.557692 479.133903 
L 450.793269 384.067386 
L 453.028846 407.78191 
L 455.264423 522.884039 
L 457.5 361.701347 
L 459.735577 417.551209 
L 461.971154 275.764184 
L 464.206731 434.592482 
L 466.442308 389.092813 
L 468.677885 431.880582 
L 470.913462 403.150738 
L 473.149038 454.006465 
L 475.384615 436.072892 
L 477.620192 524.714903 
L 479.855769 473.4689 
L 482.091346 491.536966 
L 484.326923 466.842912 
L 486.5625 427.140331 
L 488.798077 339.250804 
L 491.033654 406.880813 
L 493.269231 486.373797 
L 495.504808 444.009709 
L 497.740385 435.341999 
L 499.975962 422.15184 
L 502.211538 391.208939 
L 504.447115 452.58516 
L 506.682692 521.701559 
L 508.918269 389.092813 
L 511.153846 244.0205 
L 513.389423 454.185846 
L 515.625 379.443138 
L 517.860577 497.865813 
L 520.096154 422.694315 
L 522.331731 279.880506 
L 524.567308 328.264087 
L 526.802885 278.290244 
L 529.038462 310.349301 
L 531.274038 457.746154 
L 533.509615 387.509031 
L 535.745192 493.563195 
L 537.980769 429.143238 
L 540.216346 351.473173 
L 542.451923 302.489808 
L 544.6875 404.864631 
L 546.923077 365.202503 
L 549.158654 421.774046 
L 551.394231 424.0492 
L 553.629808 416.412041 
L 555.865385 425.456758 
L 558.100962 241.158122 
L 560.336538 432.588402 
L 562.572115 526.769187 
L 564.807692 276.412488 
L 567.043269 300.547593 
L 569.278846 486.74247 
L 571.514423 517.786602 
L 573.75 362.997424 
L 575.985577 404.387855 
L 578.221154 404.387855 
L 580.456731 491.1018 
L 582.692308 464.360278 
L 584.927885 360.019259 
L 587.163462 405.597036 
L 589.399038 305.982779 
L 591.634615 358.035963 
L 593.870192 432.557802 
L 596.105769 483.697226 
L 598.341346 272.107217 
L 600.576923 536.461797 
L 602.8125 474.623409 
L 605.048077 345.560491 
L 607.283654 429.612744 
L 609.519231 285.928096 
L 613.990385 501.768381 
L 616.225962 469.438231 
L 618.461538 348.36172 
L 620.697115 439.410059 
L 622.932692 393.688868 
L 625.168269 490.596401 
L 627.403846 396.530283 
L 629.639423 526.529733 
L 631.875 356.641555 
L 634.110577 492.67702 
L 636.346154 472.761768 
L 638.581731 355.405239 
L 640.817308 363.838328 
L 643.052885 309.882076 
L 645.288462 418.125462 
L 647.524038 474.131315 
L 649.759615 457.830466 
L 651.995192 486.954227 
L 654.230769 475.200004 
L 656.466346 319.413471 
L 658.701923 319.63214 
L 660.9375 432.513669 
L 663.173077 177.860441 
L 665.408654 451.60479 
L 667.644231 511.514835 
L 669.879808 427.947624 
L 672.115385 457.830466 
L 674.350962 461.649827 
L 676.586538 363.838328 
L 678.822115 286.13978 
L 681.057692 319.830997 
L 683.293269 472.854593 
L 685.528846 463.97183 
L 687.764423 323.491575 
L 690 493.563195 
L 692.235577 373.094878 
L 694.471154 315.56408 
L 696.706731 328.088295 
L 698.942308 374.716549 
L 701.177885 452.690569 
L 703.413462 236.5067 
L 705.649038 313.064974 
L 707.884615 355.910082 
L 710.120192 454.998845 
L 712.355769 310.11806 
L 714.591346 473.726737 
L 716.826923 462.978449 
L 719.0625 345.269487 
L 721.298077 148.555992 
L 723.533654 404.387855 
L 725.769231 356.61442 
L 728.004808 465.871971 
L 730.240385 407.179193 
L 732.475962 496.557135 
L 734.711538 445.952068 
L 736.947115 273.175943 
L 739.182692 488.60896 
L 741.418269 524.991979 
L 743.653846 425.726746 
L 745.889423 530.766292 
L 748.125 315.56408 
L 750.360577 295.561317 
L 752.596154 347.110819 
L 754.831731 354.659203 
L 757.067308 489.522508 
L 759.302885 404.387855 
L 761.538462 478.10596 
L 763.774038 465.581554 
L 766.009615 408.455915 
L 768.245192 399.777154 
L 770.480769 407.179193 
L 772.716346 522.884039 
L 774.951923 414.049938 
L 777.1875 516.111517 
L 779.423077 477.811395 
L 781.658654 328.783555 
L 783.894231 414.157154 
L 786.129808 236.839924 
L 788.365385 326.297565 
L 790.600962 524.160106 
L 792.836538 398.10558 
L 795.072115 489.892619 
L 797.307692 412.228596 
L 799.543269 406.333131 
L 801.778846 315.56408 
L 804.014423 398.976581 
L 806.25 422.340746 
L 808.485577 255.007109 
L 810.721154 390.301994 
L 812.956731 488.945469 
L 815.192308 233.153477 
L 817.427885 272.299881 
L 819.663462 296.07599 
L 821.899038 363.074612 
L 824.134615 526.529733 
L 826.370192 477.478952 
L 828.605769 444.961729 
L 830.841346 312.3709 
L 833.076923 333.711776 
L 835.3125 451.793455 
L 837.548077 281.241466 
L 839.783654 453.100066 
L 842.019231 278.512387 
L 844.254808 481.212935 
L 846.490385 389.370899 
L 848.725962 471.964596 
L 850.961538 438.736053 
L 853.197115 363.838328 
L 855.432692 389.092813 
L 857.668269 365.312368 
L 859.903846 422.026442 
L 862.139423 498.969705 
L 864.375 337.264505 
L 866.610577 510.106909 
L 868.846154 351.778449 
L 871.081731 431.62386 
L 873.317308 424.0492 
L 875.552885 393.891644 
L 877.788462 517.050507 
L 880.024038 345.46391 
L 882.259615 472.414268 
L 884.495192 436.664536 
L 886.730769 334.632543 
L 888.966346 389.207282 
L 891.201923 437.287275 
L 893.4375 418.630012 
L 895.673077 428.117261 
L 897.908654 467.46379 
L 900.144231 404.387855 
L 902.379808 411.84997 
L 904.615385 439.175492 
L 906.850962 527.289737 
L 909.086538 364.687913 
L 911.322115 451.057019 
L 913.557692 465.581554 
L 915.793269 315.56408 
L 918.028846 274.636171 
L 920.264423 282.433696 
L 922.5 434.592482 
L 924.735577 423.518559 
L 926.971154 319.830997 
L 929.206731 227.351763 
L 931.442308 484.84162 
L 933.677885 370.110747 
L 935.913462 358.035963 
L 938.149038 365.202503 
L 940.384615 409.71142 
L 942.620192 417.860847 
L 944.855769 504.800539 
L 947.091346 490.059752 
L 949.326923 521.883343 
L 951.5625 395.545887 
L 953.798077 398.976581 
L 956.033654 487.797102 
L 958.269231 416.650982 
L 960.504808 398.976581 
L 962.740385 496.557135 
L 964.975962 501.100844 
L 967.211538 396.278223 
L 969.447115 424.0492 
L 971.682692 312.673285 
L 973.918269 466.295915 
L 976.153846 321.868115 
L 978.389423 356.641555 
L 980.625 465.581554 
L 982.860577 275.764184 
L 985.096154 472.854593 
L 987.331731 456.454871 
L 989.567308 411.587935 
L 991.802885 442.020304 
L 994.038462 344.533191 
L 996.274038 234.004756 
L 998.509615 481.580202 
L 1000.745192 291.755293 
L 1002.980769 511.91232 
L 1005.216346 347.964045 
L 1007.451923 418.115468 
L 1009.6875 467.188584 
L 1011.923077 511.710224 
L 1014.158654 488.263151 
L 1016.394231 366.411684 
L 1018.629808 319.015017 
L 1020.865385 532.531081 
L 1023.100962 348.196707 
L 1025.336538 465.54788 
L 1027.572115 268.929533 
L 1029.807692 302.70876 
L 1032.043269 471.80723 
L 1034.278846 402.112455 
L 1036.514423 279.950623 
L 1038.75 319.63214 
L 1040.985577 469.82726 
L 1043.221154 345.524586 
L 1045.456731 422.772478 
L 1047.692308 406.067877 
L 1049.927885 470.530508 
L 1052.163462 394.251943 
L 1054.399038 472.453332 
L 1056.634615 358.235124 
L 1058.870192 348.689696 
L 1061.105769 276.5756 
L 1063.341346 325.158951 
L 1065.576923 270.689953 
L 1067.8125 411.537823 
L 1070.048077 501.906127 
L 1072.283654 443.099776 
L 1074.519231 480.60676 
L 1076.754808 333.711776 
L 1078.990385 474.674788 
L 1081.225962 487.751052 
L 1083.461538 435.341999 
L 1085.697115 528.32015 
L 1087.932692 526.529733 
L 1090.168269 396.095621 
L 1092.403846 363.838328 
L 1094.639423 428.929636 
L 1096.875 287.024311 
L 1099.110577 371.337216 
L 1101.346154 482.972379 
L 1103.581731 451.793455 
L 1105.817308 493.563195 
L 1108.052885 486.954227 
L 1112.524038 428.173044 
L 1114.759615 345.760402 
L 1116.995192 441.567674 
L 1119.230769 231.587797 
L 1121.466346 391.158634 
L 1123.701923 453.100066 
L 1125.9375 480.77356 
L 1128.173077 365.202503 
L 1130.408654 491.536966 
L 1132.644231 387.50852 
L 1134.879808 421.337467 
L 1137.115385 526.529733 
L 1139.350962 349.033838 
L 1141.586538 465.181011 
L 1143.822115 319.830997 
L 1146.057692 339.471232 
L 1148.293269 488.60896 
L 1150.528846 486.135432 
L 1152.764423 293.23884 
L 1155 452.690569 
L 1157.235577 497.142931 
L 1159.471154 474.745623 
L 1161.706731 465.03506 
L 1163.942308 378.165484 
L 1166.177885 239.792441 
L 1168.413462 492.230645 
L 1170.649038 358.035963 
L 1172.884615 530.472006 
L 1175.120192 437.918618 
L 1177.355769 473.4689 
L 1179.591346 298.068467 
L 1181.826923 201.863901 
L 1184.0625 339.564774 
L 1186.298077 455.520188 
L 1188.533654 355.277381 
L 1190.769231 438.133336 
L 1193.004808 419.992665 
L 1195.240385 493.819707 
L 1197.475962 421.890769 
L 1199.711538 319.830997 
L 1201.947115 391.667364 
L 1204.182692 397.727907 
L 1206.418269 288.596437 
L 1208.653846 331.090626 
L 1210.889423 268.929533 
L 1213.125 349.033838 
L 1215.360577 486.776586 
L 1217.596154 469.51778 
L 1219.831731 266.845039 
L 1222.067308 343.058753 
L 1224.302885 361.786174 
L 1226.538462 239.91388 
L 1228.774038 476.690899 
L 1231.009615 273.175943 
L 1233.245192 426.032916 
L 1235.480769 489.212881 
L 1237.716346 380.646335 
L 1239.951923 253.79286 
L 1242.1875 456.337819 
L 1244.423077 320.873351 
L 1246.658654 404.368334 
L 1248.894231 511.710224 
L 1251.129808 229.305162 
L 1253.365385 418.887356 
L 1255.600962 440.670768 
L 1257.836538 334.224406 
L 1260.072115 509.971448 
L 1262.307692 475.340496 
L 1264.543269 493.797753 
L 1266.778846 461.726394 
L 1269.014423 445.289099 
L 1271.25 505.212774 
L 1273.485577 493.058204 
L 1275.721154 466.244792 
L 1277.956731 390.458183 
L 1280.192308 383.902164 
L 1282.427885 285.200287 
L 1284.663462 438.290554 
L 1286.899038 348.543286 
L 1289.134615 471.445321 
L 1291.370192 434.592482 
L 1293.605769 467.837566 
L 1295.841346 506.208465 
L 1298.076923 514.437311 
L 1300.3125 360.560893 
L 1302.548077 373.730426 
L 1304.783654 474.891805 
L 1307.019231 408.455915 
L 1311.490385 489.823914 
L 1313.725962 421.602902 
L 1315.961538 500.444929 
L 1318.197115 255.695592 
L 1320.432692 413.111381 
L 1322.668269 481.662656 
L 1324.903846 465.292581 
L 1327.139423 427.443255 
L 1329.375 478.628714 
L 1331.610577 461.224521 
L 1333.846154 511.514835 
L 1336.081731 349.806677 
L 1338.317308 273.175943 
L 1340.552885 347.079726 
L 1342.788462 461.766396 
L 1345.024038 500.444929 
L 1347.259615 488.598574 
L 1349.495192 405.209333 
L 1351.730769 259.874409 
L 1353.966346 481.183338 
L 1356.201923 256.060362 
L 1358.4375 340.062503 
L 1360.673077 130.567192 
L 1362.908654 540.529857 
L 1365.144231 359.473299 
L 1367.379808 544.998616 
L 1369.615385 384.714395 
L 1371.850962 251.648172 
L 1374.086538 320.339883 
L 1376.322115 432.133947 
L 1378.557692 518.546437 
L 1383.028846 398.216871 
L 1385.264423 463.97183 
L 1387.5 350.912352 
L 1389.735577 499.59898 
L 1391.971154 466.790735 
L 1394.206731 451.793455 
L 1396.442308 242.056389 
L 1398.677885 380.646335 
L 1400.913462 309.265449 
L 1403.149038 268.929533 
L 1405.384615 298.10347 
L 1407.620192 172.453655 
L 1409.855769 437.039503 
L 1412.091346 510.281965 
L 1414.326923 473.4689 
L 1416.5625 496.963917 
L 1418.798077 347.07388 
L 1421.033654 515.646492 
L 1423.269231 268.929533 
L 1425.504808 286.78845 
L 1427.740385 488.758275 
L 1429.975962 306.578398 
L 1432.211538 315.56408 
L 1434.447115 458.962808 
L 1436.682692 280.152083 
L 1438.918269 528.591301 
L 1441.153846 346.725843 
L 1443.389423 249.321039 
L 1445.625 515.610015 
L 1447.860577 365.202503 
L 1450.096154 465.292581 
L 1452.331731 404.684569 
L 1454.567308 461.898526 
L 1456.802885 538.852884 
L 1459.038462 389.919616 
L 1461.274038 461.994725 
L 1463.509615 466.433205 
L 1465.745192 253.557725 
L 1467.980769 474.279004 
L 1470.216346 529.928845 
L 1472.451923 474.623409 
L 1474.6875 513.263127 
L 1476.923077 429.388032 
L 1479.158654 276.412488 
L 1481.394231 373.712355 
L 1483.629808 345.130068 
L 1485.865385 500.694968 
L 1488.100962 348.196707 
L 1490.336538 268.929533 
L 1492.572115 393.275343 
L 1494.807692 402.17364 
L 1497.043269 301.355895 
L 1499.278846 518.546437 
L 1501.514423 457.618126 
L 1503.75 404.387855 
L 1505.985577 363.092293 
L 1508.221154 452.552546 
L 1510.456731 289.714859 
L 1512.692308 465.877344 
L 1514.927885 480.408478 
L 1517.163462 360.317814 
L 1519.399038 478.069159 
L 1521.634615 465.339079 
L 1523.870192 423.858997 
L 1526.105769 501.906127 
L 1528.341346 276.939092 
L 1530.576923 405.202257 
L 1532.8125 398.10558 
L 1535.048077 446.914742 
L 1537.283654 451.823344 
L 1539.519231 532.816103 
L 1541.754808 428.173044 
L 1543.990385 271.197775 
L 1546.225962 363.318561 
L 1550.697115 465.181011 
L 1552.932692 398.10558 
L 1555.168269 351.731539 
L 1557.403846 469.360932 
L 1559.639423 451.839239 
L 1561.875 268.929533 
L 1564.110577 457.618126 
L 1566.346154 303.678366 
L 1568.581731 490.78138 
L 1570.817308 469.393138 
L 1573.052885 250.391105 
L 1575.288462 442.584519 
L 1577.524038 273.946102 
L 1579.759615 267.146607 
L 1581.995192 380.646335 
L 1584.230769 458.319108 
L 1586.466346 278.899973 
L 1588.701923 361.418576 
L 1590.9375 398.10558 
L 1593.173077 488.163408 
L 1595.408654 270.689953 
L 1597.644231 276.5756 
L 1599.879808 515.841326 
L 1602.115385 396.278223 
L 1604.350962 339.560763 
L 1606.586538 532.531081 
L 1608.822115 468.478593 
L 1611.057692 239.416844 
L 1613.293269 398.216871 
L 1615.528846 398.10558 
L 1617.764423 510.106909 
L 1620 511.710224 
L 1620 511.710224 
" style="fill:none;stroke:#ff7f0e;stroke-linecap:square;stroke-width:1.5;"/>
   </g>
   <g id="patch_3">
    <path d="M 225 630 
L 225 86.4 
" style="fill:none;stroke:#000000;stroke-linecap:square;stroke-linejoin:miter;stroke-width:0.8;"/>
   </g>
   <g id="patch_4">
    <path d="M 1620 630 
L 1620 86.4 
" style="fill:none;stroke:#000000;stroke-linecap:square;stroke-linejoin:miter;stroke-width:0.8;"/>
   </g>
   <g id="patch_5">
    <path d="M 225 630 
L 1620 630 
" style="fill:none;stroke:#000000;stroke-linecap:square;stroke-linejoin:miter;stroke-width:0.8;"/>
   </g>
   <g id="patch_6">
    <path d="M 225 86.4 
L 1620 86.4 
" style="fill:none;stroke:#000000;stroke-linecap:square;stroke-linejoin:miter;stroke-width:0.8;"/>
   </g>
   <g id="legend_1">
    <g id="patch_7">
     <path d="M 1515.775 124.034375 
L 1613 124.034375 
Q 1615 124.034375 1615 122.034375 
L 1615 93.4 
Q 1615 91.4 1613 91.4 
L 1515.775 91.4 
Q 1513.775 91.4 1513.775 93.4 
L 1513.775 122.034375 
Q 1513.775 124.034375 1515.775 124.034375 
z
" style="fill:#ffffff;opacity:0.8;stroke:#cccccc;stroke-linejoin:miter;"/>
    </g>
    <g id="line2d_15">
     <path d="M 1517.775 99.498437 
L 1537.775 99.498437 
" style="fill:none;stroke:#1f77b4;stroke-linecap:square;stroke-width:1.5;"/>
    </g>
    <g id="line2d_16"/>
    <g id="text_13">
     <!-- ground_truth -->
     <defs>
      <path d="M 45.40625 27.984375 
Q 45.40625 37.75 41.375 43.109375 
Q 37.359375 48.484375 30.078125 48.484375 
Q 22.859375 48.484375 18.828125 43.109375 
Q 14.796875 37.75 14.796875 27.984375 
Q 14.796875 18.265625 18.828125 12.890625 
Q 22.859375 7.515625 30.078125 7.515625 
Q 37.359375 7.515625 41.375 12.890625 
Q 45.40625 18.265625 45.40625 27.984375 
z
M 54.390625 6.78125 
Q 54.390625 -7.171875 48.1875 -13.984375 
Q 42 -20.796875 29.203125 -20.796875 
Q 24.46875 -20.796875 20.265625 -20.09375 
Q 16.0625 -19.390625 12.109375 -17.921875 
L 12.109375 -9.1875 
Q 16.0625 -11.328125 19.921875 -12.34375 
Q 23.78125 -13.375 27.78125 -13.375 
Q 36.625 -13.375 41.015625 -8.765625 
Q 45.40625 -4.15625 45.40625 5.171875 
L 45.40625 9.625 
Q 42.625 4.78125 38.28125 2.390625 
Q 33.9375 0 27.875 0 
Q 17.828125 0 11.671875 7.65625 
Q 5.515625 15.328125 5.515625 27.984375 
Q 5.515625 40.671875 11.671875 48.328125 
Q 17.828125 56 27.875 56 
Q 33.9375 56 38.28125 53.609375 
Q 42.625 51.21875 45.40625 46.390625 
L 45.40625 54.6875 
L 54.390625 54.6875 
z
" id="DejaVuSans-103"/>
      <path d="M 41.109375 46.296875 
Q 39.59375 47.171875 37.8125 47.578125 
Q 36.03125 48 33.890625 48 
Q 26.265625 48 22.1875 43.046875 
Q 18.109375 38.09375 18.109375 28.8125 
L 18.109375 0 
L 9.078125 0 
L 9.078125 54.6875 
L 18.109375 54.6875 
L 18.109375 46.1875 
Q 20.953125 51.171875 25.484375 53.578125 
Q 30.03125 56 36.53125 56 
Q 37.453125 56 38.578125 55.875 
Q 39.703125 55.765625 41.0625 55.515625 
z
" id="DejaVuSans-114"/>
      <path d="M 30.609375 48.390625 
Q 23.390625 48.390625 19.1875 42.75 
Q 14.984375 37.109375 14.984375 27.296875 
Q 14.984375 17.484375 19.15625 11.84375 
Q 23.34375 6.203125 30.609375 6.203125 
Q 37.796875 6.203125 41.984375 11.859375 
Q 46.1875 17.53125 46.1875 27.296875 
Q 46.1875 37.015625 41.984375 42.703125 
Q 37.796875 48.390625 30.609375 48.390625 
z
M 30.609375 56 
Q 42.328125 56 49.015625 48.375 
Q 55.71875 40.765625 55.71875 27.296875 
Q 55.71875 13.875 49.015625 6.21875 
Q 42.328125 -1.421875 30.609375 -1.421875 
Q 18.84375 -1.421875 12.171875 6.21875 
Q 5.515625 13.875 5.515625 27.296875 
Q 5.515625 40.765625 12.171875 48.375 
Q 18.84375 56 30.609375 56 
z
" id="DejaVuSans-111"/>
      <path d="M 8.5 21.578125 
L 8.5 54.6875 
L 17.484375 54.6875 
L 17.484375 21.921875 
Q 17.484375 14.15625 20.5 10.265625 
Q 23.53125 6.390625 29.59375 6.390625 
Q 36.859375 6.390625 41.078125 11.03125 
Q 45.3125 15.671875 45.3125 23.6875 
L 45.3125 54.6875 
L 54.296875 54.6875 
L 54.296875 0 
L 45.3125 0 
L 45.3125 8.40625 
Q 42.046875 3.421875 37.71875 1 
Q 33.40625 -1.421875 27.6875 -1.421875 
Q 18.265625 -1.421875 13.375 4.4375 
Q 8.5 10.296875 8.5 21.578125 
z
M 31.109375 56 
z
" id="DejaVuSans-117"/>
      <path d="M 54.890625 33.015625 
L 54.890625 0 
L 45.90625 0 
L 45.90625 32.71875 
Q 45.90625 40.484375 42.875 44.328125 
Q 39.84375 48.1875 33.796875 48.1875 
Q 26.515625 48.1875 22.3125 43.546875 
Q 18.109375 38.921875 18.109375 30.90625 
L 18.109375 0 
L 9.078125 0 
L 9.078125 54.6875 
L 18.109375 54.6875 
L 18.109375 46.1875 
Q 21.34375 51.125 25.703125 53.5625 
Q 30.078125 56 35.796875 56 
Q 45.21875 56 50.046875 50.171875 
Q 54.890625 44.34375 54.890625 33.015625 
z
" id="DejaVuSans-110"/>
      <path d="M 45.40625 46.390625 
L 45.40625 75.984375 
L 54.390625 75.984375 
L 54.390625 0 
L 45.40625 0 
L 45.40625 8.203125 
Q 42.578125 3.328125 38.25 0.953125 
Q 33.9375 -1.421875 27.875 -1.421875 
Q 17.96875 -1.421875 11.734375 6.484375 
Q 5.515625 14.40625 5.515625 27.296875 
Q 5.515625 40.1875 11.734375 48.09375 
Q 17.96875 56 27.875 56 
Q 33.9375 56 38.25 53.625 
Q 42.578125 51.265625 45.40625 46.390625 
z
M 14.796875 27.296875 
Q 14.796875 17.390625 18.875 11.75 
Q 22.953125 6.109375 30.078125 6.109375 
Q 37.203125 6.109375 41.296875 11.75 
Q 45.40625 17.390625 45.40625 27.296875 
Q 45.40625 37.203125 41.296875 42.84375 
Q 37.203125 48.484375 30.078125 48.484375 
Q 22.953125 48.484375 18.875 42.84375 
Q 14.796875 37.203125 14.796875 27.296875 
z
" id="DejaVuSans-100"/>
      <path d="M 50.984375 -16.609375 
L 50.984375 -23.578125 
L -0.984375 -23.578125 
L -0.984375 -16.609375 
z
" id="DejaVuSans-95"/>
      <path d="M 18.3125 70.21875 
L 18.3125 54.6875 
L 36.8125 54.6875 
L 36.8125 47.703125 
L 18.3125 47.703125 
L 18.3125 18.015625 
Q 18.3125 11.328125 20.140625 9.421875 
Q 21.96875 7.515625 27.59375 7.515625 
L 36.8125 7.515625 
L 36.8125 0 
L 27.59375 0 
Q 17.1875 0 13.234375 3.875 
Q 9.28125 7.765625 9.28125 18.015625 
L 9.28125 47.703125 
L 2.6875 47.703125 
L 2.6875 54.6875 
L 9.28125 54.6875 
L 9.28125 70.21875 
z
" id="DejaVuSans-116"/>
      <path d="M 54.890625 33.015625 
L 54.890625 0 
L 45.90625 0 
L 45.90625 32.71875 
Q 45.90625 40.484375 42.875 44.328125 
Q 39.84375 48.1875 33.796875 48.1875 
Q 26.515625 48.1875 22.3125 43.546875 
Q 18.109375 38.921875 18.109375 30.90625 
L 18.109375 0 
L 9.078125 0 
L 9.078125 75.984375 
L 18.109375 75.984375 
L 18.109375 46.1875 
Q 21.34375 51.125 25.703125 53.5625 
Q 30.078125 56 35.796875 56 
Q 45.21875 56 50.046875 50.171875 
Q 54.890625 44.34375 54.890625 33.015625 
z
" id="DejaVuSans-104"/>
     </defs>
     <g transform="translate(1545.775 102.998437)scale(0.1 -0.1)">
      <use xlink:href="#DejaVuSans-103"/>
      <use x="63.476562" xlink:href="#DejaVuSans-114"/>
      <use x="104.558594" xlink:href="#DejaVuSans-111"/>
      <use x="165.740234" xlink:href="#DejaVuSans-117"/>
      <use x="229.119141" xlink:href="#DejaVuSans-110"/>
      <use x="292.498047" xlink:href="#DejaVuSans-100"/>
      <use x="355.974609" xlink:href="#DejaVuSans-95"/>
      <use x="405.974609" xlink:href="#DejaVuSans-116"/>
      <use x="445.183594" xlink:href="#DejaVuSans-114"/>
      <use x="486.296875" xlink:href="#DejaVuSans-117"/>
      <use x="549.675781" xlink:href="#DejaVuSans-116"/>
      <use x="588.884766" xlink:href="#DejaVuSans-104"/>
     </g>
    </g>
    <g id="line2d_17">
     <path d="M 1517.775 114.454687 
L 1537.775 114.454687 
" style="fill:none;stroke:#ff7f0e;stroke-linecap:square;stroke-width:1.5;"/>
    </g>
    <g id="line2d_18"/>
    <g id="text_14">
     <!-- predictions -->
     <defs>
      <path d="M 18.109375 8.203125 
L 18.109375 -20.796875 
L 9.078125 -20.796875 
L 9.078125 54.6875 
L 18.109375 54.6875 
L 18.109375 46.390625 
Q 20.953125 51.265625 25.265625 53.625 
Q 29.59375 56 35.59375 56 
Q 45.5625 56 51.78125 48.09375 
Q 58.015625 40.1875 58.015625 27.296875 
Q 58.015625 14.40625 51.78125 6.484375 
Q 45.5625 -1.421875 35.59375 -1.421875 
Q 29.59375 -1.421875 25.265625 0.953125 
Q 20.953125 3.328125 18.109375 8.203125 
z
M 48.6875 27.296875 
Q 48.6875 37.203125 44.609375 42.84375 
Q 40.53125 48.484375 33.40625 48.484375 
Q 26.265625 48.484375 22.1875 42.84375 
Q 18.109375 37.203125 18.109375 27.296875 
Q 18.109375 17.390625 22.1875 11.75 
Q 26.265625 6.109375 33.40625 6.109375 
Q 40.53125 6.109375 44.609375 11.75 
Q 48.6875 17.390625 48.6875 27.296875 
z
" id="DejaVuSans-112"/>
      <path d="M 56.203125 29.59375 
L 56.203125 25.203125 
L 14.890625 25.203125 
Q 15.484375 15.921875 20.484375 11.0625 
Q 25.484375 6.203125 34.421875 6.203125 
Q 39.59375 6.203125 44.453125 7.46875 
Q 49.3125 8.734375 54.109375 11.28125 
L 54.109375 2.78125 
Q 49.265625 0.734375 44.1875 -0.34375 
Q 39.109375 -1.421875 33.890625 -1.421875 
Q 20.796875 -1.421875 13.15625 6.1875 
Q 5.515625 13.8125 5.515625 26.8125 
Q 5.515625 40.234375 12.765625 48.109375 
Q 20.015625 56 32.328125 56 
Q 43.359375 56 49.78125 48.890625 
Q 56.203125 41.796875 56.203125 29.59375 
z
M 47.21875 32.234375 
Q 47.125 39.59375 43.09375 43.984375 
Q 39.0625 48.390625 32.421875 48.390625 
Q 24.90625 48.390625 20.390625 44.140625 
Q 15.875 39.890625 15.1875 32.171875 
z
" id="DejaVuSans-101"/>
      <path d="M 9.421875 54.6875 
L 18.40625 54.6875 
L 18.40625 0 
L 9.421875 0 
z
M 9.421875 75.984375 
L 18.40625 75.984375 
L 18.40625 64.59375 
L 9.421875 64.59375 
z
" id="DejaVuSans-105"/>
      <path d="M 48.78125 52.59375 
L 48.78125 44.1875 
Q 44.96875 46.296875 41.140625 47.34375 
Q 37.3125 48.390625 33.40625 48.390625 
Q 24.65625 48.390625 19.8125 42.84375 
Q 14.984375 37.3125 14.984375 27.296875 
Q 14.984375 17.28125 19.8125 11.734375 
Q 24.65625 6.203125 33.40625 6.203125 
Q 37.3125 6.203125 41.140625 7.25 
Q 44.96875 8.296875 48.78125 10.40625 
L 48.78125 2.09375 
Q 45.015625 0.34375 40.984375 -0.53125 
Q 36.96875 -1.421875 32.421875 -1.421875 
Q 20.0625 -1.421875 12.78125 6.34375 
Q 5.515625 14.109375 5.515625 27.296875 
Q 5.515625 40.671875 12.859375 48.328125 
Q 20.21875 56 33.015625 56 
Q 37.15625 56 41.109375 55.140625 
Q 45.0625 54.296875 48.78125 52.59375 
z
" id="DejaVuSans-99"/>
      <path d="M 44.28125 53.078125 
L 44.28125 44.578125 
Q 40.484375 46.53125 36.375 47.5 
Q 32.28125 48.484375 27.875 48.484375 
Q 21.1875 48.484375 17.84375 46.4375 
Q 14.5 44.390625 14.5 40.28125 
Q 14.5 37.15625 16.890625 35.375 
Q 19.28125 33.59375 26.515625 31.984375 
L 29.59375 31.296875 
Q 39.15625 29.25 43.1875 25.515625 
Q 47.21875 21.78125 47.21875 15.09375 
Q 47.21875 7.46875 41.1875 3.015625 
Q 35.15625 -1.421875 24.609375 -1.421875 
Q 20.21875 -1.421875 15.453125 -0.5625 
Q 10.6875 0.296875 5.421875 2 
L 5.421875 11.28125 
Q 10.40625 8.6875 15.234375 7.390625 
Q 20.0625 6.109375 24.8125 6.109375 
Q 31.15625 6.109375 34.5625 8.28125 
Q 37.984375 10.453125 37.984375 14.40625 
Q 37.984375 18.0625 35.515625 20.015625 
Q 33.0625 21.96875 24.703125 23.78125 
L 21.578125 24.515625 
Q 13.234375 26.265625 9.515625 29.90625 
Q 5.8125 33.546875 5.8125 39.890625 
Q 5.8125 47.609375 11.28125 51.796875 
Q 16.75 56 26.8125 56 
Q 31.78125 56 36.171875 55.265625 
Q 40.578125 54.546875 44.28125 53.078125 
z
" id="DejaVuSans-115"/>
     </defs>
     <g transform="translate(1545.775 117.954687)scale(0.1 -0.1)">
      <use xlink:href="#DejaVuSans-112"/>
      <use x="63.476562" xlink:href="#DejaVuSans-114"/>
      <use x="104.558594" xlink:href="#DejaVuSans-101"/>
      <use x="166.082031" xlink:href="#DejaVuSans-100"/>
      <use x="229.558594" xlink:href="#DejaVuSans-105"/>
      <use x="257.341797" xlink:href="#DejaVuSans-99"/>
      <use x="312.322266" xlink:href="#DejaVuSans-116"/>
      <use x="351.53125" xlink:href="#DejaVuSans-105"/>
      <use x="379.314453" xlink:href="#DejaVuSans-111"/>
      <use x="440.496094" xlink:href="#DejaVuSans-110"/>
      <use x="503.875" xlink:href="#DejaVuSans-115"/>
     </g>
    </g>
   </g>
  </g>
 </g>
 <defs>
  <clipPath id="p5520d8f403">
   <rect height="543.6" width="1395" x="225" y="86.4"/>
  </clipPath>
 </defs>
</svg>
