<?xml version="1.0" encoding="utf-8" standalone="no"?>
<!DOCTYPE svg PUBLIC "-//W3C//DTD SVG 1.1//EN"
  "http://www.w3.org/Graphics/SVG/1.1/DTD/svg11.dtd">
<!-- Created with matplotlib (https://matplotlib.org/) -->
<svg height="720pt" version="1.1" viewBox="0 0 1800 720" width="1800pt" xmlns="http://www.w3.org/2000/svg" xmlns:xlink="http://www.w3.org/1999/xlink">
 <defs>
  <style type="text/css">
*{stroke-linecap:butt;stroke-linejoin:round;}
  </style>
 </defs>
 <g id="figure_1">
  <g id="patch_1">
   <path d="M 0 720 
L 1800 720 
L 1800 0 
L 0 0 
z
" style="fill:#ffffff;"/>
  </g>
  <g id="axes_1">
   <g id="patch_2">
    <path d="M 225 630 
L 1620 630 
L 1620 86.4 
L 225 86.4 
z
" style="fill:#ffffff;"/>
   </g>
   <g id="matplotlib.axis_1">
    <g id="xtick_1">
     <g id="line2d_1">
      <defs>
       <path d="M 0 0 
L 0 3.5 
" id="mb0d4a8b381" style="stroke:#000000;stroke-width:0.8;"/>
      </defs>
      <g>
       <use style="stroke:#000000;stroke-width:0.8;" x="225" xlink:href="#mb0d4a8b381" y="630"/>
      </g>
     </g>
     <g id="text_1">
      <!-- 0 -->
      <defs>
       <path d="M 31.78125 66.40625 
Q 24.171875 66.40625 20.328125 58.90625 
Q 16.5 51.421875 16.5 36.375 
Q 16.5 21.390625 20.328125 13.890625 
Q 24.171875 6.390625 31.78125 6.390625 
Q 39.453125 6.390625 43.28125 13.890625 
Q 47.125 21.390625 47.125 36.375 
Q 47.125 51.421875 43.28125 58.90625 
Q 39.453125 66.40625 31.78125 66.40625 
z
M 31.78125 74.21875 
Q 44.046875 74.21875 50.515625 64.515625 
Q 56.984375 54.828125 56.984375 36.375 
Q 56.984375 17.96875 50.515625 8.265625 
Q 44.046875 -1.421875 31.78125 -1.421875 
Q 19.53125 -1.421875 13.0625 8.265625 
Q 6.59375 17.96875 6.59375 36.375 
Q 6.59375 54.828125 13.0625 64.515625 
Q 19.53125 74.21875 31.78125 74.21875 
z
" id="DejaVuSans-48"/>
      </defs>
      <g transform="translate(221.81875 644.598438)scale(0.1 -0.1)">
       <use xlink:href="#DejaVuSans-48"/>
      </g>
     </g>
    </g>
    <g id="xtick_2">
     <g id="line2d_2">
      <g>
       <use style="stroke:#000000;stroke-width:0.8;" x="448.557692" xlink:href="#mb0d4a8b381" y="630"/>
      </g>
     </g>
     <g id="text_2">
      <!-- 100 -->
      <defs>
       <path d="M 12.40625 8.296875 
L 28.515625 8.296875 
L 28.515625 63.921875 
L 10.984375 60.40625 
L 10.984375 69.390625 
L 28.421875 72.90625 
L 38.28125 72.90625 
L 38.28125 8.296875 
L 54.390625 8.296875 
L 54.390625 0 
L 12.40625 0 
z
" id="DejaVuSans-49"/>
      </defs>
      <g transform="translate(439.013942 644.598438)scale(0.1 -0.1)">
       <use xlink:href="#DejaVuSans-49"/>
       <use x="63.623047" xlink:href="#DejaVuSans-48"/>
       <use x="127.246094" xlink:href="#DejaVuSans-48"/>
      </g>
     </g>
    </g>
    <g id="xtick_3">
     <g id="line2d_3">
      <g>
       <use style="stroke:#000000;stroke-width:0.8;" x="672.115385" xlink:href="#mb0d4a8b381" y="630"/>
      </g>
     </g>
     <g id="text_3">
      <!-- 200 -->
      <defs>
       <path d="M 19.1875 8.296875 
L 53.609375 8.296875 
L 53.609375 0 
L 7.328125 0 
L 7.328125 8.296875 
Q 12.9375 14.109375 22.625 23.890625 
Q 32.328125 33.6875 34.8125 36.53125 
Q 39.546875 41.84375 41.421875 45.53125 
Q 43.3125 49.21875 43.3125 52.78125 
Q 43.3125 58.59375 39.234375 62.25 
Q 35.15625 65.921875 28.609375 65.921875 
Q 23.96875 65.921875 18.8125 64.3125 
Q 13.671875 62.703125 7.8125 59.421875 
L 7.8125 69.390625 
Q 13.765625 71.78125 18.9375 73 
Q 24.125 74.21875 28.421875 74.21875 
Q 39.75 74.21875 46.484375 68.546875 
Q 53.21875 62.890625 53.21875 53.421875 
Q 53.21875 48.921875 51.53125 44.890625 
Q 49.859375 40.875 45.40625 35.40625 
Q 44.1875 33.984375 37.640625 27.21875 
Q 31.109375 20.453125 19.1875 8.296875 
z
" id="DejaVuSans-50"/>
      </defs>
      <g transform="translate(662.571635 644.598438)scale(0.1 -0.1)">
       <use xlink:href="#DejaVuSans-50"/>
       <use x="63.623047" xlink:href="#DejaVuSans-48"/>
       <use x="127.246094" xlink:href="#DejaVuSans-48"/>
      </g>
     </g>
    </g>
    <g id="xtick_4">
     <g id="line2d_4">
      <g>
       <use style="stroke:#000000;stroke-width:0.8;" x="895.673077" xlink:href="#mb0d4a8b381" y="630"/>
      </g>
     </g>
     <g id="text_4">
      <!-- 300 -->
      <defs>
       <path d="M 40.578125 39.3125 
Q 47.65625 37.796875 51.625 33 
Q 55.609375 28.21875 55.609375 21.1875 
Q 55.609375 10.40625 48.1875 4.484375 
Q 40.765625 -1.421875 27.09375 -1.421875 
Q 22.515625 -1.421875 17.65625 -0.515625 
Q 12.796875 0.390625 7.625 2.203125 
L 7.625 11.71875 
Q 11.71875 9.328125 16.59375 8.109375 
Q 21.484375 6.890625 26.8125 6.890625 
Q 36.078125 6.890625 40.9375 10.546875 
Q 45.796875 14.203125 45.796875 21.1875 
Q 45.796875 27.640625 41.28125 31.265625 
Q 36.765625 34.90625 28.71875 34.90625 
L 20.21875 34.90625 
L 20.21875 43.015625 
L 29.109375 43.015625 
Q 36.375 43.015625 40.234375 45.921875 
Q 44.09375 48.828125 44.09375 54.296875 
Q 44.09375 59.90625 40.109375 62.90625 
Q 36.140625 65.921875 28.71875 65.921875 
Q 24.65625 65.921875 20.015625 65.03125 
Q 15.375 64.15625 9.8125 62.3125 
L 9.8125 71.09375 
Q 15.4375 72.65625 20.34375 73.4375 
Q 25.25 74.21875 29.59375 74.21875 
Q 40.828125 74.21875 47.359375 69.109375 
Q 53.90625 64.015625 53.90625 55.328125 
Q 53.90625 49.265625 50.4375 45.09375 
Q 46.96875 40.921875 40.578125 39.3125 
z
" id="DejaVuSans-51"/>
      </defs>
      <g transform="translate(886.129327 644.598438)scale(0.1 -0.1)">
       <use xlink:href="#DejaVuSans-51"/>
       <use x="63.623047" xlink:href="#DejaVuSans-48"/>
       <use x="127.246094" xlink:href="#DejaVuSans-48"/>
      </g>
     </g>
    </g>
    <g id="xtick_5">
     <g id="line2d_5">
      <g>
       <use style="stroke:#000000;stroke-width:0.8;" x="1119.230769" xlink:href="#mb0d4a8b381" y="630"/>
      </g>
     </g>
     <g id="text_5">
      <!-- 400 -->
      <defs>
       <path d="M 37.796875 64.3125 
L 12.890625 25.390625 
L 37.796875 25.390625 
z
M 35.203125 72.90625 
L 47.609375 72.90625 
L 47.609375 25.390625 
L 58.015625 25.390625 
L 58.015625 17.1875 
L 47.609375 17.1875 
L 47.609375 0 
L 37.796875 0 
L 37.796875 17.1875 
L 4.890625 17.1875 
L 4.890625 26.703125 
z
" id="DejaVuSans-52"/>
      </defs>
      <g transform="translate(1109.687019 644.598438)scale(0.1 -0.1)">
       <use xlink:href="#DejaVuSans-52"/>
       <use x="63.623047" xlink:href="#DejaVuSans-48"/>
       <use x="127.246094" xlink:href="#DejaVuSans-48"/>
      </g>
     </g>
    </g>
    <g id="xtick_6">
     <g id="line2d_6">
      <g>
       <use style="stroke:#000000;stroke-width:0.8;" x="1342.788462" xlink:href="#mb0d4a8b381" y="630"/>
      </g>
     </g>
     <g id="text_6">
      <!-- 500 -->
      <defs>
       <path d="M 10.796875 72.90625 
L 49.515625 72.90625 
L 49.515625 64.59375 
L 19.828125 64.59375 
L 19.828125 46.734375 
Q 21.96875 47.46875 24.109375 47.828125 
Q 26.265625 48.1875 28.421875 48.1875 
Q 40.625 48.1875 47.75 41.5 
Q 54.890625 34.8125 54.890625 23.390625 
Q 54.890625 11.625 47.5625 5.09375 
Q 40.234375 -1.421875 26.90625 -1.421875 
Q 22.3125 -1.421875 17.546875 -0.640625 
Q 12.796875 0.140625 7.71875 1.703125 
L 7.71875 11.625 
Q 12.109375 9.234375 16.796875 8.0625 
Q 21.484375 6.890625 26.703125 6.890625 
Q 35.15625 6.890625 40.078125 11.328125 
Q 45.015625 15.765625 45.015625 23.390625 
Q 45.015625 31 40.078125 35.4375 
Q 35.15625 39.890625 26.703125 39.890625 
Q 22.75 39.890625 18.8125 39.015625 
Q 14.890625 38.140625 10.796875 36.28125 
z
" id="DejaVuSans-53"/>
      </defs>
      <g transform="translate(1333.244712 644.598438)scale(0.1 -0.1)">
       <use xlink:href="#DejaVuSans-53"/>
       <use x="63.623047" xlink:href="#DejaVuSans-48"/>
       <use x="127.246094" xlink:href="#DejaVuSans-48"/>
      </g>
     </g>
    </g>
    <g id="xtick_7">
     <g id="line2d_7">
      <g>
       <use style="stroke:#000000;stroke-width:0.8;" x="1566.346154" xlink:href="#mb0d4a8b381" y="630"/>
      </g>
     </g>
     <g id="text_7">
      <!-- 600 -->
      <defs>
       <path d="M 33.015625 40.375 
Q 26.375 40.375 22.484375 35.828125 
Q 18.609375 31.296875 18.609375 23.390625 
Q 18.609375 15.53125 22.484375 10.953125 
Q 26.375 6.390625 33.015625 6.390625 
Q 39.65625 6.390625 43.53125 10.953125 
Q 47.40625 15.53125 47.40625 23.390625 
Q 47.40625 31.296875 43.53125 35.828125 
Q 39.65625 40.375 33.015625 40.375 
z
M 52.59375 71.296875 
L 52.59375 62.3125 
Q 48.875 64.0625 45.09375 64.984375 
Q 41.3125 65.921875 37.59375 65.921875 
Q 27.828125 65.921875 22.671875 59.328125 
Q 17.53125 52.734375 16.796875 39.40625 
Q 19.671875 43.65625 24.015625 45.921875 
Q 28.375 48.1875 33.59375 48.1875 
Q 44.578125 48.1875 50.953125 41.515625 
Q 57.328125 34.859375 57.328125 23.390625 
Q 57.328125 12.15625 50.6875 5.359375 
Q 44.046875 -1.421875 33.015625 -1.421875 
Q 20.359375 -1.421875 13.671875 8.265625 
Q 6.984375 17.96875 6.984375 36.375 
Q 6.984375 53.65625 15.1875 63.9375 
Q 23.390625 74.21875 37.203125 74.21875 
Q 40.921875 74.21875 44.703125 73.484375 
Q 48.484375 72.75 52.59375 71.296875 
z
" id="DejaVuSans-54"/>
      </defs>
      <g transform="translate(1556.802404 644.598438)scale(0.1 -0.1)">
       <use xlink:href="#DejaVuSans-54"/>
       <use x="63.623047" xlink:href="#DejaVuSans-48"/>
       <use x="127.246094" xlink:href="#DejaVuSans-48"/>
      </g>
     </g>
    </g>
   </g>
   <g id="matplotlib.axis_2">
    <g id="ytick_1">
     <g id="line2d_8">
      <defs>
       <path d="M 0 0 
L -3.5 0 
" id="m940c5f097b" style="stroke:#000000;stroke-width:0.8;"/>
      </defs>
      <g>
       <use style="stroke:#000000;stroke-width:0.8;" x="225" xlink:href="#m940c5f097b" y="597.189568"/>
      </g>
     </g>
     <g id="text_8">
      <!-- 200 -->
      <g transform="translate(198.9125 600.988787)scale(0.1 -0.1)">
       <use xlink:href="#DejaVuSans-50"/>
       <use x="63.623047" xlink:href="#DejaVuSans-48"/>
       <use x="127.246094" xlink:href="#DejaVuSans-48"/>
      </g>
     </g>
    </g>
    <g id="ytick_2">
     <g id="line2d_9">
      <g>
       <use style="stroke:#000000;stroke-width:0.8;" x="225" xlink:href="#m940c5f097b" y="489.171684"/>
      </g>
     </g>
     <g id="text_9">
      <!-- 400 -->
      <g transform="translate(198.9125 492.970903)scale(0.1 -0.1)">
       <use xlink:href="#DejaVuSans-52"/>
       <use x="63.623047" xlink:href="#DejaVuSans-48"/>
       <use x="127.246094" xlink:href="#DejaVuSans-48"/>
      </g>
     </g>
    </g>
    <g id="ytick_3">
     <g id="line2d_10">
      <g>
       <use style="stroke:#000000;stroke-width:0.8;" x="225" xlink:href="#m940c5f097b" y="381.1538"/>
      </g>
     </g>
     <g id="text_10">
      <!-- 600 -->
      <g transform="translate(198.9125 384.953019)scale(0.1 -0.1)">
       <use xlink:href="#DejaVuSans-54"/>
       <use x="63.623047" xlink:href="#DejaVuSans-48"/>
       <use x="127.246094" xlink:href="#DejaVuSans-48"/>
      </g>
     </g>
    </g>
    <g id="ytick_4">
     <g id="line2d_11">
      <g>
       <use style="stroke:#000000;stroke-width:0.8;" x="225" xlink:href="#m940c5f097b" y="273.135917"/>
      </g>
     </g>
     <g id="text_11">
      <!-- 800 -->
      <defs>
       <path d="M 31.78125 34.625 
Q 24.75 34.625 20.71875 30.859375 
Q 16.703125 27.09375 16.703125 20.515625 
Q 16.703125 13.921875 20.71875 10.15625 
Q 24.75 6.390625 31.78125 6.390625 
Q 38.8125 6.390625 42.859375 10.171875 
Q 46.921875 13.96875 46.921875 20.515625 
Q 46.921875 27.09375 42.890625 30.859375 
Q 38.875 34.625 31.78125 34.625 
z
M 21.921875 38.8125 
Q 15.578125 40.375 12.03125 44.71875 
Q 8.5 49.078125 8.5 55.328125 
Q 8.5 64.0625 14.71875 69.140625 
Q 20.953125 74.21875 31.78125 74.21875 
Q 42.671875 74.21875 48.875 69.140625 
Q 55.078125 64.0625 55.078125 55.328125 
Q 55.078125 49.078125 51.53125 44.71875 
Q 48 40.375 41.703125 38.8125 
Q 48.828125 37.15625 52.796875 32.3125 
Q 56.78125 27.484375 56.78125 20.515625 
Q 56.78125 9.90625 50.3125 4.234375 
Q 43.84375 -1.421875 31.78125 -1.421875 
Q 19.734375 -1.421875 13.25 4.234375 
Q 6.78125 9.90625 6.78125 20.515625 
Q 6.78125 27.484375 10.78125 32.3125 
Q 14.796875 37.15625 21.921875 38.8125 
z
M 18.3125 54.390625 
Q 18.3125 48.734375 21.84375 45.5625 
Q 25.390625 42.390625 31.78125 42.390625 
Q 38.140625 42.390625 41.71875 45.5625 
Q 45.3125 48.734375 45.3125 54.390625 
Q 45.3125 60.0625 41.71875 63.234375 
Q 38.140625 66.40625 31.78125 66.40625 
Q 25.390625 66.40625 21.84375 63.234375 
Q 18.3125 60.0625 18.3125 54.390625 
z
" id="DejaVuSans-56"/>
      </defs>
      <g transform="translate(198.9125 276.935135)scale(0.1 -0.1)">
       <use xlink:href="#DejaVuSans-56"/>
       <use x="63.623047" xlink:href="#DejaVuSans-48"/>
       <use x="127.246094" xlink:href="#DejaVuSans-48"/>
      </g>
     </g>
    </g>
    <g id="ytick_5">
     <g id="line2d_12">
      <g>
       <use style="stroke:#000000;stroke-width:0.8;" x="225" xlink:href="#m940c5f097b" y="165.118033"/>
      </g>
     </g>
     <g id="text_12">
      <!-- 1000 -->
      <g transform="translate(192.55 168.917252)scale(0.1 -0.1)">
       <use xlink:href="#DejaVuSans-49"/>
       <use x="63.623047" xlink:href="#DejaVuSans-48"/>
       <use x="127.246094" xlink:href="#DejaVuSans-48"/>
       <use x="190.869141" xlink:href="#DejaVuSans-48"/>
      </g>
     </g>
    </g>
   </g>
   <g id="line2d_13">
    <path clip-path="url(#p4f7a0b4d84)" d="M 225 474.04918 
L 227.235577 462.167213 
L 229.471154 408.158271 
L 231.706731 516.176155 
L 233.942308 445.964531 
L 236.177885 510.775261 
L 238.413462 397.896572 
L 240.649038 489.171684 
L 242.884615 165.118033 
L 245.120192 408.158271 
L 247.355769 597.189568 
L 251.826923 300.140387 
L 254.0625 489.171684 
L 256.298077 300.140387 
L 258.533654 273.135917 
L 260.769231 381.1538 
L 263.004808 543.180626 
L 265.240385 381.1538 
L 267.475962 391.955589 
L 269.711538 246.131446 
L 271.947115 435.162742 
L 274.182692 337.946647 
L 276.418269 175.919821 
L 278.653846 381.1538 
L 280.889423 435.162742 
L 283.125 418.96006 
L 285.360577 505.374367 
L 287.596154 316.34307 
L 289.831731 354.149329 
L 294.302885 300.140387 
L 296.538462 111.109091 
L 298.774038 462.167213 
L 301.009615 489.171684 
L 303.245192 494.572578 
L 305.480769 300.140387 
L 307.716346 456.766319 
L 309.951923 489.171684 
L 312.1875 381.1538 
L 314.423077 478.369896 
L 316.658654 219.126975 
L 318.894231 165.118033 
L 321.129808 532.378838 
L 323.365385 543.180626 
L 325.600962 489.171684 
L 327.836538 570.185097 
L 330.072115 327.144858 
L 332.307692 381.1538 
L 334.543269 408.158271 
L 336.778846 472.969001 
L 339.014423 327.144858 
L 341.25 402.757377 
L 343.485577 408.158271 
L 345.721154 381.1538 
L 347.956731 273.135917 
L 350.192308 462.167213 
L 352.427885 343.347541 
L 354.663462 354.149329 
L 356.899038 246.131446 
L 359.134615 462.167213 
L 361.370192 451.365425 
L 363.605769 300.140387 
L 365.841346 440.563636 
L 370.3125 516.176155 
L 372.548077 478.369896 
L 374.783654 175.919821 
L 377.019231 462.167213 
L 379.254808 327.144858 
L 381.490385 548.58152 
L 383.725962 489.171684 
L 385.961538 359.550224 
L 388.197115 219.126975 
L 390.432692 381.1538 
L 392.668269 219.126975 
L 394.903846 192.122504 
L 397.139423 435.162742 
L 399.375 408.158271 
L 401.610577 489.171684 
L 403.846154 381.1538 
L 406.081731 510.775261 
L 408.317308 489.171684 
L 410.552885 435.162742 
L 412.788462 499.973472 
L 415.024038 505.374367 
L 417.259615 462.167213 
L 419.495192 246.131446 
L 421.730769 435.162742 
L 423.966346 521.577049 
L 426.201923 489.171684 
L 428.4375 219.126975 
L 430.673077 246.131446 
L 432.908654 591.788674 
L 435.144231 229.928763 
L 437.379808 489.171684 
L 439.615385 435.162742 
L 441.850962 348.748435 
L 444.086538 364.951118 
L 446.322115 435.162742 
L 448.557692 526.977943 
L 450.793269 532.378838 
L 453.028846 553.982414 
L 455.264423 354.149329 
L 457.5 445.964531 
L 459.735577 381.1538 
L 461.971154 435.162742 
L 464.206731 337.946647 
L 466.442308 219.126975 
L 468.677885 219.126975 
L 473.149038 553.982414 
L 475.384615 327.144858 
L 477.620192 354.149329 
L 482.091346 246.131446 
L 484.326923 246.131446 
L 486.5625 478.369896 
L 488.798077 570.185097 
L 491.033654 278.536811 
L 493.269231 219.126975 
L 495.504808 364.951118 
L 497.740385 408.158271 
L 499.975962 435.162742 
L 502.211538 267.735022 
L 504.447115 300.140387 
L 506.682692 381.1538 
L 508.918269 516.176155 
L 511.153846 327.144858 
L 513.389423 489.171684 
L 515.625 516.176155 
L 517.860577 381.1538 
L 520.096154 408.158271 
L 522.331731 472.969001 
L 524.567308 451.365425 
L 526.802885 597.189568 
L 529.038462 251.53234 
L 531.274038 300.140387 
L 533.509615 273.135917 
L 535.745192 494.572578 
L 537.980769 327.144858 
L 540.216346 424.360954 
L 542.451923 327.144858 
L 544.6875 246.131446 
L 546.923077 494.572578 
L 549.158654 408.158271 
L 551.394231 462.167213 
L 553.629808 165.118033 
L 555.865385 381.1538 
L 558.100962 435.162742 
L 560.336538 553.982414 
L 562.572115 526.977943 
L 564.807692 283.937705 
L 567.043269 543.180626 
L 569.278846 354.149329 
L 571.514423 516.176155 
L 573.75 462.167213 
L 575.985577 219.126975 
L 578.221154 499.973472 
L 580.456731 435.162742 
L 582.692308 300.140387 
L 584.927885 462.167213 
L 587.163462 543.180626 
L 589.399038 278.536811 
L 591.634615 462.167213 
L 593.870192 219.126975 
L 596.105769 408.158271 
L 598.341346 175.919821 
L 600.576923 246.131446 
L 602.8125 327.144858 
L 605.048077 300.140387 
L 607.283654 408.158271 
L 609.519231 327.144858 
L 611.754808 381.1538 
L 613.990385 373.052459 
L 616.225962 418.96006 
L 618.461538 111.109091 
L 620.697115 435.162742 
L 622.932692 494.572578 
L 625.168269 462.167213 
L 627.403846 462.167213 
L 629.639423 327.144858 
L 631.875 516.176155 
L 634.110577 490.251863 
L 636.346154 543.180626 
L 638.581731 510.775261 
L 640.817308 499.973472 
L 643.052885 192.122504 
L 645.288462 327.144858 
L 647.524038 111.109091 
L 649.759615 332.545753 
L 651.995192 192.122504 
L 654.230769 300.140387 
L 656.466346 570.185097 
L 658.701923 435.162742 
L 660.9375 391.955589 
L 663.173077 435.162742 
L 665.408654 408.158271 
L 667.644231 478.369896 
L 669.879808 408.158271 
L 672.115385 462.167213 
L 674.350962 381.1538 
L 676.586538 165.118033 
L 678.822115 381.1538 
L 681.057692 354.149329 
L 683.293269 121.910879 
L 685.528846 472.969001 
L 687.764423 208.325186 
L 690 165.118033 
L 692.235577 499.973472 
L 694.471154 499.973472 
L 696.706731 300.140387 
L 698.942308 435.162742 
L 701.177885 424.360954 
L 703.413462 489.171684 
L 705.649038 499.973472 
L 707.884615 354.149329 
L 710.120192 300.140387 
L 712.355769 462.167213 
L 714.591346 111.109091 
L 716.826923 435.162742 
L 719.0625 111.109091 
L 721.298077 408.158271 
L 723.533654 273.135917 
L 725.769231 408.158271 
L 728.004808 462.167213 
L 730.240385 499.973472 
L 732.475962 435.162742 
L 734.711538 316.34307 
L 736.947115 516.176155 
L 739.182692 491.332042 
L 741.418269 435.162742 
L 743.653846 354.149329 
L 745.889423 111.109091 
L 748.125 381.1538 
L 750.360577 489.171684 
L 752.596154 410.318629 
L 754.831731 570.185097 
L 757.067308 483.77079 
L 759.302885 435.162742 
L 761.538462 472.969001 
L 763.774038 165.118033 
L 766.009615 381.1538 
L 768.245192 111.109091 
L 770.480769 393.575857 
L 772.716346 462.167213 
L 774.951923 586.387779 
L 777.1875 408.158271 
L 779.423077 300.140387 
L 781.658654 381.1538 
L 783.894231 445.964531 
L 786.129808 462.167213 
L 788.365385 381.1538 
L 790.600962 462.167213 
L 792.836538 489.171684 
L 795.072115 472.969001 
L 797.307692 410.858718 
L 799.543269 526.977943 
L 801.778846 510.775261 
L 804.014423 186.72161 
L 806.25 489.171684 
L 808.485577 553.982414 
L 810.721154 489.171684 
L 812.956731 408.158271 
L 815.192308 559.383308 
L 817.427885 516.176155 
L 819.663462 435.162742 
L 821.899038 327.144858 
L 824.134615 516.176155 
L 826.370192 451.365425 
L 828.605769 489.171684 
L 830.841346 165.118033 
L 833.076923 454.065872 
L 835.3125 408.158271 
L 837.548077 462.167213 
L 839.783654 502.67392 
L 842.019231 424.360954 
L 844.254808 472.969001 
L 846.490385 354.149329 
L 848.725962 562.083756 
L 850.961538 219.126975 
L 853.197115 499.973472 
L 855.432692 300.140387 
L 857.668269 435.162742 
L 859.903846 462.167213 
L 862.139423 451.365425 
L 864.375 246.131446 
L 866.610577 165.118033 
L 868.846154 327.144858 
L 871.081731 552.362146 
L 873.317308 354.149329 
L 875.552885 273.135917 
L 877.788462 489.171684 
L 880.024038 364.951118 
L 882.259615 327.144858 
L 884.495192 381.1538 
L 886.730769 505.374367 
L 888.966346 435.162742 
L 891.201923 456.766319 
L 893.4375 494.572578 
L 895.673077 273.135917 
L 897.908654 435.162742 
L 900.144231 521.577049 
L 902.379808 424.360954 
L 904.615385 435.162742 
L 906.850962 489.171684 
L 909.086538 327.144858 
L 911.322115 402.757377 
L 913.557692 111.109091 
L 915.793269 462.167213 
L 918.028846 537.779732 
L 920.264423 462.167213 
L 922.5 111.109091 
L 924.735577 505.374367 
L 926.971154 332.545753 
L 929.206731 273.135917 
L 931.442308 138.113562 
L 933.677885 435.162742 
L 935.913462 510.775261 
L 938.149038 556.682861 
L 940.384615 435.162742 
L 942.620192 499.973472 
L 944.855769 165.118033 
L 947.091346 516.176155 
L 949.326923 300.140387 
L 951.5625 462.167213 
L 953.798077 408.158271 
L 956.033654 424.360954 
L 958.269231 381.1538 
L 960.504808 300.140387 
L 962.740385 354.149329 
L 964.975962 337.946647 
L 967.211538 543.180626 
L 969.447115 354.149329 
L 971.682692 489.171684 
L 973.918269 381.1538 
L 976.153846 370.352012 
L 978.389423 165.118033 
L 980.625 424.360954 
L 982.860577 300.140387 
L 985.096154 494.572578 
L 987.331731 348.748435 
L 989.567308 408.158271 
L 991.802885 408.158271 
L 994.038462 472.969001 
L 996.274038 111.109091 
L 998.509615 246.131446 
L 1000.745192 499.973472 
L 1002.980769 316.34307 
L 1005.216346 494.572578 
L 1007.451923 505.374367 
L 1009.6875 532.918927 
L 1011.923077 553.982414 
L 1014.158654 246.131446 
L 1016.394231 516.176155 
L 1018.629808 391.955589 
L 1020.865385 543.180626 
L 1023.100962 370.352012 
L 1025.336538 337.946647 
L 1027.572115 435.162742 
L 1029.807692 111.109091 
L 1032.043269 499.973472 
L 1034.278846 278.536811 
L 1036.514423 435.162742 
L 1038.75 483.77079 
L 1040.985577 489.171684 
L 1045.456731 381.1538 
L 1047.692308 510.775261 
L 1049.927885 494.572578 
L 1052.163462 462.167213 
L 1054.399038 435.162742 
L 1056.634615 273.135917 
L 1058.870192 397.356483 
L 1061.105769 435.162742 
L 1063.341346 165.118033 
L 1065.576923 462.167213 
L 1067.8125 413.559165 
L 1070.048077 383.854247 
L 1072.283654 381.1538 
L 1074.519231 219.126975 
L 1076.754808 300.140387 
L 1078.990385 489.171684 
L 1081.225962 505.374367 
L 1083.461538 300.140387 
L 1085.697115 408.158271 
L 1087.932692 381.1538 
L 1090.168269 472.969001 
L 1092.403846 332.545753 
L 1094.639423 381.1538 
L 1096.875 421.660507 
L 1099.110577 273.135917 
L 1101.346154 181.320715 
L 1103.581731 499.973472 
L 1105.817308 499.973472 
L 1108.052885 510.775261 
L 1110.288462 381.1538 
L 1112.524038 489.171684 
L 1114.759615 219.126975 
L 1116.995192 165.118033 
L 1119.230769 435.162742 
L 1121.466346 381.1538 
L 1123.701923 462.167213 
L 1125.9375 354.149329 
L 1128.173077 375.752906 
L 1130.408654 408.158271 
L 1132.644231 489.171684 
L 1134.879808 192.122504 
L 1137.115385 410.858718 
L 1139.350962 435.162742 
L 1141.586538 526.977943 
L 1143.822115 489.171684 
L 1146.057692 408.158271 
L 1148.293269 543.180626 
L 1150.528846 413.559165 
L 1152.764423 192.122504 
L 1155 111.109091 
L 1157.235577 408.158271 
L 1159.471154 489.171684 
L 1161.706731 489.171684 
L 1163.942308 462.167213 
L 1166.177885 300.140387 
L 1168.413462 445.964531 
L 1170.649038 437.863189 
L 1172.884615 435.162742 
L 1175.120192 354.149329 
L 1177.355769 451.365425 
L 1179.591346 462.167213 
L 1181.826923 381.1538 
L 1184.0625 111.109091 
L 1186.298077 381.1538 
L 1188.533654 505.374367 
L 1190.769231 246.131446 
L 1193.004808 354.149329 
L 1195.240385 440.563636 
L 1197.475962 499.973472 
L 1199.711538 410.858718 
L 1201.947115 381.1538 
L 1204.182692 462.167213 
L 1206.418269 354.149329 
L 1208.653846 354.149329 
L 1210.889423 456.766319 
L 1213.125 130.012221 
L 1215.360577 475.669449 
L 1217.596154 532.378838 
L 1219.831731 435.162742 
L 1222.067308 472.969001 
L 1224.302885 332.545753 
L 1226.538462 246.131446 
L 1228.774038 408.158271 
L 1231.009615 543.180626 
L 1233.245192 499.973472 
L 1235.480769 165.118033 
L 1237.716346 175.919821 
L 1239.951923 300.140387 
L 1242.1875 499.973472 
L 1244.423077 489.171684 
L 1246.658654 445.964531 
L 1248.894231 332.545753 
L 1251.129808 516.176155 
L 1253.365385 435.162742 
L 1255.600962 451.365425 
L 1257.836538 505.374367 
L 1260.072115 262.334128 
L 1262.307692 489.171684 
L 1264.543269 570.185097 
L 1266.778846 548.58152 
L 1269.014423 543.180626 
L 1271.25 494.572578 
L 1273.485577 489.171684 
L 1275.721154 354.149329 
L 1277.956731 435.162742 
L 1282.427885 435.162742 
L 1284.663462 327.144858 
L 1286.899038 435.162742 
L 1289.134615 381.1538 
L 1291.370192 562.083756 
L 1293.605769 408.158271 
L 1295.841346 451.365425 
L 1298.076923 381.1538 
L 1300.3125 408.158271 
L 1302.548077 532.378838 
L 1304.783654 408.158271 
L 1307.019231 165.118033 
L 1309.254808 456.766319 
L 1311.490385 462.167213 
L 1313.725962 246.131446 
L 1315.961538 251.53234 
L 1318.197115 435.162742 
L 1320.432692 435.162742 
L 1322.668269 300.140387 
L 1324.903846 489.171684 
L 1327.139423 246.131446 
L 1329.375 516.176155 
L 1331.610577 354.149329 
L 1333.846154 499.973472 
L 1336.081731 435.162742 
L 1338.317308 273.135917 
L 1340.552885 570.185097 
L 1342.788462 444.344262 
L 1345.024038 462.167213 
L 1347.259615 489.171684 
L 1349.495192 489.171684 
L 1351.730769 526.977943 
L 1353.966346 556.682861 
L 1356.201923 381.1538 
L 1358.4375 246.131446 
L 1360.673077 516.176155 
L 1362.908654 462.167213 
L 1365.144231 435.162742 
L 1367.379808 537.779732 
L 1369.615385 570.185097 
L 1371.850962 240.730551 
L 1374.086538 381.1538 
L 1376.322115 532.378838 
L 1378.557692 354.149329 
L 1380.793269 437.863189 
L 1383.028846 451.365425 
L 1385.264423 165.118033 
L 1387.5 273.135917 
L 1391.971154 381.1538 
L 1394.206731 460.006855 
L 1396.442308 408.158271 
L 1398.677885 327.144858 
L 1400.913462 548.58152 
L 1403.149038 273.135917 
L 1405.384615 273.135917 
L 1407.620192 219.126975 
L 1409.855769 424.360954 
L 1412.091346 594.489121 
L 1414.326923 408.158271 
L 1416.5625 300.140387 
L 1418.798077 327.144858 
L 1421.033654 300.140387 
L 1423.269231 445.964531 
L 1425.504808 489.171684 
L 1427.740385 489.171684 
L 1429.975962 462.167213 
L 1432.211538 499.973472 
L 1434.447115 543.180626 
L 1436.682692 327.144858 
L 1438.918269 192.122504 
L 1441.153846 175.919821 
L 1443.389423 505.374367 
L 1445.625 435.162742 
L 1450.096154 327.144858 
L 1452.331731 192.122504 
L 1454.567308 559.383308 
L 1456.802885 354.149329 
L 1459.038462 543.180626 
L 1461.274038 273.135917 
L 1463.509615 273.135917 
L 1465.745192 489.171684 
L 1467.980769 381.1538 
L 1470.216346 381.1538 
L 1472.451923 300.140387 
L 1474.6875 499.973472 
L 1476.923077 478.369896 
L 1479.158654 327.144858 
L 1481.394231 435.162742 
L 1483.629808 381.1538 
L 1485.865385 510.775261 
L 1488.100962 489.171684 
L 1490.336538 462.167213 
L 1492.572115 408.158271 
L 1494.807692 435.162742 
L 1497.043269 489.171684 
L 1499.278846 397.356483 
L 1501.514423 484.850969 
L 1503.75 508.614903 
L 1505.985577 435.162742 
L 1508.221154 605.290909 
L 1510.456731 402.757377 
L 1512.692308 435.162742 
L 1514.927885 219.126975 
L 1517.163462 111.109091 
L 1519.399038 451.365425 
L 1521.634615 354.149329 
L 1523.870192 489.171684 
L 1526.105769 489.171684 
L 1528.341346 219.126975 
L 1530.576923 219.126975 
L 1532.8125 273.135917 
L 1535.048077 300.140387 
L 1537.283654 440.563636 
L 1539.519231 300.140387 
L 1541.754808 451.365425 
L 1543.990385 559.383308 
L 1546.225962 480.530253 
L 1548.461538 435.162742 
L 1550.697115 548.58152 
L 1552.932692 300.140387 
L 1555.168269 472.969001 
L 1557.403846 462.167213 
L 1559.639423 316.34307 
L 1561.875 483.77079 
L 1564.110577 516.176155 
L 1566.346154 451.365425 
L 1568.581731 489.171684 
L 1570.817308 327.144858 
L 1573.052885 138.113562 
L 1575.288462 381.1538 
L 1577.524038 494.572578 
L 1579.759615 354.149329 
L 1581.995192 381.1538 
L 1584.230769 273.135917 
L 1586.466346 273.135917 
L 1588.701923 440.563636 
L 1590.9375 553.982414 
L 1593.173077 111.109091 
L 1595.408654 408.158271 
L 1597.644231 418.96006 
L 1599.879808 391.955589 
L 1602.115385 300.140387 
L 1604.350962 489.171684 
L 1606.586538 435.162742 
L 1608.822115 505.374367 
L 1611.057692 381.1538 
L 1613.293269 165.118033 
L 1615.528846 462.167213 
L 1617.764423 445.964531 
L 1620 478.369896 
L 1620 478.369896 
" style="fill:none;stroke:#1f77b4;stroke-linecap:square;stroke-width:1.5;"/>
   </g>
   <g id="line2d_14">
    <path clip-path="url(#p4f7a0b4d84)" d="M 225 453.945574 
L 227.235577 437.832638 
L 229.471154 336.955526 
L 231.706731 494.613205 
L 233.942308 403.288859 
L 236.177885 455.42527 
L 238.413462 416.222193 
L 240.649038 455.2368 
L 242.884615 235.291499 
L 245.120192 426.10115 
L 247.355769 426.43499 
L 249.591346 477.285082 
L 251.826923 402.546922 
L 254.0625 514.905358 
L 258.533654 249.651225 
L 260.769231 407.79666 
L 263.004808 456.073241 
L 265.240385 419.956353 
L 267.475962 428.463916 
L 269.711538 401.966608 
L 271.947115 443.156519 
L 274.182692 293.385049 
L 276.418269 275.61448 
L 278.653846 391.027598 
L 280.889423 387.455834 
L 283.125 510.074208 
L 285.360577 210.465342 
L 287.596154 249.163203 
L 289.831731 253.63499 
L 292.067308 435.584163 
L 294.302885 339.193043 
L 296.538462 186.0205 
L 298.774038 446.201493 
L 301.009615 535.976085 
L 303.245192 373.731846 
L 305.480769 312.56991 
L 307.716346 432.288246 
L 309.951923 458.47455 
L 312.1875 390.332351 
L 314.423077 523.954125 
L 316.658654 249.163203 
L 318.894231 278.374477 
L 321.129808 494.273678 
L 323.365385 542.268222 
L 325.600962 483.352264 
L 327.836538 524.911145 
L 330.072115 327.959625 
L 332.307692 395.363697 
L 334.543269 411.550504 
L 336.778846 456.219293 
L 339.014423 310.156736 
L 341.25 337.21929 
L 343.485577 374.084955 
L 345.721154 357.790788 
L 347.956731 333.700608 
L 350.192308 464.025334 
L 352.427885 451.071771 
L 354.663462 289.35714 
L 356.899038 395.070426 
L 359.134615 443.814909 
L 361.370192 336.791353 
L 363.605769 395.225213 
L 365.841346 442.971304 
L 368.076923 498.226719 
L 370.3125 496.148714 
L 372.548077 503.188676 
L 374.783654 275.61448 
L 377.019231 397.56103 
L 379.254808 356.699173 
L 381.490385 522.007898 
L 383.725962 473.005876 
L 385.961538 412.293642 
L 388.197115 339.431443 
L 390.432692 434.90095 
L 392.668269 351.981601 
L 394.903846 292.054293 
L 397.139423 474.584443 
L 399.375 412.100951 
L 401.610577 369.583942 
L 403.846154 322.375183 
L 406.081731 486.184674 
L 408.317308 496.068879 
L 410.552885 361.439516 
L 412.788462 509.558167 
L 415.024038 527.030375 
L 417.259615 291.115463 
L 419.495192 248.179958 
L 421.730769 435.280913 
L 423.966346 473.31665 
L 426.201923 497.061048 
L 428.4375 239.463946 
L 430.673077 274.293072 
L 432.908654 522.569757 
L 435.144231 325.114908 
L 437.379808 423.437669 
L 439.615385 427.751566 
L 441.850962 409.961675 
L 444.086538 344.332683 
L 446.322115 496.818933 
L 448.557692 506.468703 
L 450.793269 519.028423 
L 453.028846 538.867717 
L 455.264423 369.782311 
L 457.5 504.624986 
L 459.735577 439.342174 
L 461.971154 494.11663 
L 464.206731 348.19272 
L 466.442308 267.557016 
L 468.677885 325.988148 
L 470.913462 348.703785 
L 473.149038 520.956785 
L 475.384615 290.031442 
L 477.620192 265.144704 
L 479.855769 324.409492 
L 482.091346 352.683492 
L 484.326923 224.345068 
L 486.5625 435.265723 
L 488.798077 531.370192 
L 491.033654 355.037411 
L 493.269231 267.70693 
L 495.504808 276.357948 
L 497.740385 372.070927 
L 499.975962 354.384311 
L 502.211538 354.531836 
L 504.447115 379.607871 
L 506.682692 422.661027 
L 508.918269 498.536176 
L 511.153846 386.089099 
L 513.389423 465.048647 
L 515.625 484.438173 
L 517.860577 346.773636 
L 520.096154 494.0431 
L 522.331731 388.377646 
L 524.567308 478.071367 
L 526.802885 426.892184 
L 529.038462 261.499583 
L 531.274038 277.179489 
L 533.509615 308.57003 
L 535.745192 466.496451 
L 537.980769 420.053253 
L 540.216346 477.94491 
L 542.451923 431.32716 
L 544.6875 297.159051 
L 546.923077 489.629523 
L 549.158654 464.03481 
L 551.394231 462.455234 
L 553.629808 410.76322 
L 555.865385 384.916651 
L 558.100962 457.206329 
L 560.336538 534.325058 
L 562.572115 495.189346 
L 564.807692 253.543851 
L 567.043269 513.024881 
L 569.278846 343.918848 
L 571.514423 537.74583 
L 573.75 392.853629 
L 575.985577 255.859336 
L 578.221154 474.713483 
L 580.456731 487.827568 
L 582.692308 267.557016 
L 584.927885 458.396311 
L 587.163462 522.007898 
L 589.399038 348.748133 
L 591.634615 393.015268 
L 593.870192 255.210776 
L 596.105769 335.570821 
L 598.341346 354.298314 
L 600.576923 366.046189 
L 602.8125 282.882283 
L 605.048077 354.212489 
L 607.283654 434.506831 
L 609.519231 335.105567 
L 611.754808 456.956032 
L 613.990385 354.384311 
L 616.225962 424.705643 
L 618.461538 361.783535 
L 620.697115 477.419889 
L 622.932692 464.767936 
L 625.168269 390.241811 
L 627.403846 513.471293 
L 629.639423 493.655173 
L 631.875 479.398258 
L 634.110577 478.019122 
L 636.346154 539.694099 
L 638.581731 473.301321 
L 640.817308 520.778102 
L 643.052885 221.066914 
L 645.288462 381.098903 
L 647.524038 277.058382 
L 649.759615 293.385049 
L 651.995192 186.392012 
L 656.466346 521.708054 
L 658.701923 471.921723 
L 660.9375 393.491973 
L 663.173077 330.980577 
L 665.408654 367.981992 
L 667.644231 456.246436 
L 669.879808 440.040378 
L 672.115385 372.157958 
L 674.350962 346.510424 
L 676.586538 307.440617 
L 678.822115 425.18515 
L 681.057692 291.682269 
L 683.293269 243.103436 
L 685.528846 480.621929 
L 687.764423 224.069612 
L 690 282.612291 
L 692.235577 474.713483 
L 694.471154 514.16891 
L 696.706731 344.089803 
L 698.942308 476.915034 
L 701.177885 426.092152 
L 703.413462 483.198243 
L 705.649038 443.374365 
L 707.884615 398.013629 
L 710.120192 276.278586 
L 712.355769 465.474532 
L 714.591346 188.577699 
L 716.826923 421.859235 
L 719.0625 199.004987 
L 721.298077 415.862772 
L 723.533654 306.144327 
L 725.769231 410.76322 
L 728.004808 367.279184 
L 730.240385 520.778102 
L 732.475962 459.794961 
L 734.711538 407.229765 
L 736.947115 530.270886 
L 739.182692 471.341401 
L 741.418269 443.47201 
L 743.653846 277.058382 
L 745.889423 249.163203 
L 748.125 394.30596 
L 750.360577 482.281164 
L 752.596154 374.410704 
L 754.831731 495.189346 
L 757.067308 467.632993 
L 759.302885 459.681568 
L 761.538462 431.999962 
L 763.774038 414.489751 
L 766.009615 388.512643 
L 768.245192 291.682269 
L 770.480769 392.659649 
L 772.716346 458.041347 
L 774.951923 202.44215 
L 777.1875 413.943924 
L 779.423077 349.460231 
L 781.658654 407.685285 
L 783.894231 388.606147 
L 786.129808 491.920576 
L 788.365385 325.015721 
L 790.600962 484.488388 
L 792.836538 494.613205 
L 795.072115 464.983337 
L 797.307692 334.531809 
L 799.543269 457.13767 
L 801.778846 481.064777 
L 804.014423 248.663906 
L 806.25 493.760423 
L 808.485577 516.0537 
L 810.721154 339.142027 
L 812.956731 330.980577 
L 815.192308 541.674731 
L 817.427885 397.170999 
L 819.663462 401.516819 
L 821.899038 324.037067 
L 824.134615 477.640756 
L 826.370192 468.146719 
L 828.605769 478.944375 
L 830.841346 309.364428 
L 833.076923 379.295344 
L 835.3125 336.035584 
L 837.548077 480.370937 
L 839.783654 449.972213 
L 842.019231 356.879003 
L 844.254808 483.830981 
L 846.490385 348.253 
L 848.725962 308.475677 
L 850.961538 295.007048 
L 853.197115 500.327099 
L 855.432692 366.998451 
L 857.668269 443.004519 
L 859.903846 470.915462 
L 862.139423 440.603823 
L 864.375 295.897558 
L 866.610577 242.272357 
L 868.846154 238.963516 
L 871.081731 369.143841 
L 873.317308 400.779198 
L 875.552885 337.21929 
L 877.788462 420.709036 
L 880.024038 258.487347 
L 882.259615 333.014288 
L 884.495192 484.152349 
L 886.730769 359.15887 
L 888.966346 366.283841 
L 891.201923 403.882146 
L 893.4375 435.902073 
L 895.673077 275.763852 
L 897.908654 315.726141 
L 900.144231 457.086128 
L 902.379808 419.411577 
L 904.615385 399.305084 
L 906.850962 496.818933 
L 909.086538 207.131639 
L 911.322115 429.719599 
L 913.557692 202.33403 
L 915.793269 395.821925 
L 918.028846 517.001051 
L 920.264423 487.335723 
L 922.5 377.404829 
L 924.735577 519.622316 
L 926.971154 372.157958 
L 929.206731 299.680634 
L 931.442308 313.937425 
L 933.677885 471.01487 
L 935.913462 452.365953 
L 938.149038 514.319625 
L 940.384615 349.761867 
L 942.620192 509.603841 
L 944.855769 406.426221 
L 947.091346 259.510332 
L 949.326923 367.163414 
L 951.5625 417.726294 
L 953.798077 419.200373 
L 956.033654 348.805274 
L 958.269231 396.141326 
L 960.504808 379.374078 
L 962.740385 290.699394 
L 964.975962 314.291117 
L 967.211538 505.632331 
L 969.447115 362.131663 
L 971.682692 509.505432 
L 973.918269 430.014143 
L 976.153846 362.131663 
L 978.389423 336.401478 
L 980.625 375.383741 
L 982.860577 331.251392 
L 985.096154 476.549406 
L 987.331731 268.763874 
L 989.567308 375.958511 
L 991.802885 396.134285 
L 994.038462 454.586878 
L 996.274038 242.487331 
L 998.509615 263.967649 
L 1000.745192 471.891585 
L 1002.980769 397.960382 
L 1005.216346 503.21895 
L 1007.451923 479.255266 
L 1009.6875 478.139254 
L 1011.923077 523.880187 
L 1014.158654 325.015721 
L 1016.394231 496.814874 
L 1018.629808 373.15015 
L 1020.865385 513.438903 
L 1023.100962 276.278586 
L 1025.336538 362.018539 
L 1027.572115 295.72705 
L 1029.807692 190.87736 
L 1032.043269 357.225699 
L 1034.278846 339.245183 
L 1036.514423 416.442234 
L 1040.985577 508.734658 
L 1043.221154 438.427767 
L 1045.456731 324.391995 
L 1047.692308 478.071367 
L 1049.927885 496.792042 
L 1052.163462 500.115375 
L 1054.399038 426.201807 
L 1056.634615 280.541018 
L 1058.870192 414.341991 
L 1061.105769 425.46545 
L 1063.341346 312.661009 
L 1065.576923 436.107749 
L 1067.8125 448.246645 
L 1070.048077 361.166487 
L 1072.283654 386.690871 
L 1074.519231 321.556375 
L 1076.754808 337.382063 
L 1078.990385 465.016304 
L 1081.225962 487.905483 
L 1083.461538 256.474665 
L 1085.697115 413.253493 
L 1087.932692 397.201305 
L 1090.168269 429.067457 
L 1092.403846 272.917688 
L 1094.639423 339.727593 
L 1096.875 338.012991 
L 1099.110577 369.710378 
L 1101.346154 278.477878 
L 1103.581731 501.650191 
L 1105.817308 472.180645 
L 1108.052885 448.450415 
L 1110.288462 375.897127 
L 1112.524038 488.291368 
L 1114.759615 324.668565 
L 1116.995192 230.597229 
L 1119.230769 495.365432 
L 1121.466346 342.785391 
L 1123.701923 393.396999 
L 1125.9375 492.291711 
L 1128.173077 334.629536 
L 1130.408654 326.570676 
L 1132.644231 378.918217 
L 1134.879808 205.775392 
L 1137.115385 356.147113 
L 1139.350962 459.78914 
L 1141.586538 495.365432 
L 1143.822115 459.788513 
L 1146.057692 434.06646 
L 1148.293269 532.709935 
L 1150.528846 465.734734 
L 1152.764423 294.998625 
L 1155 324.47105 
L 1157.235577 432.839523 
L 1159.471154 451.166536 
L 1161.706731 470.530164 
L 1163.942308 375.429724 
L 1166.177885 429.57251 
L 1168.413462 469.818723 
L 1170.649038 461.580597 
L 1172.884615 414.8063 
L 1175.120192 406.176352 
L 1177.355769 475.513107 
L 1179.591346 465.550387 
L 1181.826923 474.096268 
L 1184.0625 372.068111 
L 1186.298077 367.770567 
L 1188.533654 510.127678 
L 1190.769231 316.213095 
L 1193.004808 273.722824 
L 1195.240385 460.539644 
L 1197.475962 516.275302 
L 1199.711538 389.032841 
L 1201.947115 404.060638 
L 1204.182692 459.94881 
L 1206.418269 297.159051 
L 1208.653846 312.204129 
L 1210.889423 386.867942 
L 1213.125 335.541672 
L 1217.596154 531.181949 
L 1219.831731 481.964894 
L 1222.067308 403.745456 
L 1224.302885 420.547268 
L 1226.538462 300.959864 
L 1228.774038 461.546495 
L 1231.009615 465.339772 
L 1233.245192 484.185622 
L 1235.480769 304.167519 
L 1237.716346 191.352161 
L 1239.951923 394.221209 
L 1242.1875 507.787598 
L 1244.423077 492.282374 
L 1246.658654 433.493084 
L 1248.894231 332.359751 
L 1251.129808 395.821925 
L 1253.365385 424.195439 
L 1255.600962 490.606514 
L 1257.836538 462.495191 
L 1260.072115 304.912408 
L 1262.307692 418.836655 
L 1264.543269 422.184265 
L 1266.778846 515.734383 
L 1269.014423 513.024881 
L 1271.25 444.134752 
L 1273.485577 407.206925 
L 1275.721154 272.01484 
L 1277.956731 456.573615 
L 1280.192308 411.379195 
L 1282.427885 414.830527 
L 1284.663462 427.870888 
L 1286.899038 435.584163 
L 1289.134615 409.62962 
L 1291.370192 400.854614 
L 1293.605769 382.914137 
L 1295.841346 407.65924 
L 1298.076923 396.501589 
L 1300.3125 432.656678 
L 1302.548077 509.502328 
L 1304.783654 422.010537 
L 1307.019231 286.221186 
L 1309.254808 434.268522 
L 1311.490385 381.379964 
L 1313.725962 247.116486 
L 1315.961538 383.424669 
L 1318.197115 387.425743 
L 1320.432692 465.734734 
L 1322.668269 299.993898 
L 1324.903846 468.319791 
L 1327.139423 283.790533 
L 1329.375 512.103996 
L 1331.610577 221.088925 
L 1333.846154 479.843288 
L 1336.081731 469.279685 
L 1338.317308 335.271218 
L 1340.552885 425.725775 
L 1342.788462 423.241774 
L 1345.024038 439.930148 
L 1347.259615 445.747354 
L 1349.495192 414.753524 
L 1351.730769 526.638482 
L 1353.966346 302.293792 
L 1356.201923 339.767813 
L 1358.4375 288.568797 
L 1360.673077 515.99125 
L 1362.908654 452.950095 
L 1365.144231 468.794586 
L 1367.379808 530.483288 
L 1369.615385 375.667964 
L 1371.850962 331.585217 
L 1374.086538 429.519626 
L 1376.322115 479.957981 
L 1378.557692 343.240111 
L 1380.793269 332.426146 
L 1383.028846 443.0569 
L 1385.264423 220.722093 
L 1387.5 334.66085 
L 1389.735577 365.183451 
L 1391.971154 338.172526 
L 1394.206731 435.602968 
L 1396.442308 396.074258 
L 1398.677885 375.45161 
L 1400.913462 509.315449 
L 1403.149038 289.927864 
L 1405.384615 377.008237 
L 1407.620192 197.342863 
L 1409.855769 363.069495 
L 1412.091346 359.491881 
L 1414.326923 445.265997 
L 1416.5625 395.063071 
L 1418.798077 363.516474 
L 1421.033654 300.806893 
L 1423.269231 458.034096 
L 1425.504808 492.21846 
L 1427.740385 457.509765 
L 1429.975962 408.163462 
L 1432.211538 486.041241 
L 1434.447115 517.549766 
L 1436.682692 294.849911 
L 1438.918269 345.356219 
L 1441.153846 407.469174 
L 1443.389423 484.191727 
L 1445.625 468.582687 
L 1447.860577 371.890929 
L 1450.096154 372.22997 
L 1452.331731 334.807048 
L 1454.567308 374.819879 
L 1456.802885 439.911603 
L 1459.038462 530.440829 
L 1461.274038 341.663681 
L 1463.509615 225.439691 
L 1465.745192 442.12146 
L 1467.980769 428.965491 
L 1470.216346 384.501811 
L 1472.451923 368.127335 
L 1474.6875 466.431965 
L 1476.923077 464.45858 
L 1479.158654 339.142027 
L 1481.394231 415.233102 
L 1483.629808 445.811949 
L 1485.865385 496.430782 
L 1488.100962 494.273678 
L 1490.336538 450.951641 
L 1492.572115 310.44334 
L 1494.807692 383.448971 
L 1497.043269 468.980514 
L 1499.278846 444.50419 
L 1501.514423 492.066892 
L 1503.75 491.126601 
L 1505.985577 330.980577 
L 1508.221154 390.332351 
L 1510.456731 416.863333 
L 1512.692308 456.449452 
L 1514.927885 248.30119 
L 1517.163462 259.94147 
L 1519.399038 429.330211 
L 1521.634615 277.058382 
L 1523.870192 510.077145 
L 1526.105769 465.33602 
L 1528.341346 264.111417 
L 1530.576923 338.415554 
L 1532.8125 272.01484 
L 1535.048077 270.634092 
L 1537.283654 391.806562 
L 1539.519231 345.394268 
L 1541.754808 475.766008 
L 1543.990385 494.11663 
L 1546.225962 441.799219 
L 1548.461538 422.390308 
L 1550.697115 536.136416 
L 1552.932692 328.476874 
L 1555.168269 471.921723 
L 1557.403846 410.742789 
L 1559.639423 201.98844 
L 1561.875 378.929865 
L 1564.110577 516.363252 
L 1566.346154 453.369875 
L 1568.581731 477.285082 
L 1570.817308 428.039502 
L 1573.052885 254.660301 
L 1575.288462 443.098688 
L 1577.524038 400.777 
L 1579.759615 422.000185 
L 1581.995192 344.483974 
L 1584.230769 260.911803 
L 1586.466346 329.186216 
L 1588.701923 354.000407 
L 1590.9375 503.093748 
L 1593.173077 286.617805 
L 1595.408654 393.37067 
L 1597.644231 403.315802 
L 1599.879808 423.367227 
L 1602.115385 319.657729 
L 1604.350962 468.749598 
L 1606.586538 336.074584 
L 1608.822115 470.169433 
L 1611.057692 400.208995 
L 1613.293269 263.914832 
L 1615.528846 440.573602 
L 1617.764423 411.005843 
L 1620 456.219293 
L 1620 456.219293 
" style="fill:none;stroke:#ff7f0e;stroke-linecap:square;stroke-width:1.5;"/>
   </g>
   <g id="patch_3">
    <path d="M 225 630 
L 225 86.4 
" style="fill:none;stroke:#000000;stroke-linecap:square;stroke-linejoin:miter;stroke-width:0.8;"/>
   </g>
   <g id="patch_4">
    <path d="M 1620 630 
L 1620 86.4 
" style="fill:none;stroke:#000000;stroke-linecap:square;stroke-linejoin:miter;stroke-width:0.8;"/>
   </g>
   <g id="patch_5">
    <path d="M 225 630 
L 1620 630 
" style="fill:none;stroke:#000000;stroke-linecap:square;stroke-linejoin:miter;stroke-width:0.8;"/>
   </g>
   <g id="patch_6">
    <path d="M 225 86.4 
L 1620 86.4 
" style="fill:none;stroke:#000000;stroke-linecap:square;stroke-linejoin:miter;stroke-width:0.8;"/>
   </g>
   <g id="legend_1">
    <g id="patch_7">
     <path d="M 1525.401562 625 
L 1613 625 
Q 1615 625 1615 623 
L 1615 594.64375 
Q 1615 592.64375 1613 592.64375 
L 1525.401562 592.64375 
Q 1523.401562 592.64375 1523.401562 594.64375 
L 1523.401562 623 
Q 1523.401562 625 1525.401562 625 
z
" style="fill:#ffffff;opacity:0.8;stroke:#cccccc;stroke-linejoin:miter;"/>
    </g>
    <g id="line2d_15">
     <path d="M 1527.401562 600.742188 
L 1547.401562 600.742188 
" style="fill:none;stroke:#1f77b4;stroke-linecap:square;stroke-width:1.5;"/>
    </g>
    <g id="line2d_16"/>
    <g id="text_13">
     <!-- test -->
     <defs>
      <path d="M 18.3125 70.21875 
L 18.3125 54.6875 
L 36.8125 54.6875 
L 36.8125 47.703125 
L 18.3125 47.703125 
L 18.3125 18.015625 
Q 18.3125 11.328125 20.140625 9.421875 
Q 21.96875 7.515625 27.59375 7.515625 
L 36.8125 7.515625 
L 36.8125 0 
L 27.59375 0 
Q 17.1875 0 13.234375 3.875 
Q 9.28125 7.765625 9.28125 18.015625 
L 9.28125 47.703125 
L 2.6875 47.703125 
L 2.6875 54.6875 
L 9.28125 54.6875 
L 9.28125 70.21875 
z
" id="DejaVuSans-116"/>
      <path d="M 56.203125 29.59375 
L 56.203125 25.203125 
L 14.890625 25.203125 
Q 15.484375 15.921875 20.484375 11.0625 
Q 25.484375 6.203125 34.421875 6.203125 
Q 39.59375 6.203125 44.453125 7.46875 
Q 49.3125 8.734375 54.109375 11.28125 
L 54.109375 2.78125 
Q 49.265625 0.734375 44.1875 -0.34375 
Q 39.109375 -1.421875 33.890625 -1.421875 
Q 20.796875 -1.421875 13.15625 6.1875 
Q 5.515625 13.8125 5.515625 26.8125 
Q 5.515625 40.234375 12.765625 48.109375 
Q 20.015625 56 32.328125 56 
Q 43.359375 56 49.78125 48.890625 
Q 56.203125 41.796875 56.203125 29.59375 
z
M 47.21875 32.234375 
Q 47.125 39.59375 43.09375 43.984375 
Q 39.0625 48.390625 32.421875 48.390625 
Q 24.90625 48.390625 20.390625 44.140625 
Q 15.875 39.890625 15.1875 32.171875 
z
" id="DejaVuSans-101"/>
      <path d="M 44.28125 53.078125 
L 44.28125 44.578125 
Q 40.484375 46.53125 36.375 47.5 
Q 32.28125 48.484375 27.875 48.484375 
Q 21.1875 48.484375 17.84375 46.4375 
Q 14.5 44.390625 14.5 40.28125 
Q 14.5 37.15625 16.890625 35.375 
Q 19.28125 33.59375 26.515625 31.984375 
L 29.59375 31.296875 
Q 39.15625 29.25 43.1875 25.515625 
Q 47.21875 21.78125 47.21875 15.09375 
Q 47.21875 7.46875 41.1875 3.015625 
Q 35.15625 -1.421875 24.609375 -1.421875 
Q 20.21875 -1.421875 15.453125 -0.5625 
Q 10.6875 0.296875 5.421875 2 
L 5.421875 11.28125 
Q 10.40625 8.6875 15.234375 7.390625 
Q 20.0625 6.109375 24.8125 6.109375 
Q 31.15625 6.109375 34.5625 8.28125 
Q 37.984375 10.453125 37.984375 14.40625 
Q 37.984375 18.0625 35.515625 20.015625 
Q 33.0625 21.96875 24.703125 23.78125 
L 21.578125 24.515625 
Q 13.234375 26.265625 9.515625 29.90625 
Q 5.8125 33.546875 5.8125 39.890625 
Q 5.8125 47.609375 11.28125 51.796875 
Q 16.75 56 26.8125 56 
Q 31.78125 56 36.171875 55.265625 
Q 40.578125 54.546875 44.28125 53.078125 
z
" id="DejaVuSans-115"/>
     </defs>
     <g transform="translate(1555.401562 604.242188)scale(0.1 -0.1)">
      <use xlink:href="#DejaVuSans-116"/>
      <use x="39.208984" xlink:href="#DejaVuSans-101"/>
      <use x="100.732422" xlink:href="#DejaVuSans-115"/>
      <use x="152.832031" xlink:href="#DejaVuSans-116"/>
     </g>
    </g>
    <g id="line2d_17">
     <path d="M 1527.401562 615.420313 
L 1547.401562 615.420313 
" style="fill:none;stroke:#ff7f0e;stroke-linecap:square;stroke-width:1.5;"/>
    </g>
    <g id="line2d_18"/>
    <g id="text_14">
     <!-- predictions -->
     <defs>
      <path d="M 18.109375 8.203125 
L 18.109375 -20.796875 
L 9.078125 -20.796875 
L 9.078125 54.6875 
L 18.109375 54.6875 
L 18.109375 46.390625 
Q 20.953125 51.265625 25.265625 53.625 
Q 29.59375 56 35.59375 56 
Q 45.5625 56 51.78125 48.09375 
Q 58.015625 40.1875 58.015625 27.296875 
Q 58.015625 14.40625 51.78125 6.484375 
Q 45.5625 -1.421875 35.59375 -1.421875 
Q 29.59375 -1.421875 25.265625 0.953125 
Q 20.953125 3.328125 18.109375 8.203125 
z
M 48.6875 27.296875 
Q 48.6875 37.203125 44.609375 42.84375 
Q 40.53125 48.484375 33.40625 48.484375 
Q 26.265625 48.484375 22.1875 42.84375 
Q 18.109375 37.203125 18.109375 27.296875 
Q 18.109375 17.390625 22.1875 11.75 
Q 26.265625 6.109375 33.40625 6.109375 
Q 40.53125 6.109375 44.609375 11.75 
Q 48.6875 17.390625 48.6875 27.296875 
z
" id="DejaVuSans-112"/>
      <path d="M 41.109375 46.296875 
Q 39.59375 47.171875 37.8125 47.578125 
Q 36.03125 48 33.890625 48 
Q 26.265625 48 22.1875 43.046875 
Q 18.109375 38.09375 18.109375 28.8125 
L 18.109375 0 
L 9.078125 0 
L 9.078125 54.6875 
L 18.109375 54.6875 
L 18.109375 46.1875 
Q 20.953125 51.171875 25.484375 53.578125 
Q 30.03125 56 36.53125 56 
Q 37.453125 56 38.578125 55.875 
Q 39.703125 55.765625 41.0625 55.515625 
z
" id="DejaVuSans-114"/>
      <path d="M 45.40625 46.390625 
L 45.40625 75.984375 
L 54.390625 75.984375 
L 54.390625 0 
L 45.40625 0 
L 45.40625 8.203125 
Q 42.578125 3.328125 38.25 0.953125 
Q 33.9375 -1.421875 27.875 -1.421875 
Q 17.96875 -1.421875 11.734375 6.484375 
Q 5.515625 14.40625 5.515625 27.296875 
Q 5.515625 40.1875 11.734375 48.09375 
Q 17.96875 56 27.875 56 
Q 33.9375 56 38.25 53.625 
Q 42.578125 51.265625 45.40625 46.390625 
z
M 14.796875 27.296875 
Q 14.796875 17.390625 18.875 11.75 
Q 22.953125 6.109375 30.078125 6.109375 
Q 37.203125 6.109375 41.296875 11.75 
Q 45.40625 17.390625 45.40625 27.296875 
Q 45.40625 37.203125 41.296875 42.84375 
Q 37.203125 48.484375 30.078125 48.484375 
Q 22.953125 48.484375 18.875 42.84375 
Q 14.796875 37.203125 14.796875 27.296875 
z
" id="DejaVuSans-100"/>
      <path d="M 9.421875 54.6875 
L 18.40625 54.6875 
L 18.40625 0 
L 9.421875 0 
z
M 9.421875 75.984375 
L 18.40625 75.984375 
L 18.40625 64.59375 
L 9.421875 64.59375 
z
" id="DejaVuSans-105"/>
      <path d="M 48.78125 52.59375 
L 48.78125 44.1875 
Q 44.96875 46.296875 41.140625 47.34375 
Q 37.3125 48.390625 33.40625 48.390625 
Q 24.65625 48.390625 19.8125 42.84375 
Q 14.984375 37.3125 14.984375 27.296875 
Q 14.984375 17.28125 19.8125 11.734375 
Q 24.65625 6.203125 33.40625 6.203125 
Q 37.3125 6.203125 41.140625 7.25 
Q 44.96875 8.296875 48.78125 10.40625 
L 48.78125 2.09375 
Q 45.015625 0.34375 40.984375 -0.53125 
Q 36.96875 -1.421875 32.421875 -1.421875 
Q 20.0625 -1.421875 12.78125 6.34375 
Q 5.515625 14.109375 5.515625 27.296875 
Q 5.515625 40.671875 12.859375 48.328125 
Q 20.21875 56 33.015625 56 
Q 37.15625 56 41.109375 55.140625 
Q 45.0625 54.296875 48.78125 52.59375 
z
" id="DejaVuSans-99"/>
      <path d="M 30.609375 48.390625 
Q 23.390625 48.390625 19.1875 42.75 
Q 14.984375 37.109375 14.984375 27.296875 
Q 14.984375 17.484375 19.15625 11.84375 
Q 23.34375 6.203125 30.609375 6.203125 
Q 37.796875 6.203125 41.984375 11.859375 
Q 46.1875 17.53125 46.1875 27.296875 
Q 46.1875 37.015625 41.984375 42.703125 
Q 37.796875 48.390625 30.609375 48.390625 
z
M 30.609375 56 
Q 42.328125 56 49.015625 48.375 
Q 55.71875 40.765625 55.71875 27.296875 
Q 55.71875 13.875 49.015625 6.21875 
Q 42.328125 -1.421875 30.609375 -1.421875 
Q 18.84375 -1.421875 12.171875 6.21875 
Q 5.515625 13.875 5.515625 27.296875 
Q 5.515625 40.765625 12.171875 48.375 
Q 18.84375 56 30.609375 56 
z
" id="DejaVuSans-111"/>
      <path d="M 54.890625 33.015625 
L 54.890625 0 
L 45.90625 0 
L 45.90625 32.71875 
Q 45.90625 40.484375 42.875 44.328125 
Q 39.84375 48.1875 33.796875 48.1875 
Q 26.515625 48.1875 22.3125 43.546875 
Q 18.109375 38.921875 18.109375 30.90625 
L 18.109375 0 
L 9.078125 0 
L 9.078125 54.6875 
L 18.109375 54.6875 
L 18.109375 46.1875 
Q 21.34375 51.125 25.703125 53.5625 
Q 30.078125 56 35.796875 56 
Q 45.21875 56 50.046875 50.171875 
Q 54.890625 44.34375 54.890625 33.015625 
z
" id="DejaVuSans-110"/>
     </defs>
     <g transform="translate(1555.401562 618.920313)scale(0.1 -0.1)">
      <use xlink:href="#DejaVuSans-112"/>
      <use x="63.476562" xlink:href="#DejaVuSans-114"/>
      <use x="104.558594" xlink:href="#DejaVuSans-101"/>
      <use x="166.082031" xlink:href="#DejaVuSans-100"/>
      <use x="229.558594" xlink:href="#DejaVuSans-105"/>
      <use x="257.341797" xlink:href="#DejaVuSans-99"/>
      <use x="312.322266" xlink:href="#DejaVuSans-116"/>
      <use x="351.53125" xlink:href="#DejaVuSans-105"/>
      <use x="379.314453" xlink:href="#DejaVuSans-111"/>
      <use x="440.496094" xlink:href="#DejaVuSans-110"/>
      <use x="503.875" xlink:href="#DejaVuSans-115"/>
     </g>
    </g>
   </g>
  </g>
 </g>
 <defs>
  <clipPath id="p4f7a0b4d84">
   <rect height="543.6" width="1395" x="225" y="86.4"/>
  </clipPath>
 </defs>
</svg>
