<?xml version="1.0" encoding="utf-8" standalone="no"?>
<!DOCTYPE svg PUBLIC "-//W3C//DTD SVG 1.1//EN"
  "http://www.w3.org/Graphics/SVG/1.1/DTD/svg11.dtd">
<!-- Created with matplotlib (https://matplotlib.org/) -->
<svg height="720pt" version="1.1" viewBox="0 0 1800 720" width="1800pt" xmlns="http://www.w3.org/2000/svg" xmlns:xlink="http://www.w3.org/1999/xlink">
 <defs>
  <style type="text/css">
*{stroke-linecap:butt;stroke-linejoin:round;}
  </style>
 </defs>
 <g id="figure_1">
  <g id="patch_1">
   <path d="M 0 720 
L 1800 720 
L 1800 0 
L 0 0 
z
" style="fill:#ffffff;"/>
  </g>
  <g id="axes_1">
   <g id="patch_2">
    <path d="M 225 630 
L 1620 630 
L 1620 86.4 
L 225 86.4 
z
" style="fill:#ffffff;"/>
   </g>
   <g id="matplotlib.axis_1">
    <g id="xtick_1">
     <g id="line2d_1">
      <defs>
       <path d="M 0 0 
L 0 3.5 
" id="mdb0fcab82f" style="stroke:#000000;stroke-width:0.8;"/>
      </defs>
      <g>
       <use style="stroke:#000000;stroke-width:0.8;" x="225" xlink:href="#mdb0fcab82f" y="630"/>
      </g>
     </g>
     <g id="text_1">
      <!-- 0 -->
      <defs>
       <path d="M 31.78125 66.40625 
Q 24.171875 66.40625 20.328125 58.90625 
Q 16.5 51.421875 16.5 36.375 
Q 16.5 21.390625 20.328125 13.890625 
Q 24.171875 6.390625 31.78125 6.390625 
Q 39.453125 6.390625 43.28125 13.890625 
Q 47.125 21.390625 47.125 36.375 
Q 47.125 51.421875 43.28125 58.90625 
Q 39.453125 66.40625 31.78125 66.40625 
z
M 31.78125 74.21875 
Q 44.046875 74.21875 50.515625 64.515625 
Q 56.984375 54.828125 56.984375 36.375 
Q 56.984375 17.96875 50.515625 8.265625 
Q 44.046875 -1.421875 31.78125 -1.421875 
Q 19.53125 -1.421875 13.0625 8.265625 
Q 6.59375 17.96875 6.59375 36.375 
Q 6.59375 54.828125 13.0625 64.515625 
Q 19.53125 74.21875 31.78125 74.21875 
z
" id="DejaVuSans-48"/>
      </defs>
      <g transform="translate(221.81875 644.598438)scale(0.1 -0.1)">
       <use xlink:href="#DejaVuSans-48"/>
      </g>
     </g>
    </g>
    <g id="xtick_2">
     <g id="line2d_2">
      <g>
       <use style="stroke:#000000;stroke-width:0.8;" x="393.478261" xlink:href="#mdb0fcab82f" y="630"/>
      </g>
     </g>
     <g id="text_2">
      <!-- 25 -->
      <defs>
       <path d="M 19.1875 8.296875 
L 53.609375 8.296875 
L 53.609375 0 
L 7.328125 0 
L 7.328125 8.296875 
Q 12.9375 14.109375 22.625 23.890625 
Q 32.328125 33.6875 34.8125 36.53125 
Q 39.546875 41.84375 41.421875 45.53125 
Q 43.3125 49.21875 43.3125 52.78125 
Q 43.3125 58.59375 39.234375 62.25 
Q 35.15625 65.921875 28.609375 65.921875 
Q 23.96875 65.921875 18.8125 64.3125 
Q 13.671875 62.703125 7.8125 59.421875 
L 7.8125 69.390625 
Q 13.765625 71.78125 18.9375 73 
Q 24.125 74.21875 28.421875 74.21875 
Q 39.75 74.21875 46.484375 68.546875 
Q 53.21875 62.890625 53.21875 53.421875 
Q 53.21875 48.921875 51.53125 44.890625 
Q 49.859375 40.875 45.40625 35.40625 
Q 44.1875 33.984375 37.640625 27.21875 
Q 31.109375 20.453125 19.1875 8.296875 
z
" id="DejaVuSans-50"/>
       <path d="M 10.796875 72.90625 
L 49.515625 72.90625 
L 49.515625 64.59375 
L 19.828125 64.59375 
L 19.828125 46.734375 
Q 21.96875 47.46875 24.109375 47.828125 
Q 26.265625 48.1875 28.421875 48.1875 
Q 40.625 48.1875 47.75 41.5 
Q 54.890625 34.8125 54.890625 23.390625 
Q 54.890625 11.625 47.5625 5.09375 
Q 40.234375 -1.421875 26.90625 -1.421875 
Q 22.3125 -1.421875 17.546875 -0.640625 
Q 12.796875 0.140625 7.71875 1.703125 
L 7.71875 11.625 
Q 12.109375 9.234375 16.796875 8.0625 
Q 21.484375 6.890625 26.703125 6.890625 
Q 35.15625 6.890625 40.078125 11.328125 
Q 45.015625 15.765625 45.015625 23.390625 
Q 45.015625 31 40.078125 35.4375 
Q 35.15625 39.890625 26.703125 39.890625 
Q 22.75 39.890625 18.8125 39.015625 
Q 14.890625 38.140625 10.796875 36.28125 
z
" id="DejaVuSans-53"/>
      </defs>
      <g transform="translate(387.115761 644.598438)scale(0.1 -0.1)">
       <use xlink:href="#DejaVuSans-50"/>
       <use x="63.623047" xlink:href="#DejaVuSans-53"/>
      </g>
     </g>
    </g>
    <g id="xtick_3">
     <g id="line2d_3">
      <g>
       <use style="stroke:#000000;stroke-width:0.8;" x="561.956522" xlink:href="#mdb0fcab82f" y="630"/>
      </g>
     </g>
     <g id="text_3">
      <!-- 50 -->
      <g transform="translate(555.594022 644.598438)scale(0.1 -0.1)">
       <use xlink:href="#DejaVuSans-53"/>
       <use x="63.623047" xlink:href="#DejaVuSans-48"/>
      </g>
     </g>
    </g>
    <g id="xtick_4">
     <g id="line2d_4">
      <g>
       <use style="stroke:#000000;stroke-width:0.8;" x="730.434783" xlink:href="#mdb0fcab82f" y="630"/>
      </g>
     </g>
     <g id="text_4">
      <!-- 75 -->
      <defs>
       <path d="M 8.203125 72.90625 
L 55.078125 72.90625 
L 55.078125 68.703125 
L 28.609375 0 
L 18.3125 0 
L 43.21875 64.59375 
L 8.203125 64.59375 
z
" id="DejaVuSans-55"/>
      </defs>
      <g transform="translate(724.072283 644.598438)scale(0.1 -0.1)">
       <use xlink:href="#DejaVuSans-55"/>
       <use x="63.623047" xlink:href="#DejaVuSans-53"/>
      </g>
     </g>
    </g>
    <g id="xtick_5">
     <g id="line2d_5">
      <g>
       <use style="stroke:#000000;stroke-width:0.8;" x="898.913043" xlink:href="#mdb0fcab82f" y="630"/>
      </g>
     </g>
     <g id="text_5">
      <!-- 100 -->
      <defs>
       <path d="M 12.40625 8.296875 
L 28.515625 8.296875 
L 28.515625 63.921875 
L 10.984375 60.40625 
L 10.984375 69.390625 
L 28.421875 72.90625 
L 38.28125 72.90625 
L 38.28125 8.296875 
L 54.390625 8.296875 
L 54.390625 0 
L 12.40625 0 
z
" id="DejaVuSans-49"/>
      </defs>
      <g transform="translate(889.369293 644.598438)scale(0.1 -0.1)">
       <use xlink:href="#DejaVuSans-49"/>
       <use x="63.623047" xlink:href="#DejaVuSans-48"/>
       <use x="127.246094" xlink:href="#DejaVuSans-48"/>
      </g>
     </g>
    </g>
    <g id="xtick_6">
     <g id="line2d_6">
      <g>
       <use style="stroke:#000000;stroke-width:0.8;" x="1067.391304" xlink:href="#mdb0fcab82f" y="630"/>
      </g>
     </g>
     <g id="text_6">
      <!-- 125 -->
      <g transform="translate(1057.847554 644.598438)scale(0.1 -0.1)">
       <use xlink:href="#DejaVuSans-49"/>
       <use x="63.623047" xlink:href="#DejaVuSans-50"/>
       <use x="127.246094" xlink:href="#DejaVuSans-53"/>
      </g>
     </g>
    </g>
    <g id="xtick_7">
     <g id="line2d_7">
      <g>
       <use style="stroke:#000000;stroke-width:0.8;" x="1235.869565" xlink:href="#mdb0fcab82f" y="630"/>
      </g>
     </g>
     <g id="text_7">
      <!-- 150 -->
      <g transform="translate(1226.325815 644.598438)scale(0.1 -0.1)">
       <use xlink:href="#DejaVuSans-49"/>
       <use x="63.623047" xlink:href="#DejaVuSans-53"/>
       <use x="127.246094" xlink:href="#DejaVuSans-48"/>
      </g>
     </g>
    </g>
    <g id="xtick_8">
     <g id="line2d_8">
      <g>
       <use style="stroke:#000000;stroke-width:0.8;" x="1404.347826" xlink:href="#mdb0fcab82f" y="630"/>
      </g>
     </g>
     <g id="text_8">
      <!-- 175 -->
      <g transform="translate(1394.804076 644.598438)scale(0.1 -0.1)">
       <use xlink:href="#DejaVuSans-49"/>
       <use x="63.623047" xlink:href="#DejaVuSans-55"/>
       <use x="127.246094" xlink:href="#DejaVuSans-53"/>
      </g>
     </g>
    </g>
    <g id="xtick_9">
     <g id="line2d_9">
      <g>
       <use style="stroke:#000000;stroke-width:0.8;" x="1572.826087" xlink:href="#mdb0fcab82f" y="630"/>
      </g>
     </g>
     <g id="text_9">
      <!-- 200 -->
      <g transform="translate(1563.282337 644.598438)scale(0.1 -0.1)">
       <use xlink:href="#DejaVuSans-50"/>
       <use x="63.623047" xlink:href="#DejaVuSans-48"/>
       <use x="127.246094" xlink:href="#DejaVuSans-48"/>
      </g>
     </g>
    </g>
   </g>
   <g id="matplotlib.axis_2">
    <g id="ytick_1">
     <g id="line2d_10">
      <defs>
       <path d="M 0 0 
L -3.5 0 
" id="m57ed2a25e4" style="stroke:#000000;stroke-width:0.8;"/>
      </defs>
      <g>
       <use style="stroke:#000000;stroke-width:0.8;" x="225" xlink:href="#m57ed2a25e4" y="574.404545"/>
      </g>
     </g>
     <g id="text_10">
      <!-- 500 -->
      <g transform="translate(198.9125 578.203764)scale(0.1 -0.1)">
       <use xlink:href="#DejaVuSans-53"/>
       <use x="63.623047" xlink:href="#DejaVuSans-48"/>
       <use x="127.246094" xlink:href="#DejaVuSans-48"/>
      </g>
     </g>
    </g>
    <g id="ytick_2">
     <g id="line2d_11">
      <g>
       <use style="stroke:#000000;stroke-width:0.8;" x="225" xlink:href="#m57ed2a25e4" y="497.188636"/>
      </g>
     </g>
     <g id="text_11">
      <!-- 600 -->
      <defs>
       <path d="M 33.015625 40.375 
Q 26.375 40.375 22.484375 35.828125 
Q 18.609375 31.296875 18.609375 23.390625 
Q 18.609375 15.53125 22.484375 10.953125 
Q 26.375 6.390625 33.015625 6.390625 
Q 39.65625 6.390625 43.53125 10.953125 
Q 47.40625 15.53125 47.40625 23.390625 
Q 47.40625 31.296875 43.53125 35.828125 
Q 39.65625 40.375 33.015625 40.375 
z
M 52.59375 71.296875 
L 52.59375 62.3125 
Q 48.875 64.0625 45.09375 64.984375 
Q 41.3125 65.921875 37.59375 65.921875 
Q 27.828125 65.921875 22.671875 59.328125 
Q 17.53125 52.734375 16.796875 39.40625 
Q 19.671875 43.65625 24.015625 45.921875 
Q 28.375 48.1875 33.59375 48.1875 
Q 44.578125 48.1875 50.953125 41.515625 
Q 57.328125 34.859375 57.328125 23.390625 
Q 57.328125 12.15625 50.6875 5.359375 
Q 44.046875 -1.421875 33.015625 -1.421875 
Q 20.359375 -1.421875 13.671875 8.265625 
Q 6.984375 17.96875 6.984375 36.375 
Q 6.984375 53.65625 15.1875 63.9375 
Q 23.390625 74.21875 37.203125 74.21875 
Q 40.921875 74.21875 44.703125 73.484375 
Q 48.484375 72.75 52.59375 71.296875 
z
" id="DejaVuSans-54"/>
      </defs>
      <g transform="translate(198.9125 500.987855)scale(0.1 -0.1)">
       <use xlink:href="#DejaVuSans-54"/>
       <use x="63.623047" xlink:href="#DejaVuSans-48"/>
       <use x="127.246094" xlink:href="#DejaVuSans-48"/>
      </g>
     </g>
    </g>
    <g id="ytick_3">
     <g id="line2d_12">
      <g>
       <use style="stroke:#000000;stroke-width:0.8;" x="225" xlink:href="#m57ed2a25e4" y="419.972727"/>
      </g>
     </g>
     <g id="text_12">
      <!-- 700 -->
      <g transform="translate(198.9125 423.771946)scale(0.1 -0.1)">
       <use xlink:href="#DejaVuSans-55"/>
       <use x="63.623047" xlink:href="#DejaVuSans-48"/>
       <use x="127.246094" xlink:href="#DejaVuSans-48"/>
      </g>
     </g>
    </g>
    <g id="ytick_4">
     <g id="line2d_13">
      <g>
       <use style="stroke:#000000;stroke-width:0.8;" x="225" xlink:href="#m57ed2a25e4" y="342.756818"/>
      </g>
     </g>
     <g id="text_13">
      <!-- 800 -->
      <defs>
       <path d="M 31.78125 34.625 
Q 24.75 34.625 20.71875 30.859375 
Q 16.703125 27.09375 16.703125 20.515625 
Q 16.703125 13.921875 20.71875 10.15625 
Q 24.75 6.390625 31.78125 6.390625 
Q 38.8125 6.390625 42.859375 10.171875 
Q 46.921875 13.96875 46.921875 20.515625 
Q 46.921875 27.09375 42.890625 30.859375 
Q 38.875 34.625 31.78125 34.625 
z
M 21.921875 38.8125 
Q 15.578125 40.375 12.03125 44.71875 
Q 8.5 49.078125 8.5 55.328125 
Q 8.5 64.0625 14.71875 69.140625 
Q 20.953125 74.21875 31.78125 74.21875 
Q 42.671875 74.21875 48.875 69.140625 
Q 55.078125 64.0625 55.078125 55.328125 
Q 55.078125 49.078125 51.53125 44.71875 
Q 48 40.375 41.703125 38.8125 
Q 48.828125 37.15625 52.796875 32.3125 
Q 56.78125 27.484375 56.78125 20.515625 
Q 56.78125 9.90625 50.3125 4.234375 
Q 43.84375 -1.421875 31.78125 -1.421875 
Q 19.734375 -1.421875 13.25 4.234375 
Q 6.78125 9.90625 6.78125 20.515625 
Q 6.78125 27.484375 10.78125 32.3125 
Q 14.796875 37.15625 21.921875 38.8125 
z
M 18.3125 54.390625 
Q 18.3125 48.734375 21.84375 45.5625 
Q 25.390625 42.390625 31.78125 42.390625 
Q 38.140625 42.390625 41.71875 45.5625 
Q 45.3125 48.734375 45.3125 54.390625 
Q 45.3125 60.0625 41.71875 63.234375 
Q 38.140625 66.40625 31.78125 66.40625 
Q 25.390625 66.40625 21.84375 63.234375 
Q 18.3125 60.0625 18.3125 54.390625 
z
" id="DejaVuSans-56"/>
      </defs>
      <g transform="translate(198.9125 346.556037)scale(0.1 -0.1)">
       <use xlink:href="#DejaVuSans-56"/>
       <use x="63.623047" xlink:href="#DejaVuSans-48"/>
       <use x="127.246094" xlink:href="#DejaVuSans-48"/>
      </g>
     </g>
    </g>
    <g id="ytick_5">
     <g id="line2d_14">
      <g>
       <use style="stroke:#000000;stroke-width:0.8;" x="225" xlink:href="#m57ed2a25e4" y="265.540909"/>
      </g>
     </g>
     <g id="text_14">
      <!-- 900 -->
      <defs>
       <path d="M 10.984375 1.515625 
L 10.984375 10.5 
Q 14.703125 8.734375 18.5 7.8125 
Q 22.3125 6.890625 25.984375 6.890625 
Q 35.75 6.890625 40.890625 13.453125 
Q 46.046875 20.015625 46.78125 33.40625 
Q 43.953125 29.203125 39.59375 26.953125 
Q 35.25 24.703125 29.984375 24.703125 
Q 19.046875 24.703125 12.671875 31.3125 
Q 6.296875 37.9375 6.296875 49.421875 
Q 6.296875 60.640625 12.9375 67.421875 
Q 19.578125 74.21875 30.609375 74.21875 
Q 43.265625 74.21875 49.921875 64.515625 
Q 56.59375 54.828125 56.59375 36.375 
Q 56.59375 19.140625 48.40625 8.859375 
Q 40.234375 -1.421875 26.421875 -1.421875 
Q 22.703125 -1.421875 18.890625 -0.6875 
Q 15.09375 0.046875 10.984375 1.515625 
z
M 30.609375 32.421875 
Q 37.25 32.421875 41.125 36.953125 
Q 45.015625 41.5 45.015625 49.421875 
Q 45.015625 57.28125 41.125 61.84375 
Q 37.25 66.40625 30.609375 66.40625 
Q 23.96875 66.40625 20.09375 61.84375 
Q 16.21875 57.28125 16.21875 49.421875 
Q 16.21875 41.5 20.09375 36.953125 
Q 23.96875 32.421875 30.609375 32.421875 
z
" id="DejaVuSans-57"/>
      </defs>
      <g transform="translate(198.9125 269.340128)scale(0.1 -0.1)">
       <use xlink:href="#DejaVuSans-57"/>
       <use x="63.623047" xlink:href="#DejaVuSans-48"/>
       <use x="127.246094" xlink:href="#DejaVuSans-48"/>
      </g>
     </g>
    </g>
    <g id="ytick_6">
     <g id="line2d_15">
      <g>
       <use style="stroke:#000000;stroke-width:0.8;" x="225" xlink:href="#m57ed2a25e4" y="188.325"/>
      </g>
     </g>
     <g id="text_15">
      <!-- 1000 -->
      <g transform="translate(192.55 192.124219)scale(0.1 -0.1)">
       <use xlink:href="#DejaVuSans-49"/>
       <use x="63.623047" xlink:href="#DejaVuSans-48"/>
       <use x="127.246094" xlink:href="#DejaVuSans-48"/>
       <use x="190.869141" xlink:href="#DejaVuSans-48"/>
      </g>
     </g>
    </g>
    <g id="ytick_7">
     <g id="line2d_16">
      <g>
       <use style="stroke:#000000;stroke-width:0.8;" x="225" xlink:href="#m57ed2a25e4" y="111.109091"/>
      </g>
     </g>
     <g id="text_16">
      <!-- 1100 -->
      <g transform="translate(192.55 114.90831)scale(0.1 -0.1)">
       <use xlink:href="#DejaVuSans-49"/>
       <use x="63.623047" xlink:href="#DejaVuSans-49"/>
       <use x="127.246094" xlink:href="#DejaVuSans-48"/>
       <use x="190.869141" xlink:href="#DejaVuSans-48"/>
      </g>
     </g>
    </g>
   </g>
   <g id="line2d_17">
    <path clip-path="url(#p2b840b3395)" d="M 225 111.109091 
L 231.73913 188.325 
L 238.478261 404.529545 
L 245.217391 226.932955 
L 251.956522 203.768182 
L 258.695652 342.756818 
L 265.434783 111.109091 
L 272.173913 265.540909 
L 278.913043 458.580682 
L 285.652174 188.325 
L 292.391304 188.325 
L 299.130435 111.109091 
L 305.869565 343.528977 
L 312.608696 419.972727 
L 319.347826 342.756818 
L 326.086957 280.984091 
L 332.826087 419.972727 
L 339.565217 226.932955 
L 346.304348 265.540909 
L 353.043478 466.302273 
L 359.782609 188.325 
L 366.521739 188.325 
L 373.26087 497.188636 
L 380 419.972727 
L 386.73913 304.148864 
L 400.217391 304.148864 
L 406.956522 342.756818 
L 413.695652 124.235795 
L 420.434783 497.188636 
L 427.173913 188.325 
L 433.913043 226.932955 
L 440.652174 435.415909 
L 447.391304 304.148864 
L 454.130435 535.796591 
L 460.869565 149.717045 
L 467.608696 342.756818 
L 474.347826 381.364773 
L 481.086957 304.148864 
L 487.826087 188.325 
L 494.565217 188.325 
L 501.304348 304.148864 
L 508.043478 188.325 
L 514.782609 280.984091 
L 521.521739 188.325 
L 528.26087 188.325 
L 535 404.529545 
L 541.73913 226.932955 
L 548.478261 404.529545 
L 555.217391 404.529545 
L 561.956522 528.075 
L 568.695652 304.148864 
L 575.434783 497.188636 
L 582.173913 265.540909 
L 588.913043 419.972727 
L 602.391304 265.540909 
L 609.130435 342.756818 
L 615.869565 319.592045 
L 622.608696 342.756818 
L 629.347826 265.540909 
L 636.086957 111.109091 
L 642.826087 111.109091 
L 649.565217 265.540909 
L 656.304348 574.404545 
L 663.043478 342.756818 
L 669.782609 342.756818 
L 676.521739 543.518182 
L 683.26087 111.109091 
L 690 381.364773 
L 696.73913 188.325 
L 703.478261 111.109091 
L 710.217391 188.325 
L 716.956522 551.239773 
L 723.695652 381.364773 
L 730.434783 188.325 
L 737.173913 458.580682 
L 743.913043 265.540909 
L 750.652174 188.325 
L 757.391304 381.364773 
L 764.130435 149.717045 
L 770.869565 111.109091 
L 777.608696 188.325 
L 784.347826 285.617045 
L 791.086957 265.540909 
L 797.826087 342.756818 
L 804.565217 188.325 
L 811.304348 458.580682 
L 818.043478 419.972727 
L 824.782609 481.745455 
L 831.521739 288.705682 
L 838.26087 188.325 
L 845 111.109091 
L 851.73913 226.932955 
L 858.478261 188.325 
L 865.217391 605.290909 
L 871.956522 265.540909 
L 878.695652 226.932955 
L 885.434783 111.109091 
L 892.173913 497.188636 
L 898.913043 250.097727 
L 905.652174 226.932955 
L 912.391304 226.932955 
L 919.130435 358.2 
L 925.869565 188.325 
L 932.608696 149.717045 
L 939.347826 188.325 
L 946.086957 111.109091 
L 952.826087 419.972727 
L 959.565217 551.239773 
L 966.304348 111.109091 
L 973.043478 381.364773 
L 979.782609 203.768182 
L 986.521739 188.325 
L 993.26087 188.325 
L 1000 265.540909 
L 1006.73913 419.972727 
L 1013.478261 265.540909 
L 1026.956522 342.756818 
L 1033.695652 265.540909 
L 1040.434783 219.211364 
L 1047.173913 188.325 
L 1053.913043 188.325 
L 1060.652174 516.492614 
L 1067.391304 304.148864 
L 1074.130435 373.643182 
L 1080.869565 188.325 
L 1087.608696 419.972727 
L 1094.347826 250.097727 
L 1101.086957 404.529545 
L 1107.826087 188.325 
L 1114.565217 342.756818 
L 1121.304348 188.325 
L 1128.043478 304.148864 
L 1134.782609 342.756818 
L 1141.521739 111.109091 
L 1148.26087 458.580682 
L 1155 149.717045 
L 1161.73913 265.540909 
L 1168.478261 458.580682 
L 1175.217391 304.148864 
L 1181.956522 265.540909 
L 1188.695652 265.540909 
L 1195.434783 122.691477 
L 1202.173913 497.188636 
L 1208.913043 381.364773 
L 1215.652174 342.756818 
L 1222.391304 497.188636 
L 1229.130435 342.756818 
L 1235.869565 203.768182 
L 1242.608696 111.109091 
L 1249.347826 597.569318 
L 1256.086957 528.075 
L 1262.826087 111.109091 
L 1269.565217 342.756818 
L 1276.304348 304.148864 
L 1283.043478 149.717045 
L 1289.782609 304.148864 
L 1310 188.325 
L 1316.73913 304.148864 
L 1323.478261 497.188636 
L 1330.217391 381.364773 
L 1336.956522 188.325 
L 1343.695652 458.580682 
L 1350.434783 466.302273 
L 1357.173913 265.540909 
L 1363.913043 226.932955 
L 1370.652174 342.756818 
L 1377.391304 111.109091 
L 1384.130435 273.2625 
L 1390.869565 404.529545 
L 1397.608696 419.972727 
L 1404.347826 165.160227 
L 1411.086957 497.188636 
L 1417.826087 574.404545 
L 1424.565217 304.148864 
L 1431.304348 458.580682 
L 1438.043478 404.529545 
L 1444.782609 265.540909 
L 1451.521739 188.325 
L 1458.26087 535.796591 
L 1465 149.717045 
L 1471.73913 458.580682 
L 1478.478261 111.109091 
L 1485.217391 304.148864 
L 1491.956522 265.540909 
L 1498.695652 265.540909 
L 1505.434783 458.580682 
L 1512.173913 342.756818 
L 1518.913043 381.364773 
L 1525.652174 149.717045 
L 1532.391304 304.148864 
L 1539.130435 419.972727 
L 1545.869565 226.932955 
L 1552.608696 111.109091 
L 1559.347826 497.188636 
L 1566.086957 435.415909 
L 1572.826087 481.745455 
L 1579.565217 535.796591 
L 1586.304348 342.756818 
L 1593.043478 458.580682 
L 1599.782609 419.972727 
L 1606.521739 358.2 
L 1613.26087 188.325 
L 1620 188.325 
L 1620 188.325 
" style="fill:none;stroke:#1f77b4;stroke-linecap:square;stroke-width:1.5;"/>
   </g>
   <g id="line2d_18">
    <path clip-path="url(#p2b840b3395)" d="M 225 111.109091 
L 231.73913 201.194318 
L 238.478261 425.948381 
L 245.217391 249.196875 
L 251.956522 143.958026 
L 258.695652 346.617614 
L 265.434783 144.826705 
L 278.913043 449.572159 
L 285.652174 189.611932 
L 292.391304 265.540909 
L 299.130435 240.786061 
L 305.869565 268.114773 
L 312.608696 455.749432 
L 319.347826 322.165909 
L 326.086957 269.659091 
L 332.826087 423.447443 
L 339.565217 269.144318 
L 346.304348 260.090038 
L 353.043478 337.866477 
L 359.782609 197.333523 
L 366.521739 281.820597 
L 373.26087 303.634091 
L 380 417.012784 
L 386.73913 304.148864 
L 393.478261 304.148864 
L 400.217391 309.296591 
L 406.956522 316.760795 
L 413.695652 211.624186 
L 420.434783 488.99517 
L 427.173913 282.528409 
L 433.913043 224.359091 
L 440.652174 470.549148 
L 447.391304 278.024148 
L 454.130435 293.338636 
L 460.869565 294.110795 
L 467.608696 311.921932 
L 474.347826 381.364773 
L 481.086957 201.451705 
L 487.826087 184.464205 
L 494.565217 381.107386 
L 501.304348 247.137784 
L 508.043478 238.944318 
L 514.782609 263.224432 
L 521.521739 258.848864 
L 528.26087 217.152273 
L 535 387.799432 
L 541.73913 251.384659 
L 548.478261 405.301705 
L 555.217391 365.19233 
L 561.956522 528.075 
L 568.695652 314.873295 
L 575.434783 407.103409 
L 582.173913 356.441193 
L 588.913043 404.529545 
L 595.652174 371.326705 
L 602.391304 225.646023 
L 609.130435 296.331264 
L 615.869565 219.039773 
L 622.608696 267.514205 
L 629.347826 297.199432 
L 636.086957 114.197727 
L 642.826087 244.692614 
L 649.565217 280.469318 
L 656.304348 437.475 
L 663.043478 145.513068 
L 669.782609 270.43125 
L 676.521739 482.385856 
L 683.26087 116.256818 
L 690 471.321307 
L 696.73913 270.229018 
L 703.478261 192.185795 
L 710.217391 185.751136 
L 716.956522 453.947727 
L 723.695652 175.918977 
L 730.434783 189.354545 
L 737.173913 453.432955 
L 743.913043 244.177841 
L 750.652174 184.464205 
L 757.391304 355.111364 
L 764.130435 214.578409 
L 770.869565 118.268415 
L 777.608696 184.464205 
L 784.347826 253.804091 
L 791.086957 167.734091 
L 797.826087 261.680114 
L 804.565217 197.899773 
L 811.304348 449.572159 
L 818.043478 421.002273 
L 824.782609 477.413063 
L 831.521739 238.212197 
L 838.26087 205.955966 
L 845 356.441193 
L 851.73913 426.836364 
L 858.478261 302.51875 
L 865.217391 463.985795 
L 871.956522 192.957955 
L 878.695652 214.19233 
L 885.434783 173.911364 
L 892.173913 336.30071 
L 898.913043 346.102841 
L 905.652174 230.278977 
L 912.391304 237.228409 
L 919.130435 346.102841 
L 925.869565 230.79375 
L 932.608696 242.11875 
L 939.347826 189.754924 
L 946.086957 175.584375 
L 952.826087 422.546591 
L 959.565217 546.864205 
L 966.304348 179.402273 
L 973.043478 275.321591 
L 979.782609 203.768182 
L 986.521739 178.029545 
L 993.26087 258.848864 
L 1000 254.730682 
L 1006.73913 402.727841 
L 1013.478261 167.734091 
L 1020.217391 248.810795 
L 1026.956522 217.667045 
L 1033.695652 281.498864 
L 1040.434783 403.242614 
L 1047.173913 290.507386 
L 1053.913043 187.295455 
L 1060.652174 249.883239 
L 1067.391304 309.296591 
L 1074.130435 271.074716 
L 1080.869565 199.26392 
L 1087.608696 344.815909 
L 1094.347826 224.359091 
L 1101.086957 396.164489 
L 1107.826087 193.9875 
L 1114.565217 155.765625 
L 1121.304348 188.325 
L 1128.043478 304.148864 
L 1134.782609 435.415909 
L 1141.521739 111.109091 
L 1148.26087 453.432955 
L 1155 171.183068 
L 1161.73913 280.469318 
L 1168.478261 419.972727 
L 1175.217391 357.320597 
L 1181.956522 259.10625 
L 1188.695652 364.634659 
L 1195.434783 124.879261 
L 1202.173913 423.833523 
L 1208.913043 203.510795 
L 1215.652174 277.123295 
L 1222.391304 296.312879 
L 1229.130435 296.331264 
L 1235.869565 311.613068 
L 1242.608696 119.088068 
L 1249.347826 416.498011 
L 1256.086957 528.075 
L 1262.826087 166.571562 
L 1269.565217 258.288333 
L 1276.304348 215.865341 
L 1283.043478 149.717045 
L 1289.782609 310.583523 
L 1296.521739 254.344602 
L 1303.26087 236.027273 
L 1310 252.368447 
L 1316.73913 309.296591 
L 1323.478261 271.460795 
L 1330.217391 373.257102 
L 1336.956522 258.848864 
L 1343.695652 453.432955 
L 1350.434783 337.866477 
L 1357.173913 258.660114 
L 1363.913043 218.782386 
L 1370.652174 329.8875 
L 1377.391304 111.109091 
L 1384.130435 313.929545 
L 1390.869565 406.71733 
L 1397.608696 428.98125 
L 1404.347826 340.569034 
L 1411.086957 431.297727 
L 1417.826087 358.607528 
L 1424.565217 297.525455 
L 1431.304348 413.074773 
L 1438.043478 365.19233 
L 1444.782609 254.344602 
L 1451.521739 457.937216 
L 1458.26087 546.606818 
L 1465 149.717045 
L 1471.73913 458.580682 
L 1478.478261 143.668466 
L 1485.217391 208.14375 
L 1491.956522 280.726705 
L 1498.695652 285.230966 
L 1505.434783 445.325284 
L 1512.173913 200.422159 
L 1518.913043 355.111364 
L 1525.652174 293.917756 
L 1532.391304 275.321591 
L 1539.130435 428.723864 
L 1545.869565 271.096165 
L 1552.608696 269.144318 
L 1559.347826 380.592614 
L 1566.086957 424.090909 
L 1572.826087 447.716832 
L 1579.565217 432.970739 
L 1586.304348 373.128409 
L 1593.043478 328.600568 
L 1599.782609 328.514773 
L 1606.521739 346.102841 
L 1613.26087 253.895606 
L 1620 201.580398 
L 1620 201.580398 
" style="fill:none;stroke:#ff7f0e;stroke-linecap:square;stroke-width:1.5;"/>
   </g>
   <g id="patch_3">
    <path d="M 225 630 
L 225 86.4 
" style="fill:none;stroke:#000000;stroke-linecap:square;stroke-linejoin:miter;stroke-width:0.8;"/>
   </g>
   <g id="patch_4">
    <path d="M 1620 630 
L 1620 86.4 
" style="fill:none;stroke:#000000;stroke-linecap:square;stroke-linejoin:miter;stroke-width:0.8;"/>
   </g>
   <g id="patch_5">
    <path d="M 225 630 
L 1620 630 
" style="fill:none;stroke:#000000;stroke-linecap:square;stroke-linejoin:miter;stroke-width:0.8;"/>
   </g>
   <g id="patch_6">
    <path d="M 225 86.4 
L 1620 86.4 
" style="fill:none;stroke:#000000;stroke-linecap:square;stroke-linejoin:miter;stroke-width:0.8;"/>
   </g>
   <g id="legend_1">
    <g id="patch_7">
     <path d="M 232 625 
L 329.225 625 
Q 331.225 625 331.225 623 
L 331.225 594.365625 
Q 331.225 592.365625 329.225 592.365625 
L 232 592.365625 
Q 230 592.365625 230 594.365625 
L 230 623 
Q 230 625 232 625 
z
" style="fill:#ffffff;opacity:0.8;stroke:#cccccc;stroke-linejoin:miter;"/>
    </g>
    <g id="line2d_19">
     <path d="M 234 600.464062 
L 254 600.464062 
" style="fill:none;stroke:#1f77b4;stroke-linecap:square;stroke-width:1.5;"/>
    </g>
    <g id="line2d_20"/>
    <g id="text_17">
     <!-- ground_truth -->
     <defs>
      <path d="M 45.40625 27.984375 
Q 45.40625 37.75 41.375 43.109375 
Q 37.359375 48.484375 30.078125 48.484375 
Q 22.859375 48.484375 18.828125 43.109375 
Q 14.796875 37.75 14.796875 27.984375 
Q 14.796875 18.265625 18.828125 12.890625 
Q 22.859375 7.515625 30.078125 7.515625 
Q 37.359375 7.515625 41.375 12.890625 
Q 45.40625 18.265625 45.40625 27.984375 
z
M 54.390625 6.78125 
Q 54.390625 -7.171875 48.1875 -13.984375 
Q 42 -20.796875 29.203125 -20.796875 
Q 24.46875 -20.796875 20.265625 -20.09375 
Q 16.0625 -19.390625 12.109375 -17.921875 
L 12.109375 -9.1875 
Q 16.0625 -11.328125 19.921875 -12.34375 
Q 23.78125 -13.375 27.78125 -13.375 
Q 36.625 -13.375 41.015625 -8.765625 
Q 45.40625 -4.15625 45.40625 5.171875 
L 45.40625 9.625 
Q 42.625 4.78125 38.28125 2.390625 
Q 33.9375 0 27.875 0 
Q 17.828125 0 11.671875 7.65625 
Q 5.515625 15.328125 5.515625 27.984375 
Q 5.515625 40.671875 11.671875 48.328125 
Q 17.828125 56 27.875 56 
Q 33.9375 56 38.28125 53.609375 
Q 42.625 51.21875 45.40625 46.390625 
L 45.40625 54.6875 
L 54.390625 54.6875 
z
" id="DejaVuSans-103"/>
      <path d="M 41.109375 46.296875 
Q 39.59375 47.171875 37.8125 47.578125 
Q 36.03125 48 33.890625 48 
Q 26.265625 48 22.1875 43.046875 
Q 18.109375 38.09375 18.109375 28.8125 
L 18.109375 0 
L 9.078125 0 
L 9.078125 54.6875 
L 18.109375 54.6875 
L 18.109375 46.1875 
Q 20.953125 51.171875 25.484375 53.578125 
Q 30.03125 56 36.53125 56 
Q 37.453125 56 38.578125 55.875 
Q 39.703125 55.765625 41.0625 55.515625 
z
" id="DejaVuSans-114"/>
      <path d="M 30.609375 48.390625 
Q 23.390625 48.390625 19.1875 42.75 
Q 14.984375 37.109375 14.984375 27.296875 
Q 14.984375 17.484375 19.15625 11.84375 
Q 23.34375 6.203125 30.609375 6.203125 
Q 37.796875 6.203125 41.984375 11.859375 
Q 46.1875 17.53125 46.1875 27.296875 
Q 46.1875 37.015625 41.984375 42.703125 
Q 37.796875 48.390625 30.609375 48.390625 
z
M 30.609375 56 
Q 42.328125 56 49.015625 48.375 
Q 55.71875 40.765625 55.71875 27.296875 
Q 55.71875 13.875 49.015625 6.21875 
Q 42.328125 -1.421875 30.609375 -1.421875 
Q 18.84375 -1.421875 12.171875 6.21875 
Q 5.515625 13.875 5.515625 27.296875 
Q 5.515625 40.765625 12.171875 48.375 
Q 18.84375 56 30.609375 56 
z
" id="DejaVuSans-111"/>
      <path d="M 8.5 21.578125 
L 8.5 54.6875 
L 17.484375 54.6875 
L 17.484375 21.921875 
Q 17.484375 14.15625 20.5 10.265625 
Q 23.53125 6.390625 29.59375 6.390625 
Q 36.859375 6.390625 41.078125 11.03125 
Q 45.3125 15.671875 45.3125 23.6875 
L 45.3125 54.6875 
L 54.296875 54.6875 
L 54.296875 0 
L 45.3125 0 
L 45.3125 8.40625 
Q 42.046875 3.421875 37.71875 1 
Q 33.40625 -1.421875 27.6875 -1.421875 
Q 18.265625 -1.421875 13.375 4.4375 
Q 8.5 10.296875 8.5 21.578125 
z
M 31.109375 56 
z
" id="DejaVuSans-117"/>
      <path d="M 54.890625 33.015625 
L 54.890625 0 
L 45.90625 0 
L 45.90625 32.71875 
Q 45.90625 40.484375 42.875 44.328125 
Q 39.84375 48.1875 33.796875 48.1875 
Q 26.515625 48.1875 22.3125 43.546875 
Q 18.109375 38.921875 18.109375 30.90625 
L 18.109375 0 
L 9.078125 0 
L 9.078125 54.6875 
L 18.109375 54.6875 
L 18.109375 46.1875 
Q 21.34375 51.125 25.703125 53.5625 
Q 30.078125 56 35.796875 56 
Q 45.21875 56 50.046875 50.171875 
Q 54.890625 44.34375 54.890625 33.015625 
z
" id="DejaVuSans-110"/>
      <path d="M 45.40625 46.390625 
L 45.40625 75.984375 
L 54.390625 75.984375 
L 54.390625 0 
L 45.40625 0 
L 45.40625 8.203125 
Q 42.578125 3.328125 38.25 0.953125 
Q 33.9375 -1.421875 27.875 -1.421875 
Q 17.96875 -1.421875 11.734375 6.484375 
Q 5.515625 14.40625 5.515625 27.296875 
Q 5.515625 40.1875 11.734375 48.09375 
Q 17.96875 56 27.875 56 
Q 33.9375 56 38.25 53.625 
Q 42.578125 51.265625 45.40625 46.390625 
z
M 14.796875 27.296875 
Q 14.796875 17.390625 18.875 11.75 
Q 22.953125 6.109375 30.078125 6.109375 
Q 37.203125 6.109375 41.296875 11.75 
Q 45.40625 17.390625 45.40625 27.296875 
Q 45.40625 37.203125 41.296875 42.84375 
Q 37.203125 48.484375 30.078125 48.484375 
Q 22.953125 48.484375 18.875 42.84375 
Q 14.796875 37.203125 14.796875 27.296875 
z
" id="DejaVuSans-100"/>
      <path d="M 50.984375 -16.609375 
L 50.984375 -23.578125 
L -0.984375 -23.578125 
L -0.984375 -16.609375 
z
" id="DejaVuSans-95"/>
      <path d="M 18.3125 70.21875 
L 18.3125 54.6875 
L 36.8125 54.6875 
L 36.8125 47.703125 
L 18.3125 47.703125 
L 18.3125 18.015625 
Q 18.3125 11.328125 20.140625 9.421875 
Q 21.96875 7.515625 27.59375 7.515625 
L 36.8125 7.515625 
L 36.8125 0 
L 27.59375 0 
Q 17.1875 0 13.234375 3.875 
Q 9.28125 7.765625 9.28125 18.015625 
L 9.28125 47.703125 
L 2.6875 47.703125 
L 2.6875 54.6875 
L 9.28125 54.6875 
L 9.28125 70.21875 
z
" id="DejaVuSans-116"/>
      <path d="M 54.890625 33.015625 
L 54.890625 0 
L 45.90625 0 
L 45.90625 32.71875 
Q 45.90625 40.484375 42.875 44.328125 
Q 39.84375 48.1875 33.796875 48.1875 
Q 26.515625 48.1875 22.3125 43.546875 
Q 18.109375 38.921875 18.109375 30.90625 
L 18.109375 0 
L 9.078125 0 
L 9.078125 75.984375 
L 18.109375 75.984375 
L 18.109375 46.1875 
Q 21.34375 51.125 25.703125 53.5625 
Q 30.078125 56 35.796875 56 
Q 45.21875 56 50.046875 50.171875 
Q 54.890625 44.34375 54.890625 33.015625 
z
" id="DejaVuSans-104"/>
     </defs>
     <g transform="translate(262 603.964062)scale(0.1 -0.1)">
      <use xlink:href="#DejaVuSans-103"/>
      <use x="63.476562" xlink:href="#DejaVuSans-114"/>
      <use x="104.558594" xlink:href="#DejaVuSans-111"/>
      <use x="165.740234" xlink:href="#DejaVuSans-117"/>
      <use x="229.119141" xlink:href="#DejaVuSans-110"/>
      <use x="292.498047" xlink:href="#DejaVuSans-100"/>
      <use x="355.974609" xlink:href="#DejaVuSans-95"/>
      <use x="405.974609" xlink:href="#DejaVuSans-116"/>
      <use x="445.183594" xlink:href="#DejaVuSans-114"/>
      <use x="486.296875" xlink:href="#DejaVuSans-117"/>
      <use x="549.675781" xlink:href="#DejaVuSans-116"/>
      <use x="588.884766" xlink:href="#DejaVuSans-104"/>
     </g>
    </g>
    <g id="line2d_21">
     <path d="M 234 615.420313 
L 254 615.420313 
" style="fill:none;stroke:#ff7f0e;stroke-linecap:square;stroke-width:1.5;"/>
    </g>
    <g id="line2d_22"/>
    <g id="text_18">
     <!-- predictions -->
     <defs>
      <path d="M 18.109375 8.203125 
L 18.109375 -20.796875 
L 9.078125 -20.796875 
L 9.078125 54.6875 
L 18.109375 54.6875 
L 18.109375 46.390625 
Q 20.953125 51.265625 25.265625 53.625 
Q 29.59375 56 35.59375 56 
Q 45.5625 56 51.78125 48.09375 
Q 58.015625 40.1875 58.015625 27.296875 
Q 58.015625 14.40625 51.78125 6.484375 
Q 45.5625 -1.421875 35.59375 -1.421875 
Q 29.59375 -1.421875 25.265625 0.953125 
Q 20.953125 3.328125 18.109375 8.203125 
z
M 48.6875 27.296875 
Q 48.6875 37.203125 44.609375 42.84375 
Q 40.53125 48.484375 33.40625 48.484375 
Q 26.265625 48.484375 22.1875 42.84375 
Q 18.109375 37.203125 18.109375 27.296875 
Q 18.109375 17.390625 22.1875 11.75 
Q 26.265625 6.109375 33.40625 6.109375 
Q 40.53125 6.109375 44.609375 11.75 
Q 48.6875 17.390625 48.6875 27.296875 
z
" id="DejaVuSans-112"/>
      <path d="M 56.203125 29.59375 
L 56.203125 25.203125 
L 14.890625 25.203125 
Q 15.484375 15.921875 20.484375 11.0625 
Q 25.484375 6.203125 34.421875 6.203125 
Q 39.59375 6.203125 44.453125 7.46875 
Q 49.3125 8.734375 54.109375 11.28125 
L 54.109375 2.78125 
Q 49.265625 0.734375 44.1875 -0.34375 
Q 39.109375 -1.421875 33.890625 -1.421875 
Q 20.796875 -1.421875 13.15625 6.1875 
Q 5.515625 13.8125 5.515625 26.8125 
Q 5.515625 40.234375 12.765625 48.109375 
Q 20.015625 56 32.328125 56 
Q 43.359375 56 49.78125 48.890625 
Q 56.203125 41.796875 56.203125 29.59375 
z
M 47.21875 32.234375 
Q 47.125 39.59375 43.09375 43.984375 
Q 39.0625 48.390625 32.421875 48.390625 
Q 24.90625 48.390625 20.390625 44.140625 
Q 15.875 39.890625 15.1875 32.171875 
z
" id="DejaVuSans-101"/>
      <path d="M 9.421875 54.6875 
L 18.40625 54.6875 
L 18.40625 0 
L 9.421875 0 
z
M 9.421875 75.984375 
L 18.40625 75.984375 
L 18.40625 64.59375 
L 9.421875 64.59375 
z
" id="DejaVuSans-105"/>
      <path d="M 48.78125 52.59375 
L 48.78125 44.1875 
Q 44.96875 46.296875 41.140625 47.34375 
Q 37.3125 48.390625 33.40625 48.390625 
Q 24.65625 48.390625 19.8125 42.84375 
Q 14.984375 37.3125 14.984375 27.296875 
Q 14.984375 17.28125 19.8125 11.734375 
Q 24.65625 6.203125 33.40625 6.203125 
Q 37.3125 6.203125 41.140625 7.25 
Q 44.96875 8.296875 48.78125 10.40625 
L 48.78125 2.09375 
Q 45.015625 0.34375 40.984375 -0.53125 
Q 36.96875 -1.421875 32.421875 -1.421875 
Q 20.0625 -1.421875 12.78125 6.34375 
Q 5.515625 14.109375 5.515625 27.296875 
Q 5.515625 40.671875 12.859375 48.328125 
Q 20.21875 56 33.015625 56 
Q 37.15625 56 41.109375 55.140625 
Q 45.0625 54.296875 48.78125 52.59375 
z
" id="DejaVuSans-99"/>
      <path d="M 44.28125 53.078125 
L 44.28125 44.578125 
Q 40.484375 46.53125 36.375 47.5 
Q 32.28125 48.484375 27.875 48.484375 
Q 21.1875 48.484375 17.84375 46.4375 
Q 14.5 44.390625 14.5 40.28125 
Q 14.5 37.15625 16.890625 35.375 
Q 19.28125 33.59375 26.515625 31.984375 
L 29.59375 31.296875 
Q 39.15625 29.25 43.1875 25.515625 
Q 47.21875 21.78125 47.21875 15.09375 
Q 47.21875 7.46875 41.1875 3.015625 
Q 35.15625 -1.421875 24.609375 -1.421875 
Q 20.21875 -1.421875 15.453125 -0.5625 
Q 10.6875 0.296875 5.421875 2 
L 5.421875 11.28125 
Q 10.40625 8.6875 15.234375 7.390625 
Q 20.0625 6.109375 24.8125 6.109375 
Q 31.15625 6.109375 34.5625 8.28125 
Q 37.984375 10.453125 37.984375 14.40625 
Q 37.984375 18.0625 35.515625 20.015625 
Q 33.0625 21.96875 24.703125 23.78125 
L 21.578125 24.515625 
Q 13.234375 26.265625 9.515625 29.90625 
Q 5.8125 33.546875 5.8125 39.890625 
Q 5.8125 47.609375 11.28125 51.796875 
Q 16.75 56 26.8125 56 
Q 31.78125 56 36.171875 55.265625 
Q 40.578125 54.546875 44.28125 53.078125 
z
" id="DejaVuSans-115"/>
     </defs>
     <g transform="translate(262 618.920313)scale(0.1 -0.1)">
      <use xlink:href="#DejaVuSans-112"/>
      <use x="63.476562" xlink:href="#DejaVuSans-114"/>
      <use x="104.558594" xlink:href="#DejaVuSans-101"/>
      <use x="166.082031" xlink:href="#DejaVuSans-100"/>
      <use x="229.558594" xlink:href="#DejaVuSans-105"/>
      <use x="257.341797" xlink:href="#DejaVuSans-99"/>
      <use x="312.322266" xlink:href="#DejaVuSans-116"/>
      <use x="351.53125" xlink:href="#DejaVuSans-105"/>
      <use x="379.314453" xlink:href="#DejaVuSans-111"/>
      <use x="440.496094" xlink:href="#DejaVuSans-110"/>
      <use x="503.875" xlink:href="#DejaVuSans-115"/>
     </g>
    </g>
   </g>
  </g>
 </g>
 <defs>
  <clipPath id="p2b840b3395">
   <rect height="543.6" width="1395" x="225" y="86.4"/>
  </clipPath>
 </defs>
</svg>
